0
SECTION
2
HEADER
9
$INSUNITS
70
4
9
$ACADVER
1
AC1014
9
$HANDSEED
5
FFFF
0
ENDSEC
0
SECTION
2
TABLES
0
TABLE
2
VPORT
5
8
100
AcDbSymbolTable
0
ENDTAB
0
TABLE
2
LTYPE
5
5
100
AcDbSymbolTable
0
LTYPE
5
14
100
AcDbSymbolTableRecord
100
AcDbLinetypeTableRecord
2
BYBLOCK
70
0
0
LTYPE
5
15
100
AcDbSymbolTableRecord
100
AcDbLinetypeTableRecord
2
BYLAYER
70
0
0
ENDTAB
0
TABLE
2
LAYER
5
2
100
AcDbSymbolTable
70
2
0
LAYER
5
50
100
AcDbSymbolTableRecord
100
AcDbLayerTableRecord
2
0
70
0
6
CONTINUOUS
0
ENDTAB
0
TABLE
2
STYLE
5
3
100
AcDbSymbolTable
70
1
0
STYLE
5
11
100
AcDbSymbolTableRecord
100
AcDbTextStyleTableRecord
2
STANDARD
70
0
0
ENDTAB
0
TABLE
2
VIEW
5
6
100
AcDbSymbolTable
70
0
0
ENDTAB
0
TABLE
2
UCS
5
7
100
AcDbSymbolTable
70
0
0
ENDTAB
0
TABLE
2
APPID
5
9
100
AcDbSymbolTable
70
2
0
APPID
5
12
100
AcDbSymbolTableRecord
100
AcDbRegAppTableRecord
2
ACAD
70
0
0
ENDTAB
0
TABLE
2
DIMSTYLE
5
A
100
AcDbSymbolTable
70
1
0
ENDTAB
0
TABLE
2
BLOCK_RECORD
5
1
100
AcDbSymbolTable
70
1
0
BLOCK_RECORD
5
1F
100
AcDbSymbolTableRecord
100
AcDbBlockTableRecord
2
*MODEL_SPACE
0
BLOCK_RECORD
5
1B
100
AcDbSymbolTableRecord
100
AcDbBlockTableRecord
2
*PAPER_SPACE
0
ENDTAB
0
ENDSEC
0
SECTION
2
BLOCKS
0
BLOCK
5
20
100
AcDbEntity
100
AcDbBlockBegin
2
*MODEL_SPACE
0
ENDBLK
5
21
100
AcDbEntity
100
AcDbBlockEnd
0
BLOCK
5
1C
100
AcDbEntity
100
AcDbBlockBegin
2
*PAPER_SPACE
0
ENDBLK
5
1D
100
AcDbEntity
100
AcDbBlockEnd
0
ENDSEC
0
SECTION
2
ENTITIES
0
ARC
5
100
100
AcDbEntity
8
0
100
AcDbCircle
10
-81.977013751139438
20
-6.8314290261037547
30
0
40
1.9999999999999751
210
-0
220
0
230
1
100
AcDbArc
50
0
51
90.000000000001208
0
LINE
5
101
100
AcDbEntity
8
0
100
AcDbLine
10
-79.977013751139467
20
-6.8314290261038035
30
0
11
-53.47701375113953
21
-6.8314290261038026
31
0
0
ARC
5
102
100
AcDbEntity
8
0
100
AcDbCircle
10
-53.477013751139523
20
-8.8314290261038035
30
0
40
2.0000000000000018
210
0
220
-0
230
1
100
AcDbArc
50
0
51
90.000000000000199
0
LINE
5
103
100
AcDbEntity
8
0
100
AcDbLine
10
-51.47701375113931
20
-66.666678255898276
30
0
11
-39.818569597336371
21
-70.910004905736926
31
0
0
ARC
5
104
100
AcDbEntity
8
0
100
AcDbCircle
10
-40.502609883987652
20
-72.789390147308765
30
0
40
2.0000000000000049
210
-0
220
0
230
1
100
AcDbArc
50
-19.999999999999112
51
70.00000000000172
0
LINE
5
105
100
AcDbEntity
8
0
100
AcDbLine
10
-38.623224642415821
20
-73.473430433960075
30
0
11
-42.72746636232327
21
-84.749741883389731
31
0
0
ARC
5
106
100
AcDbEntity
8
0
100
AcDbCircle
10
-44.606851603895095
20
-84.065701596738407
30
0
40
2.0000000000000129
210
0
220
0
230
1
100
AcDbArc
50
249.99999999999966
51
340.00000000000045
0
LINE
5
107
100
AcDbEntity
8
0
100
AcDbLine
10
-45.290891890546447
20
-85.945086838310232
30
0
11
-61.26566644401413
21
-80.130744401734717
31
0
0
LINE
5
108
100
AcDbEntity
8
0
100
AcDbLine
10
-61.26566644401413
20
-80.130744401734717
30
0
11
-79.977013751955553
21
-76.83142902610382
31
0
0
LINE
5
109
100
AcDbEntity
8
0
100
AcDbLine
10
-79.977013751955553
20
-76.83142902610382
30
0
11
-96.977013751139339
21
-76.831429026103933
31
0
0
ARC
5
110
100
AcDbEntity
8
0
100
AcDbCircle
10
-96.97701375113931
20
-74.831429026103933
30
0
40
2.0000000000000107
210
0
220
0
230
1
100
AcDbArc
50
180
51
269.9999999999992
0
LINE
5
111
100
AcDbEntity
8
0
100
AcDbLine
10
-98.977013751139324
20
-74.831429026103933
30
0
11
-98.977013751139467
21
-46.83142902610377
31
0
0
LINE
5
112
100
AcDbEntity
8
0
100
AcDbLine
10
-98.977013751139467
20
-46.83142902610377
30
0
11
-117.97701375113942
21
-46.831429026103891
31
0
0
LINE
5
113
100
AcDbEntity
8
0
100
AcDbLine
10
-117.97701375113942
20
-46.831429026103891
30
0
11
-117.97701375113938
21
-48.83142902610377
31
0
0
ARC
5
114
100
AcDbEntity
8
0
100
AcDbCircle
10
-119.97701375113941
20
-48.831429026103763
30
0
40
2.0000000000000284
210
-0
220
0
230
1
100
AcDbArc
50
270.0000000000004
51
360
0
LINE
5
115
100
AcDbEntity
8
0
100
AcDbLine
10
-119.9770137511394
20
-50.831429026103791
30
0
11
-136.9770137511394
21
-50.831429026103905
31
0
0
LINE
5
116
100
AcDbEntity
8
0
100
AcDbLine
10
-136.9770137511394
20
-50.831429026103905
30
0
11
-136.9770137511394
21
-54.831429026103812
31
0
0
ARC
5
117
100
AcDbEntity
8
0
100
AcDbCircle
10
-138.97701375113942
20
-54.831429026103812
30
0
40
2.0000000000000107
210
-0
220
0
230
1
100
AcDbArc
50
-89.99999999999838
51
0
0
LINE
5
118
100
AcDbEntity
8
0
100
AcDbLine
10
-138.97701375113937
20
-56.83142902610382
30
0
11
-153.97701375113934
21
-56.831429026103933
31
0
0
ARC
5
119
100
AcDbEntity
8
0
100
AcDbCircle
10
-153.97701375113937
20
-54.831429026103933
30
0
40
2.0000000000000107
210
0
220
0
230
1
100
AcDbArc
50
180
51
270.0000000000008
0
LINE
5
120
100
AcDbEntity
8
0
100
AcDbLine
10
-155.97701375113937
20
-54.831429026103955
30
0
11
-155.97701375113945
21
-40.831429026103834
31
0
0
LINE
5
121
100
AcDbEntity
8
0
100
AcDbLine
10
-155.97701375113945
20
-40.831429026103834
30
0
11
-172.9770137511394
21
-40.83142902610394
31
0
0
ARC
5
122
100
AcDbEntity
8
0
100
AcDbCircle
10
-172.9770137511394
20
-38.831429026103919
30
0
40
2.0000000000000284
210
0
220
0
230
1
100
AcDbArc
50
180
51
270
0
LINE
5
123
100
AcDbEntity
8
0
100
AcDbLine
10
-174.9770137511394
20
-38.831429026103955
30
0
11
-174.9770137511394
21
-26.831429026103937
31
0
0
ARC
5
124
100
AcDbEntity
8
0
100
AcDbCircle
10
-172.97701375113945
20
-26.831429026103919
30
0
40
2.0000000000000018
210
0
220
-0
230
1
100
AcDbArc
50
90
51
180
0
LINE
5
125
100
AcDbEntity
8
0
100
AcDbLine
10
-172.97701375113945
20
-24.831429026103919
30
0
11
-136.97701375113945
21
-24.831429026103848
31
0
0
LINE
5
126
100
AcDbEntity
8
0
100
AcDbLine
10
-136.97701375113945
20
-24.831429026103848
30
0
11
-136.97701375113951
21
-4.8314290261038817
31
0
0
ARC
5
127
100
AcDbEntity
8
0
100
AcDbCircle
10
-134.97701375113951
20
-4.8314290261038773
30
0
40
1.9999999999999929
210
0
220
-0
230
1
100
AcDbArc
50
90
51
180
0
LINE
5
128
100
AcDbEntity
8
0
100
AcDbLine
10
-134.97701375113951
20
-2.8314290261038844
30
0
11
-117.97701375113947
21
-2.8314290261038222
31
0
0
LINE
5
129
100
AcDbEntity
8
0
100
AcDbLine
10
-117.97701375113947
20
-2.8314290261038222
30
0
11
-117.97701375113948
21
-0.8314290261038515
31
0
0
ARC
5
130
100
AcDbEntity
8
0
100
AcDbCircle
10
-115.97701375113948
20
-0.83142902610385372
30
0
40
2.0000000000000084
210
0
220
-0
230
1
100
AcDbArc
50
90
51
180
0
LINE
5
131
100
AcDbEntity
8
0
100
AcDbLine
10
-115.97701375113948
20
1.1685709738961547
30
0
11
-100.97701375113949
21
1.168570973896208
31
0
0
ARC
5
132
100
AcDbEntity
8
0
100
AcDbCircle
10
-100.97701375113949
20
-0.83142902610378933
30
0
40
1.9999999999999929
210
0
220
-0
230
1
100
AcDbArc
50
0
51
90
0
LINE
5
133
100
AcDbEntity
8
0
100
AcDbLine
10
-98.977013751139509
20
-0.83142902610378533
30
0
11
-98.977013751139467
21
-4.8314290261038373
31
0
0
LINE
5
134
100
AcDbEntity
8
0
100
AcDbLine
10
-98.977013751139467
20
-4.8314290261038373
30
0
11
-81.977013751139481
21
-4.8314290261037796
31
0
0
LINE
5
135
100
AcDbEntity
8
0
100
AcDbLine
10
-51.477013751139523
20
-8.8314290261037964
30
0
11
-51.47701375113931
21
-66.666678255898276
31
0
0
ENDSEC
0
SECTION
2
OBJECTS
0
DICTIONARY
5
C
100
AcDbDictionary
3
ACAD_GROUP
350
D
3
ACAD_MLINESTYLE
350
17
0
DICTIONARY
5
D
100
AcDbDictionary
0
DICTIONARY
5
1A
330
C
100
AcDbDictionary
0
DICTIONARY
5
17
100
AcDbDictionary
0
ENDSEC
0
EOF
