0
SECTION
2
HEADER
9
$INSUNITS
70
4
9
$ACADVER
1
AC1014
9
$HANDSEED
5
FFFF
0
ENDSEC
0
SECTION
2
TABLES
0
TABLE
2
VPORT
5
8
100
AcDbSymbolTable
0
ENDTAB
0
TABLE
2
LTYPE
5
5
100
AcDbSymbolTable
0
LTYPE
5
14
100
AcDbSymbolTableRecord
100
AcDbLinetypeTableRecord
2
BYBLOCK
70
0
0
LTYPE
5
15
100
AcDbSymbolTableRecord
100
AcDbLinetypeTableRecord
2
BYLAYER
70
0
0
ENDTAB
0
TABLE
2
LAYER
5
2
100
AcDbSymbolTable
70
2
0
LAYER
5
50
100
AcDbSymbolTableRecord
100
AcDbLayerTableRecord
2
0
70
0
6
CONTINUOUS
0
ENDTAB
0
TABLE
2
STYLE
5
3
100
AcDbSymbolTable
70
1
0
STYLE
5
11
100
AcDbSymbolTableRecord
100
AcDbTextStyleTableRecord
2
STANDARD
70
0
0
ENDTAB
0
TABLE
2
VIEW
5
6
100
AcDbSymbolTable
70
0
0
ENDTAB
0
TABLE
2
UCS
5
7
100
AcDbSymbolTable
70
0
0
ENDTAB
0
TABLE
2
APPID
5
9
100
AcDbSymbolTable
70
2
0
APPID
5
12
100
AcDbSymbolTableRecord
100
AcDbRegAppTableRecord
2
ACAD
70
0
0
ENDTAB
0
TABLE
2
DIMSTYLE
5
A
100
AcDbSymbolTable
70
1
0
ENDTAB
0
TABLE
2
BLOCK_RECORD
5
1
100
AcDbSymbolTable
70
1
0
BLOCK_RECORD
5
1F
100
AcDbSymbolTableRecord
100
AcDbBlockTableRecord
2
*MODEL_SPACE
0
BLOCK_RECORD
5
1B
100
AcDbSymbolTableRecord
100
AcDbBlockTableRecord
2
*PAPER_SPACE
0
ENDTAB
0
ENDSEC
0
SECTION
2
BLOCKS
0
BLOCK
5
20
100
AcDbEntity
100
AcDbBlockBegin
2
*MODEL_SPACE
0
ENDBLK
5
21
100
AcDbEntity
100
AcDbBlockEnd
0
BLOCK
5
1C
100
AcDbEntity
100
AcDbBlockBegin
2
*PAPER_SPACE
0
ENDBLK
5
1D
100
AcDbEntity
100
AcDbBlockEnd
0
ENDSEC
0
SECTION
2
ENTITIES
0
LINE
5
100
100
AcDbEntity
8
0
100
AcDbLine
10
42.5
20
-8.9999999999999751
30
0
11
15.99999999999994
21
-9.0000000000000835
31
0
0
ARC
5
101
100
AcDbEntity
8
0
100
AcDbCircle
10
15.999999999999941
20
-11.000000000000085
30
0
40
2.0000000000000018
210
0
220
0
230
1
100
AcDbArc
50
90.000000000000057
51
180
0
LINE
5
102
100
AcDbEntity
8
0
100
AcDbLine
10
14.000000000000183
20
-68.835249229794229
30
0
11
2.3415558461967745
21
-73.078575879633462
31
0
0
ARC
5
103
100
AcDbEntity
8
0
100
AcDbCircle
10
3.0255961328482068
20
-74.957961121205258
30
0
40
2.0000000000000067
210
0
220
0
230
1
100
AcDbArc
50
110.00000000000276
51
199.99999999999994
0
LINE
5
104
100
AcDbEntity
8
0
100
AcDbLine
10
1.146210891276382
20
-75.642001407856597
30
0
11
5.2504526111845511
21
-86.91831285728783
31
0
0
ARC
5
105
100
AcDbEntity
8
0
100
AcDbCircle
10
7.1298378527563466
20
-86.234272570636548
30
0
40
1.9999999999999616
210
0
220
0
230
1
100
AcDbArc
50
199.99999999999869
51
290.00000000001216
0
LINE
5
106
100
AcDbEntity
8
0
100
AcDbLine
10
7.8138781394080663
20
-88.113657812208174
30
0
11
23.788652692871516
21
-82.299315375630869
31
0
0
LINE
5
107
100
AcDbEntity
8
0
100
AcDbLine
10
23.788652692871516
20
-82.299315375630869
30
0
11
42.500000000831562
21
-79.000000000000085
31
0
0
LINE
5
108
100
AcDbEntity
8
0
100
AcDbLine
10
42.500000000831562
20
-79.000000000000085
30
0
11
59.500000000000107
21
-79.000000000000028
31
0
0
ARC
5
109
100
AcDbEntity
8
0
100
AcDbCircle
10
59.500000000000099
20
-77.000000000000028
30
0
40
2.0000000000000018
210
-0
220
0
230
1
100
AcDbArc
50
-89.999999999999801
51
0
0
LINE
5
110
100
AcDbEntity
8
0
100
AcDbLine
10
61.500000000000099
20
-77.000000000000028
30
0
11
61.500000000000064
21
-49.000000000000114
31
0
0
LINE
5
111
100
AcDbEntity
8
0
100
AcDbLine
10
61.500000000000064
20
-49.000000000000114
30
0
11
80.5
21
-48.999999999998849
31
0
0
LINE
5
112
100
AcDbEntity
8
0
100
AcDbLine
10
80.5
20
-48.999999999998849
30
0
11
80.5
21
-50.999999999999908
31
0
0
ARC
5
113
100
AcDbEntity
8
0
100
AcDbCircle
10
82.5
20
-50.999999999999915
30
0
40
1.9999999999999929
210
0
220
0
230
1
100
AcDbArc
50
180
51
270.00000000000324
0
LINE
5
114
100
AcDbEntity
8
0
100
AcDbLine
10
82.500000000000114
20
-52.999999999999908
30
0
11
99.5
21
-52.999999999999361
31
0
0
LINE
5
115
100
AcDbEntity
8
0
100
AcDbLine
10
99.5
20
-52.999999999999361
30
0
11
99.500000000000028
21
-56.999999999999758
31
0
0
ARC
5
116
100
AcDbEntity
8
0
100
AcDbCircle
10
101.50000000000006
20
-56.999999999999716
30
0
40
2.0000000000000284
210
0
220
0
230
1
100
AcDbArc
50
180
51
270.00000000000409
0
LINE
5
117
100
AcDbEntity
8
0
100
AcDbLine
10
101.5000000000002
20
-58.999999999999744
30
0
11
116.49999999999999
21
-58.999999999999922
31
0
0
ARC
5
118
100
AcDbEntity
8
0
100
AcDbCircle
10
116.49999999999999
20
-56.999999999999893
30
0
40
2.0000000000000284
210
-0
220
0
230
1
100
AcDbArc
50
270
51
360
0
LINE
5
119
100
AcDbEntity
8
0
100
AcDbLine
10
118.50000000000001
20
-56.999999999999915
30
0
11
118.49999999999993
21
-43.000000000000121
31
0
0
LINE
5
120
100
AcDbEntity
8
0
100
AcDbLine
10
118.49999999999993
20
-43.000000000000121
30
0
11
135.5
21
-42.999999999999986
31
0
0
ARC
5
121
100
AcDbEntity
8
0
100
AcDbCircle
10
135.49999999999994
20
-40.999999999999979
30
0
40
2.0000000000000107
210
-0
220
0
230
1
100
AcDbArc
50
-89.99999999999838
51
0
0
LINE
5
122
100
AcDbEntity
8
0
100
AcDbLine
10
137.49999999999997
20
-40.999999999999979
30
0
11
137.49999999999994
21
-28.999999999999389
31
0
0
ARC
5
123
100
AcDbEntity
8
0
100
AcDbCircle
10
135.49999999999991
20
-28.9999999999994
30
0
40
2.0000000000000107
210
0
220
-0
230
1
100
AcDbArc
50
0
51
90.000000000001634
0
LINE
5
124
100
AcDbEntity
8
0
100
AcDbLine
10
135.49999999999986
20
-26.999999999999389
30
0
11
99.500000000000014
21
-27.000000000000739
31
0
0
LINE
5
125
100
AcDbEntity
8
0
100
AcDbLine
10
99.500000000000014
20
-27.000000000000739
30
0
11
99.5
21
-6.9999999999994067
31
0
0
ARC
5
126
100
AcDbEntity
8
0
100
AcDbCircle
10
97.500000000000014
20
-6.9999999999993818
30
0
40
1.9999999999999751
210
-0
220
0
230
1
100
AcDbArc
50
0
51
90.000000000004079
0
LINE
5
127
100
AcDbEntity
8
0
100
AcDbLine
10
97.499999999999872
20
-4.9999999999994067
30
0
11
80.500000000000057
21
-5.0000000000004352
31
0
0
LINE
5
128
100
AcDbEntity
8
0
100
AcDbLine
10
80.500000000000057
20
-5.0000000000004352
30
0
11
80.500000000000028
21
-2.9999999999993241
31
0
0
ARC
5
129
100
AcDbEntity
8
0
100
AcDbCircle
10
78.500000000000014
20
-2.9999999999993676
30
0
40
2.0000000000000107
210
0
220
-0
230
1
100
AcDbArc
50
0
51
90.000000000002444
0
LINE
5
130
100
AcDbEntity
8
0
100
AcDbLine
10
78.499999999999929
20
-0.99999999999935696
30
0
11
63.499999999999915
21
-1.0000000000000286
31
0
0
ARC
5
131
100
AcDbEntity
8
0
100
AcDbCircle
10
63.500000000000007
20
-3.0000000000000302
30
0
40
2.0000000000000018
210
0
220
0
230
1
100
AcDbArc
50
90.000000000002643
51
180
0
LINE
5
132
100
AcDbEntity
8
0
100
AcDbLine
10
61.5
20
-3.000000000000048
30
0
11
61.500000000000043
21
-6.9999999994913242
31
0
0
LINE
5
133
100
AcDbEntity
8
0
100
AcDbLine
10
61.500000000000043
20
-6.9999999994913242
30
0
11
44.499999999999993
21
-7.0000000000000542
31
0
0
ARC
5
134
100
AcDbEntity
8
0
100
AcDbCircle
10
44.5
20
-8.9999999261337411
30
0
40
1.9999999261336865
210
0
220
0
230
1
100
AcDbArc
50
90.000000000000199
51
179.9999979086902
0
LINE
5
135
100
AcDbEntity
8
0
100
AcDbLine
10
13.99999999999994
20
-11.000000000000092
30
0
11
14.000000000000183
21
-68.835249229794229
31
0
0
LINE
5
136
100
AcDbEntity
8
0
100
AcDbLine
10
23.645949410294676
20
-67.093078636321351
30
0
11
26.077023897631598
21
-80.880387178491603
31
0
0
LINE
5
137
100
AcDbEntity
8
0
100
AcDbLine
10
21.097400997476697
20
-82.214673113197449
30
0
11
16.309118990918282
21
-69.058976422197162
31
0
0
LINE
5
138
100
AcDbEntity
8
0
100
AcDbLine
10
25.092216144617897
20
-81.054035356149981
30
0
11
40.849140192837332
21
-78.275664513615965
31
0
0
LINE
5
139
100
AcDbEntity
8
0
100
AcDbLine
10
7.0020116856890846
20
-87.344975263085288
30
0
11
22.037093618262528
21
-81.872652969871609
31
0
0
ENDSEC
0
SECTION
2
OBJECTS
0
DICTIONARY
5
C
100
AcDbDictionary
3
ACAD_GROUP
350
D
3
ACAD_MLINESTYLE
350
17
0
DICTIONARY
5
D
100
AcDbDictionary
0
DICTIONARY
5
1A
330
C
100
AcDbDictionary
0
DICTIONARY
5
17
100
AcDbDictionary
0
ENDSEC
0
EOF
