  0
SECTION
  2
HEADER
  9
$ANGBASE
  50
0.0
  9
$ANGDIR
  70
1
  9
$MEASUREMENT
  70
1
  0
ENDSEC
  0
SECTION
  2
TABLES
  0
TABLE
  2
LTYPE
  70
4
  0
LTYPE
  5
40F
  2
CONTINUOUS
  70
0
  3
Solid line
  72
65
  73
0
  40
0.0
  0
LTYPE
  5
410
  2
DASHDOT
 70
0
  3
Dash Dot ____ _ ____ _
 72
65
 73
4
 40
2.0
 49
1.25
 49
-0.25
 49
0.25
 49
-0.25
  0
LTYPE
  5
411
  2
DASHED
 70
0
  3
Dashed __ __ __ __ __
 72
65
 73
2
 40
0.75
 49
0.5
 49
-0.25
  0
LTYPE
  5
43B
  2
DOTTED
 70
0
  3
Dotted .  .  .  .
 72
65
 73
2
 40
0.2
 49
0.0
 49
-0.2
  0
ENDTAB
  0
TABLE
  2
STYLE
  70
4
  0
STYLE
  2
KICAD
  70
0
  40
0
  41
1
  42
1
  50
0
  71
0
  3
isocp.shx
  0
STYLE
  2
KICADB
  70
0
  40
0
  41
1
  42
1
  50
0
  71
0
  3
isocp.shx
  0
STYLE
  2
KICADI
  70
0
  40
0
  41
1
  42
1
  50
15
  71
0
  3
isocp.shx
  0
STYLE
  2
KICADBI
  70
0
  40
0
  41
1
  42
1
  50
15
  71
0
  3
isocp.shx
  0
ENDTAB
  0
TABLE
  2
LAYER
  70
1
  0
LAYER
  2
BLACK
  70
0
  62
7
  6
CONTINUOUS
  0
ENDTAB
  0
ENDSEC
  0
SECTION
  2
ENTITIES
0
LINE
8
BLACK
6
CONTINUOUS
10
10.
20
-69.2911299999999954
11
2.3416239999999999
21
-72.0785509999999903
0
LINE
8
BLACK
6
CONTINUOUS
10
-78.5
20
-52.
11
-95.5
21
-52.
0
ARC
8
BLACK
10
-7.1297999999999995
20
-85.2342999999999904
40
1.9999549877997254
50
-110.00137274
51
-19.99957649
0
LINE
8
BLACK
6
CONTINUOUS
10
-61.5
20
-48.
11
-76.5
21
-48.
0
LINE
8
BLACK
6
CONTINUOUS
10
-76.5
20
-4.
11
-76.5
21
-2.
0
LINE
8
BLACK
6
CONTINUOUS
10
57.5
20
-2.
11
57.5
21
-6.
0
LINE
8
BLACK
6
CONTINUOUS
10
114.5
20
-56.
11
114.5
21
-42.
0
LINE
8
BLACK
6
CONTINUOUS
10
95.5
20
-52.
11
95.5
21
-56.
0
LINE
8
BLACK
6
CONTINUOUS
10
-57.5
20
-2.
11
-57.5
21
-6.
0
LINE
8
BLACK
6
CONTINUOUS
10
-133.5
20
-40.
11
-133.5
21
-28.
0
ARC
8
BLACK
10
-59.5
20
-2.
40
2.
50
0.00000000
51
90.00000000
0
LINE
8
BLACK
6
CONTINUOUS
10
10.
20
-46.
11
7.
21
-46.
0
LINE
8
BLACK
6
CONTINUOUS
10
131.5
20
-26.
11
95.5
21
-26.
0
LINE
8
BLACK
6
CONTINUOUS
10
114.5
20
-42.
11
131.5
21
-42.
0
LINE
8
BLACK
6
CONTINUOUS
10
10.
20
-21.
11
10.
21
-10.
0
LINE
8
BLACK
6
CONTINUOUS
10
10.
20
-23.
11
10.
21
-46.
0
ARC
8
BLACK
10
3.0257000000000001
20
-73.9579999999999984
40
2.0000841712777988
50
-249.99966332
51
-159.99997180
0
ARC
8
BLACK
10
12.
20
-10.
40
2.
50
90.00000000
51
180.00000000
0
LINE
8
BLACK
6
CONTINUOUS
10
78.5
20
-52.
11
95.5
21
-52.
0
LINE
8
BLACK
6
CONTINUOUS
10
10.
20
-48.
11
10.
21
-69.2911299999999954
0
ARC
8
BLACK
10
97.5
20
-56.
40
2.
50
-180.00000000
51
-90.00000000
0
LINE
8
BLACK
6
CONTINUOUS
10
-114.5
20
-56.
11
-114.5
21
-42.
0
LINE
8
BLACK
6
CONTINUOUS
10
97.5
20
-58.
11
112.5
21
-58.
0
ARC
8
BLACK
10
-131.5
20
-40.
40
2.
50
-180.00000000
51
-90.00000000
0
LINE
8
BLACK
6
CONTINUOUS
10
-61.5
20
-76.
11
-61.5
21
-48.
0
LINE
8
BLACK
6
CONTINUOUS
10
95.5
20
-26.
11
95.5
21
-6.
0
ARC
8
BLACK
10
-40.5
20
-8.
40
2.
50
0.00000000
51
90.00000000
0
LINE
8
BLACK
6
CONTINUOUS
10
10.
20
-21.
11
7.
21
-21.
0
ARC
8
BLACK
10
-12.
20
-10.
40
2.
50
0.00000000
51
90.00000000
0
ARC
8
BLACK
10
-3.0257000000000001
20
-73.9579999999999984
40
2.000072128043636
50
-20.00000128
51
69.99966332
0
ARC
8
BLACK
10
74.5
20
-2.
40
2.
50
0.00000000
51
90.00000000
0
LINE
8
BLACK
6
CONTINUOUS
10
-10.
20
-23.
11
-10.
21
-46.
0
LINE
8
BLACK
6
CONTINUOUS
10
10.
20
-23.
11
7.
21
-23.
0
LINE
8
BLACK
6
CONTINUOUS
10
93.5
20
-4.
11
76.5
21
-4.
0
LINE
8
BLACK
6
CONTINUOUS
10
-74.5
20
0.
11
-59.5
21
0.
0
LINE
8
BLACK
6
CONTINUOUS
10
-114.5
20
-42.
11
-131.5
21
-42.
0
LINE
8
BLACK
6
CONTINUOUS
10
7.8138809999999994
20
-87.1136569999999892
11
23.788653
21
-81.2993149999999929
0
LINE
8
BLACK
6
CONTINUOUS
10
-38.5
20
-8.
11
-12.
21
-8.
0
LINE
8
BLACK
6
CONTINUOUS
10
-10.
20
-10.
11
-10.
21
-21.
0
LINE
8
BLACK
6
CONTINUOUS
10
-76.5
20
-48.
11
-76.5
21
-50.
0
LINE
8
BLACK
6
CONTINUOUS
10
-10.
20
-69.2911299999999954
11
-2.3416239999999999
21
-72.0785509999999903
0
LINE
8
BLACK
6
CONTINUOUS
10
-10.
20
-48.
11
7.
21
-48.
0
LINE
8
BLACK
6
CONTINUOUS
10
76.5
20
-48.
11
76.5
21
-50.
0
ARC
8
BLACK
10
-93.5
20
-6.
40
2.
50
90.00000000
51
180.00000000
0
ARC
8
BLACK
10
7.1297999999999995
20
-85.2342999999999904
40
1.9999873869627278
50
-160.00042351
51
-69.99862726
0
LINE
8
BLACK
6
CONTINUOUS
10
-7.8138809999999994
20
-87.1136569999999892
11
-23.788653
21
-81.2993149999999929
0
LINE
8
BLACK
6
CONTINUOUS
10
-23.788653
20
-81.2993149999999929
11
-42.5
21
-78.
0
ARC
8
BLACK
10
-74.5
20
-2.
40
2.
50
90.00000000
51
180.00000000
0
LINE
8
BLACK
6
CONTINUOUS
10
-10.
20
-48.
11
-10.
21
-69.2911299999999954
0
ARC
8
BLACK
10
-59.5
20
-76.
40
2.
50
-180.00000000
51
-90.00000000
0
LINE
8
BLACK
6
CONTINUOUS
10
-131.5
20
-26.
11
-95.5
21
-26.
0
LINE
8
BLACK
6
CONTINUOUS
10
74.5
20
0.
11
59.5
21
0.
0
LINE
8
BLACK
6
CONTINUOUS
10
76.5
20
-4.
11
76.5
21
-2.
0
ARC
8
BLACK
10
112.5
20
-56.
40
2.
50
-90.00000000
51
-0.00000000
0
LINE
8
BLACK
6
CONTINUOUS
10
61.5
20
-76.
11
61.5
21
-48.
0
ARC
8
BLACK
10
131.5
20
-40.
40
2.
50
-90.00000000
51
-0.00000000
0
LINE
8
BLACK
6
CONTINUOUS
10
42.5
20
-78.
11
59.5
21
-78.
0
LINE
8
BLACK
6
CONTINUOUS
10
-10.
20
-23.
11
7.
21
-23.
0
LINE
8
BLACK
6
CONTINUOUS
10
-10.
20
-21.
11
7.
21
-21.
0
LINE
8
BLACK
6
CONTINUOUS
10
61.5
20
-48.
11
76.5
21
-48.
0
LINE
8
BLACK
6
CONTINUOUS
10
1.146236
20
-74.6420699999999897
11
5.2504520000000001
21
-85.9183110000000028
0
ARC
8
BLACK
10
131.5
20
-28.
40
2.
50
0.00000000
51
90.00000000
0
LINE
8
BLACK
6
CONTINUOUS
10
-42.5
20
-78.
11
-59.5
21
-78.
0
ARC
8
BLACK
10
59.5
20
-2.
40
2.
50
90.00000000
51
180.00000000
0
LINE
8
BLACK
6
CONTINUOUS
10
-95.5
20
-26.
11
-95.5
21
-6.
0
ARC
8
BLACK
10
93.5
20
-6.
40
2.
50
0.00000000
51
90.00000000
0
LINE
8
BLACK
6
CONTINUOUS
10
-93.5
20
-4.
11
-76.5
21
-4.
0
ARC
8
BLACK
10
-78.5
20
-50.
40
2.
50
-90.00000000
51
-0.00000000
0
LINE
8
BLACK
6
CONTINUOUS
10
-57.5
20
-6.
11
-40.5
21
-6.
0
ARC
8
BLACK
10
-97.5
20
-56.
40
2.
50
-90.00000000
51
-0.00000000
0
LINE
8
BLACK
6
CONTINUOUS
10
38.5
20
-8.
11
12.
21
-8.
0
LINE
8
BLACK
6
CONTINUOUS
10
133.5
20
-40.
11
133.5
21
-28.
0
ARC
8
BLACK
10
-112.5
20
-56.
40
2.
50
-180.00000000
51
-90.00000000
0
LINE
8
BLACK
6
CONTINUOUS
10
-1.146236
20
-74.6420689999999922
11
-5.2504520000000001
21
-85.9183110000000028
0
LINE
8
BLACK
6
CONTINUOUS
10
-97.5
20
-58.
11
-112.5
21
-58.
0
ARC
8
BLACK
10
59.5
20
-76.
40
2.
50
-90.00000000
51
-0.00000000
0
LINE
8
BLACK
6
CONTINUOUS
10
-95.5
20
-52.
11
-95.5
21
-56.
0
LINE
8
BLACK
6
CONTINUOUS
10
57.5
20
-6.
11
40.5
21
-6.
0
ARC
8
BLACK
10
-131.5
20
-28.
40
2.
50
90.00000000
51
180.00000000
0
ARC
8
BLACK
10
40.5
20
-8.
40
2.
50
90.00000000
51
180.00000000
0
LINE
8
BLACK
6
CONTINUOUS
10
-10.
20
-46.
11
7.
21
-46.
0
LINE
8
BLACK
6
CONTINUOUS
10
10.
20
-48.
11
7.
21
-48.
0
LINE
8
BLACK
6
CONTINUOUS
10
23.788653
20
-81.2993149999999929
11
42.5
21
-78.
0
ARC
8
BLACK
10
78.5
20
-50.
40
2.
50
-180.00000000
51
-90.00000000
0
LINE
8
BLACK
6
CONTINUOUS
10
-41.8678719999999984
20
-72.4617860000000036
11
-42.5277349999999998
21
-76.2040559999999942
0
LINE
8
BLACK
6
CONTINUOUS
10
-42.5277349999999998
20
-76.2040559999999942
11
-40.5581189999999978
21
-76.5513519999999943
0
LINE
8
BLACK
6
CONTINUOUS
10
-39.6898780000000002
20
-71.6273139999999984
11
-39.8982559999999964
21
-72.8090830000000011
0
LINE
8
BLACK
6
CONTINUOUS
10
-39.8982559999999964
20
-72.8090830000000011
11
-41.8678719999999984
21
-72.4617860000000036
0
LINE
8
BLACK
6
CONTINUOUS
10
-40.5581189999999978
20
-76.5513519999999943
11
-40.7317669999999978
21
-77.5361599999999953
0
LINE
8
BLACK
6
CONTINUOUS
10
-40.7317669999999978
20
-77.5361599999999953
11
-36.9894979999999975
21
-78.1960229999999967
0
LINE
8
BLACK
6
CONTINUOUS
10
-38.2012500000000017
20
-70.6712869999999924
11
-38.4096279999999979
21
-71.8530559999999952
0
LINE
8
BLACK
6
CONTINUOUS
10
-38.4096279999999979
20
-71.8530559999999952
11
-39.6898780000000002
21
-71.6273139999999984
0
LINE
8
BLACK
6
CONTINUOUS
10
-35.8377119999999962
20
-71.0880420000000015
11
-34.3605000000000018
21
-71.3485149999999919
0
LINE
8
BLACK
6
CONTINUOUS
10
-36.0161060000000006
20
-79.5861699999999956
11
-36.9894979999999975
21
-78.1960229999999967
0
LINE
8
BLACK
6
CONTINUOUS
10
-36.0161060000000006
20
-79.5861699999999956
11
-27.9406829999999999
21
-81.0100849999999895
0
LINE
8
BLACK
6
CONTINUOUS
10
-29.2394999999999996
20
-72.2514850000000024
11
-27.7622879999999981
21
-72.5119579999999928
0
LINE
8
BLACK
6
CONTINUOUS
10
-27.7323050000000002
20
-79.8283160000000009
11
-25.7626899999999992
21
-80.175612000000001
0
LINE
8
BLACK
6
CONTINUOUS
10
-27.9406829999999999
20
-81.0100849999999895
11
-27.7323050000000002
21
-79.8283160000000009
0
LINE
8
BLACK
6
CONTINUOUS
10
-25.5897629999999978
20
-74.0120019999999954
11
-25.3987499999999997
21
-72.9287130000000019
0
LINE
8
BLACK
6
CONTINUOUS
10
-25.22438
20
-77.1227080000000029
11
-23.6486879999999999
21
-77.4005449999999939
0
LINE
8
BLACK
6
CONTINUOUS
10
-25.7626899999999992
20
-80.175612000000001
11
-25.22438
21
-77.1227080000000029
0
LINE
8
BLACK
6
CONTINUOUS
10
-23.1277429999999988
20
-74.4461220000000026
11
-25.5897629999999978
21
-74.0120019999999954
0
LINE
8
BLACK
6
CONTINUOUS
10
-23.6486879999999999
20
-77.4005449999999939
11
-23.1277429999999988
21
-74.4461220000000026
0
CIRCLE
8
BLACK
10
-37.019480999999999
20
-70.8796650000000028
40
1.2
0
CIRCLE
8
BLACK
10
-31.7999999999999972
20
-71.7999999999999972
40
2.6000000000000001
0
CIRCLE
8
BLACK
10
-26.5805189999999989
20
-72.7203349999999915
40
1.2
0
LINE
8
BLACK
6
CONTINUOUS
10
3.8118609999999999
20
-82.6070599999999899
11
5.1115369999999993
21
-86.1778919999999999
0
LINE
8
BLACK
6
CONTINUOUS
10
5.1115369999999993
20
-86.1778919999999999
11
6.9909219999999994
21
-85.4938509999999923
0
LINE
8
BLACK
6
CONTINUOUS
10
5.2808219999999997
20
-80.7953880000000026
11
5.6912459999999996
21
-81.9230189999999965
0
LINE
8
BLACK
6
CONTINUOUS
10
5.6912459999999996
20
-81.9230189999999965
11
3.8118609999999999
21
-82.6070599999999899
0
LINE
8
BLACK
6
CONTINUOUS
10
6.9909219999999994
20
-85.4938509999999923
11
7.3329429999999993
21
-86.4335439999999977
0
LINE
8
BLACK
6
CONTINUOUS
10
7.3329429999999993
20
-86.4335439999999977
11
10.9037749999999996
21
-85.1338669999999951
0
LINE
8
BLACK
6
CONTINUOUS
10
6.0919979999999994
20
-79.2231309999999951
11
6.5024220000000001
21
-80.3507620000000031
0
LINE
8
BLACK
6
CONTINUOUS
10
6.5024220000000001
20
-80.3507620000000031
11
5.2808219999999997
21
-80.7953880000000026
0
LINE
8
BLACK
6
CONTINUOUS
10
8.3472600000000003
20
-78.4022829999999971
11
9.7567989999999991
21
-77.889251999999999
0
LINE
8
BLACK
6
CONTINUOUS
10
12.4418299999999995
20
-85.851073999999997
11
10.9037749999999996
21
-85.1338669999999951
0
LINE
8
BLACK
6
CONTINUOUS
10
12.4418299999999995
20
-85.851073999999997
11
20.1473089999999999
21
-83.0465090000000004
0
LINE
8
BLACK
6
CONTINUOUS
10
14.6432009999999995
20
-76.110748000000001
11
16.05274
21
-75.5977170000000029
0
LINE
8
BLACK
6
CONTINUOUS
10
19.7368849999999973
20
-81.9188779999999923
11
21.6162700000000001
21
-81.2348379999999963
0
LINE
8
BLACK
6
CONTINUOUS
10
20.1473089999999999
20
-83.0465090000000004
11
19.7368849999999973
21
-81.9188779999999923
0
LINE
8
BLACK
6
CONTINUOUS
10
18.6842240000000004
20
-75.8105309999999974
11
18.3080019999999983
21
-74.7768689999999907
0
LINE
8
BLACK
6
CONTINUOUS
10
20.5560079999999985
20
-78.3217909999999904
11
22.0595159999999986
21
-77.774557999999999
0
LINE
8
BLACK
6
CONTINUOUS
10
21.6162700000000001
20
-81.2348379999999963
11
20.5560079999999985
21
-78.3217909999999904
0
LINE
8
BLACK
6
CONTINUOUS
10
21.0334559999999975
20
-74.9554809999999918
11
18.6842240000000004
21
-75.8105309999999974
0
LINE
8
BLACK
6
CONTINUOUS
10
22.0595159999999986
20
-77.774557999999999
11
21.0334559999999975
21
-74.9554809999999918
0
CIRCLE
8
BLACK
10
7.2196289999999994
20
-78.8127070000000032
40
1.2
0
CIRCLE
8
BLACK
10
12.1999999999999993
20
-77.
40
2.6000000000000001
0
CIRCLE
8
BLACK
10
17.1803710000000009
20
-75.1872929999999968
40
1.2
0
LINE
8
BLACK
6
CONTINUOUS
10
-61.7999999999999972
20
-72.3999999999999915
11
-61.7999999999999972
21
-76.2000000000000028
0
LINE
8
BLACK
6
CONTINUOUS
10
-61.7999999999999972
20
-76.2000000000000028
11
-59.7999999999999972
21
-76.2000000000000028
0
LINE
8
BLACK
6
CONTINUOUS
10
-59.7999999999999972
20
-71.2000000000000028
11
-59.7999999999999972
21
-72.3999999999999915
0
LINE
8
BLACK
6
CONTINUOUS
10
-59.7999999999999972
20
-72.3999999999999915
11
-61.7999999999999972
21
-72.3999999999999915
0
LINE
8
BLACK
6
CONTINUOUS
10
-59.7999999999999972
20
-76.2000000000000028
11
-59.7999999999999972
21
-77.2000000000000028
0
LINE
8
BLACK
6
CONTINUOUS
10
-59.7999999999999972
20
-77.2000000000000028
11
-56.
21
-77.2000000000000028
0
LINE
8
BLACK
6
CONTINUOUS
10
-58.5
20
-70.
11
-58.5
21
-71.2000000000000028
0
LINE
8
BLACK
6
CONTINUOUS
10
-58.5
20
-71.2000000000000028
11
-59.7999999999999972
21
-71.2000000000000028
0
LINE
8
BLACK
6
CONTINUOUS
10
-56.0999999999999943
20
-70.
11
-54.5999999999999943
21
-70.
0
LINE
8
BLACK
6
CONTINUOUS
10
-54.7999999999999972
20
-78.3999999999999915
11
-56.
21
-77.2000000000000028
0
LINE
8
BLACK
6
CONTINUOUS
10
-54.7999999999999972
20
-78.3999999999999915
11
-46.6000000000000014
21
-78.3999999999999915
0
LINE
8
BLACK
6
CONTINUOUS
10
-49.3999999999999986
20
-70.
11
-47.8999999999999986
21
-70.
0
LINE
8
BLACK
6
CONTINUOUS
10
-46.6000000000000014
20
-77.2000000000000028
11
-44.6000000000000014
21
-77.2000000000000028
0
LINE
8
BLACK
6
CONTINUOUS
10
-46.6000000000000014
20
-78.3999999999999915
11
-46.6000000000000014
21
-77.2000000000000028
0
LINE
8
BLACK
6
CONTINUOUS
10
-45.5
20
-71.0999999999999943
11
-45.5
21
-70.
0
LINE
8
BLACK
6
CONTINUOUS
10
-44.6000000000000014
20
-74.0999999999999943
11
-43.
21
-74.0999999999999943
0
LINE
8
BLACK
6
CONTINUOUS
10
-44.6000000000000014
20
-77.2000000000000028
11
-44.6000000000000014
21
-74.0999999999999943
0
LINE
8
BLACK
6
CONTINUOUS
10
-43.
20
-71.0999999999999943
11
-45.5
21
-71.0999999999999943
0
LINE
8
BLACK
6
CONTINUOUS
10
-43.
20
-74.0999999999999943
11
-43.
21
-71.0999999999999943
0
CIRCLE
8
BLACK
10
-57.2999999999999972
20
-70.
40
1.2
0
CIRCLE
8
BLACK
10
-52.
20
-70.
40
2.6000000000000001
0
CIRCLE
8
BLACK
10
-46.6999999999999957
20
-70.
40
1.2
0
LINE
8
BLACK
6
CONTINUOUS
10
-22.2298359999999988
20
-75.9034649999999971
11
-23.5295129999999979
21
-79.4742969999999929
0
LINE
8
BLACK
6
CONTINUOUS
10
-23.5295129999999979
20
-79.4742969999999929
11
-21.6501269999999977
21
-80.1583370000000031
0
LINE
8
BLACK
6
CONTINUOUS
10
-19.9400270000000006
20
-75.4598739999999992
11
-20.3504509999999996
21
-76.5875049999999931
0
LINE
8
BLACK
6
CONTINUOUS
10
-20.3504509999999996
20
-76.5875049999999931
11
-22.2298359999999988
21
-75.9034649999999971
0
LINE
8
BLACK
6
CONTINUOUS
10
-21.6501269999999977
20
-80.1583370000000031
11
-21.9921469999999992
21
-81.0980299999999943
0
LINE
8
BLACK
6
CONTINUOUS
10
-21.9921469999999992
20
-81.0980299999999943
11
-18.4213160000000009
21
-82.3977059999999994
0
LINE
8
BLACK
6
CONTINUOUS
10
-18.3080019999999983
20
-74.7768689999999907
11
-18.7184260000000009
21
-75.9044999999999987
0
LINE
8
BLACK
6
CONTINUOUS
10
-18.7184260000000009
20
-75.9044999999999987
11
-19.9400270000000006
21
-75.4598739999999992
0
LINE
8
BLACK
6
CONTINUOUS
10
-16.05274
20
-75.5977170000000029
11
-14.6432009999999995
21
-76.110748000000001
0
LINE
8
BLACK
6
CONTINUOUS
10
-17.704108999999999
20
-83.9357619999999969
11
-18.4213160000000009
21
-82.3977059999999994
0
LINE
8
BLACK
6
CONTINUOUS
10
-17.704108999999999
20
-83.9357619999999969
11
-9.9986289999999993
21
-86.7403269999999935
0
LINE
8
BLACK
6
CONTINUOUS
10
-9.7567989999999991
20
-77.889251999999999
11
-8.3472600000000003
21
-78.4022829999999971
0
LINE
8
BLACK
6
CONTINUOUS
10
-9.5882050000000003
20
-85.6126959999999997
11
-7.7088199999999993
21
-86.2967359999999957
0
LINE
8
BLACK
6
CONTINUOUS
10
-9.9986289999999993
20
-86.7403269999999935
11
-9.5882050000000003
21
-85.6126959999999997
0
LINE
8
BLACK
6
CONTINUOUS
10
-6.4682199999999996
20
-80.2567930000000018
11
-6.0919979999999994
21
-79.2231309999999951
0
LINE
8
BLACK
6
CONTINUOUS
10
-6.6485569999999994
20
-83.3836889999999897
11
-5.1450490000000002
21
-83.9309209999999979
0
LINE
8
BLACK
6
CONTINUOUS
10
-7.7088199999999993
20
-86.2967359999999957
11
-6.6485569999999994
21
-83.3836889999999897
0
LINE
8
BLACK
6
CONTINUOUS
10
-4.118989
20
-81.1118429999999933
11
-6.4682199999999996
21
-80.2567930000000018
0
LINE
8
BLACK
6
CONTINUOUS
10
-5.1450490000000002
20
-83.9309209999999979
11
-4.118989
21
-81.1118429999999933
0
CIRCLE
8
BLACK
10
-17.1803710000000009
20
-75.1872929999999968
40
1.2
0
CIRCLE
8
BLACK
10
-12.1999999999999993
20
-77.
40
2.6000000000000001
0
CIRCLE
8
BLACK
10
-7.2196289999999994
20
-78.8127070000000032
40
1.2
0
LINE
8
BLACK
6
CONTINUOUS
10
42.1999999999999957
20
-72.3999999999999915
11
42.1999999999999957
21
-76.2000000000000028
0
LINE
8
BLACK
6
CONTINUOUS
10
42.1999999999999957
20
-76.2000000000000028
11
44.1999999999999957
21
-76.2000000000000028
0
LINE
8
BLACK
6
CONTINUOUS
10
44.1999999999999957
20
-71.2000000000000028
11
44.1999999999999957
21
-72.3999999999999915
0
LINE
8
BLACK
6
CONTINUOUS
10
44.1999999999999957
20
-72.3999999999999915
11
42.1999999999999957
21
-72.3999999999999915
0
LINE
8
BLACK
6
CONTINUOUS
10
44.1999999999999957
20
-76.2000000000000028
11
44.1999999999999957
21
-77.2000000000000028
0
LINE
8
BLACK
6
CONTINUOUS
10
44.1999999999999957
20
-77.2000000000000028
11
48.
21
-77.2000000000000028
0
LINE
8
BLACK
6
CONTINUOUS
10
45.5
20
-70.
11
45.5
21
-71.2000000000000028
0
LINE
8
BLACK
6
CONTINUOUS
10
45.5
20
-71.2000000000000028
11
44.1999999999999957
21
-71.2000000000000028
0
LINE
8
BLACK
6
CONTINUOUS
10
47.8999999999999986
20
-70.
11
49.3999999999999986
21
-70.
0
LINE
8
BLACK
6
CONTINUOUS
10
49.1999999999999957
20
-78.3999999999999915
11
48.
21
-77.2000000000000028
0
LINE
8
BLACK
6
CONTINUOUS
10
49.1999999999999957
20
-78.3999999999999915
11
57.3999999999999986
21
-78.3999999999999915
0
LINE
8
BLACK
6
CONTINUOUS
10
54.5999999999999943
20
-70.
11
56.0999999999999943
21
-70.
0
LINE
8
BLACK
6
CONTINUOUS
10
57.3999999999999986
20
-77.2000000000000028
11
59.3999999999999986
21
-77.2000000000000028
0
LINE
8
BLACK
6
CONTINUOUS
10
57.3999999999999986
20
-78.3999999999999915
11
57.3999999999999986
21
-77.2000000000000028
0
LINE
8
BLACK
6
CONTINUOUS
10
58.5
20
-71.0999999999999943
11
58.5
21
-70.
0
LINE
8
BLACK
6
CONTINUOUS
10
59.3999999999999986
20
-74.0999999999999943
11
61.
21
-74.0999999999999943
0
LINE
8
BLACK
6
CONTINUOUS
10
59.3999999999999986
20
-77.2000000000000028
11
59.3999999999999986
21
-74.0999999999999943
0
LINE
8
BLACK
6
CONTINUOUS
10
61.
20
-71.0999999999999943
11
58.5
21
-71.0999999999999943
0
LINE
8
BLACK
6
CONTINUOUS
10
61.
20
-74.0999999999999943
11
61.
21
-71.0999999999999943
0
CIRCLE
8
BLACK
10
46.6999999999999957
20
-70.
40
1.2
0
CIRCLE
8
BLACK
10
52.
20
-70.
40
2.6000000000000001
0
CIRCLE
8
BLACK
10
57.2999999999999972
20
-70.
40
1.2
0
LINE
8
BLACK
6
CONTINUOUS
10
22.5656399999999984
20
-75.8652909999999991
11
23.2255029999999998
21
-79.6075599999999923
0
LINE
8
BLACK
6
CONTINUOUS
10
23.2255029999999998
20
-79.6075599999999923
11
25.1951179999999972
21
-79.2602639999999923
0
LINE
8
BLACK
6
CONTINUOUS
10
24.3268769999999996
20
-74.3362249999999989
11
24.5352549999999994
21
-75.5179940000000016
0
LINE
8
BLACK
6
CONTINUOUS
10
24.5352549999999994
20
-75.5179940000000016
11
22.5656399999999984
21
-75.8652909999999991
0
LINE
8
BLACK
6
CONTINUOUS
10
25.1951179999999972
20
-79.2602639999999923
11
25.3687659999999973
21
-80.2450719999999933
0
LINE
8
BLACK
6
CONTINUOUS
10
25.3687659999999973
20
-80.2450719999999933
11
29.1110359999999986
21
-79.5852089999999919
0
LINE
8
BLACK
6
CONTINUOUS
10
25.3987499999999997
20
-72.9287130000000019
11
25.6071269999999984
21
-74.1104819999999904
0
LINE
8
BLACK
6
CONTINUOUS
10
25.6071269999999984
20
-74.1104819999999904
11
24.3268769999999996
21
-74.3362249999999989
0
LINE
8
BLACK
6
CONTINUOUS
10
27.7622879999999981
20
-72.5119579999999928
11
29.2394999999999996
21
-72.2514850000000024
0
LINE
8
BLACK
6
CONTINUOUS
10
30.5011829999999975
20
-80.5585999999999984
11
29.1110359999999986
21
-79.5852089999999919
0
LINE
8
BLACK
6
CONTINUOUS
10
30.5011829999999975
20
-80.5585999999999984
11
38.5766069999999957
21
-79.1346849999999904
0
LINE
8
BLACK
6
CONTINUOUS
10
34.3605000000000018
20
-71.3485149999999919
11
35.8377119999999962
21
-71.0880420000000015
0
LINE
8
BLACK
6
CONTINUOUS
10
38.3682289999999995
20
-77.9529160000000019
11
40.3378439999999969
21
-77.6056189999999901
0
LINE
8
BLACK
6
CONTINUOUS
10
38.5766069999999957
20
-79.1346849999999904
11
38.3682289999999995
21
-77.9529160000000019
0
LINE
8
BLACK
6
CONTINUOUS
10
38.3922629999999998
20
-71.7545750000000027
11
38.2012500000000017
21
-70.6712869999999924
0
LINE
8
BLACK
6
CONTINUOUS
10
39.7995349999999988
20
-74.5527149999999921
11
41.3752269999999953
21
-74.2748780000000011
0
LINE
8
BLACK
6
CONTINUOUS
10
40.3378439999999969
20
-77.6056189999999901
11
39.7995349999999988
21
-74.5527149999999921
0
LINE
8
BLACK
6
CONTINUOUS
10
40.8542829999999952
20
-71.3204549999999955
11
38.3922629999999998
21
-71.7545750000000027
0
LINE
8
BLACK
6
CONTINUOUS
10
41.3752269999999953
20
-74.2748780000000011
11
40.8542829999999952
21
-71.3204549999999955
0
CIRCLE
8
BLACK
10
26.5805189999999989
20
-72.7203349999999915
40
1.2
0
CIRCLE
8
BLACK
10
31.7999999999999972
20
-71.7999999999999972
40
2.6000000000000001
0
CIRCLE
8
BLACK
10
37.019480999999999
20
-70.8796650000000028
40
1.2
0
LINE
8
BLACK
6
CONTINUOUS
10
-95.7999999999999972
20
-30.3999999999999986
11
-95.7999999999999972
21
-34.1999999999999957
0
LINE
8
BLACK
6
CONTINUOUS
10
-95.7999999999999972
20
-34.1999999999999957
11
-93.7999999999999972
21
-34.1999999999999957
0
LINE
8
BLACK
6
CONTINUOUS
10
-93.7999999999999972
20
-29.1999999999999993
11
-93.7999999999999972
21
-30.3999999999999986
0
LINE
8
BLACK
6
CONTINUOUS
10
-93.7999999999999972
20
-30.3999999999999986
11
-95.7999999999999972
21
-30.3999999999999986
0
LINE
8
BLACK
6
CONTINUOUS
10
-93.7999999999999972
20
-34.1999999999999957
11
-93.7999999999999972
21
-35.1999999999999957
0
LINE
8
BLACK
6
CONTINUOUS
10
-93.7999999999999972
20
-35.1999999999999957
11
-90.
21
-35.1999999999999957
0
LINE
8
BLACK
6
CONTINUOUS
10
-92.5
20
-28.
11
-92.5
21
-29.1999999999999993
0
LINE
8
BLACK
6
CONTINUOUS
10
-92.5
20
-29.1999999999999993
11
-93.7999999999999972
21
-29.1999999999999993
0
LINE
8
BLACK
6
CONTINUOUS
10
-90.0999999999999943
20
-28.
11
-88.5999999999999943
21
-28.
0
LINE
8
BLACK
6
CONTINUOUS
10
-88.7999999999999972
20
-36.3999999999999986
11
-90.
21
-35.1999999999999957
0
LINE
8
BLACK
6
CONTINUOUS
10
-88.7999999999999972
20
-36.3999999999999986
11
-80.5999999999999943
21
-36.3999999999999986
0
LINE
8
BLACK
6
CONTINUOUS
10
-83.3999999999999915
20
-28.
11
-81.8999999999999915
21
-28.
0
LINE
8
BLACK
6
CONTINUOUS
10
-80.5999999999999943
20
-35.1999999999999957
11
-78.5999999999999943
21
-35.1999999999999957
0
LINE
8
BLACK
6
CONTINUOUS
10
-80.5999999999999943
20
-36.3999999999999986
11
-80.5999999999999943
21
-35.1999999999999957
0
LINE
8
BLACK
6
CONTINUOUS
10
-79.5
20
-29.0999999999999979
11
-79.5
21
-28.
0
LINE
8
BLACK
6
CONTINUOUS
10
-78.5999999999999943
20
-32.1000000000000014
11
-77.
21
-32.1000000000000014
0
LINE
8
BLACK
6
CONTINUOUS
10
-78.5999999999999943
20
-35.1999999999999957
11
-78.5999999999999943
21
-32.1000000000000014
0
LINE
8
BLACK
6
CONTINUOUS
10
-77.
20
-29.0999999999999979
11
-79.5
21
-29.0999999999999979
0
LINE
8
BLACK
6
CONTINUOUS
10
-77.
20
-32.1000000000000014
11
-77.
21
-29.0999999999999979
0
CIRCLE
8
BLACK
10
-91.2999999999999972
20
-28.
40
1.2
0
CIRCLE
8
BLACK
10
-86.
20
-28.
40
2.6000000000000001
0
CIRCLE
8
BLACK
10
-80.7000000000000028
20
-28.
40
1.2
0
LINE
8
BLACK
6
CONTINUOUS
10
-38.7999999999999972
20
-50.3999999999999986
11
-38.7999999999999972
21
-54.1999999999999957
0
LINE
8
BLACK
6
CONTINUOUS
10
-38.7999999999999972
20
-54.1999999999999957
11
-36.7999999999999972
21
-54.1999999999999957
0
LINE
8
BLACK
6
CONTINUOUS
10
-36.7999999999999972
20
-49.1999999999999957
11
-36.7999999999999972
21
-50.3999999999999986
0
LINE
8
BLACK
6
CONTINUOUS
10
-36.7999999999999972
20
-50.3999999999999986
11
-38.7999999999999972
21
-50.3999999999999986
0
LINE
8
BLACK
6
CONTINUOUS
10
-36.7999999999999972
20
-54.1999999999999957
11
-36.7999999999999972
21
-55.1999999999999957
0
LINE
8
BLACK
6
CONTINUOUS
10
-36.7999999999999972
20
-55.1999999999999957
11
-33.
21
-55.1999999999999957
0
LINE
8
BLACK
6
CONTINUOUS
10
-35.5
20
-48.
11
-35.5
21
-49.1999999999999957
0
LINE
8
BLACK
6
CONTINUOUS
10
-35.5
20
-49.1999999999999957
11
-36.7999999999999972
21
-49.1999999999999957
0
LINE
8
BLACK
6
CONTINUOUS
10
-33.1000000000000014
20
-48.
11
-31.5999999999999979
21
-48.
0
LINE
8
BLACK
6
CONTINUOUS
10
-31.7999999999999972
20
-56.3999999999999986
11
-33.
21
-55.1999999999999957
0
LINE
8
BLACK
6
CONTINUOUS
10
-31.7999999999999972
20
-56.3999999999999986
11
-23.5999999999999979
21
-56.3999999999999986
0
LINE
8
BLACK
6
CONTINUOUS
10
-26.3999999999999986
20
-48.
11
-24.8999999999999986
21
-48.
0
LINE
8
BLACK
6
CONTINUOUS
10
-23.5999999999999979
20
-55.1999999999999957
11
-21.5999999999999979
21
-55.1999999999999957
0
LINE
8
BLACK
6
CONTINUOUS
10
-23.5999999999999979
20
-56.3999999999999986
11
-23.5999999999999979
21
-55.1999999999999957
0
LINE
8
BLACK
6
CONTINUOUS
10
-22.5
20
-49.0999999999999943
11
-22.5
21
-48.
0
LINE
8
BLACK
6
CONTINUOUS
10
-21.5999999999999979
20
-52.0999999999999943
11
-20.
21
-52.0999999999999943
0
LINE
8
BLACK
6
CONTINUOUS
10
-21.5999999999999979
20
-55.1999999999999957
11
-21.5999999999999979
21
-52.0999999999999943
0
LINE
8
BLACK
6
CONTINUOUS
10
-20.
20
-49.0999999999999943
11
-22.5
21
-49.0999999999999943
0
LINE
8
BLACK
6
CONTINUOUS
10
-20.
20
-52.0999999999999943
11
-20.
21
-49.0999999999999943
0
CIRCLE
8
BLACK
10
-34.2999999999999972
20
-48.
40
1.2
0
CIRCLE
8
BLACK
10
-29.
20
-48.
40
2.6000000000000001
0
CIRCLE
8
BLACK
10
-23.6999999999999993
20
-48.
40
1.2
0
LINE
8
BLACK
6
CONTINUOUS
10
38.1999999999999957
20
-48.3999999999999986
11
38.1999999999999957
21
-52.1999999999999957
0
LINE
8
BLACK
6
CONTINUOUS
10
38.1999999999999957
20
-52.1999999999999957
11
40.1999999999999957
21
-52.1999999999999957
0
LINE
8
BLACK
6
CONTINUOUS
10
40.1999999999999957
20
-47.1999999999999957
11
40.1999999999999957
21
-48.3999999999999986
0
LINE
8
BLACK
6
CONTINUOUS
10
40.1999999999999957
20
-48.3999999999999986
11
38.1999999999999957
21
-48.3999999999999986
0
LINE
8
BLACK
6
CONTINUOUS
10
40.1999999999999957
20
-52.1999999999999957
11
40.1999999999999957
21
-53.1999999999999957
0
LINE
8
BLACK
6
CONTINUOUS
10
40.1999999999999957
20
-53.1999999999999957
11
44.
21
-53.1999999999999957
0
LINE
8
BLACK
6
CONTINUOUS
10
41.5
20
-46.
11
41.5
21
-47.1999999999999957
0
LINE
8
BLACK
6
CONTINUOUS
10
41.5
20
-47.1999999999999957
11
40.1999999999999957
21
-47.1999999999999957
0
LINE
8
BLACK
6
CONTINUOUS
10
43.8999999999999986
20
-46.
11
45.3999999999999986
21
-46.
0
LINE
8
BLACK
6
CONTINUOUS
10
45.1999999999999957
20
-54.3999999999999986
11
44.
21
-53.1999999999999957
0
LINE
8
BLACK
6
CONTINUOUS
10
45.1999999999999957
20
-54.3999999999999986
11
53.3999999999999986
21
-54.3999999999999986
0
LINE
8
BLACK
6
CONTINUOUS
10
50.5999999999999943
20
-46.
11
52.0999999999999943
21
-46.
0
LINE
8
BLACK
6
CONTINUOUS
10
53.3999999999999986
20
-53.1999999999999957
11
55.3999999999999986
21
-53.1999999999999957
0
LINE
8
BLACK
6
CONTINUOUS
10
53.3999999999999986
20
-54.3999999999999986
11
53.3999999999999986
21
-53.1999999999999957
0
LINE
8
BLACK
6
CONTINUOUS
10
54.5
20
-47.1000000000000014
11
54.5
21
-46.
0
LINE
8
BLACK
6
CONTINUOUS
10
55.3999999999999986
20
-50.0999999999999943
11
57.
21
-50.0999999999999943
0
LINE
8
BLACK
6
CONTINUOUS
10
55.3999999999999986
20
-53.1999999999999957
11
55.3999999999999986
21
-50.0999999999999943
0
LINE
8
BLACK
6
CONTINUOUS
10
57.
20
-47.1000000000000014
11
54.5
21
-47.1000000000000014
0
LINE
8
BLACK
6
CONTINUOUS
10
57.
20
-50.0999999999999943
11
57.
21
-47.1000000000000014
0
CIRCLE
8
BLACK
10
42.6999999999999957
20
-46.
40
1.2
0
CIRCLE
8
BLACK
10
48.
20
-46.
40
2.6000000000000001
0
CIRCLE
8
BLACK
10
53.2999999999999972
20
-46.
40
1.2
0
LINE
8
BLACK
6
CONTINUOUS
10
-133.7999999999999829
20
-36.3999999999999986
11
-133.7999999999999829
21
-40.1999999999999957
0
LINE
8
BLACK
6
CONTINUOUS
10
-133.7999999999999829
20
-40.1999999999999957
11
-131.7999999999999829
21
-40.1999999999999957
0
LINE
8
BLACK
6
CONTINUOUS
10
-131.7999999999999829
20
-35.1999999999999957
11
-131.7999999999999829
21
-36.3999999999999986
0
LINE
8
BLACK
6
CONTINUOUS
10
-131.7999999999999829
20
-36.3999999999999986
11
-133.7999999999999829
21
-36.3999999999999986
0
LINE
8
BLACK
6
CONTINUOUS
10
-131.7999999999999829
20
-40.1999999999999957
11
-131.7999999999999829
21
-41.1999999999999957
0
LINE
8
BLACK
6
CONTINUOUS
10
-131.7999999999999829
20
-41.1999999999999957
11
-128.
21
-41.1999999999999957
0
LINE
8
BLACK
6
CONTINUOUS
10
-130.5
20
-34.
11
-130.5
21
-35.1999999999999957
0
LINE
8
BLACK
6
CONTINUOUS
10
-130.5
20
-35.1999999999999957
11
-131.7999999999999829
21
-35.1999999999999957
0
LINE
8
BLACK
6
CONTINUOUS
10
-128.0999999999999943
20
-34.
11
-126.5999999999999943
21
-34.
0
LINE
8
BLACK
6
CONTINUOUS
10
-126.7999999999999972
20
-42.3999999999999986
11
-128.
21
-41.1999999999999957
0
LINE
8
BLACK
6
CONTINUOUS
10
-126.7999999999999972
20
-42.3999999999999986
11
-118.5999999999999943
21
-42.3999999999999986
0
LINE
8
BLACK
6
CONTINUOUS
10
-121.3999999999999915
20
-34.
11
-119.8999999999999915
21
-34.
0
LINE
8
BLACK
6
CONTINUOUS
10
-118.5999999999999943
20
-41.1999999999999957
11
-116.5999999999999943
21
-41.1999999999999957
0
LINE
8
BLACK
6
CONTINUOUS
10
-118.5999999999999943
20
-42.3999999999999986
11
-118.5999999999999943
21
-41.1999999999999957
0
LINE
8
BLACK
6
CONTINUOUS
10
-117.5
20
-35.1000000000000014
11
-117.5
21
-34.
0
LINE
8
BLACK
6
CONTINUOUS
10
-116.5999999999999943
20
-38.1000000000000014
11
-115.
21
-38.1000000000000014
0
LINE
8
BLACK
6
CONTINUOUS
10
-116.5999999999999943
20
-41.1999999999999957
11
-116.5999999999999943
21
-38.1000000000000014
0
LINE
8
BLACK
6
CONTINUOUS
10
-115.
20
-35.1000000000000014
11
-117.5
21
-35.1000000000000014
0
LINE
8
BLACK
6
CONTINUOUS
10
-115.
20
-38.1000000000000014
11
-115.
21
-35.1000000000000014
0
CIRCLE
8
BLACK
10
-129.2999999999999829
20
-34.
40
1.2
0
CIRCLE
8
BLACK
10
-124.
20
-34.
40
2.6000000000000001
0
CIRCLE
8
BLACK
10
-118.6999999999999886
20
-34.
40
1.2
0
LINE
8
BLACK
6
CONTINUOUS
10
95.1999999999999886
20
-36.3999999999999986
11
95.1999999999999886
21
-40.1999999999999957
0
LINE
8
BLACK
6
CONTINUOUS
10
95.1999999999999886
20
-40.1999999999999957
11
97.1999999999999886
21
-40.1999999999999957
0
LINE
8
BLACK
6
CONTINUOUS
10
97.1999999999999886
20
-35.1999999999999957
11
97.1999999999999886
21
-36.3999999999999986
0
LINE
8
BLACK
6
CONTINUOUS
10
97.1999999999999886
20
-36.3999999999999986
11
95.1999999999999886
21
-36.3999999999999986
0
LINE
8
BLACK
6
CONTINUOUS
10
97.1999999999999886
20
-40.1999999999999957
11
97.1999999999999886
21
-41.1999999999999957
0
LINE
8
BLACK
6
CONTINUOUS
10
97.1999999999999886
20
-41.1999999999999957
11
101.
21
-41.1999999999999957
0
LINE
8
BLACK
6
CONTINUOUS
10
98.5
20
-34.
11
98.5
21
-35.1999999999999957
0
LINE
8
BLACK
6
CONTINUOUS
10
98.5
20
-35.1999999999999957
11
97.1999999999999886
21
-35.1999999999999957
0
LINE
8
BLACK
6
CONTINUOUS
10
100.8999999999999915
20
-34.
11
102.3999999999999915
21
-34.
0
LINE
8
BLACK
6
CONTINUOUS
10
102.1999999999999886
20
-42.3999999999999986
11
101.
21
-41.1999999999999957
0
LINE
8
BLACK
6
CONTINUOUS
10
102.1999999999999886
20
-42.3999999999999986
11
110.3999999999999915
21
-42.3999999999999986
0
LINE
8
BLACK
6
CONTINUOUS
10
107.5999999999999943
20
-34.
11
109.0999999999999943
21
-34.
0
LINE
8
BLACK
6
CONTINUOUS
10
110.3999999999999915
20
-41.1999999999999957
11
112.3999999999999915
21
-41.1999999999999957
0
LINE
8
BLACK
6
CONTINUOUS
10
110.3999999999999915
20
-42.3999999999999986
11
110.3999999999999915
21
-41.1999999999999957
0
LINE
8
BLACK
6
CONTINUOUS
10
111.5
20
-35.1000000000000014
11
111.5
21
-34.
0
LINE
8
BLACK
6
CONTINUOUS
10
112.3999999999999915
20
-38.1000000000000014
11
114.
21
-38.1000000000000014
0
LINE
8
BLACK
6
CONTINUOUS
10
112.3999999999999915
20
-41.1999999999999957
11
112.3999999999999915
21
-38.1000000000000014
0
LINE
8
BLACK
6
CONTINUOUS
10
114.
20
-35.1000000000000014
11
111.5
21
-35.1000000000000014
0
LINE
8
BLACK
6
CONTINUOUS
10
114.
20
-38.1000000000000014
11
114.
21
-35.1000000000000014
0
CIRCLE
8
BLACK
10
99.6999999999999886
20
-34.
40
1.2
0
CIRCLE
8
BLACK
10
105.
20
-34.
40
2.6000000000000001
0
CIRCLE
8
BLACK
10
110.2999999999999972
20
-34.
40
1.2
0
LINE
8
BLACK
6
CONTINUOUS
10
-95.7999999999999972
20
-14.3999999999999986
11
-95.7999999999999972
21
-18.1999999999999993
0
LINE
8
BLACK
6
CONTINUOUS
10
-95.7999999999999972
20
-18.1999999999999993
11
-93.7999999999999972
21
-18.1999999999999993
0
LINE
8
BLACK
6
CONTINUOUS
10
-93.7999999999999972
20
-13.1999999999999993
11
-93.7999999999999972
21
-14.3999999999999986
0
LINE
8
BLACK
6
CONTINUOUS
10
-93.7999999999999972
20
-14.3999999999999986
11
-95.7999999999999972
21
-14.3999999999999986
0
LINE
8
BLACK
6
CONTINUOUS
10
-93.7999999999999972
20
-18.1999999999999993
11
-93.7999999999999972
21
-19.1999999999999993
0
LINE
8
BLACK
6
CONTINUOUS
10
-93.7999999999999972
20
-19.1999999999999993
11
-90.
21
-19.1999999999999993
0
LINE
8
BLACK
6
CONTINUOUS
10
-92.5
20
-12.
11
-92.5
21
-13.1999999999999993
0
LINE
8
BLACK
6
CONTINUOUS
10
-92.5
20
-13.1999999999999993
11
-93.7999999999999972
21
-13.1999999999999993
0
LINE
8
BLACK
6
CONTINUOUS
10
-90.0999999999999943
20
-12.
11
-88.5999999999999943
21
-12.
0
LINE
8
BLACK
6
CONTINUOUS
10
-88.7999999999999972
20
-20.3999999999999986
11
-90.
21
-19.1999999999999993
0
LINE
8
BLACK
6
CONTINUOUS
10
-88.7999999999999972
20
-20.3999999999999986
11
-80.5999999999999943
21
-20.3999999999999986
0
LINE
8
BLACK
6
CONTINUOUS
10
-83.3999999999999915
20
-12.
11
-81.8999999999999915
21
-12.
0
LINE
8
BLACK
6
CONTINUOUS
10
-80.5999999999999943
20
-19.1999999999999993
11
-78.5999999999999943
21
-19.1999999999999993
0
LINE
8
BLACK
6
CONTINUOUS
10
-80.5999999999999943
20
-20.3999999999999986
11
-80.5999999999999943
21
-19.1999999999999993
0
LINE
8
BLACK
6
CONTINUOUS
10
-79.5
20
-13.0999999999999996
11
-79.5
21
-12.
0
LINE
8
BLACK
6
CONTINUOUS
10
-78.5999999999999943
20
-16.0999999999999979
11
-77.
21
-16.0999999999999979
0
LINE
8
BLACK
6
CONTINUOUS
10
-78.5999999999999943
20
-19.1999999999999993
11
-78.5999999999999943
21
-16.0999999999999979
0
LINE
8
BLACK
6
CONTINUOUS
10
-77.
20
-13.0999999999999996
11
-79.5
21
-13.0999999999999996
0
LINE
8
BLACK
6
CONTINUOUS
10
-77.
20
-16.0999999999999979
11
-77.
21
-13.0999999999999996
0
CIRCLE
8
BLACK
10
-91.2999999999999972
20
-12.
40
1.2
0
CIRCLE
8
BLACK
10
-86.
20
-12.
40
2.6000000000000001
0
CIRCLE
8
BLACK
10
-80.7000000000000028
20
-12.
40
1.2
0
LINE
8
BLACK
6
CONTINUOUS
10
38.1999999999999957
20
-16.3999999999999986
11
38.1999999999999957
21
-20.1999999999999993
0
LINE
8
BLACK
6
CONTINUOUS
10
38.1999999999999957
20
-20.1999999999999993
11
40.1999999999999957
21
-20.1999999999999993
0
LINE
8
BLACK
6
CONTINUOUS
10
40.1999999999999957
20
-15.1999999999999993
11
40.1999999999999957
21
-16.3999999999999986
0
LINE
8
BLACK
6
CONTINUOUS
10
40.1999999999999957
20
-16.3999999999999986
11
38.1999999999999957
21
-16.3999999999999986
0
LINE
8
BLACK
6
CONTINUOUS
10
40.1999999999999957
20
-20.1999999999999993
11
40.1999999999999957
21
-21.1999999999999993
0
LINE
8
BLACK
6
CONTINUOUS
10
40.1999999999999957
20
-21.1999999999999993
11
44.
21
-21.1999999999999993
0
LINE
8
BLACK
6
CONTINUOUS
10
41.5
20
-14.
11
41.5
21
-15.1999999999999993
0
LINE
8
BLACK
6
CONTINUOUS
10
41.5
20
-15.1999999999999993
11
40.1999999999999957
21
-15.1999999999999993
0
LINE
8
BLACK
6
CONTINUOUS
10
43.8999999999999986
20
-14.
11
45.3999999999999986
21
-14.
0
LINE
8
BLACK
6
CONTINUOUS
10
45.1999999999999957
20
-22.3999999999999986
11
44.
21
-21.1999999999999993
0
LINE
8
BLACK
6
CONTINUOUS
10
45.1999999999999957
20
-22.3999999999999986
11
53.3999999999999986
21
-22.3999999999999986
0
LINE
8
BLACK
6
CONTINUOUS
10
50.5999999999999943
20
-14.
11
52.0999999999999943
21
-14.
0
LINE
8
BLACK
6
CONTINUOUS
10
53.3999999999999986
20
-21.1999999999999993
11
55.3999999999999986
21
-21.1999999999999993
0
LINE
8
BLACK
6
CONTINUOUS
10
53.3999999999999986
20
-22.3999999999999986
11
53.3999999999999986
21
-21.1999999999999993
0
LINE
8
BLACK
6
CONTINUOUS
10
54.5
20
-15.0999999999999996
11
54.5
21
-14.
0
LINE
8
BLACK
6
CONTINUOUS
10
55.3999999999999986
20
-18.0999999999999979
11
57.
21
-18.0999999999999979
0
LINE
8
BLACK
6
CONTINUOUS
10
55.3999999999999986
20
-21.1999999999999993
11
55.3999999999999986
21
-18.0999999999999979
0
LINE
8
BLACK
6
CONTINUOUS
10
57.
20
-15.0999999999999996
11
54.5
21
-15.0999999999999996
0
LINE
8
BLACK
6
CONTINUOUS
10
57.
20
-18.0999999999999979
11
57.
21
-15.0999999999999996
0
CIRCLE
8
BLACK
10
42.6999999999999957
20
-14.
40
1.2
0
CIRCLE
8
BLACK
10
48.
20
-14.
40
2.6000000000000001
0
CIRCLE
8
BLACK
10
53.2999999999999972
20
-14.
40
1.2
0
LINE
8
BLACK
6
CONTINUOUS
10
-38.7999999999999972
20
-34.3999999999999986
11
-38.7999999999999972
21
-38.1999999999999957
0
LINE
8
BLACK
6
CONTINUOUS
10
-38.7999999999999972
20
-38.1999999999999957
11
-36.7999999999999972
21
-38.1999999999999957
0
LINE
8
BLACK
6
CONTINUOUS
10
-36.7999999999999972
20
-33.1999999999999957
11
-36.7999999999999972
21
-34.3999999999999986
0
LINE
8
BLACK
6
CONTINUOUS
10
-36.7999999999999972
20
-34.3999999999999986
11
-38.7999999999999972
21
-34.3999999999999986
0
LINE
8
BLACK
6
CONTINUOUS
10
-36.7999999999999972
20
-38.1999999999999957
11
-36.7999999999999972
21
-39.1999999999999957
0
LINE
8
BLACK
6
CONTINUOUS
10
-36.7999999999999972
20
-39.1999999999999957
11
-33.
21
-39.1999999999999957
0
LINE
8
BLACK
6
CONTINUOUS
10
-35.5
20
-32.
11
-35.5
21
-33.1999999999999957
0
LINE
8
BLACK
6
CONTINUOUS
10
-35.5
20
-33.1999999999999957
11
-36.7999999999999972
21
-33.1999999999999957
0
LINE
8
BLACK
6
CONTINUOUS
10
-33.1000000000000014
20
-32.
11
-31.5999999999999979
21
-32.
0
LINE
8
BLACK
6
CONTINUOUS
10
-31.7999999999999972
20
-40.3999999999999986
11
-33.
21
-39.1999999999999957
0
LINE
8
BLACK
6
CONTINUOUS
10
-31.7999999999999972
20
-40.3999999999999986
11
-23.5999999999999979
21
-40.3999999999999986
0
LINE
8
BLACK
6
CONTINUOUS
10
-26.3999999999999986
20
-32.
11
-24.8999999999999986
21
-32.
0
LINE
8
BLACK
6
CONTINUOUS
10
-23.5999999999999979
20
-39.1999999999999957
11
-21.5999999999999979
21
-39.1999999999999957
0
LINE
8
BLACK
6
CONTINUOUS
10
-23.5999999999999979
20
-40.3999999999999986
11
-23.5999999999999979
21
-39.1999999999999957
0
LINE
8
BLACK
6
CONTINUOUS
10
-22.5
20
-33.1000000000000014
11
-22.5
21
-32.
0
LINE
8
BLACK
6
CONTINUOUS
10
-21.5999999999999979
20
-36.1000000000000014
11
-20.
21
-36.1000000000000014
0
LINE
8
BLACK
6
CONTINUOUS
10
-21.5999999999999979
20
-39.1999999999999957
11
-21.5999999999999979
21
-36.1000000000000014
0
LINE
8
BLACK
6
CONTINUOUS
10
-20.
20
-33.1000000000000014
11
-22.5
21
-33.1000000000000014
0
LINE
8
BLACK
6
CONTINUOUS
10
-20.
20
-36.1000000000000014
11
-20.
21
-33.1000000000000014
0
CIRCLE
8
BLACK
10
-34.2999999999999972
20
-32.
40
1.2
0
CIRCLE
8
BLACK
10
-29.
20
-32.
40
2.6000000000000001
0
CIRCLE
8
BLACK
10
-23.6999999999999993
20
-32.
40
1.2
0
LINE
8
BLACK
6
CONTINUOUS
10
57.1999999999999957
20
-42.3999999999999986
11
57.1999999999999957
21
-46.1999999999999957
0
LINE
8
BLACK
6
CONTINUOUS
10
57.1999999999999957
20
-46.1999999999999957
11
59.1999999999999957
21
-46.1999999999999957
0
LINE
8
BLACK
6
CONTINUOUS
10
59.1999999999999957
20
-41.1999999999999957
11
59.1999999999999957
21
-42.3999999999999986
0
LINE
8
BLACK
6
CONTINUOUS
10
59.1999999999999957
20
-42.3999999999999986
11
57.1999999999999957
21
-42.3999999999999986
0
LINE
8
BLACK
6
CONTINUOUS
10
59.1999999999999957
20
-46.1999999999999957
11
59.1999999999999957
21
-47.1999999999999957
0
LINE
8
BLACK
6
CONTINUOUS
10
59.1999999999999957
20
-47.1999999999999957
11
63.
21
-47.1999999999999957
0
LINE
8
BLACK
6
CONTINUOUS
10
60.5
20
-40.
11
60.5
21
-41.1999999999999957
0
LINE
8
BLACK
6
CONTINUOUS
10
60.5
20
-41.1999999999999957
11
59.1999999999999957
21
-41.1999999999999957
0
LINE
8
BLACK
6
CONTINUOUS
10
62.8999999999999986
20
-40.
11
64.3999999999999915
21
-40.
0
LINE
8
BLACK
6
CONTINUOUS
10
64.2000000000000028
20
-48.3999999999999986
11
63.
21
-47.1999999999999957
0
LINE
8
BLACK
6
CONTINUOUS
10
64.2000000000000028
20
-48.3999999999999986
11
72.3999999999999915
21
-48.3999999999999986
0
LINE
8
BLACK
6
CONTINUOUS
10
69.5999999999999943
20
-40.
11
71.0999999999999943
21
-40.
0
LINE
8
BLACK
6
CONTINUOUS
10
72.3999999999999915
20
-47.1999999999999957
11
74.3999999999999915
21
-47.1999999999999957
0
LINE
8
BLACK
6
CONTINUOUS
10
72.3999999999999915
20
-48.3999999999999986
11
72.3999999999999915
21
-47.1999999999999957
0
LINE
8
BLACK
6
CONTINUOUS
10
73.5
20
-41.1000000000000014
11
73.5
21
-40.
0
LINE
8
BLACK
6
CONTINUOUS
10
74.3999999999999915
20
-44.1000000000000014
11
76.
21
-44.1000000000000014
0
LINE
8
BLACK
6
CONTINUOUS
10
74.3999999999999915
20
-47.1999999999999957
11
74.3999999999999915
21
-44.1000000000000014
0
LINE
8
BLACK
6
CONTINUOUS
10
76.
20
-41.1000000000000014
11
73.5
21
-41.1000000000000014
0
LINE
8
BLACK
6
CONTINUOUS
10
76.
20
-44.1000000000000014
11
76.
21
-41.1000000000000014
0
CIRCLE
8
BLACK
10
61.6999999999999957
20
-40.
40
1.2
0
CIRCLE
8
BLACK
10
67.
20
-40.
40
2.6000000000000001
0
CIRCLE
8
BLACK
10
72.2999999999999972
20
-40.
40
1.2
0
LINE
8
BLACK
6
CONTINUOUS
10
-76.7999999999999972
20
-26.3999999999999986
11
-76.7999999999999972
21
-30.1999999999999993
0
LINE
8
BLACK
6
CONTINUOUS
10
-76.7999999999999972
20
-30.1999999999999993
11
-74.7999999999999972
21
-30.1999999999999993
0
LINE
8
BLACK
6
CONTINUOUS
10
-74.7999999999999972
20
-25.1999999999999993
11
-74.7999999999999972
21
-26.3999999999999986
0
LINE
8
BLACK
6
CONTINUOUS
10
-74.7999999999999972
20
-26.3999999999999986
11
-76.7999999999999972
21
-26.3999999999999986
0
LINE
8
BLACK
6
CONTINUOUS
10
-74.7999999999999972
20
-30.1999999999999993
11
-74.7999999999999972
21
-31.1999999999999993
0
LINE
8
BLACK
6
CONTINUOUS
10
-74.7999999999999972
20
-31.1999999999999993
11
-71.
21
-31.1999999999999993
0
LINE
8
BLACK
6
CONTINUOUS
10
-73.5
20
-24.
11
-73.5
21
-25.1999999999999993
0
LINE
8
BLACK
6
CONTINUOUS
10
-73.5
20
-25.1999999999999993
11
-74.7999999999999972
21
-25.1999999999999993
0
LINE
8
BLACK
6
CONTINUOUS
10
-71.0999999999999943
20
-24.
11
-69.5999999999999943
21
-24.
0
LINE
8
BLACK
6
CONTINUOUS
10
-69.7999999999999972
20
-32.3999999999999986
11
-71.
21
-31.1999999999999993
0
LINE
8
BLACK
6
CONTINUOUS
10
-69.7999999999999972
20
-32.3999999999999986
11
-61.5999999999999943
21
-32.3999999999999986
0
LINE
8
BLACK
6
CONTINUOUS
10
-64.3999999999999915
20
-24.
11
-62.8999999999999986
21
-24.
0
LINE
8
BLACK
6
CONTINUOUS
10
-61.5999999999999943
20
-31.1999999999999993
11
-59.5999999999999943
21
-31.1999999999999993
0
LINE
8
BLACK
6
CONTINUOUS
10
-61.5999999999999943
20
-32.3999999999999986
11
-61.5999999999999943
21
-31.1999999999999993
0
LINE
8
BLACK
6
CONTINUOUS
10
-60.5
20
-25.0999999999999979
11
-60.5
21
-24.
0
LINE
8
BLACK
6
CONTINUOUS
10
-59.5999999999999943
20
-28.0999999999999979
11
-58.
21
-28.0999999999999979
0
LINE
8
BLACK
6
CONTINUOUS
10
-59.5999999999999943
20
-31.1999999999999993
11
-59.5999999999999943
21
-28.0999999999999979
0
LINE
8
BLACK
6
CONTINUOUS
10
-58.
20
-25.0999999999999979
11
-60.5
21
-25.0999999999999979
0
LINE
8
BLACK
6
CONTINUOUS
10
-58.
20
-28.0999999999999979
11
-58.
21
-25.0999999999999979
0
CIRCLE
8
BLACK
10
-72.2999999999999972
20
-24.
40
1.2
0
CIRCLE
8
BLACK
10
-67.
20
-24.
40
2.6000000000000001
0
CIRCLE
8
BLACK
10
-61.6999999999999957
20
-24.
40
1.2
0
LINE
8
BLACK
6
CONTINUOUS
10
19.1999999999999993
20
-18.3999999999999986
11
19.1999999999999993
21
-22.1999999999999993
0
LINE
8
BLACK
6
CONTINUOUS
10
19.1999999999999993
20
-22.1999999999999993
11
21.1999999999999993
21
-22.1999999999999993
0
LINE
8
BLACK
6
CONTINUOUS
10
21.1999999999999993
20
-17.1999999999999993
11
21.1999999999999993
21
-18.3999999999999986
0
LINE
8
BLACK
6
CONTINUOUS
10
21.1999999999999993
20
-18.3999999999999986
11
19.1999999999999993
21
-18.3999999999999986
0
LINE
8
BLACK
6
CONTINUOUS
10
21.1999999999999993
20
-22.1999999999999993
11
21.1999999999999993
21
-23.1999999999999993
0
LINE
8
BLACK
6
CONTINUOUS
10
21.1999999999999993
20
-23.1999999999999993
11
25.
21
-23.1999999999999993
0
LINE
8
BLACK
6
CONTINUOUS
10
22.5
20
-16.
11
22.5
21
-17.1999999999999993
0
LINE
8
BLACK
6
CONTINUOUS
10
22.5
20
-17.1999999999999993
11
21.1999999999999993
21
-17.1999999999999993
0
LINE
8
BLACK
6
CONTINUOUS
10
24.8999999999999986
20
-16.
11
26.3999999999999986
21
-16.
0
LINE
8
BLACK
6
CONTINUOUS
10
26.1999999999999993
20
-24.3999999999999986
11
25.
21
-23.1999999999999993
0
LINE
8
BLACK
6
CONTINUOUS
10
26.1999999999999993
20
-24.3999999999999986
11
34.3999999999999986
21
-24.3999999999999986
0
LINE
8
BLACK
6
CONTINUOUS
10
31.5999999999999979
20
-16.
11
33.1000000000000014
21
-16.
0
LINE
8
BLACK
6
CONTINUOUS
10
34.3999999999999986
20
-23.1999999999999993
11
36.3999999999999986
21
-23.1999999999999993
0
LINE
8
BLACK
6
CONTINUOUS
10
34.3999999999999986
20
-24.3999999999999986
11
34.3999999999999986
21
-23.1999999999999993
0
LINE
8
BLACK
6
CONTINUOUS
10
35.5
20
-17.0999999999999979
11
35.5
21
-16.
0
LINE
8
BLACK
6
CONTINUOUS
10
36.3999999999999986
20
-20.0999999999999979
11
38.
21
-20.0999999999999979
0
LINE
8
BLACK
6
CONTINUOUS
10
36.3999999999999986
20
-23.1999999999999993
11
36.3999999999999986
21
-20.0999999999999979
0
LINE
8
BLACK
6
CONTINUOUS
10
38.
20
-17.0999999999999979
11
35.5
21
-17.0999999999999979
0
LINE
8
BLACK
6
CONTINUOUS
10
38.
20
-20.0999999999999979
11
38.
21
-17.0999999999999979
0
CIRCLE
8
BLACK
10
23.6999999999999993
20
-16.
40
1.2
0
CIRCLE
8
BLACK
10
29.
20
-16.
40
2.6000000000000001
0
CIRCLE
8
BLACK
10
34.2999999999999972
20
-16.
40
1.2
0
LINE
8
BLACK
6
CONTINUOUS
10
57.1999999999999957
20
-26.3999999999999986
11
57.1999999999999957
21
-30.1999999999999993
0
LINE
8
BLACK
6
CONTINUOUS
10
57.1999999999999957
20
-30.1999999999999993
11
59.1999999999999957
21
-30.1999999999999993
0
LINE
8
BLACK
6
CONTINUOUS
10
59.1999999999999957
20
-25.1999999999999993
11
59.1999999999999957
21
-26.3999999999999986
0
LINE
8
BLACK
6
CONTINUOUS
10
59.1999999999999957
20
-26.3999999999999986
11
57.1999999999999957
21
-26.3999999999999986
0
LINE
8
BLACK
6
CONTINUOUS
10
59.1999999999999957
20
-30.1999999999999993
11
59.1999999999999957
21
-31.1999999999999993
0
LINE
8
BLACK
6
CONTINUOUS
10
59.1999999999999957
20
-31.1999999999999993
11
63.
21
-31.1999999999999993
0
LINE
8
BLACK
6
CONTINUOUS
10
60.5
20
-24.
11
60.5
21
-25.1999999999999993
0
LINE
8
BLACK
6
CONTINUOUS
10
60.5
20
-25.1999999999999993
11
59.1999999999999957
21
-25.1999999999999993
0
LINE
8
BLACK
6
CONTINUOUS
10
62.8999999999999986
20
-24.
11
64.3999999999999915
21
-24.
0
LINE
8
BLACK
6
CONTINUOUS
10
64.2000000000000028
20
-32.3999999999999986
11
63.
21
-31.1999999999999993
0
LINE
8
BLACK
6
CONTINUOUS
10
64.2000000000000028
20
-32.3999999999999986
11
72.3999999999999915
21
-32.3999999999999986
0
LINE
8
BLACK
6
CONTINUOUS
10
69.5999999999999943
20
-24.
11
71.0999999999999943
21
-24.
0
LINE
8
BLACK
6
CONTINUOUS
10
72.3999999999999915
20
-31.1999999999999993
11
74.3999999999999915
21
-31.1999999999999993
0
LINE
8
BLACK
6
CONTINUOUS
10
72.3999999999999915
20
-32.3999999999999986
11
72.3999999999999915
21
-31.1999999999999993
0
LINE
8
BLACK
6
CONTINUOUS
10
73.5
20
-25.0999999999999979
11
73.5
21
-24.
0
LINE
8
BLACK
6
CONTINUOUS
10
74.3999999999999915
20
-28.0999999999999979
11
76.
21
-28.0999999999999979
0
LINE
8
BLACK
6
CONTINUOUS
10
74.3999999999999915
20
-31.1999999999999993
11
74.3999999999999915
21
-28.0999999999999979
0
LINE
8
BLACK
6
CONTINUOUS
10
76.
20
-25.0999999999999979
11
73.5
21
-25.0999999999999979
0
LINE
8
BLACK
6
CONTINUOUS
10
76.
20
-28.0999999999999979
11
76.
21
-25.0999999999999979
0
CIRCLE
8
BLACK
10
61.6999999999999957
20
-24.
40
1.2
0
CIRCLE
8
BLACK
10
67.
20
-24.
40
2.6000000000000001
0
CIRCLE
8
BLACK
10
72.2999999999999972
20
-24.
40
1.2
0
LINE
8
BLACK
6
CONTINUOUS
10
-76.7999999999999972
20
-42.3999999999999986
11
-76.7999999999999972
21
-46.1999999999999957
0
LINE
8
BLACK
6
CONTINUOUS
10
-76.7999999999999972
20
-46.1999999999999957
11
-74.7999999999999972
21
-46.1999999999999957
0
LINE
8
BLACK
6
CONTINUOUS
10
-74.7999999999999972
20
-41.1999999999999957
11
-74.7999999999999972
21
-42.3999999999999986
0
LINE
8
BLACK
6
CONTINUOUS
10
-74.7999999999999972
20
-42.3999999999999986
11
-76.7999999999999972
21
-42.3999999999999986
0
LINE
8
BLACK
6
CONTINUOUS
10
-74.7999999999999972
20
-46.1999999999999957
11
-74.7999999999999972
21
-47.1999999999999957
0
LINE
8
BLACK
6
CONTINUOUS
10
-74.7999999999999972
20
-47.1999999999999957
11
-71.
21
-47.1999999999999957
0
LINE
8
BLACK
6
CONTINUOUS
10
-73.5
20
-40.
11
-73.5
21
-41.1999999999999957
0
LINE
8
BLACK
6
CONTINUOUS
10
-73.5
20
-41.1999999999999957
11
-74.7999999999999972
21
-41.1999999999999957
0
LINE
8
BLACK
6
CONTINUOUS
10
-71.0999999999999943
20
-40.
11
-69.5999999999999943
21
-40.
0
LINE
8
BLACK
6
CONTINUOUS
10
-69.7999999999999972
20
-48.3999999999999986
11
-71.
21
-47.1999999999999957
0
LINE
8
BLACK
6
CONTINUOUS
10
-69.7999999999999972
20
-48.3999999999999986
11
-61.5999999999999943
21
-48.3999999999999986
0
LINE
8
BLACK
6
CONTINUOUS
10
-64.3999999999999915
20
-40.
11
-62.8999999999999986
21
-40.
0
LINE
8
BLACK
6
CONTINUOUS
10
-61.5999999999999943
20
-47.1999999999999957
11
-59.5999999999999943
21
-47.1999999999999957
0
LINE
8
BLACK
6
CONTINUOUS
10
-61.5999999999999943
20
-48.3999999999999986
11
-61.5999999999999943
21
-47.1999999999999957
0
LINE
8
BLACK
6
CONTINUOUS
10
-60.5
20
-41.1000000000000014
11
-60.5
21
-40.
0
LINE
8
BLACK
6
CONTINUOUS
10
-59.5999999999999943
20
-44.1000000000000014
11
-58.
21
-44.1000000000000014
0
LINE
8
BLACK
6
CONTINUOUS
10
-59.5999999999999943
20
-47.1999999999999957
11
-59.5999999999999943
21
-44.1000000000000014
0
LINE
8
BLACK
6
CONTINUOUS
10
-58.
20
-41.1000000000000014
11
-60.5
21
-41.1000000000000014
0
LINE
8
BLACK
6
CONTINUOUS
10
-58.
20
-44.1000000000000014
11
-58.
21
-41.1000000000000014
0
CIRCLE
8
BLACK
10
-72.2999999999999972
20
-40.
40
1.2
0
CIRCLE
8
BLACK
10
-67.
20
-40.
40
2.6000000000000001
0
CIRCLE
8
BLACK
10
-61.6999999999999957
20
-40.
40
1.2
0
LINE
8
BLACK
6
CONTINUOUS
10
-95.7999999999999972
20
-46.3999999999999986
11
-95.7999999999999972
21
-50.1999999999999957
0
LINE
8
BLACK
6
CONTINUOUS
10
-95.7999999999999972
20
-50.1999999999999957
11
-93.7999999999999972
21
-50.1999999999999957
0
LINE
8
BLACK
6
CONTINUOUS
10
-93.7999999999999972
20
-45.1999999999999957
11
-93.7999999999999972
21
-46.3999999999999986
0
LINE
8
BLACK
6
CONTINUOUS
10
-93.7999999999999972
20
-46.3999999999999986
11
-95.7999999999999972
21
-46.3999999999999986
0
LINE
8
BLACK
6
CONTINUOUS
10
-93.7999999999999972
20
-50.1999999999999957
11
-93.7999999999999972
21
-51.1999999999999957
0
LINE
8
BLACK
6
CONTINUOUS
10
-93.7999999999999972
20
-51.1999999999999957
11
-90.
21
-51.1999999999999957
0
LINE
8
BLACK
6
CONTINUOUS
10
-92.5
20
-44.
11
-92.5
21
-45.1999999999999957
0
LINE
8
BLACK
6
CONTINUOUS
10
-92.5
20
-45.1999999999999957
11
-93.7999999999999972
21
-45.1999999999999957
0
LINE
8
BLACK
6
CONTINUOUS
10
-90.0999999999999943
20
-44.
11
-88.5999999999999943
21
-44.
0
LINE
8
BLACK
6
CONTINUOUS
10
-88.7999999999999972
20
-52.3999999999999986
11
-90.
21
-51.1999999999999957
0
LINE
8
BLACK
6
CONTINUOUS
10
-88.7999999999999972
20
-52.3999999999999986
11
-80.5999999999999943
21
-52.3999999999999986
0
LINE
8
BLACK
6
CONTINUOUS
10
-83.3999999999999915
20
-44.
11
-81.8999999999999915
21
-44.
0
LINE
8
BLACK
6
CONTINUOUS
10
-80.5999999999999943
20
-51.1999999999999957
11
-78.5999999999999943
21
-51.1999999999999957
0
LINE
8
BLACK
6
CONTINUOUS
10
-80.5999999999999943
20
-52.3999999999999986
11
-80.5999999999999943
21
-51.1999999999999957
0
LINE
8
BLACK
6
CONTINUOUS
10
-79.5
20
-45.1000000000000014
11
-79.5
21
-44.
0
LINE
8
BLACK
6
CONTINUOUS
10
-78.5999999999999943
20
-48.0999999999999943
11
-77.
21
-48.0999999999999943
0
LINE
8
BLACK
6
CONTINUOUS
10
-78.5999999999999943
20
-51.1999999999999957
11
-78.5999999999999943
21
-48.0999999999999943
0
LINE
8
BLACK
6
CONTINUOUS
10
-77.
20
-45.1000000000000014
11
-79.5
21
-45.1000000000000014
0
LINE
8
BLACK
6
CONTINUOUS
10
-77.
20
-48.0999999999999943
11
-77.
21
-45.1000000000000014
0
CIRCLE
8
BLACK
10
-91.2999999999999972
20
-44.
40
1.2
0
CIRCLE
8
BLACK
10
-86.
20
-44.
40
2.6000000000000001
0
CIRCLE
8
BLACK
10
-80.7000000000000028
20
-44.
40
1.2
0
LINE
8
BLACK
6
CONTINUOUS
10
95.1999999999999886
20
-52.3999999999999986
11
95.1999999999999886
21
-56.1999999999999957
0
LINE
8
BLACK
6
CONTINUOUS
10
95.1999999999999886
20
-56.1999999999999957
11
97.1999999999999886
21
-56.1999999999999957
0
LINE
8
BLACK
6
CONTINUOUS
10
97.1999999999999886
20
-51.1999999999999957
11
97.1999999999999886
21
-52.3999999999999986
0
LINE
8
BLACK
6
CONTINUOUS
10
97.1999999999999886
20
-52.3999999999999986
11
95.1999999999999886
21
-52.3999999999999986
0
LINE
8
BLACK
6
CONTINUOUS
10
97.1999999999999886
20
-56.1999999999999957
11
97.1999999999999886
21
-57.1999999999999957
0
LINE
8
BLACK
6
CONTINUOUS
10
97.1999999999999886
20
-57.1999999999999957
11
101.
21
-57.1999999999999957
0
LINE
8
BLACK
6
CONTINUOUS
10
98.5
20
-50.
11
98.5
21
-51.1999999999999957
0
LINE
8
BLACK
6
CONTINUOUS
10
98.5
20
-51.1999999999999957
11
97.1999999999999886
21
-51.1999999999999957
0
LINE
8
BLACK
6
CONTINUOUS
10
100.8999999999999915
20
-50.
11
102.3999999999999915
21
-50.
0
LINE
8
BLACK
6
CONTINUOUS
10
102.1999999999999886
20
-58.3999999999999986
11
101.
21
-57.1999999999999957
0
LINE
8
BLACK
6
CONTINUOUS
10
102.1999999999999886
20
-58.3999999999999986
11
110.3999999999999915
21
-58.3999999999999986
0
LINE
8
BLACK
6
CONTINUOUS
10
107.5999999999999943
20
-50.
11
109.0999999999999943
21
-50.
0
LINE
8
BLACK
6
CONTINUOUS
10
110.3999999999999915
20
-57.1999999999999957
11
112.3999999999999915
21
-57.1999999999999957
0
LINE
8
BLACK
6
CONTINUOUS
10
110.3999999999999915
20
-58.3999999999999986
11
110.3999999999999915
21
-57.1999999999999957
0
LINE
8
BLACK
6
CONTINUOUS
10
111.5
20
-51.0999999999999943
11
111.5
21
-50.
0
LINE
8
BLACK
6
CONTINUOUS
10
112.3999999999999915
20
-54.0999999999999943
11
114.
21
-54.0999999999999943
0
LINE
8
BLACK
6
CONTINUOUS
10
112.3999999999999915
20
-57.1999999999999957
11
112.3999999999999915
21
-54.0999999999999943
0
LINE
8
BLACK
6
CONTINUOUS
10
114.
20
-51.0999999999999943
11
111.5
21
-51.0999999999999943
0
LINE
8
BLACK
6
CONTINUOUS
10
114.
20
-54.0999999999999943
11
114.
21
-51.0999999999999943
0
CIRCLE
8
BLACK
10
99.6999999999999886
20
-50.
40
1.2
0
CIRCLE
8
BLACK
10
105.
20
-50.
40
2.6000000000000001
0
CIRCLE
8
BLACK
10
110.2999999999999972
20
-50.
40
1.2
0
LINE
8
BLACK
6
CONTINUOUS
10
-38.7999999999999972
20
-18.3999999999999986
11
-38.7999999999999972
21
-22.1999999999999993
0
LINE
8
BLACK
6
CONTINUOUS
10
-38.7999999999999972
20
-22.1999999999999993
11
-36.7999999999999972
21
-22.1999999999999993
0
LINE
8
BLACK
6
CONTINUOUS
10
-36.7999999999999972
20
-17.1999999999999993
11
-36.7999999999999972
21
-18.3999999999999986
0
LINE
8
BLACK
6
CONTINUOUS
10
-36.7999999999999972
20
-18.3999999999999986
11
-38.7999999999999972
21
-18.3999999999999986
0
LINE
8
BLACK
6
CONTINUOUS
10
-36.7999999999999972
20
-22.1999999999999993
11
-36.7999999999999972
21
-23.1999999999999993
0
LINE
8
BLACK
6
CONTINUOUS
10
-36.7999999999999972
20
-23.1999999999999993
11
-33.
21
-23.1999999999999993
0
LINE
8
BLACK
6
CONTINUOUS
10
-35.5
20
-16.
11
-35.5
21
-17.1999999999999993
0
LINE
8
BLACK
6
CONTINUOUS
10
-35.5
20
-17.1999999999999993
11
-36.7999999999999972
21
-17.1999999999999993
0
LINE
8
BLACK
6
CONTINUOUS
10
-33.1000000000000014
20
-16.
11
-31.5999999999999979
21
-16.
0
LINE
8
BLACK
6
CONTINUOUS
10
-31.7999999999999972
20
-24.3999999999999986
11
-33.
21
-23.1999999999999993
0
LINE
8
BLACK
6
CONTINUOUS
10
-31.7999999999999972
20
-24.3999999999999986
11
-23.5999999999999979
21
-24.3999999999999986
0
LINE
8
BLACK
6
CONTINUOUS
10
-26.3999999999999986
20
-16.
11
-24.8999999999999986
21
-16.
0
LINE
8
BLACK
6
CONTINUOUS
10
-23.5999999999999979
20
-23.1999999999999993
11
-21.5999999999999979
21
-23.1999999999999993
0
LINE
8
BLACK
6
CONTINUOUS
10
-23.5999999999999979
20
-24.3999999999999986
11
-23.5999999999999979
21
-23.1999999999999993
0
LINE
8
BLACK
6
CONTINUOUS
10
-22.5
20
-17.0999999999999979
11
-22.5
21
-16.
0
LINE
8
BLACK
6
CONTINUOUS
10
-21.5999999999999979
20
-20.0999999999999979
11
-20.
21
-20.0999999999999979
0
LINE
8
BLACK
6
CONTINUOUS
10
-21.5999999999999979
20
-23.1999999999999993
11
-21.5999999999999979
21
-20.0999999999999979
0
LINE
8
BLACK
6
CONTINUOUS
10
-20.
20
-17.0999999999999979
11
-22.5
21
-17.0999999999999979
0
LINE
8
BLACK
6
CONTINUOUS
10
-20.
20
-20.0999999999999979
11
-20.
21
-17.0999999999999979
0
CIRCLE
8
BLACK
10
-34.2999999999999972
20
-16.
40
1.2
0
CIRCLE
8
BLACK
10
-29.
20
-16.
40
2.6000000000000001
0
CIRCLE
8
BLACK
10
-23.6999999999999993
20
-16.
40
1.2
0
LINE
8
BLACK
6
CONTINUOUS
10
-114.7999999999999972
20
-36.3999999999999986
11
-114.7999999999999972
21
-40.1999999999999957
0
LINE
8
BLACK
6
CONTINUOUS
10
-114.7999999999999972
20
-40.1999999999999957
11
-112.7999999999999972
21
-40.1999999999999957
0
LINE
8
BLACK
6
CONTINUOUS
10
-112.7999999999999972
20
-35.1999999999999957
11
-112.7999999999999972
21
-36.3999999999999986
0
LINE
8
BLACK
6
CONTINUOUS
10
-112.7999999999999972
20
-36.3999999999999986
11
-114.7999999999999972
21
-36.3999999999999986
0
LINE
8
BLACK
6
CONTINUOUS
10
-112.7999999999999972
20
-40.1999999999999957
11
-112.7999999999999972
21
-41.1999999999999957
0
LINE
8
BLACK
6
CONTINUOUS
10
-112.7999999999999972
20
-41.1999999999999957
11
-109.
21
-41.1999999999999957
0
LINE
8
BLACK
6
CONTINUOUS
10
-111.5
20
-34.
11
-111.5
21
-35.1999999999999957
0
LINE
8
BLACK
6
CONTINUOUS
10
-111.5
20
-35.1999999999999957
11
-112.7999999999999972
21
-35.1999999999999957
0
LINE
8
BLACK
6
CONTINUOUS
10
-109.0999999999999943
20
-34.
11
-107.5999999999999943
21
-34.
0
LINE
8
BLACK
6
CONTINUOUS
10
-107.7999999999999972
20
-42.3999999999999986
11
-109.
21
-41.1999999999999957
0
LINE
8
BLACK
6
CONTINUOUS
10
-107.7999999999999972
20
-42.3999999999999986
11
-99.5999999999999943
21
-42.3999999999999986
0
LINE
8
BLACK
6
CONTINUOUS
10
-102.3999999999999915
20
-34.
11
-100.8999999999999915
21
-34.
0
LINE
8
BLACK
6
CONTINUOUS
10
-99.5999999999999943
20
-41.1999999999999957
11
-97.5999999999999943
21
-41.1999999999999957
0
LINE
8
BLACK
6
CONTINUOUS
10
-99.5999999999999943
20
-42.3999999999999986
11
-99.5999999999999943
21
-41.1999999999999957
0
LINE
8
BLACK
6
CONTINUOUS
10
-98.5
20
-35.1000000000000014
11
-98.5
21
-34.
0
LINE
8
BLACK
6
CONTINUOUS
10
-97.5999999999999943
20
-38.1000000000000014
11
-96.
21
-38.1000000000000014
0
LINE
8
BLACK
6
CONTINUOUS
10
-97.5999999999999943
20
-41.1999999999999957
11
-97.5999999999999943
21
-38.1000000000000014
0
LINE
8
BLACK
6
CONTINUOUS
10
-96.
20
-35.1000000000000014
11
-98.5
21
-35.1000000000000014
0
LINE
8
BLACK
6
CONTINUOUS
10
-96.
20
-38.1000000000000014
11
-96.
21
-35.1000000000000014
0
CIRCLE
8
BLACK
10
-110.2999999999999972
20
-34.
40
1.2
0
CIRCLE
8
BLACK
10
-105.
20
-34.
40
2.6000000000000001
0
CIRCLE
8
BLACK
10
-99.6999999999999886
20
-34.
40
1.2
0
LINE
8
BLACK
6
CONTINUOUS
10
38.1999999999999957
20
-32.3999999999999986
11
38.1999999999999957
21
-36.1999999999999957
0
LINE
8
BLACK
6
CONTINUOUS
10
38.1999999999999957
20
-36.1999999999999957
11
40.1999999999999957
21
-36.1999999999999957
0
LINE
8
BLACK
6
CONTINUOUS
10
40.1999999999999957
20
-31.1999999999999993
11
40.1999999999999957
21
-32.3999999999999986
0
LINE
8
BLACK
6
CONTINUOUS
10
40.1999999999999957
20
-32.3999999999999986
11
38.1999999999999957
21
-32.3999999999999986
0
LINE
8
BLACK
6
CONTINUOUS
10
40.1999999999999957
20
-36.1999999999999957
11
40.1999999999999957
21
-37.1999999999999957
0
LINE
8
BLACK
6
CONTINUOUS
10
40.1999999999999957
20
-37.1999999999999957
11
44.
21
-37.1999999999999957
0
LINE
8
BLACK
6
CONTINUOUS
10
41.5
20
-30.
11
41.5
21
-31.1999999999999993
0
LINE
8
BLACK
6
CONTINUOUS
10
41.5
20
-31.1999999999999993
11
40.1999999999999957
21
-31.1999999999999993
0
LINE
8
BLACK
6
CONTINUOUS
10
43.8999999999999986
20
-30.
11
45.3999999999999986
21
-30.
0
LINE
8
BLACK
6
CONTINUOUS
10
45.1999999999999957
20
-38.3999999999999986
11
44.
21
-37.1999999999999957
0
LINE
8
BLACK
6
CONTINUOUS
10
45.1999999999999957
20
-38.3999999999999986
11
53.3999999999999986
21
-38.3999999999999986
0
LINE
8
BLACK
6
CONTINUOUS
10
50.5999999999999943
20
-30.
11
52.0999999999999943
21
-30.
0
LINE
8
BLACK
6
CONTINUOUS
10
53.3999999999999986
20
-37.1999999999999957
11
55.3999999999999986
21
-37.1999999999999957
0
LINE
8
BLACK
6
CONTINUOUS
10
53.3999999999999986
20
-38.3999999999999986
11
53.3999999999999986
21
-37.1999999999999957
0
LINE
8
BLACK
6
CONTINUOUS
10
54.5
20
-31.0999999999999979
11
54.5
21
-30.
0
LINE
8
BLACK
6
CONTINUOUS
10
55.3999999999999986
20
-34.1000000000000014
11
57.
21
-34.1000000000000014
0
LINE
8
BLACK
6
CONTINUOUS
10
55.3999999999999986
20
-37.1999999999999957
11
55.3999999999999986
21
-34.1000000000000014
0
LINE
8
BLACK
6
CONTINUOUS
10
57.
20
-31.0999999999999979
11
54.5
21
-31.0999999999999979
0
LINE
8
BLACK
6
CONTINUOUS
10
57.
20
-34.1000000000000014
11
57.
21
-31.0999999999999979
0
CIRCLE
8
BLACK
10
42.6999999999999957
20
-30.
40
1.2
0
CIRCLE
8
BLACK
10
48.
20
-30.
40
2.6000000000000001
0
CIRCLE
8
BLACK
10
53.2999999999999972
20
-30.
40
1.2
0
LINE
8
BLACK
6
CONTINUOUS
10
-57.7999999999999972
20
-32.3999999999999986
11
-57.7999999999999972
21
-36.1999999999999957
0
LINE
8
BLACK
6
CONTINUOUS
10
-57.7999999999999972
20
-36.1999999999999957
11
-55.7999999999999972
21
-36.1999999999999957
0
LINE
8
BLACK
6
CONTINUOUS
10
-55.7999999999999972
20
-31.1999999999999993
11
-55.7999999999999972
21
-32.3999999999999986
0
LINE
8
BLACK
6
CONTINUOUS
10
-55.7999999999999972
20
-32.3999999999999986
11
-57.7999999999999972
21
-32.3999999999999986
0
LINE
8
BLACK
6
CONTINUOUS
10
-55.7999999999999972
20
-36.1999999999999957
11
-55.7999999999999972
21
-37.1999999999999957
0
LINE
8
BLACK
6
CONTINUOUS
10
-55.7999999999999972
20
-37.1999999999999957
11
-52.
21
-37.1999999999999957
0
LINE
8
BLACK
6
CONTINUOUS
10
-54.5
20
-30.
11
-54.5
21
-31.1999999999999993
0
LINE
8
BLACK
6
CONTINUOUS
10
-54.5
20
-31.1999999999999993
11
-55.7999999999999972
21
-31.1999999999999993
0
LINE
8
BLACK
6
CONTINUOUS
10
-52.0999999999999943
20
-30.
11
-50.5999999999999943
21
-30.
0
LINE
8
BLACK
6
CONTINUOUS
10
-50.7999999999999972
20
-38.3999999999999986
11
-52.
21
-37.1999999999999957
0
LINE
8
BLACK
6
CONTINUOUS
10
-50.7999999999999972
20
-38.3999999999999986
11
-42.6000000000000014
21
-38.3999999999999986
0
LINE
8
BLACK
6
CONTINUOUS
10
-45.3999999999999986
20
-30.
11
-43.8999999999999986
21
-30.
0
LINE
8
BLACK
6
CONTINUOUS
10
-42.6000000000000014
20
-37.1999999999999957
11
-40.6000000000000014
21
-37.1999999999999957
0
LINE
8
BLACK
6
CONTINUOUS
10
-42.6000000000000014
20
-38.3999999999999986
11
-42.6000000000000014
21
-37.1999999999999957
0
LINE
8
BLACK
6
CONTINUOUS
10
-41.5
20
-31.0999999999999979
11
-41.5
21
-30.
0
LINE
8
BLACK
6
CONTINUOUS
10
-40.6000000000000014
20
-34.1000000000000014
11
-39.
21
-34.1000000000000014
0
LINE
8
BLACK
6
CONTINUOUS
10
-40.6000000000000014
20
-37.1999999999999957
11
-40.6000000000000014
21
-34.1000000000000014
0
LINE
8
BLACK
6
CONTINUOUS
10
-39.
20
-31.0999999999999979
11
-41.5
21
-31.0999999999999979
0
LINE
8
BLACK
6
CONTINUOUS
10
-39.
20
-34.1000000000000014
11
-39.
21
-31.0999999999999979
0
CIRCLE
8
BLACK
10
-53.2999999999999972
20
-30.
40
1.2
0
CIRCLE
8
BLACK
10
-48.
20
-30.
40
2.6000000000000001
0
CIRCLE
8
BLACK
10
-42.6999999999999957
20
-30.
40
1.2
0
LINE
8
BLACK
6
CONTINUOUS
10
76.2000000000000028
20
-14.3999999999999986
11
76.2000000000000028
21
-18.1999999999999993
0
LINE
8
BLACK
6
CONTINUOUS
10
76.2000000000000028
20
-18.1999999999999993
11
78.2000000000000028
21
-18.1999999999999993
0
LINE
8
BLACK
6
CONTINUOUS
10
78.2000000000000028
20
-13.1999999999999993
11
78.2000000000000028
21
-14.3999999999999986
0
LINE
8
BLACK
6
CONTINUOUS
10
78.2000000000000028
20
-14.3999999999999986
11
76.2000000000000028
21
-14.3999999999999986
0
LINE
8
BLACK
6
CONTINUOUS
10
78.2000000000000028
20
-18.1999999999999993
11
78.2000000000000028
21
-19.1999999999999993
0
LINE
8
BLACK
6
CONTINUOUS
10
78.2000000000000028
20
-19.1999999999999993
11
82.
21
-19.1999999999999993
0
LINE
8
BLACK
6
CONTINUOUS
10
79.5
20
-12.
11
79.5
21
-13.1999999999999993
0
LINE
8
BLACK
6
CONTINUOUS
10
79.5
20
-13.1999999999999993
11
78.2000000000000028
21
-13.1999999999999993
0
LINE
8
BLACK
6
CONTINUOUS
10
81.8999999999999915
20
-12.
11
83.3999999999999915
21
-12.
0
LINE
8
BLACK
6
CONTINUOUS
10
83.2000000000000028
20
-20.3999999999999986
11
82.
21
-19.1999999999999993
0
LINE
8
BLACK
6
CONTINUOUS
10
83.2000000000000028
20
-20.3999999999999986
11
91.3999999999999915
21
-20.3999999999999986
0
LINE
8
BLACK
6
CONTINUOUS
10
88.5999999999999943
20
-12.
11
90.0999999999999943
21
-12.
0
LINE
8
BLACK
6
CONTINUOUS
10
91.3999999999999915
20
-19.1999999999999993
11
93.3999999999999915
21
-19.1999999999999993
0
LINE
8
BLACK
6
CONTINUOUS
10
91.3999999999999915
20
-20.3999999999999986
11
91.3999999999999915
21
-19.1999999999999993
0
LINE
8
BLACK
6
CONTINUOUS
10
92.5
20
-13.0999999999999996
11
92.5
21
-12.
0
LINE
8
BLACK
6
CONTINUOUS
10
93.3999999999999915
20
-16.0999999999999979
11
95.
21
-16.0999999999999979
0
LINE
8
BLACK
6
CONTINUOUS
10
93.3999999999999915
20
-19.1999999999999993
11
93.3999999999999915
21
-16.0999999999999979
0
LINE
8
BLACK
6
CONTINUOUS
10
95.
20
-13.0999999999999996
11
92.5
21
-13.0999999999999996
0
LINE
8
BLACK
6
CONTINUOUS
10
95.
20
-16.0999999999999979
11
95.
21
-13.0999999999999996
0
CIRCLE
8
BLACK
10
80.7000000000000028
20
-12.
40
1.2
0
CIRCLE
8
BLACK
10
86.
20
-12.
40
2.6000000000000001
0
CIRCLE
8
BLACK
10
91.2999999999999972
20
-12.
40
1.2
0
LINE
8
BLACK
6
CONTINUOUS
10
-114.7999999999999972
20
-52.3999999999999986
11
-114.7999999999999972
21
-56.1999999999999957
0
LINE
8
BLACK
6
CONTINUOUS
10
-114.7999999999999972
20
-56.1999999999999957
11
-112.7999999999999972
21
-56.1999999999999957
0
LINE
8
BLACK
6
CONTINUOUS
10
-112.7999999999999972
20
-51.1999999999999957
11
-112.7999999999999972
21
-52.3999999999999986
0
LINE
8
BLACK
6
CONTINUOUS
10
-112.7999999999999972
20
-52.3999999999999986
11
-114.7999999999999972
21
-52.3999999999999986
0
LINE
8
BLACK
6
CONTINUOUS
10
-112.7999999999999972
20
-56.1999999999999957
11
-112.7999999999999972
21
-57.1999999999999957
0
LINE
8
BLACK
6
CONTINUOUS
10
-112.7999999999999972
20
-57.1999999999999957
11
-109.
21
-57.1999999999999957
0
LINE
8
BLACK
6
CONTINUOUS
10
-111.5
20
-50.
11
-111.5
21
-51.1999999999999957
0
LINE
8
BLACK
6
CONTINUOUS
10
-111.5
20
-51.1999999999999957
11
-112.7999999999999972
21
-51.1999999999999957
0
LINE
8
BLACK
6
CONTINUOUS
10
-109.0999999999999943
20
-50.
11
-107.5999999999999943
21
-50.
0
LINE
8
BLACK
6
CONTINUOUS
10
-107.7999999999999972
20
-58.3999999999999986
11
-109.
21
-57.1999999999999957
0
LINE
8
BLACK
6
CONTINUOUS
10
-107.7999999999999972
20
-58.3999999999999986
11
-99.5999999999999943
21
-58.3999999999999986
0
LINE
8
BLACK
6
CONTINUOUS
10
-102.3999999999999915
20
-50.
11
-100.8999999999999915
21
-50.
0
LINE
8
BLACK
6
CONTINUOUS
10
-99.5999999999999943
20
-57.1999999999999957
11
-97.5999999999999943
21
-57.1999999999999957
0
LINE
8
BLACK
6
CONTINUOUS
10
-99.5999999999999943
20
-58.3999999999999986
11
-99.5999999999999943
21
-57.1999999999999957
0
LINE
8
BLACK
6
CONTINUOUS
10
-98.5
20
-51.0999999999999943
11
-98.5
21
-50.
0
LINE
8
BLACK
6
CONTINUOUS
10
-97.5999999999999943
20
-54.0999999999999943
11
-96.
21
-54.0999999999999943
0
LINE
8
BLACK
6
CONTINUOUS
10
-97.5999999999999943
20
-57.1999999999999957
11
-97.5999999999999943
21
-54.0999999999999943
0
LINE
8
BLACK
6
CONTINUOUS
10
-96.
20
-51.0999999999999943
11
-98.5
21
-51.0999999999999943
0
LINE
8
BLACK
6
CONTINUOUS
10
-96.
20
-54.0999999999999943
11
-96.
21
-51.0999999999999943
0
CIRCLE
8
BLACK
10
-110.2999999999999972
20
-50.
40
1.2
0
CIRCLE
8
BLACK
10
-105.
20
-50.
40
2.6000000000000001
0
CIRCLE
8
BLACK
10
-99.6999999999999886
20
-50.
40
1.2
0
LINE
8
BLACK
6
CONTINUOUS
10
-57.7999999999999972
20
-16.3999999999999986
11
-57.7999999999999972
21
-20.1999999999999993
0
LINE
8
BLACK
6
CONTINUOUS
10
-57.7999999999999972
20
-20.1999999999999993
11
-55.7999999999999972
21
-20.1999999999999993
0
LINE
8
BLACK
6
CONTINUOUS
10
-55.7999999999999972
20
-15.1999999999999993
11
-55.7999999999999972
21
-16.3999999999999986
0
LINE
8
BLACK
6
CONTINUOUS
10
-55.7999999999999972
20
-16.3999999999999986
11
-57.7999999999999972
21
-16.3999999999999986
0
LINE
8
BLACK
6
CONTINUOUS
10
-55.7999999999999972
20
-20.1999999999999993
11
-55.7999999999999972
21
-21.1999999999999993
0
LINE
8
BLACK
6
CONTINUOUS
10
-55.7999999999999972
20
-21.1999999999999993
11
-52.
21
-21.1999999999999993
0
LINE
8
BLACK
6
CONTINUOUS
10
-54.5
20
-14.
11
-54.5
21
-15.1999999999999993
0
LINE
8
BLACK
6
CONTINUOUS
10
-54.5
20
-15.1999999999999993
11
-55.7999999999999972
21
-15.1999999999999993
0
LINE
8
BLACK
6
CONTINUOUS
10
-52.0999999999999943
20
-14.
11
-50.5999999999999943
21
-14.
0
LINE
8
BLACK
6
CONTINUOUS
10
-50.7999999999999972
20
-22.3999999999999986
11
-52.
21
-21.1999999999999993
0
LINE
8
BLACK
6
CONTINUOUS
10
-50.7999999999999972
20
-22.3999999999999986
11
-42.6000000000000014
21
-22.3999999999999986
0
LINE
8
BLACK
6
CONTINUOUS
10
-45.3999999999999986
20
-14.
11
-43.8999999999999986
21
-14.
0
LINE
8
BLACK
6
CONTINUOUS
10
-42.6000000000000014
20
-21.1999999999999993
11
-40.6000000000000014
21
-21.1999999999999993
0
LINE
8
BLACK
6
CONTINUOUS
10
-42.6000000000000014
20
-22.3999999999999986
11
-42.6000000000000014
21
-21.1999999999999993
0
LINE
8
BLACK
6
CONTINUOUS
10
-41.5
20
-15.0999999999999996
11
-41.5
21
-14.
0
LINE
8
BLACK
6
CONTINUOUS
10
-40.6000000000000014
20
-18.0999999999999979
11
-39.
21
-18.0999999999999979
0
LINE
8
BLACK
6
CONTINUOUS
10
-40.6000000000000014
20
-21.1999999999999993
11
-40.6000000000000014
21
-18.0999999999999979
0
LINE
8
BLACK
6
CONTINUOUS
10
-39.
20
-15.0999999999999996
11
-41.5
21
-15.0999999999999996
0
LINE
8
BLACK
6
CONTINUOUS
10
-39.
20
-18.0999999999999979
11
-39.
21
-15.0999999999999996
0
CIRCLE
8
BLACK
10
-53.2999999999999972
20
-14.
40
1.2
0
CIRCLE
8
BLACK
10
-48.
20
-14.
40
2.6000000000000001
0
CIRCLE
8
BLACK
10
-42.6999999999999957
20
-14.
40
1.2
0
LINE
8
BLACK
6
CONTINUOUS
10
76.2000000000000028
20
-46.3999999999999986
11
76.2000000000000028
21
-50.1999999999999957
0
LINE
8
BLACK
6
CONTINUOUS
10
76.2000000000000028
20
-50.1999999999999957
11
78.2000000000000028
21
-50.1999999999999957
0
LINE
8
BLACK
6
CONTINUOUS
10
78.2000000000000028
20
-45.1999999999999957
11
78.2000000000000028
21
-46.3999999999999986
0
LINE
8
BLACK
6
CONTINUOUS
10
78.2000000000000028
20
-46.3999999999999986
11
76.2000000000000028
21
-46.3999999999999986
0
LINE
8
BLACK
6
CONTINUOUS
10
78.2000000000000028
20
-50.1999999999999957
11
78.2000000000000028
21
-51.1999999999999957
0
LINE
8
BLACK
6
CONTINUOUS
10
78.2000000000000028
20
-51.1999999999999957
11
82.
21
-51.1999999999999957
0
LINE
8
BLACK
6
CONTINUOUS
10
79.5
20
-44.
11
79.5
21
-45.1999999999999957
0
LINE
8
BLACK
6
CONTINUOUS
10
79.5
20
-45.1999999999999957
11
78.2000000000000028
21
-45.1999999999999957
0
LINE
8
BLACK
6
CONTINUOUS
10
81.8999999999999915
20
-44.
11
83.3999999999999915
21
-44.
0
LINE
8
BLACK
6
CONTINUOUS
10
83.2000000000000028
20
-52.3999999999999986
11
82.
21
-51.1999999999999957
0
LINE
8
BLACK
6
CONTINUOUS
10
83.2000000000000028
20
-52.3999999999999986
11
91.3999999999999915
21
-52.3999999999999986
0
LINE
8
BLACK
6
CONTINUOUS
10
88.5999999999999943
20
-44.
11
90.0999999999999943
21
-44.
0
LINE
8
BLACK
6
CONTINUOUS
10
91.3999999999999915
20
-51.1999999999999957
11
93.3999999999999915
21
-51.1999999999999957
0
LINE
8
BLACK
6
CONTINUOUS
10
91.3999999999999915
20
-52.3999999999999986
11
91.3999999999999915
21
-51.1999999999999957
0
LINE
8
BLACK
6
CONTINUOUS
10
92.5
20
-45.1000000000000014
11
92.5
21
-44.
0
LINE
8
BLACK
6
CONTINUOUS
10
93.3999999999999915
20
-48.0999999999999943
11
95.
21
-48.0999999999999943
0
LINE
8
BLACK
6
CONTINUOUS
10
93.3999999999999915
20
-51.1999999999999957
11
93.3999999999999915
21
-48.0999999999999943
0
LINE
8
BLACK
6
CONTINUOUS
10
95.
20
-45.1000000000000014
11
92.5
21
-45.1000000000000014
0
LINE
8
BLACK
6
CONTINUOUS
10
95.
20
-48.0999999999999943
11
95.
21
-45.1000000000000014
0
CIRCLE
8
BLACK
10
80.7000000000000028
20
-44.
40
1.2
0
CIRCLE
8
BLACK
10
86.
20
-44.
40
2.6000000000000001
0
CIRCLE
8
BLACK
10
91.2999999999999972
20
-44.
40
1.2
0
LINE
8
BLACK
6
CONTINUOUS
10
-57.7999999999999972
20
-48.3999999999999986
11
-57.7999999999999972
21
-52.1999999999999957
0
LINE
8
BLACK
6
CONTINUOUS
10
-57.7999999999999972
20
-52.1999999999999957
11
-55.7999999999999972
21
-52.1999999999999957
0
LINE
8
BLACK
6
CONTINUOUS
10
-55.7999999999999972
20
-47.1999999999999957
11
-55.7999999999999972
21
-48.3999999999999986
0
LINE
8
BLACK
6
CONTINUOUS
10
-55.7999999999999972
20
-48.3999999999999986
11
-57.7999999999999972
21
-48.3999999999999986
0
LINE
8
BLACK
6
CONTINUOUS
10
-55.7999999999999972
20
-52.1999999999999957
11
-55.7999999999999972
21
-53.1999999999999957
0
LINE
8
BLACK
6
CONTINUOUS
10
-55.7999999999999972
20
-53.1999999999999957
11
-52.
21
-53.1999999999999957
0
LINE
8
BLACK
6
CONTINUOUS
10
-54.5
20
-46.
11
-54.5
21
-47.1999999999999957
0
LINE
8
BLACK
6
CONTINUOUS
10
-54.5
20
-47.1999999999999957
11
-55.7999999999999972
21
-47.1999999999999957
0
LINE
8
BLACK
6
CONTINUOUS
10
-52.0999999999999943
20
-46.
11
-50.5999999999999943
21
-46.
0
LINE
8
BLACK
6
CONTINUOUS
10
-50.7999999999999972
20
-54.3999999999999986
11
-52.
21
-53.1999999999999957
0
LINE
8
BLACK
6
CONTINUOUS
10
-50.7999999999999972
20
-54.3999999999999986
11
-42.6000000000000014
21
-54.3999999999999986
0
LINE
8
BLACK
6
CONTINUOUS
10
-45.3999999999999986
20
-46.
11
-43.8999999999999986
21
-46.
0
LINE
8
BLACK
6
CONTINUOUS
10
-42.6000000000000014
20
-53.1999999999999957
11
-40.6000000000000014
21
-53.1999999999999957
0
LINE
8
BLACK
6
CONTINUOUS
10
-42.6000000000000014
20
-54.3999999999999986
11
-42.6000000000000014
21
-53.1999999999999957
0
LINE
8
BLACK
6
CONTINUOUS
10
-41.5
20
-47.1000000000000014
11
-41.5
21
-46.
0
LINE
8
BLACK
6
CONTINUOUS
10
-40.6000000000000014
20
-50.0999999999999943
11
-39.
21
-50.0999999999999943
0
LINE
8
BLACK
6
CONTINUOUS
10
-40.6000000000000014
20
-53.1999999999999957
11
-40.6000000000000014
21
-50.0999999999999943
0
LINE
8
BLACK
6
CONTINUOUS
10
-39.
20
-47.1000000000000014
11
-41.5
21
-47.1000000000000014
0
LINE
8
BLACK
6
CONTINUOUS
10
-39.
20
-50.0999999999999943
11
-39.
21
-47.1000000000000014
0
CIRCLE
8
BLACK
10
-53.2999999999999972
20
-46.
40
1.2
0
CIRCLE
8
BLACK
10
-48.
20
-46.
40
2.6000000000000001
0
CIRCLE
8
BLACK
10
-42.6999999999999957
20
-46.
40
1.2
0
LINE
8
BLACK
6
CONTINUOUS
10
76.2000000000000028
20
-30.3999999999999986
11
76.2000000000000028
21
-34.1999999999999957
0
LINE
8
BLACK
6
CONTINUOUS
10
76.2000000000000028
20
-34.1999999999999957
11
78.2000000000000028
21
-34.1999999999999957
0
LINE
8
BLACK
6
CONTINUOUS
10
78.2000000000000028
20
-29.1999999999999993
11
78.2000000000000028
21
-30.3999999999999986
0
LINE
8
BLACK
6
CONTINUOUS
10
78.2000000000000028
20
-30.3999999999999986
11
76.2000000000000028
21
-30.3999999999999986
0
LINE
8
BLACK
6
CONTINUOUS
10
78.2000000000000028
20
-34.1999999999999957
11
78.2000000000000028
21
-35.1999999999999957
0
LINE
8
BLACK
6
CONTINUOUS
10
78.2000000000000028
20
-35.1999999999999957
11
82.
21
-35.1999999999999957
0
LINE
8
BLACK
6
CONTINUOUS
10
79.5
20
-28.
11
79.5
21
-29.1999999999999993
0
LINE
8
BLACK
6
CONTINUOUS
10
79.5
20
-29.1999999999999993
11
78.2000000000000028
21
-29.1999999999999993
0
LINE
8
BLACK
6
CONTINUOUS
10
81.8999999999999915
20
-28.
11
83.3999999999999915
21
-28.
0
LINE
8
BLACK
6
CONTINUOUS
10
83.2000000000000028
20
-36.3999999999999986
11
82.
21
-35.1999999999999957
0
LINE
8
BLACK
6
CONTINUOUS
10
83.2000000000000028
20
-36.3999999999999986
11
91.3999999999999915
21
-36.3999999999999986
0
LINE
8
BLACK
6
CONTINUOUS
10
88.5999999999999943
20
-28.
11
90.0999999999999943
21
-28.
0
LINE
8
BLACK
6
CONTINUOUS
10
91.3999999999999915
20
-35.1999999999999957
11
93.3999999999999915
21
-35.1999999999999957
0
LINE
8
BLACK
6
CONTINUOUS
10
91.3999999999999915
20
-36.3999999999999986
11
91.3999999999999915
21
-35.1999999999999957
0
LINE
8
BLACK
6
CONTINUOUS
10
92.5
20
-29.0999999999999979
11
92.5
21
-28.
0
LINE
8
BLACK
6
CONTINUOUS
10
93.3999999999999915
20
-32.1000000000000014
11
95.
21
-32.1000000000000014
0
LINE
8
BLACK
6
CONTINUOUS
10
93.3999999999999915
20
-35.1999999999999957
11
93.3999999999999915
21
-32.1000000000000014
0
LINE
8
BLACK
6
CONTINUOUS
10
95.
20
-29.0999999999999979
11
92.5
21
-29.0999999999999979
0
LINE
8
BLACK
6
CONTINUOUS
10
95.
20
-32.1000000000000014
11
95.
21
-29.0999999999999979
0
CIRCLE
8
BLACK
10
80.7000000000000028
20
-28.
40
1.2
0
CIRCLE
8
BLACK
10
86.
20
-28.
40
2.6000000000000001
0
CIRCLE
8
BLACK
10
91.2999999999999972
20
-28.
40
1.2
0
LINE
8
BLACK
6
CONTINUOUS
10
19.1999999999999993
20
-34.3999999999999986
11
19.1999999999999993
21
-38.1999999999999957
0
LINE
8
BLACK
6
CONTINUOUS
10
19.1999999999999993
20
-38.1999999999999957
11
21.1999999999999993
21
-38.1999999999999957
0
LINE
8
BLACK
6
CONTINUOUS
10
21.1999999999999993
20
-33.1999999999999957
11
21.1999999999999993
21
-34.3999999999999986
0
LINE
8
BLACK
6
CONTINUOUS
10
21.1999999999999993
20
-34.3999999999999986
11
19.1999999999999993
21
-34.3999999999999986
0
LINE
8
BLACK
6
CONTINUOUS
10
21.1999999999999993
20
-38.1999999999999957
11
21.1999999999999993
21
-39.1999999999999957
0
LINE
8
BLACK
6
CONTINUOUS
10
21.1999999999999993
20
-39.1999999999999957
11
25.
21
-39.1999999999999957
0
LINE
8
BLACK
6
CONTINUOUS
10
22.5
20
-32.
11
22.5
21
-33.1999999999999957
0
LINE
8
BLACK
6
CONTINUOUS
10
22.5
20
-33.1999999999999957
11
21.1999999999999993
21
-33.1999999999999957
0
LINE
8
BLACK
6
CONTINUOUS
10
24.8999999999999986
20
-32.
11
26.3999999999999986
21
-32.
0
LINE
8
BLACK
6
CONTINUOUS
10
26.1999999999999993
20
-40.3999999999999986
11
25.
21
-39.1999999999999957
0
LINE
8
BLACK
6
CONTINUOUS
10
26.1999999999999993
20
-40.3999999999999986
11
34.3999999999999986
21
-40.3999999999999986
0
LINE
8
BLACK
6
CONTINUOUS
10
31.5999999999999979
20
-32.
11
33.1000000000000014
21
-32.
0
LINE
8
BLACK
6
CONTINUOUS
10
34.3999999999999986
20
-39.1999999999999957
11
36.3999999999999986
21
-39.1999999999999957
0
LINE
8
BLACK
6
CONTINUOUS
10
34.3999999999999986
20
-40.3999999999999986
11
34.3999999999999986
21
-39.1999999999999957
0
LINE
8
BLACK
6
CONTINUOUS
10
35.5
20
-33.1000000000000014
11
35.5
21
-32.
0
LINE
8
BLACK
6
CONTINUOUS
10
36.3999999999999986
20
-36.1000000000000014
11
38.
21
-36.1000000000000014
0
LINE
8
BLACK
6
CONTINUOUS
10
36.3999999999999986
20
-39.1999999999999957
11
36.3999999999999986
21
-36.1000000000000014
0
LINE
8
BLACK
6
CONTINUOUS
10
38.
20
-33.1000000000000014
11
35.5
21
-33.1000000000000014
0
LINE
8
BLACK
6
CONTINUOUS
10
38.
20
-36.1000000000000014
11
38.
21
-33.1000000000000014
0
CIRCLE
8
BLACK
10
23.6999999999999993
20
-32.
40
1.2
0
CIRCLE
8
BLACK
10
29.
20
-32.
40
2.6000000000000001
0
CIRCLE
8
BLACK
10
34.2999999999999972
20
-32.
40
1.2
0
LINE
8
BLACK
6
CONTINUOUS
10
57.1999999999999957
20
-10.4000000000000004
11
57.1999999999999957
21
-14.1999999999999993
0
LINE
8
BLACK
6
CONTINUOUS
10
57.1999999999999957
20
-14.1999999999999993
11
59.1999999999999957
21
-14.1999999999999993
0
LINE
8
BLACK
6
CONTINUOUS
10
59.1999999999999957
20
-9.1999999999999993
11
59.1999999999999957
21
-10.4000000000000004
0
LINE
8
BLACK
6
CONTINUOUS
10
59.1999999999999957
20
-10.4000000000000004
11
57.1999999999999957
21
-10.4000000000000004
0
LINE
8
BLACK
6
CONTINUOUS
10
59.1999999999999957
20
-14.1999999999999993
11
59.1999999999999957
21
-15.1999999999999993
0
LINE
8
BLACK
6
CONTINUOUS
10
59.1999999999999957
20
-15.1999999999999993
11
63.
21
-15.1999999999999993
0
LINE
8
BLACK
6
CONTINUOUS
10
60.5
20
-8.
11
60.5
21
-9.1999999999999993
0
LINE
8
BLACK
6
CONTINUOUS
10
60.5
20
-9.1999999999999993
11
59.1999999999999957
21
-9.1999999999999993
0
LINE
8
BLACK
6
CONTINUOUS
10
62.8999999999999986
20
-8.
11
64.3999999999999915
21
-8.
0
LINE
8
BLACK
6
CONTINUOUS
10
64.2000000000000028
20
-16.3999999999999986
11
63.
21
-15.1999999999999993
0
LINE
8
BLACK
6
CONTINUOUS
10
64.2000000000000028
20
-16.3999999999999986
11
72.3999999999999915
21
-16.3999999999999986
0
LINE
8
BLACK
6
CONTINUOUS
10
69.5999999999999943
20
-8.
11
71.0999999999999943
21
-8.
0
LINE
8
BLACK
6
CONTINUOUS
10
72.3999999999999915
20
-15.1999999999999993
11
74.3999999999999915
21
-15.1999999999999993
0
LINE
8
BLACK
6
CONTINUOUS
10
72.3999999999999915
20
-16.3999999999999986
11
72.3999999999999915
21
-15.1999999999999993
0
LINE
8
BLACK
6
CONTINUOUS
10
73.5
20
-9.0999999999999996
11
73.5
21
-8.
0
LINE
8
BLACK
6
CONTINUOUS
10
74.3999999999999915
20
-12.0999999999999996
11
76.
21
-12.0999999999999996
0
LINE
8
BLACK
6
CONTINUOUS
10
74.3999999999999915
20
-15.1999999999999993
11
74.3999999999999915
21
-12.0999999999999996
0
LINE
8
BLACK
6
CONTINUOUS
10
76.
20
-9.0999999999999996
11
73.5
21
-9.0999999999999996
0
LINE
8
BLACK
6
CONTINUOUS
10
76.
20
-12.0999999999999996
11
76.
21
-9.0999999999999996
0
CIRCLE
8
BLACK
10
61.6999999999999957
20
-8.
40
1.2
0
CIRCLE
8
BLACK
10
67.
20
-8.
40
2.6000000000000001
0
CIRCLE
8
BLACK
10
72.2999999999999972
20
-8.
40
1.2
0
LINE
8
BLACK
6
CONTINUOUS
10
-76.7999999999999972
20
-10.4000000000000004
11
-76.7999999999999972
21
-14.1999999999999993
0
LINE
8
BLACK
6
CONTINUOUS
10
-76.7999999999999972
20
-14.1999999999999993
11
-74.7999999999999972
21
-14.1999999999999993
0
LINE
8
BLACK
6
CONTINUOUS
10
-74.7999999999999972
20
-9.1999999999999993
11
-74.7999999999999972
21
-10.4000000000000004
0
LINE
8
BLACK
6
CONTINUOUS
10
-74.7999999999999972
20
-10.4000000000000004
11
-76.7999999999999972
21
-10.4000000000000004
0
LINE
8
BLACK
6
CONTINUOUS
10
-74.7999999999999972
20
-14.1999999999999993
11
-74.7999999999999972
21
-15.1999999999999993
0
LINE
8
BLACK
6
CONTINUOUS
10
-74.7999999999999972
20
-15.1999999999999993
11
-71.
21
-15.1999999999999993
0
LINE
8
BLACK
6
CONTINUOUS
10
-73.5
20
-8.
11
-73.5
21
-9.1999999999999993
0
LINE
8
BLACK
6
CONTINUOUS
10
-73.5
20
-9.1999999999999993
11
-74.7999999999999972
21
-9.1999999999999993
0
LINE
8
BLACK
6
CONTINUOUS
10
-71.0999999999999943
20
-8.
11
-69.5999999999999943
21
-8.
0
LINE
8
BLACK
6
CONTINUOUS
10
-69.7999999999999972
20
-16.3999999999999986
11
-71.
21
-15.1999999999999993
0
LINE
8
BLACK
6
CONTINUOUS
10
-69.7999999999999972
20
-16.3999999999999986
11
-61.5999999999999943
21
-16.3999999999999986
0
LINE
8
BLACK
6
CONTINUOUS
10
-64.3999999999999915
20
-8.
11
-62.8999999999999986
21
-8.
0
LINE
8
BLACK
6
CONTINUOUS
10
-61.5999999999999943
20
-15.1999999999999993
11
-59.5999999999999943
21
-15.1999999999999993
0
LINE
8
BLACK
6
CONTINUOUS
10
-61.5999999999999943
20
-16.3999999999999986
11
-61.5999999999999943
21
-15.1999999999999993
0
LINE
8
BLACK
6
CONTINUOUS
10
-60.5
20
-9.0999999999999996
11
-60.5
21
-8.
0
LINE
8
BLACK
6
CONTINUOUS
10
-59.5999999999999943
20
-12.0999999999999996
11
-58.
21
-12.0999999999999996
0
LINE
8
BLACK
6
CONTINUOUS
10
-59.5999999999999943
20
-15.1999999999999993
11
-59.5999999999999943
21
-12.0999999999999996
0
LINE
8
BLACK
6
CONTINUOUS
10
-58.
20
-9.0999999999999996
11
-60.5
21
-9.0999999999999996
0
LINE
8
BLACK
6
CONTINUOUS
10
-58.
20
-12.0999999999999996
11
-58.
21
-9.0999999999999996
0
CIRCLE
8
BLACK
10
-72.2999999999999972
20
-8.
40
1.2
0
CIRCLE
8
BLACK
10
-67.
20
-8.
40
2.6000000000000001
0
CIRCLE
8
BLACK
10
-61.6999999999999957
20
-8.
40
1.2
0
LINE
8
BLACK
6
CONTINUOUS
10
19.1999999999999993
20
-50.3999999999999986
11
19.1999999999999993
21
-54.1999999999999957
0
LINE
8
BLACK
6
CONTINUOUS
10
19.1999999999999993
20
-54.1999999999999957
11
21.1999999999999993
21
-54.1999999999999957
0
LINE
8
BLACK
6
CONTINUOUS
10
21.1999999999999993
20
-49.1999999999999957
11
21.1999999999999993
21
-50.3999999999999986
0
LINE
8
BLACK
6
CONTINUOUS
10
21.1999999999999993
20
-50.3999999999999986
11
19.1999999999999993
21
-50.3999999999999986
0
LINE
8
BLACK
6
CONTINUOUS
10
21.1999999999999993
20
-54.1999999999999957
11
21.1999999999999993
21
-55.1999999999999957
0
LINE
8
BLACK
6
CONTINUOUS
10
21.1999999999999993
20
-55.1999999999999957
11
25.
21
-55.1999999999999957
0
LINE
8
BLACK
6
CONTINUOUS
10
22.5
20
-48.
11
22.5
21
-49.1999999999999957
0
LINE
8
BLACK
6
CONTINUOUS
10
22.5
20
-49.1999999999999957
11
21.1999999999999993
21
-49.1999999999999957
0
LINE
8
BLACK
6
CONTINUOUS
10
24.8999999999999986
20
-48.
11
26.3999999999999986
21
-48.
0
LINE
8
BLACK
6
CONTINUOUS
10
26.1999999999999993
20
-56.3999999999999986
11
25.
21
-55.1999999999999957
0
LINE
8
BLACK
6
CONTINUOUS
10
26.1999999999999993
20
-56.3999999999999986
11
34.3999999999999986
21
-56.3999999999999986
0
LINE
8
BLACK
6
CONTINUOUS
10
31.5999999999999979
20
-48.
11
33.1000000000000014
21
-48.
0
LINE
8
BLACK
6
CONTINUOUS
10
34.3999999999999986
20
-55.1999999999999957
11
36.3999999999999986
21
-55.1999999999999957
0
LINE
8
BLACK
6
CONTINUOUS
10
34.3999999999999986
20
-56.3999999999999986
11
34.3999999999999986
21
-55.1999999999999957
0
LINE
8
BLACK
6
CONTINUOUS
10
35.5
20
-49.0999999999999943
11
35.5
21
-48.
0
LINE
8
BLACK
6
CONTINUOUS
10
36.3999999999999986
20
-52.0999999999999943
11
38.
21
-52.0999999999999943
0
LINE
8
BLACK
6
CONTINUOUS
10
36.3999999999999986
20
-55.1999999999999957
11
36.3999999999999986
21
-52.0999999999999943
0
LINE
8
BLACK
6
CONTINUOUS
10
38.
20
-49.0999999999999943
11
35.5
21
-49.0999999999999943
0
LINE
8
BLACK
6
CONTINUOUS
10
38.
20
-52.0999999999999943
11
38.
21
-49.0999999999999943
0
CIRCLE
8
BLACK
10
23.6999999999999993
20
-48.
40
1.2
0
CIRCLE
8
BLACK
10
29.
20
-48.
40
2.6000000000000001
0
CIRCLE
8
BLACK
10
34.2999999999999972
20
-48.
40
1.2
0
LINE
8
BLACK
6
CONTINUOUS
10
114.1999999999999886
20
-36.3999999999999986
11
114.1999999999999886
21
-40.1999999999999957
0
LINE
8
BLACK
6
CONTINUOUS
10
114.1999999999999886
20
-40.1999999999999957
11
116.1999999999999886
21
-40.1999999999999957
0
LINE
8
BLACK
6
CONTINUOUS
10
116.1999999999999886
20
-35.1999999999999957
11
116.1999999999999886
21
-36.3999999999999986
0
LINE
8
BLACK
6
CONTINUOUS
10
116.1999999999999886
20
-36.3999999999999986
11
114.1999999999999886
21
-36.3999999999999986
0
LINE
8
BLACK
6
CONTINUOUS
10
116.1999999999999886
20
-40.1999999999999957
11
116.1999999999999886
21
-41.1999999999999957
0
LINE
8
BLACK
6
CONTINUOUS
10
116.1999999999999886
20
-41.1999999999999957
11
120.
21
-41.1999999999999957
0
LINE
8
BLACK
6
CONTINUOUS
10
117.5
20
-34.
11
117.5
21
-35.1999999999999957
0
LINE
8
BLACK
6
CONTINUOUS
10
117.5
20
-35.1999999999999957
11
116.1999999999999886
21
-35.1999999999999957
0
LINE
8
BLACK
6
CONTINUOUS
10
119.8999999999999915
20
-34.
11
121.3999999999999915
21
-34.
0
LINE
8
BLACK
6
CONTINUOUS
10
121.1999999999999886
20
-42.3999999999999986
11
120.
21
-41.1999999999999957
0
LINE
8
BLACK
6
CONTINUOUS
10
121.1999999999999886
20
-42.3999999999999986
11
129.4000000000000057
21
-42.3999999999999986
0
LINE
8
BLACK
6
CONTINUOUS
10
126.5999999999999943
20
-34.
11
128.0999999999999943
21
-34.
0
LINE
8
BLACK
6
CONTINUOUS
10
129.4000000000000057
20
-41.1999999999999957
11
131.4000000000000057
21
-41.1999999999999957
0
LINE
8
BLACK
6
CONTINUOUS
10
129.4000000000000057
20
-42.3999999999999986
11
129.4000000000000057
21
-41.1999999999999957
0
LINE
8
BLACK
6
CONTINUOUS
10
130.5
20
-35.1000000000000014
11
130.5
21
-34.
0
LINE
8
BLACK
6
CONTINUOUS
10
131.4000000000000057
20
-38.1000000000000014
11
133.
21
-38.1000000000000014
0
LINE
8
BLACK
6
CONTINUOUS
10
131.4000000000000057
20
-41.1999999999999957
11
131.4000000000000057
21
-38.1000000000000014
0
LINE
8
BLACK
6
CONTINUOUS
10
133.
20
-35.1000000000000014
11
130.5
21
-35.1000000000000014
0
LINE
8
BLACK
6
CONTINUOUS
10
133.
20
-38.1000000000000014
11
133.
21
-35.1000000000000014
0
CIRCLE
8
BLACK
10
118.6999999999999886
20
-34.
40
1.2
0
CIRCLE
8
BLACK
10
124.
20
-34.
40
2.6000000000000001
0
CIRCLE
8
BLACK
10
129.2999999999999829
20
-34.
40
1.2
  0
ENDSEC
  0
EOF
