0
SECTION
2
HEADER
9
$INSUNITS
70
4
9
$ACADVER
1
AC1014
9
$HANDSEED
5
FFFF
0
ENDSEC
0
SECTION
2
TABLES
0
TABLE
2
VPORT
5
8
100
AcDbSymbolTable
0
ENDTAB
0
TABLE
2
LTYPE
5
5
100
AcDbSymbolTable
0
LTYPE
5
14
100
AcDbSymbolTableRecord
100
AcDbLinetypeTableRecord
2
BYBLOCK
70
0
0
LTYPE
5
15
100
AcDbSymbolTableRecord
100
AcDbLinetypeTableRecord
2
BYLAYER
70
0
0
LTYPE
5
16
100
AcDbSymbolTableRecord
100
AcDbLinetypeTableRecord
2
DASHED
70
0
3
Dashed __ __ __ __ __ __ __ __ __ __ __ __ __ _
72
65
73
2
40
0.75
49
0.5
74
0
49
-0.25
74
0
0
ENDTAB
0
TABLE
2
LAYER
5
2
100
AcDbSymbolTable
70
2
0
LAYER
5
50
100
AcDbSymbolTableRecord
100
AcDbLayerTableRecord
2
0
70
0
62
7
6
CONTINUOUS
0
ENDTAB
0
TABLE
2
STYLE
5
3
100
AcDbSymbolTable
70
1
0
STYLE
5
11
100
AcDbSymbolTableRecord
100
AcDbTextStyleTableRecord
2
STANDARD
70
0
0
ENDTAB
0
TABLE
2
VIEW
5
6
100
AcDbSymbolTable
70
0
0
ENDTAB
0
TABLE
2
UCS
5
7
100
AcDbSymbolTable
70
0
0
ENDTAB
0
TABLE
2
APPID
5
9
100
AcDbSymbolTable
70
2
0
APPID
5
12
100
AcDbSymbolTableRecord
100
AcDbRegAppTableRecord
2
ACAD
70
0
0
ENDTAB
0
TABLE
2
DIMSTYLE
5
A
100
AcDbSymbolTable
70
1
0
ENDTAB
0
TABLE
2
BLOCK_RECORD
5
1
100
AcDbSymbolTable
70
1
0
BLOCK_RECORD
5
1F
100
AcDbSymbolTableRecord
100
AcDbBlockTableRecord
2
*MODEL_SPACE
0
BLOCK_RECORD
5
1B
100
AcDbSymbolTableRecord
100
AcDbBlockTableRecord
2
*PAPER_SPACE
0
ENDTAB
0
ENDSEC
0
SECTION
2
BLOCKS
0
BLOCK
5
20
100
AcDbEntity
100
AcDbBlockBegin
2
*MODEL_SPACE
0
ENDBLK
5
21
100
AcDbEntity
100
AcDbBlockEnd
0
BLOCK
5
1C
100
AcDbEntity
100
AcDbBlockBegin
2
*PAPER_SPACE
0
ENDBLK
5
1D
100
AcDbEntity
100
AcDbBlockEnd
0
ENDSEC
0
SECTION
2
ENTITIES
0
LINE
5
100
100
AcDbEntity
8
0
100
AcDbLine
10
8.7714326870756327
20
-84.179166754130804
30
0
11
9.7290886870756346
21
-86.810305754130781
31
0
0
LINE
5
101
100
AcDbEntity
8
0
100
AcDbLine
10
9.7290886870756346
20
-86.810305754130781
30
0
11
11.514504687075631
21
-86.160467754130792
31
0
0
LINE
5
102
100
AcDbEntity
8
0
100
AcDbLine
10
10.249030687075633
20
-82.683604754130812
30
0
11
10.556848687075631
21
-83.529328754130816
31
0
0
LINE
5
103
100
AcDbEntity
8
0
100
AcDbLine
10
10.556848687075631
20
-83.529328754130816
30
0
11
8.7714326870756327
21
-84.179166754130804
31
0
0
LINE
5
104
100
AcDbEntity
8
0
100
AcDbLine
10
11.514504687075631
20
-86.160467754130792
30
0
11
11.85652468707563
21
-87.100160754130812
31
0
0
LINE
5
105
100
AcDbEntity
8
0
100
AcDbLine
10
11.85652468707563
20
-87.100160754130812
30
0
11
17.024834687075629
21
-85.219049754130793
31
0
0
LINE
5
106
100
AcDbEntity
8
0
100
AcDbLine
10
13.656798687075629
20
-78.889251754130811
30
0
11
14.477647687075628
21
-81.144514754130796
31
0
0
LINE
5
107
100
AcDbEntity
8
0
100
AcDbLine
10
14.477647687075628
20
-81.144514754130796
30
0
11
10.249030687075633
21
-82.683604754130812
31
0
0
LINE
5
108
100
AcDbEntity
8
0
100
AcDbLine
10
17.024834687075629
20
-85.219049754130793
30
0
11
19.340208687075631
21
-85.440499754130812
31
0
0
LINE
5
109
100
AcDbEntity
8
0
100
AcDbLine
10
19.340208687075631
20
-85.440499754130812
30
0
11
23.850733687075628
21
-83.798802754130804
31
0
0
LINE
5
110
100
AcDbEntity
8
0
100
AcDbLine
10
18.543200687075625
20
-77.110747754130827
30
0
11
19.706068687075629
21
-80.305702754130806
31
0
0
LINE
5
111
100
AcDbEntity
8
0
100
AcDbLine
10
22.243238687075628
20
-79.382247754130816
30
0
11
19.706068687075629
21
-80.305702754130806
31
0
0
LINE
5
112
100
AcDbEntity
8
0
100
AcDbLine
10
22.585259687075631
20
-80.321940754130793
30
0
11
22.243238687075628
21
-79.382247754130816
31
0
0
LINE
5
113
100
AcDbEntity
8
0
100
AcDbLine
10
23.508713687075634
20
-82.859110754130811
30
0
11
25.294129687075625
21
-82.20927275413078
31
0
0
LINE
5
114
100
AcDbEntity
8
0
100
AcDbLine
10
23.850733687075628
20
-83.798802754130804
30
0
11
23.508713687075634
21
-82.859110754130811
31
0
0
LINE
5
115
100
AcDbEntity
8
0
100
AcDbLine
10
24.370675687075632
20
-79.672101754130807
30
0
11
22.585259687075631
21
-80.321940754130793
31
0
0
LINE
5
116
100
AcDbEntity
8
0
100
AcDbLine
10
25.294129687075625
20
-82.20927275413078
30
0
11
24.370675687075632
21
-79.672101754130807
31
0
0
CIRCLE
5
117
100
AcDbEntity
8
0
100
AcDbCircle
10
16.099999687075627
20
-77.999999754130812
30
0
40
2.6000000000000001
210
0
220
0
230
1
0
LINE
5
118
100
AcDbEntity
8
0
100
AcDbLine
10
27.429047687075627
20
-77.568808754130828
30
0
11
27.915262687075625
21
-80.326270754130803
31
0
0
LINE
5
119
100
AcDbEntity
8
0
100
AcDbLine
10
27.915262687075625
20
-80.326270754130803
30
0
11
29.786397687075624
21
-79.996338754130804
31
0
0
LINE
5
120
100
AcDbEntity
8
0
100
AcDbLine
10
29.143899687075624
20
-76.352550754130817
30
0
11
29.30018268707563
21
-77.238877754130812
31
0
0
LINE
5
121
100
AcDbEntity
8
0
100
AcDbLine
10
29.30018268707563
20
-77.238877754130812
30
0
11
27.429047687075627
21
-77.568808754130828
31
0
0
LINE
5
122
100
AcDbEntity
8
0
100
AcDbLine
10
29.786397687075624
20
-79.996338754130804
30
0
11
29.960045687075624
21
-80.981146754130805
31
0
0
LINE
5
123
100
AcDbEntity
8
0
100
AcDbLine
10
29.960045687075624
20
-80.981146754130805
30
0
11
35.376488687075621
21
-80.026081754130814
31
0
0
LINE
5
124
100
AcDbEntity
8
0
100
AcDbLine
10
33.158778687075625
20
-73.20759475413081
30
0
11
33.575533687075627
21
-75.571133754130827
31
0
0
LINE
5
125
100
AcDbEntity
8
0
100
AcDbLine
10
33.575533687075627
20
-75.571133754130827
30
0
11
29.143899687075624
21
-76.352550754130817
31
0
0
LINE
5
126
100
AcDbEntity
8
0
100
AcDbLine
10
35.376488687075621
20
-80.026081754130814
30
0
11
37.618232687075619
21
-80.646228754130803
31
0
0
LINE
5
127
100
AcDbEntity
8
0
100
AcDbLine
10
37.618232687075619
20
-80.646228754130803
30
0
11
42.345309687075613
21
-79.812716754130804
31
0
0
LINE
5
128
100
AcDbEntity
8
0
100
AcDbLine
10
38.27977868707562
20
-72.304624754130813
30
0
11
38.870182687075619
21
-75.65297075413082
31
0
0
LINE
5
129
100
AcDbEntity
8
0
100
AcDbLine
10
41.529163687075624
20
-75.184120754130802
30
0
11
38.870182687075619
21
-75.65297075413082
31
0
0
LINE
5
130
100
AcDbEntity
8
0
100
AcDbLine
10
41.702811687075624
20
-76.168928754130803
30
0
11
41.529163687075624
21
-75.184120754130802
31
0
0
LINE
5
131
100
AcDbEntity
8
0
100
AcDbLine
10
42.171661687075627
20
-78.827909754130815
30
0
11
44.042796687075622
21
-78.497977754130815
31
0
0
LINE
5
132
100
AcDbEntity
8
0
100
AcDbLine
10
42.345309687075613
20
-79.812716754130804
30
0
11
42.171661687075627
21
-78.827909754130815
31
0
0
LINE
5
133
100
AcDbEntity
8
0
100
AcDbLine
10
43.573946687075619
20
-75.83899675413079
30
0
11
41.702811687075624
21
-76.168928754130803
31
0
0
LINE
5
134
100
AcDbEntity
8
0
100
AcDbLine
10
44.042796687075622
20
-78.497977754130815
30
0
11
43.573946687075619
21
-75.83899675413079
31
0
0
CIRCLE
5
135
100
AcDbEntity
8
0
100
AcDbCircle
10
35.719278687075622
20
-72.756109754130819
30
0
40
2.6000000000000001
210
0
220
0
230
1
0
LINE
5
136
100
AcDbEntity
8
0
100
AcDbLine
10
46.999999687075622
20
-74.299999754130795
30
0
11
46.999999687075622
21
-77.099999754130792
31
0
0
LINE
5
137
100
AcDbEntity
8
0
100
AcDbLine
10
46.999999687075622
20
-77.099999754130792
30
0
11
48.899999687075628
21
-77.099999754130792
31
0
0
LINE
5
138
100
AcDbEntity
8
0
100
AcDbLine
10
48.899999687075628
20
-73.399999754130803
30
0
11
48.899999687075628
21
-74.299999754130795
31
0
0
LINE
5
139
100
AcDbEntity
8
0
100
AcDbLine
10
48.899999687075628
20
-74.299999754130795
30
0
11
46.999999687075622
21
-74.299999754130795
31
0
0
LINE
5
140
100
AcDbEntity
8
0
100
AcDbLine
10
48.899999687075628
20
-77.099999754130792
30
0
11
48.899999687075628
21
-78.099999754130792
31
0
0
LINE
5
141
100
AcDbEntity
8
0
100
AcDbLine
10
48.899999687075628
20
-78.099999754130792
30
0
11
54.399999687075614
21
-78.099999754130792
31
0
0
LINE
5
142
100
AcDbEntity
8
0
100
AcDbLine
10
53.399999687075606
20
-70.999999754130812
30
0
11
53.399999687075606
21
-73.399999754130803
31
0
0
LINE
5
143
100
AcDbEntity
8
0
100
AcDbLine
10
53.399999687075606
20
-73.399999754130803
30
0
11
48.899999687075628
21
-73.399999754130803
31
0
0
LINE
5
144
100
AcDbEntity
8
0
100
AcDbLine
10
54.399999687075614
20
-78.099999754130792
30
0
11
56.499999687075615
21
-79.099999754130792
31
0
0
LINE
5
145
100
AcDbEntity
8
0
100
AcDbLine
10
56.499999687075615
20
-79.099999754130792
30
0
11
61.299999687075612
21
-79.099999754130792
31
0
0
LINE
5
146
100
AcDbEntity
8
0
100
AcDbLine
10
58.599999687075616
20
-70.999999754130812
30
0
11
58.599999687075616
21
-74.399999754130803
31
0
0
LINE
5
147
100
AcDbEntity
8
0
100
AcDbLine
10
61.299999687075612
20
-74.399999754130803
30
0
11
58.599999687075616
21
-74.399999754130803
31
0
0
LINE
5
148
100
AcDbEntity
8
0
100
AcDbLine
10
61.299999687075612
20
-75.399999754130803
30
0
11
61.299999687075612
21
-74.399999754130803
31
0
0
LINE
5
149
100
AcDbEntity
8
0
100
AcDbLine
10
61.299999687075612
20
-78.099999754130792
30
0
11
63.199999687075618
21
-78.099999754130792
31
0
0
LINE
5
150
100
AcDbEntity
8
0
100
AcDbLine
10
61.299999687075612
20
-79.099999754130792
30
0
11
61.299999687075612
21
-78.099999754130792
31
0
0
LINE
5
151
100
AcDbEntity
8
0
100
AcDbLine
10
63.199999687075618
20
-75.399999754130803
30
0
11
61.299999687075612
21
-75.399999754130803
31
0
0
LINE
5
152
100
AcDbEntity
8
0
100
AcDbLine
10
63.199999687075618
20
-78.099999754130792
30
0
11
63.199999687075618
21
-75.399999754130803
31
0
0
CIRCLE
5
153
100
AcDbEntity
8
0
100
AcDbCircle
10
55.999999687075615
20
-70.999999754130812
30
0
40
2.6000000000000001
210
0
220
0
230
1
0
LINE
5
154
100
AcDbEntity
8
0
100
AcDbLine
10
23.999999687075618
20
-52.299999754130823
30
0
11
23.999999687075618
21
-55.09999975413082
31
0
0
LINE
5
155
100
AcDbEntity
8
0
100
AcDbLine
10
23.999999687075618
20
-55.09999975413082
30
0
11
25.899999687075621
21
-55.09999975413082
31
0
0
LINE
5
156
100
AcDbEntity
8
0
100
AcDbLine
10
25.899999687075621
20
-51.399999754130825
30
0
11
25.899999687075621
21
-52.299999754130823
31
0
0
LINE
5
157
100
AcDbEntity
8
0
100
AcDbLine
10
25.899999687075621
20
-52.299999754130823
30
0
11
23.999999687075618
21
-52.299999754130823
31
0
0
LINE
5
158
100
AcDbEntity
8
0
100
AcDbLine
10
25.899999687075621
20
-55.09999975413082
30
0
11
25.899999687075621
21
-56.099999754130828
31
0
0
LINE
5
159
100
AcDbEntity
8
0
100
AcDbLine
10
25.899999687075621
20
-56.099999754130828
30
0
11
31.399999687075614
21
-56.099999754130828
31
0
0
LINE
5
160
100
AcDbEntity
8
0
100
AcDbLine
10
30.399999687075617
20
-48.99999975413084
30
0
11
30.399999687075617
21
-51.399999754130825
31
0
0
LINE
5
161
100
AcDbEntity
8
0
100
AcDbLine
10
30.399999687075617
20
-51.399999754130825
30
0
11
25.899999687075621
21
-51.399999754130825
31
0
0
LINE
5
162
100
AcDbEntity
8
0
100
AcDbLine
10
31.399999687075614
20
-56.099999754130828
30
0
11
33.499999687075615
21
-57.099999754130828
31
0
0
LINE
5
163
100
AcDbEntity
8
0
100
AcDbLine
10
33.499999687075615
20
-57.099999754130828
30
0
11
38.299999687075612
21
-57.09999975413082
31
0
0
LINE
5
164
100
AcDbEntity
8
0
100
AcDbLine
10
35.599999687075616
20
-48.99999975413084
30
0
11
35.599999687075616
21
-52.399999754130832
31
0
0
LINE
5
165
100
AcDbEntity
8
0
100
AcDbLine
10
38.299999687075612
20
-52.399999754130818
30
0
11
35.599999687075616
21
-52.399999754130832
31
0
0
LINE
5
166
100
AcDbEntity
8
0
100
AcDbLine
10
38.299999687075612
20
-53.399999754130818
30
0
11
38.299999687075612
21
-52.399999754130818
31
0
0
LINE
5
167
100
AcDbEntity
8
0
100
AcDbLine
10
38.299999687075612
20
-56.09999975413082
30
0
11
40.199999687075625
21
-56.09999975413082
31
0
0
LINE
5
168
100
AcDbEntity
8
0
100
AcDbLine
10
38.299999687075612
20
-57.09999975413082
30
0
11
38.299999687075612
21
-56.09999975413082
31
0
0
LINE
5
169
100
AcDbEntity
8
0
100
AcDbLine
10
40.199999687075625
20
-53.399999754130818
30
0
11
38.299999687075612
21
-53.399999754130818
31
0
0
LINE
5
170
100
AcDbEntity
8
0
100
AcDbLine
10
40.199999687075625
20
-56.09999975413082
30
0
11
40.199999687075625
21
-53.399999754130818
31
0
0
CIRCLE
5
171
100
AcDbEntity
8
0
100
AcDbCircle
10
32.999999687075615
20
-48.99999975413084
30
0
40
2.6000000000000001
210
0
220
0
230
1
0
LINE
5
172
100
AcDbEntity
8
0
100
AcDbLine
10
42.999999687075615
20
-50.299999754130823
30
0
11
42.999999687075615
21
-53.09999975413082
31
0
0
LINE
5
173
100
AcDbEntity
8
0
100
AcDbLine
10
42.999999687075615
20
-53.09999975413082
30
0
11
44.899999687075621
21
-53.09999975413082
31
0
0
LINE
5
174
100
AcDbEntity
8
0
100
AcDbLine
10
44.899999687075621
20
-49.399999754130818
30
0
11
44.899999687075621
21
-50.299999754130823
31
0
0
LINE
5
175
100
AcDbEntity
8
0
100
AcDbLine
10
44.899999687075621
20
-50.299999754130823
30
0
11
42.999999687075615
21
-50.299999754130823
31
0
0
LINE
5
176
100
AcDbEntity
8
0
100
AcDbLine
10
44.899999687075621
20
-53.09999975413082
30
0
11
44.899999687075621
21
-54.09999975413082
31
0
0
LINE
5
177
100
AcDbEntity
8
0
100
AcDbLine
10
44.899999687075621
20
-54.09999975413082
30
0
11
50.399999687075614
21
-54.09999975413082
31
0
0
LINE
5
178
100
AcDbEntity
8
0
100
AcDbLine
10
49.399999687075606
20
-46.999999754130826
30
0
11
49.399999687075606
21
-49.399999754130818
31
0
0
LINE
5
179
100
AcDbEntity
8
0
100
AcDbLine
10
49.399999687075606
20
-49.399999754130818
30
0
11
44.899999687075621
21
-49.399999754130818
31
0
0
LINE
5
180
100
AcDbEntity
8
0
100
AcDbLine
10
50.399999687075614
20
-54.09999975413082
30
0
11
52.499999687075615
21
-55.099999754130813
31
0
0
LINE
5
181
100
AcDbEntity
8
0
100
AcDbLine
10
52.499999687075615
20
-55.099999754130813
30
0
11
57.299999687075605
21
-55.099999754130813
31
0
0
LINE
5
182
100
AcDbEntity
8
0
100
AcDbLine
10
54.599999687075609
20
-46.999999754130826
30
0
11
54.599999687075609
21
-50.399999754130825
31
0
0
LINE
5
183
100
AcDbEntity
8
0
100
AcDbLine
10
57.299999687075605
20
-50.399999754130825
30
0
11
54.599999687075609
21
-50.399999754130825
31
0
0
LINE
5
184
100
AcDbEntity
8
0
100
AcDbLine
10
57.299999687075605
20
-51.399999754130818
30
0
11
57.299999687075605
21
-50.399999754130825
31
0
0
LINE
5
185
100
AcDbEntity
8
0
100
AcDbLine
10
57.299999687075605
20
-54.09999975413082
30
0
11
59.199999687075611
21
-54.09999975413082
31
0
0
LINE
5
186
100
AcDbEntity
8
0
100
AcDbLine
10
57.299999687075605
20
-55.099999754130813
30
0
11
57.299999687075605
21
-54.09999975413082
31
0
0
LINE
5
187
100
AcDbEntity
8
0
100
AcDbLine
10
59.199999687075611
20
-51.399999754130818
30
0
11
57.299999687075605
21
-51.399999754130818
31
0
0
LINE
5
188
100
AcDbEntity
8
0
100
AcDbLine
10
59.199999687075611
20
-54.09999975413082
30
0
11
59.199999687075611
21
-51.399999754130818
31
0
0
CIRCLE
5
189
100
AcDbEntity
8
0
100
AcDbCircle
10
51.999999687075615
20
-46.999999754130826
30
0
40
2.6000000000000001
210
0
220
0
230
1
0
LINE
5
190
100
AcDbEntity
8
0
100
AcDbLine
10
61.999999687075615
20
-44.299999754130823
30
0
11
61.999999687075615
21
-47.099999754130828
31
0
0
LINE
5
191
100
AcDbEntity
8
0
100
AcDbLine
10
61.999999687075615
20
-47.099999754130828
30
0
11
63.899999687075599
21
-47.099999754130828
31
0
0
LINE
5
192
100
AcDbEntity
8
0
100
AcDbLine
10
63.899999687075599
20
-43.399999754130825
30
0
11
63.899999687075599
21
-44.299999754130823
31
0
0
LINE
5
193
100
AcDbEntity
8
0
100
AcDbLine
10
63.899999687075599
20
-44.299999754130823
30
0
11
61.999999687075615
21
-44.299999754130823
31
0
0
LINE
5
194
100
AcDbEntity
8
0
100
AcDbLine
10
63.899999687075599
20
-47.099999754130828
30
0
11
63.899999687075599
21
-48.09999975413082
31
0
0
LINE
5
195
100
AcDbEntity
8
0
100
AcDbLine
10
63.899999687075599
20
-48.09999975413082
30
0
11
69.399999687075592
21
-48.09999975413082
31
0
0
LINE
5
196
100
AcDbEntity
8
0
100
AcDbLine
10
68.399999687075578
20
-40.999999754130826
30
0
11
68.399999687075592
21
-43.399999754130825
31
0
0
LINE
5
197
100
AcDbEntity
8
0
100
AcDbLine
10
68.399999687075592
20
-43.399999754130825
30
0
11
63.899999687075599
21
-43.399999754130825
31
0
0
LINE
5
198
100
AcDbEntity
8
0
100
AcDbLine
10
69.399999687075592
20
-48.09999975413082
30
0
11
71.499999687075601
21
-49.099999754130828
31
0
0
LINE
5
199
100
AcDbEntity
8
0
100
AcDbLine
10
71.499999687075601
20
-49.099999754130828
30
0
11
76.299999687075584
21
-49.099999754130828
31
0
0
LINE
5
200
100
AcDbEntity
8
0
100
AcDbLine
10
73.599999687075567
20
-40.999999754130826
30
0
11
73.599999687075581
21
-44.399999754130818
31
0
0
LINE
5
201
100
AcDbEntity
8
0
100
AcDbLine
10
76.299999687075584
20
-44.399999754130818
30
0
11
73.599999687075581
21
-44.399999754130818
31
0
0
LINE
5
202
100
AcDbEntity
8
0
100
AcDbLine
10
76.299999687075584
20
-45.399999754130825
30
0
11
76.299999687075584
21
-44.399999754130818
31
0
0
LINE
5
203
100
AcDbEntity
8
0
100
AcDbLine
10
76.299999687075584
20
-48.09999975413082
30
0
11
78.199999687075604
21
-48.09999975413082
31
0
0
LINE
5
204
100
AcDbEntity
8
0
100
AcDbLine
10
76.299999687075584
20
-49.099999754130828
30
0
11
76.299999687075584
21
-48.09999975413082
31
0
0
LINE
5
205
100
AcDbEntity
8
0
100
AcDbLine
10
78.199999687075604
20
-45.399999754130825
30
0
11
76.299999687075584
21
-45.399999754130825
31
0
0
LINE
5
206
100
AcDbEntity
8
0
100
AcDbLine
10
78.199999687075604
20
-48.09999975413082
30
0
11
78.199999687075604
21
-45.399999754130825
31
0
0
CIRCLE
5
207
100
AcDbEntity
8
0
100
AcDbCircle
10
70.999999687075587
20
-40.999999754130826
30
0
40
2.6000000000000001
210
0
220
0
230
1
0
LINE
5
208
100
AcDbEntity
8
0
100
AcDbLine
10
80.999999687075587
20
-48.299999754130816
30
0
11
80.999999687075587
21
-51.09999975413082
31
0
0
LINE
5
209
100
AcDbEntity
8
0
100
AcDbLine
10
80.999999687075587
20
-51.09999975413082
30
0
11
82.899999687075592
21
-51.09999975413082
31
0
0
LINE
5
210
100
AcDbEntity
8
0
100
AcDbLine
10
82.899999687075592
20
-47.399999754130818
30
0
11
82.899999687075592
21
-48.299999754130816
31
0
0
LINE
5
211
100
AcDbEntity
8
0
100
AcDbLine
10
82.899999687075592
20
-48.299999754130816
30
0
11
80.999999687075587
21
-48.299999754130816
31
0
0
LINE
5
212
100
AcDbEntity
8
0
100
AcDbLine
10
82.899999687075592
20
-51.09999975413082
30
0
11
82.899999687075592
21
-52.09999975413082
31
0
0
LINE
5
213
100
AcDbEntity
8
0
100
AcDbLine
10
82.899999687075592
20
-52.09999975413082
30
0
11
88.399999687075592
21
-52.09999975413082
31
0
0
LINE
5
214
100
AcDbEntity
8
0
100
AcDbLine
10
87.399999687075592
20
-44.999999754130826
30
0
11
87.399999687075592
21
-47.399999754130818
31
0
0
LINE
5
215
100
AcDbEntity
8
0
100
AcDbLine
10
87.399999687075592
20
-47.399999754130818
30
0
11
82.899999687075592
21
-47.399999754130818
31
0
0
LINE
5
216
100
AcDbEntity
8
0
100
AcDbLine
10
88.399999687075592
20
-52.09999975413082
30
0
11
90.499999687075601
21
-53.09999975413082
31
0
0
LINE
5
217
100
AcDbEntity
8
0
100
AcDbLine
10
90.499999687075601
20
-53.09999975413082
30
0
11
95.299999687075584
21
-53.09999975413082
31
0
0
LINE
5
218
100
AcDbEntity
8
0
100
AcDbLine
10
92.599999687075595
20
-44.999999754130826
30
0
11
92.599999687075595
21
-48.399999754130825
31
0
0
LINE
5
219
100
AcDbEntity
8
0
100
AcDbLine
10
95.299999687075584
20
-48.399999754130825
30
0
11
92.599999687075595
21
-48.399999754130825
31
0
0
LINE
5
220
100
AcDbEntity
8
0
100
AcDbLine
10
95.299999687075584
20
-49.399999754130818
30
0
11
95.299999687075584
21
-48.399999754130825
31
0
0
LINE
5
221
100
AcDbEntity
8
0
100
AcDbLine
10
95.299999687075584
20
-52.09999975413082
30
0
11
97.199999687075575
21
-52.09999975413082
31
0
0
LINE
5
222
100
AcDbEntity
8
0
100
AcDbLine
10
95.299999687075584
20
-53.09999975413082
30
0
11
95.299999687075584
21
-52.09999975413082
31
0
0
LINE
5
223
100
AcDbEntity
8
0
100
AcDbLine
10
97.199999687075575
20
-49.399999754130818
30
0
11
95.299999687075584
21
-49.399999754130818
31
0
0
LINE
5
224
100
AcDbEntity
8
0
100
AcDbLine
10
97.199999687075575
20
-52.09999975413082
30
0
11
97.199999687075575
21
-49.399999754130818
31
0
0
CIRCLE
5
225
100
AcDbEntity
8
0
100
AcDbCircle
10
89.999999687075587
20
-44.999999754130826
30
0
40
2.6000000000000001
210
0
220
0
230
1
0
LINE
5
226
100
AcDbEntity
8
0
100
AcDbLine
10
99.999999687075572
20
-54.299999754130816
30
0
11
99.999999687075572
21
-57.09999975413082
31
0
0
LINE
5
227
100
AcDbEntity
8
0
100
AcDbLine
10
99.999999687075572
20
-57.09999975413082
30
0
11
101.89999968707559
21
-57.09999975413082
31
0
0
LINE
5
228
100
AcDbEntity
8
0
100
AcDbLine
10
101.89999968707559
20
-53.399999754130818
30
0
11
101.89999968707559
21
-54.299999754130816
31
0
0
LINE
5
229
100
AcDbEntity
8
0
100
AcDbLine
10
101.89999968707559
20
-54.299999754130816
30
0
11
99.999999687075572
21
-54.299999754130816
31
0
0
LINE
5
230
100
AcDbEntity
8
0
100
AcDbLine
10
101.89999968707559
20
-57.09999975413082
30
0
11
101.89999968707559
21
-58.09999975413082
31
0
0
LINE
5
231
100
AcDbEntity
8
0
100
AcDbLine
10
101.89999968707559
20
-58.09999975413082
30
0
11
107.39999968707558
21
-58.09999975413082
31
0
0
LINE
5
232
100
AcDbEntity
8
0
100
AcDbLine
10
106.39999968707558
20
-50.999999754130826
30
0
11
106.39999968707558
21
-53.399999754130818
31
0
0
LINE
5
233
100
AcDbEntity
8
0
100
AcDbLine
10
106.39999968707558
20
-53.399999754130818
30
0
11
101.89999968707559
21
-53.399999754130818
31
0
0
LINE
5
234
100
AcDbEntity
8
0
100
AcDbLine
10
107.39999968707558
20
-58.09999975413082
30
0
11
109.49999968707559
21
-59.09999975413082
31
0
0
LINE
5
235
100
AcDbEntity
8
0
100
AcDbLine
10
109.49999968707559
20
-59.09999975413082
30
0
11
114.29999968707557
21
-59.09999975413082
31
0
0
LINE
5
236
100
AcDbEntity
8
0
100
AcDbLine
10
111.59999968707558
20
-50.999999754130826
30
0
11
111.59999968707558
21
-54.39999975413081
31
0
0
LINE
5
237
100
AcDbEntity
8
0
100
AcDbLine
10
114.29999968707557
20
-54.39999975413081
30
0
11
111.59999968707558
21
-54.39999975413081
31
0
0
LINE
5
238
100
AcDbEntity
8
0
100
AcDbLine
10
114.29999968707557
20
-55.399999754130818
30
0
11
114.29999968707557
21
-54.39999975413081
31
0
0
LINE
5
239
100
AcDbEntity
8
0
100
AcDbLine
10
114.29999968707557
20
-58.09999975413082
30
0
11
116.19999968707559
21
-58.099999754130813
31
0
0
LINE
5
240
100
AcDbEntity
8
0
100
AcDbLine
10
114.29999968707557
20
-59.09999975413082
30
0
11
114.29999968707557
21
-58.09999975413082
31
0
0
LINE
5
241
100
AcDbEntity
8
0
100
AcDbLine
10
116.19999968707559
20
-55.39999975413081
30
0
11
114.29999968707557
21
-55.399999754130818
31
0
0
LINE
5
242
100
AcDbEntity
8
0
100
AcDbLine
10
116.19999968707559
20
-58.099999754130813
30
0
11
116.19999968707559
21
-55.39999975413081
31
0
0
CIRCLE
5
243
100
AcDbEntity
8
0
100
AcDbCircle
10
108.99999968707559
20
-50.999999754130826
30
0
40
2.6000000000000001
210
0
220
0
230
1
0
LINE
5
244
100
AcDbEntity
8
0
100
AcDbLine
10
23.999999687075618
20
-36.299999754130823
30
0
11
23.999999687075618
21
-39.099999754130828
31
0
0
LINE
5
245
100
AcDbEntity
8
0
100
AcDbLine
10
23.999999687075618
20
-39.099999754130828
30
0
11
25.899999687075621
21
-39.099999754130828
31
0
0
LINE
5
246
100
AcDbEntity
8
0
100
AcDbLine
10
25.899999687075621
20
-35.399999754130825
30
0
11
25.899999687075621
21
-36.299999754130823
31
0
0
LINE
5
247
100
AcDbEntity
8
0
100
AcDbLine
10
25.899999687075621
20
-36.299999754130823
30
0
11
23.999999687075618
21
-36.299999754130823
31
0
0
LINE
5
248
100
AcDbEntity
8
0
100
AcDbLine
10
25.899999687075621
20
-39.099999754130828
30
0
11
25.899999687075621
21
-40.09999975413082
31
0
0
LINE
5
249
100
AcDbEntity
8
0
100
AcDbLine
10
25.899999687075621
20
-40.09999975413082
30
0
11
31.399999687075614
21
-40.09999975413082
31
0
0
LINE
5
250
100
AcDbEntity
8
0
100
AcDbLine
10
30.399999687075617
20
-32.999999754130826
30
0
11
30.399999687075617
21
-35.399999754130825
31
0
0
LINE
5
251
100
AcDbEntity
8
0
100
AcDbLine
10
30.399999687075617
20
-35.399999754130825
30
0
11
25.899999687075621
21
-35.399999754130825
31
0
0
LINE
5
252
100
AcDbEntity
8
0
100
AcDbLine
10
31.399999687075614
20
-40.09999975413082
30
0
11
33.499999687075615
21
-41.099999754130835
31
0
0
LINE
5
253
100
AcDbEntity
8
0
100
AcDbLine
10
33.499999687075615
20
-41.099999754130835
30
0
11
38.299999687075612
21
-41.099999754130828
31
0
0
LINE
5
254
100
AcDbEntity
8
0
100
AcDbLine
10
35.599999687075616
20
-32.999999754130826
30
0
11
35.599999687075616
21
-36.399999754130825
31
0
0
LINE
5
255
100
AcDbEntity
8
0
100
AcDbLine
10
38.299999687075605
20
-36.399999754130825
30
0
11
35.599999687075616
21
-36.399999754130825
31
0
0
LINE
5
256
100
AcDbEntity
8
0
100
AcDbLine
10
38.299999687075605
20
-37.399999754130825
30
0
11
38.299999687075605
21
-36.399999754130825
31
0
0
LINE
5
257
100
AcDbEntity
8
0
100
AcDbLine
10
38.299999687075605
20
-40.09999975413082
30
0
11
40.199999687075618
21
-40.09999975413082
31
0
0
LINE
5
258
100
AcDbEntity
8
0
100
AcDbLine
10
38.299999687075612
20
-41.099999754130828
30
0
11
38.299999687075605
21
-40.09999975413082
31
0
0
LINE
5
259
100
AcDbEntity
8
0
100
AcDbLine
10
40.199999687075618
20
-37.399999754130825
30
0
11
38.299999687075605
21
-37.399999754130825
31
0
0
LINE
5
260
100
AcDbEntity
8
0
100
AcDbLine
10
40.199999687075618
20
-40.09999975413082
30
0
11
40.199999687075618
21
-37.399999754130825
31
0
0
CIRCLE
5
261
100
AcDbEntity
8
0
100
AcDbCircle
10
32.999999687075615
20
-32.999999754130826
30
0
40
2.6000000000000001
210
0
220
0
230
1
0
LINE
5
262
100
AcDbEntity
8
0
100
AcDbLine
10
42.999999687075608
20
-34.29999975413083
30
0
11
42.999999687075608
21
-37.099999754130828
31
0
0
LINE
5
263
100
AcDbEntity
8
0
100
AcDbLine
10
42.999999687075608
20
-37.099999754130828
30
0
11
44.899999687075614
21
-37.099999754130828
31
0
0
LINE
5
264
100
AcDbEntity
8
0
100
AcDbLine
10
44.899999687075614
20
-33.399999754130832
30
0
11
44.899999687075614
21
-34.29999975413083
31
0
0
LINE
5
265
100
AcDbEntity
8
0
100
AcDbLine
10
44.899999687075614
20
-34.29999975413083
30
0
11
42.999999687075608
21
-34.29999975413083
31
0
0
LINE
5
266
100
AcDbEntity
8
0
100
AcDbLine
10
44.899999687075614
20
-37.099999754130828
30
0
11
44.899999687075614
21
-38.099999754130828
31
0
0
LINE
5
267
100
AcDbEntity
8
0
100
AcDbLine
10
44.899999687075614
20
-38.099999754130828
30
0
11
50.399999687075606
21
-38.099999754130828
31
0
0
LINE
5
268
100
AcDbEntity
8
0
100
AcDbLine
10
49.399999687075599
20
-30.999999754130826
30
0
11
49.399999687075599
21
-33.399999754130832
31
0
0
LINE
5
269
100
AcDbEntity
8
0
100
AcDbLine
10
49.399999687075599
20
-33.399999754130832
30
0
11
44.899999687075614
21
-33.399999754130832
31
0
0
LINE
5
270
100
AcDbEntity
8
0
100
AcDbLine
10
50.399999687075606
20
-38.099999754130828
30
0
11
52.499999687075601
21
-39.099999754130828
31
0
0
LINE
5
271
100
AcDbEntity
8
0
100
AcDbLine
10
52.499999687075601
20
-39.099999754130828
30
0
11
57.299999687075598
21
-39.09999975413082
31
0
0
LINE
5
272
100
AcDbEntity
8
0
100
AcDbLine
10
54.599999687075602
20
-30.999999754130826
30
0
11
54.599999687075602
21
-34.399999754130825
31
0
0
LINE
5
273
100
AcDbEntity
8
0
100
AcDbLine
10
57.299999687075598
20
-34.399999754130818
30
0
11
54.599999687075602
21
-34.399999754130825
31
0
0
LINE
5
274
100
AcDbEntity
8
0
100
AcDbLine
10
57.299999687075598
20
-35.399999754130825
30
0
11
57.299999687075598
21
-34.399999754130818
31
0
0
LINE
5
275
100
AcDbEntity
8
0
100
AcDbLine
10
57.299999687075598
20
-38.09999975413082
30
0
11
59.199999687075604
21
-38.09999975413082
31
0
0
LINE
5
276
100
AcDbEntity
8
0
100
AcDbLine
10
57.299999687075598
20
-39.09999975413082
30
0
11
57.299999687075598
21
-38.09999975413082
31
0
0
LINE
5
277
100
AcDbEntity
8
0
100
AcDbLine
10
59.199999687075604
20
-35.399999754130825
30
0
11
57.299999687075598
21
-35.399999754130825
31
0
0
LINE
5
278
100
AcDbEntity
8
0
100
AcDbLine
10
59.199999687075604
20
-38.09999975413082
30
0
11
59.199999687075604
21
-35.399999754130825
31
0
0
CIRCLE
5
279
100
AcDbEntity
8
0
100
AcDbCircle
10
51.999999687075601
20
-30.999999754130826
30
0
40
2.6000000000000001
210
0
220
0
230
1
0
LINE
5
280
100
AcDbEntity
8
0
100
AcDbLine
10
61.999999687075601
20
-28.299999754130827
30
0
11
61.999999687075601
21
-31.099999754130824
31
0
0
LINE
5
281
100
AcDbEntity
8
0
100
AcDbLine
10
61.999999687075601
20
-31.099999754130824
30
0
11
63.899999687075592
21
-31.099999754130824
31
0
0
LINE
5
282
100
AcDbEntity
8
0
100
AcDbLine
10
63.899999687075592
20
-27.399999754130825
30
0
11
63.899999687075592
21
-28.299999754130827
31
0
0
LINE
5
283
100
AcDbEntity
8
0
100
AcDbLine
10
63.899999687075592
20
-28.299999754130827
30
0
11
61.999999687075601
21
-28.299999754130827
31
0
0
LINE
5
284
100
AcDbEntity
8
0
100
AcDbLine
10
63.899999687075592
20
-31.099999754130824
30
0
11
63.899999687075592
21
-32.099999754130828
31
0
0
LINE
5
285
100
AcDbEntity
8
0
100
AcDbLine
10
63.899999687075592
20
-32.099999754130828
30
0
11
69.399999687075592
21
-32.099999754130828
31
0
0
LINE
5
286
100
AcDbEntity
8
0
100
AcDbLine
10
68.399999687075578
20
-24.99999975413083
30
0
11
68.399999687075578
21
-27.399999754130825
31
0
0
LINE
5
287
100
AcDbEntity
8
0
100
AcDbLine
10
68.399999687075578
20
-27.399999754130825
30
0
11
63.899999687075592
21
-27.399999754130825
31
0
0
LINE
5
288
100
AcDbEntity
8
0
100
AcDbLine
10
69.399999687075592
20
-32.099999754130828
30
0
11
71.499999687075601
21
-33.099999754130828
31
0
0
LINE
5
289
100
AcDbEntity
8
0
100
AcDbLine
10
71.499999687075601
20
-33.099999754130828
30
0
11
76.299999687075584
21
-33.099999754130828
31
0
0
LINE
5
290
100
AcDbEntity
8
0
100
AcDbLine
10
73.599999687075567
20
-24.99999975413083
30
0
11
73.599999687075567
21
-28.399999754130825
31
0
0
LINE
5
291
100
AcDbEntity
8
0
100
AcDbLine
10
76.299999687075584
20
-28.399999754130825
30
0
11
73.599999687075567
21
-28.399999754130825
31
0
0
LINE
5
292
100
AcDbEntity
8
0
100
AcDbLine
10
76.299999687075584
20
-29.399999754130821
30
0
11
76.299999687075584
21
-28.399999754130825
31
0
0
LINE
5
293
100
AcDbEntity
8
0
100
AcDbLine
10
76.299999687075584
20
-32.099999754130828
30
0
11
78.199999687075604
21
-32.099999754130828
31
0
0
LINE
5
294
100
AcDbEntity
8
0
100
AcDbLine
10
76.299999687075584
20
-33.099999754130828
30
0
11
76.299999687075584
21
-32.099999754130828
31
0
0
LINE
5
295
100
AcDbEntity
8
0
100
AcDbLine
10
78.199999687075604
20
-29.399999754130821
30
0
11
76.299999687075584
21
-29.399999754130821
31
0
0
LINE
5
296
100
AcDbEntity
8
0
100
AcDbLine
10
78.199999687075604
20
-32.099999754130828
30
0
11
78.199999687075604
21
-29.399999754130821
31
0
0
CIRCLE
5
297
100
AcDbEntity
8
0
100
AcDbCircle
10
70.999999687075587
20
-24.99999975413083
30
0
40
2.6000000000000001
210
0
220
0
230
1
0
LINE
5
298
100
AcDbEntity
8
0
100
AcDbLine
10
80.999999687075587
20
-32.299999754130823
30
0
11
80.999999687075587
21
-35.09999975413082
31
0
0
LINE
5
299
100
AcDbEntity
8
0
100
AcDbLine
10
80.999999687075587
20
-35.09999975413082
30
0
11
82.899999687075592
21
-35.09999975413082
31
0
0
LINE
5
300
100
AcDbEntity
8
0
100
AcDbLine
10
82.899999687075592
20
-31.399999754130825
30
0
11
82.899999687075592
21
-32.299999754130823
31
0
0
LINE
5
301
100
AcDbEntity
8
0
100
AcDbLine
10
82.899999687075592
20
-32.299999754130823
30
0
11
80.999999687075587
21
-32.299999754130823
31
0
0
LINE
5
302
100
AcDbEntity
8
0
100
AcDbLine
10
82.899999687075592
20
-35.09999975413082
30
0
11
82.899999687075592
21
-36.09999975413082
31
0
0
LINE
5
303
100
AcDbEntity
8
0
100
AcDbLine
10
82.899999687075592
20
-36.09999975413082
30
0
11
88.399999687075592
21
-36.09999975413082
31
0
0
LINE
5
304
100
AcDbEntity
8
0
100
AcDbLine
10
87.399999687075592
20
-28.999999754130826
30
0
11
87.399999687075592
21
-31.399999754130825
31
0
0
LINE
5
305
100
AcDbEntity
8
0
100
AcDbLine
10
87.399999687075592
20
-31.399999754130825
30
0
11
82.899999687075592
21
-31.399999754130825
31
0
0
LINE
5
306
100
AcDbEntity
8
0
100
AcDbLine
10
88.399999687075592
20
-36.09999975413082
30
0
11
90.499999687075601
21
-37.09999975413082
31
0
0
LINE
5
307
100
AcDbEntity
8
0
100
AcDbLine
10
90.499999687075601
20
-37.09999975413082
30
0
11
95.299999687075584
21
-37.09999975413082
31
0
0
LINE
5
308
100
AcDbEntity
8
0
100
AcDbLine
10
92.599999687075595
20
-28.999999754130826
30
0
11
92.599999687075595
21
-32.399999754130825
31
0
0
LINE
5
309
100
AcDbEntity
8
0
100
AcDbLine
10
95.299999687075584
20
-32.399999754130825
30
0
11
92.599999687075595
21
-32.399999754130825
31
0
0
LINE
5
310
100
AcDbEntity
8
0
100
AcDbLine
10
95.299999687075584
20
-33.399999754130825
30
0
11
95.299999687075584
21
-32.399999754130825
31
0
0
LINE
5
311
100
AcDbEntity
8
0
100
AcDbLine
10
95.299999687075584
20
-36.09999975413082
30
0
11
97.199999687075575
21
-36.099999754130813
31
0
0
LINE
5
312
100
AcDbEntity
8
0
100
AcDbLine
10
95.299999687075584
20
-37.09999975413082
30
0
11
95.299999687075584
21
-36.09999975413082
31
0
0
LINE
5
313
100
AcDbEntity
8
0
100
AcDbLine
10
97.199999687075575
20
-33.399999754130818
30
0
11
95.299999687075584
21
-33.399999754130825
31
0
0
LINE
5
314
100
AcDbEntity
8
0
100
AcDbLine
10
97.199999687075575
20
-36.099999754130813
30
0
11
97.199999687075575
21
-33.399999754130818
31
0
0
CIRCLE
5
315
100
AcDbEntity
8
0
100
AcDbCircle
10
89.999999687075587
20
-28.999999754130826
30
0
40
2.6000000000000001
210
0
220
0
230
1
0
LINE
5
316
100
AcDbEntity
8
0
100
AcDbLine
10
99.999999687075572
20
-38.299999754130816
30
0
11
99.999999687075572
21
-41.099999754130828
31
0
0
LINE
5
317
100
AcDbEntity
8
0
100
AcDbLine
10
99.999999687075572
20
-41.099999754130828
30
0
11
101.89999968707559
21
-41.099999754130828
31
0
0
LINE
5
318
100
AcDbEntity
8
0
100
AcDbLine
10
101.89999968707559
20
-37.399999754130818
30
0
11
101.89999968707559
21
-38.299999754130816
31
0
0
LINE
5
319
100
AcDbEntity
8
0
100
AcDbLine
10
101.89999968707559
20
-38.299999754130816
30
0
11
99.999999687075572
21
-38.299999754130816
31
0
0
LINE
5
320
100
AcDbEntity
8
0
100
AcDbLine
10
101.89999968707559
20
-41.099999754130828
30
0
11
101.89999968707559
21
-42.099999754130828
31
0
0
LINE
5
321
100
AcDbEntity
8
0
100
AcDbLine
10
101.89999968707559
20
-42.099999754130828
30
0
11
107.39999968707558
21
-42.099999754130828
31
0
0
LINE
5
322
100
AcDbEntity
8
0
100
AcDbLine
10
106.39999968707558
20
-34.999999754130819
30
0
11
106.39999968707558
21
-37.399999754130818
31
0
0
LINE
5
323
100
AcDbEntity
8
0
100
AcDbLine
10
106.39999968707558
20
-37.399999754130818
30
0
11
101.89999968707559
21
-37.399999754130818
31
0
0
LINE
5
324
100
AcDbEntity
8
0
100
AcDbLine
10
107.39999968707558
20
-42.099999754130828
30
0
11
109.49999968707559
21
-43.09999975413082
31
0
0
LINE
5
325
100
AcDbEntity
8
0
100
AcDbLine
10
109.49999968707559
20
-43.09999975413082
30
0
11
114.29999968707557
21
-43.09999975413082
31
0
0
LINE
5
326
100
AcDbEntity
8
0
100
AcDbLine
10
111.59999968707558
20
-34.999999754130819
30
0
11
111.59999968707558
21
-38.399999754130818
31
0
0
LINE
5
327
100
AcDbEntity
8
0
100
AcDbLine
10
114.29999968707557
20
-38.399999754130818
30
0
11
111.59999968707558
21
-38.399999754130818
31
0
0
LINE
5
328
100
AcDbEntity
8
0
100
AcDbLine
10
114.29999968707557
20
-39.39999975413081
30
0
11
114.29999968707557
21
-38.399999754130818
31
0
0
LINE
5
329
100
AcDbEntity
8
0
100
AcDbLine
10
114.29999968707557
20
-42.099999754130828
30
0
11
116.19999968707559
21
-42.09999975413082
31
0
0
LINE
5
330
100
AcDbEntity
8
0
100
AcDbLine
10
114.29999968707557
20
-43.09999975413082
30
0
11
114.29999968707557
21
-42.099999754130828
31
0
0
LINE
5
331
100
AcDbEntity
8
0
100
AcDbLine
10
116.19999968707559
20
-39.39999975413081
30
0
11
114.29999968707557
21
-39.39999975413081
31
0
0
LINE
5
332
100
AcDbEntity
8
0
100
AcDbLine
10
116.19999968707559
20
-42.09999975413082
30
0
11
116.19999968707559
21
-39.39999975413081
31
0
0
CIRCLE
5
333
100
AcDbEntity
8
0
100
AcDbCircle
10
108.99999968707559
20
-34.999999754130819
30
0
40
2.6000000000000001
210
0
220
0
230
1
0
LINE
5
334
100
AcDbEntity
8
0
100
AcDbLine
10
23.999999687075615
20
-20.299999754130837
30
0
11
23.999999687075618
21
-23.099999754130835
31
0
0
LINE
5
335
100
AcDbEntity
8
0
100
AcDbLine
10
23.999999687075618
20
-23.099999754130835
30
0
11
25.899999687075621
21
-23.099999754130835
31
0
0
LINE
5
336
100
AcDbEntity
8
0
100
AcDbLine
10
25.899999687075614
20
-19.399999754130835
30
0
11
25.899999687075614
21
-20.299999754130837
31
0
0
LINE
5
337
100
AcDbEntity
8
0
100
AcDbLine
10
25.899999687075614
20
-20.299999754130837
30
0
11
23.999999687075615
21
-20.299999754130837
31
0
0
LINE
5
338
100
AcDbEntity
8
0
100
AcDbLine
10
25.899999687075621
20
-23.099999754130835
30
0
11
25.899999687075621
21
-24.099999754130831
31
0
0
LINE
5
339
100
AcDbEntity
8
0
100
AcDbLine
10
25.899999687075621
20
-24.099999754130831
30
0
11
31.399999687075614
21
-24.099999754130831
31
0
0
LINE
5
340
100
AcDbEntity
8
0
100
AcDbLine
10
30.399999687075614
20
-16.999999754130837
30
0
11
30.399999687075614
21
-19.399999754130832
31
0
0
LINE
5
341
100
AcDbEntity
8
0
100
AcDbLine
10
30.399999687075614
20
-19.399999754130832
30
0
11
25.899999687075614
21
-19.399999754130835
31
0
0
LINE
5
342
100
AcDbEntity
8
0
100
AcDbLine
10
31.399999687075614
20
-24.099999754130831
30
0
11
33.499999687075615
21
-25.099999754130835
31
0
0
LINE
5
343
100
AcDbEntity
8
0
100
AcDbLine
10
33.499999687075615
20
-25.099999754130835
30
0
11
38.299999687075605
21
-25.099999754130835
31
0
0
LINE
5
344
100
AcDbEntity
8
0
100
AcDbLine
10
35.599999687075609
20
-16.999999754130837
30
0
11
35.599999687075609
21
-20.399999754130832
31
0
0
LINE
5
345
100
AcDbEntity
8
0
100
AcDbLine
10
38.299999687075605
20
-20.399999754130832
30
0
11
35.599999687075609
21
-20.399999754130832
31
0
0
LINE
5
346
100
AcDbEntity
8
0
100
AcDbLine
10
38.299999687075605
20
-21.399999754130832
30
0
11
38.299999687075605
21
-20.399999754130832
31
0
0
LINE
5
347
100
AcDbEntity
8
0
100
AcDbLine
10
38.299999687075605
20
-24.099999754130831
30
0
11
40.199999687075618
21
-24.099999754130831
31
0
0
LINE
5
348
100
AcDbEntity
8
0
100
AcDbLine
10
38.299999687075605
20
-25.099999754130835
30
0
11
38.299999687075605
21
-24.099999754130831
31
0
0
LINE
5
349
100
AcDbEntity
8
0
100
AcDbLine
10
40.199999687075618
20
-21.399999754130832
30
0
11
38.299999687075605
21
-21.399999754130832
31
0
0
LINE
5
350
100
AcDbEntity
8
0
100
AcDbLine
10
40.199999687075618
20
-24.099999754130831
30
0
11
40.199999687075618
21
-21.399999754130832
31
0
0
CIRCLE
5
351
100
AcDbEntity
8
0
100
AcDbCircle
10
32.999999687075608
20
-16.999999754130837
30
0
40
2.6000000000000001
210
0
220
0
230
1
0
LINE
5
352
100
AcDbEntity
8
0
100
AcDbLine
10
42.999999687075608
20
-18.299999754130837
30
0
11
42.999999687075608
21
-21.099999754130835
31
0
0
LINE
5
353
100
AcDbEntity
8
0
100
AcDbLine
10
42.999999687075608
20
-21.099999754130835
30
0
11
44.899999687075614
21
-21.099999754130835
31
0
0
LINE
5
354
100
AcDbEntity
8
0
100
AcDbLine
10
44.899999687075614
20
-17.399999754130832
30
0
11
44.899999687075614
21
-18.299999754130837
31
0
0
LINE
5
355
100
AcDbEntity
8
0
100
AcDbLine
10
44.899999687075614
20
-18.299999754130837
30
0
11
42.999999687075608
21
-18.299999754130837
31
0
0
LINE
5
356
100
AcDbEntity
8
0
100
AcDbLine
10
44.899999687075614
20
-21.099999754130835
30
0
11
44.899999687075614
21
-22.099999754130835
31
0
0
LINE
5
357
100
AcDbEntity
8
0
100
AcDbLine
10
44.899999687075614
20
-22.099999754130835
30
0
11
50.399999687075606
21
-22.099999754130835
31
0
0
LINE
5
358
100
AcDbEntity
8
0
100
AcDbLine
10
49.399999687075599
20
-14.999999754130835
30
0
11
49.399999687075599
21
-17.399999754130832
31
0
0
LINE
5
359
100
AcDbEntity
8
0
100
AcDbLine
10
49.399999687075599
20
-17.399999754130832
30
0
11
44.899999687075614
21
-17.399999754130832
31
0
0
LINE
5
360
100
AcDbEntity
8
0
100
AcDbLine
10
50.399999687075606
20
-22.099999754130835
30
0
11
52.499999687075601
21
-23.099999754130835
31
0
0
LINE
5
361
100
AcDbEntity
8
0
100
AcDbLine
10
52.499999687075601
20
-23.099999754130835
30
0
11
57.299999687075598
21
-23.099999754130831
31
0
0
LINE
5
362
100
AcDbEntity
8
0
100
AcDbLine
10
54.599999687075602
20
-14.999999754130835
30
0
11
54.599999687075602
21
-18.399999754130828
31
0
0
LINE
5
363
100
AcDbEntity
8
0
100
AcDbLine
10
57.299999687075598
20
-18.399999754130828
30
0
11
54.599999687075602
21
-18.399999754130828
31
0
0
LINE
5
364
100
AcDbEntity
8
0
100
AcDbLine
10
57.299999687075598
20
-19.399999754130832
30
0
11
57.299999687075598
21
-18.399999754130828
31
0
0
LINE
5
365
100
AcDbEntity
8
0
100
AcDbLine
10
57.299999687075598
20
-22.099999754130831
30
0
11
59.199999687075604
21
-22.099999754130831
31
0
0
LINE
5
366
100
AcDbEntity
8
0
100
AcDbLine
10
57.299999687075598
20
-23.099999754130831
30
0
11
57.299999687075598
21
-22.099999754130831
31
0
0
LINE
5
367
100
AcDbEntity
8
0
100
AcDbLine
10
59.199999687075604
20
-19.399999754130832
30
0
11
57.299999687075598
21
-19.399999754130832
31
0
0
LINE
5
368
100
AcDbEntity
8
0
100
AcDbLine
10
59.199999687075604
20
-22.099999754130831
30
0
11
59.199999687075604
21
-19.399999754130832
31
0
0
CIRCLE
5
369
100
AcDbEntity
8
0
100
AcDbCircle
10
51.999999687075601
20
-14.999999754130835
30
0
40
2.6000000000000001
210
0
220
0
230
1
0
LINE
5
370
100
AcDbEntity
8
0
100
AcDbLine
10
61.999999687075601
20
-12.299999754130837
30
0
11
61.999999687075601
21
-15.099999754130835
31
0
0
LINE
5
371
100
AcDbEntity
8
0
100
AcDbLine
10
61.999999687075601
20
-15.099999754130835
30
0
11
63.899999687075592
21
-15.099999754130835
31
0
0
LINE
5
372
100
AcDbEntity
8
0
100
AcDbLine
10
63.899999687075592
20
-11.399999754130835
30
0
11
63.899999687075592
21
-12.299999754130837
31
0
0
LINE
5
373
100
AcDbEntity
8
0
100
AcDbLine
10
63.899999687075592
20
-12.299999754130837
30
0
11
61.999999687075601
21
-12.299999754130837
31
0
0
LINE
5
374
100
AcDbEntity
8
0
100
AcDbLine
10
63.899999687075592
20
-15.099999754130835
30
0
11
63.899999687075592
21
-16.099999754130835
31
0
0
LINE
5
375
100
AcDbEntity
8
0
100
AcDbLine
10
63.899999687075592
20
-16.099999754130835
30
0
11
69.399999687075592
21
-16.099999754130831
31
0
0
LINE
5
376
100
AcDbEntity
8
0
100
AcDbLine
10
68.399999687075578
20
-8.9999997541308367
30
0
11
68.399999687075578
21
-11.399999754130834
31
0
0
LINE
5
377
100
AcDbEntity
8
0
100
AcDbLine
10
68.399999687075578
20
-11.399999754130834
30
0
11
63.899999687075592
21
-11.399999754130835
31
0
0
LINE
5
378
100
AcDbEntity
8
0
100
AcDbLine
10
69.399999687075592
20
-16.099999754130831
30
0
11
71.499999687075601
21
-17.099999754130831
31
0
0
LINE
5
379
100
AcDbEntity
8
0
100
AcDbLine
10
71.499999687075601
20
-17.099999754130831
30
0
11
76.299999687075584
21
-17.099999754130831
31
0
0
LINE
5
380
100
AcDbEntity
8
0
100
AcDbLine
10
73.599999687075567
20
-8.999999754130835
30
0
11
73.599999687075567
21
-12.399999754130835
31
0
0
LINE
5
381
100
AcDbEntity
8
0
100
AcDbLine
10
76.299999687075584
20
-12.399999754130835
30
0
11
73.599999687075567
21
-12.399999754130835
31
0
0
LINE
5
382
100
AcDbEntity
8
0
100
AcDbLine
10
76.299999687075584
20
-13.399999754130834
30
0
11
76.299999687075584
21
-12.399999754130835
31
0
0
LINE
5
383
100
AcDbEntity
8
0
100
AcDbLine
10
76.299999687075584
20
-16.099999754130831
30
0
11
78.199999687075604
21
-16.099999754130831
31
0
0
LINE
5
384
100
AcDbEntity
8
0
100
AcDbLine
10
76.299999687075584
20
-17.099999754130831
30
0
11
76.299999687075584
21
-16.099999754130831
31
0
0
LINE
5
385
100
AcDbEntity
8
0
100
AcDbLine
10
78.199999687075604
20
-13.399999754130834
30
0
11
76.299999687075584
21
-13.399999754130834
31
0
0
LINE
5
386
100
AcDbEntity
8
0
100
AcDbLine
10
78.199999687075604
20
-16.099999754130831
30
0
11
78.199999687075604
21
-13.399999754130834
31
0
0
CIRCLE
5
387
100
AcDbEntity
8
0
100
AcDbCircle
10
70.999999687075587
20
-8.9999997541308367
30
0
40
2.6000000000000001
210
0
220
0
230
1
0
LINE
5
388
100
AcDbEntity
8
0
100
AcDbLine
10
80.999999687075587
20
-16.29999975413083
30
0
11
80.999999687075587
21
-19.099999754130831
31
0
0
LINE
5
389
100
AcDbEntity
8
0
100
AcDbLine
10
80.999999687075587
20
-19.099999754130831
30
0
11
82.899999687075592
21
-19.099999754130831
31
0
0
LINE
5
390
100
AcDbEntity
8
0
100
AcDbLine
10
82.899999687075592
20
-15.399999754130832
30
0
11
82.899999687075592
21
-16.29999975413083
31
0
0
LINE
5
391
100
AcDbEntity
8
0
100
AcDbLine
10
82.899999687075592
20
-16.29999975413083
30
0
11
80.999999687075587
21
-16.29999975413083
31
0
0
LINE
5
392
100
AcDbEntity
8
0
100
AcDbLine
10
82.899999687075592
20
-19.099999754130831
30
0
11
82.899999687075592
21
-20.099999754130828
31
0
0
LINE
5
393
100
AcDbEntity
8
0
100
AcDbLine
10
82.899999687075592
20
-20.099999754130828
30
0
11
88.399999687075592
21
-20.099999754130828
31
0
0
LINE
5
394
100
AcDbEntity
8
0
100
AcDbLine
10
87.399999687075592
20
-12.999999754130833
30
0
11
87.399999687075592
21
-15.399999754130828
31
0
0
LINE
5
395
100
AcDbEntity
8
0
100
AcDbLine
10
87.399999687075592
20
-15.399999754130828
30
0
11
82.899999687075592
21
-15.399999754130832
31
0
0
LINE
5
396
100
AcDbEntity
8
0
100
AcDbLine
10
88.399999687075592
20
-20.099999754130828
30
0
11
90.499999687075601
21
-21.099999754130828
31
0
0
LINE
5
397
100
AcDbEntity
8
0
100
AcDbLine
10
90.499999687075601
20
-21.099999754130828
30
0
11
95.299999687075584
21
-21.099999754130828
31
0
0
LINE
5
398
100
AcDbEntity
8
0
100
AcDbLine
10
92.599999687075595
20
-12.999999754130833
30
0
11
92.599999687075595
21
-16.399999754130828
31
0
0
LINE
5
399
100
AcDbEntity
8
0
100
AcDbLine
10
95.299999687075584
20
-16.399999754130828
30
0
11
92.599999687075595
21
-16.399999754130828
31
0
0
LINE
5
400
100
AcDbEntity
8
0
100
AcDbLine
10
95.299999687075584
20
-17.399999754130825
30
0
11
95.299999687075584
21
-16.399999754130828
31
0
0
LINE
5
401
100
AcDbEntity
8
0
100
AcDbLine
10
95.299999687075584
20
-20.099999754130828
30
0
11
97.199999687075575
21
-20.099999754130828
31
0
0
LINE
5
402
100
AcDbEntity
8
0
100
AcDbLine
10
95.299999687075584
20
-21.099999754130828
30
0
11
95.299999687075584
21
-20.099999754130828
31
0
0
LINE
5
403
100
AcDbEntity
8
0
100
AcDbLine
10
97.199999687075575
20
-17.399999754130825
30
0
11
95.299999687075584
21
-17.399999754130825
31
0
0
LINE
5
404
100
AcDbEntity
8
0
100
AcDbLine
10
97.199999687075575
20
-20.099999754130828
30
0
11
97.199999687075575
21
-17.399999754130825
31
0
0
CIRCLE
5
405
100
AcDbEntity
8
0
100
AcDbCircle
10
89.999999687075587
20
-12.999999754130833
30
0
40
2.6000000000000001
210
0
220
0
230
1
0
LINE
5
406
100
AcDbEntity
8
0
100
AcDbLine
10
118.99999968707559
20
-38.299999754130816
30
0
11
118.99999968707559
21
-41.09999975413082
31
0
0
LINE
5
407
100
AcDbEntity
8
0
100
AcDbLine
10
118.99999968707559
20
-41.09999975413082
30
0
11
120.89999968707559
21
-41.09999975413082
31
0
0
LINE
5
408
100
AcDbEntity
8
0
100
AcDbLine
10
120.89999968707559
20
-37.399999754130818
30
0
11
120.89999968707559
21
-38.299999754130816
31
0
0
LINE
5
409
100
AcDbEntity
8
0
100
AcDbLine
10
120.89999968707559
20
-38.299999754130816
30
0
11
118.99999968707559
21
-38.299999754130816
31
0
0
LINE
5
410
100
AcDbEntity
8
0
100
AcDbLine
10
120.89999968707559
20
-41.09999975413082
30
0
11
120.89999968707559
21
-42.09999975413082
31
0
0
LINE
5
411
100
AcDbEntity
8
0
100
AcDbLine
10
120.89999968707559
20
-42.09999975413082
30
0
11
126.39999968707558
21
-42.09999975413082
31
0
0
LINE
5
412
100
AcDbEntity
8
0
100
AcDbLine
10
125.39999968707559
20
-34.999999754130819
30
0
11
125.39999968707559
21
-37.399999754130818
31
0
0
LINE
5
413
100
AcDbEntity
8
0
100
AcDbLine
10
125.39999968707559
20
-37.399999754130818
30
0
11
120.89999968707559
21
-37.399999754130818
31
0
0
LINE
5
414
100
AcDbEntity
8
0
100
AcDbLine
10
126.39999968707558
20
-42.09999975413082
30
0
11
128.49999968707556
21
-43.099999754130813
31
0
0
LINE
5
415
100
AcDbEntity
8
0
100
AcDbLine
10
128.49999968707556
20
-43.099999754130813
30
0
11
133.29999968707557
21
-43.099999754130813
31
0
0
LINE
5
416
100
AcDbEntity
8
0
100
AcDbLine
10
130.59999968707558
20
-34.999999754130819
30
0
11
130.59999968707558
21
-38.399999754130818
31
0
0
LINE
5
417
100
AcDbEntity
8
0
100
AcDbLine
10
133.29999968707557
20
-38.399999754130818
30
0
11
130.59999968707558
21
-38.399999754130818
31
0
0
LINE
5
418
100
AcDbEntity
8
0
100
AcDbLine
10
133.29999968707557
20
-39.39999975413081
30
0
11
133.29999968707557
21
-38.399999754130818
31
0
0
LINE
5
419
100
AcDbEntity
8
0
100
AcDbLine
10
133.29999968707557
20
-42.09999975413082
30
0
11
135.19999968707558
21
-42.09999975413082
31
0
0
LINE
5
420
100
AcDbEntity
8
0
100
AcDbLine
10
133.29999968707557
20
-43.099999754130813
30
0
11
133.29999968707557
21
-42.09999975413082
31
0
0
LINE
5
421
100
AcDbEntity
8
0
100
AcDbLine
10
135.19999968707558
20
-39.39999975413081
30
0
11
133.29999968707557
21
-39.39999975413081
31
0
0
LINE
5
422
100
AcDbEntity
8
0
100
AcDbLine
10
135.19999968707558
20
-42.09999975413082
30
0
11
135.19999968707558
21
-39.39999975413081
31
0
0
CIRCLE
5
423
100
AcDbEntity
8
0
100
AcDbCircle
10
127.99999968707559
20
-34.999999754130819
30
0
40
2.6000000000000001
210
0
220
0
230
1
0
ENDSEC
0
SECTION
2
OBJECTS
0
DICTIONARY
5
C
100
AcDbDictionary
3
ACAD_GROUP
350
D
3
ACAD_MLINESTYLE
350
17
0
DICTIONARY
5
D
100
AcDbDictionary
0
DICTIONARY
5
1A
330
C
100
AcDbDictionary
0
DICTIONARY
5
17
100
AcDbDictionary
0
ENDSEC
0
EOF
