0
SECTION
2
HEADER
9
$INSUNITS
70
4
9
$ACADVER
1
AC1014
9
$HANDSEED
5
FFFF
0
ENDSEC
0
SECTION
2
TABLES
0
TABLE
2
VPORT
5
8
100
AcDbSymbolTable
0
ENDTAB
0
TABLE
2
LTYPE
5
5
100
AcDbSymbolTable
0
LTYPE
5
14
100
AcDbSymbolTableRecord
100
AcDbLinetypeTableRecord
2
BYBLOCK
70
0
0
LTYPE
5
15
100
AcDbSymbolTableRecord
100
AcDbLinetypeTableRecord
2
BYLAYER
70
0
0
LTYPE
5
16
100
AcDbSymbolTableRecord
100
AcDbLinetypeTableRecord
2
DASHED
70
0
3
Dashed __ __ __ __ __ __ __ __ __ __ __ __ __ _
72
65
73
2
40
0.75
49
0.5
74
0
49
-0.25
74
0
0
ENDTAB
0
TABLE
2
LAYER
5
2
100
AcDbSymbolTable
70
2
0
LAYER
5
50
100
AcDbSymbolTableRecord
100
AcDbLayerTableRecord
2
0
70
0
62
7
6
CONTINUOUS
0
ENDTAB
0
TABLE
2
STYLE
5
3
100
AcDbSymbolTable
70
1
0
STYLE
5
11
100
AcDbSymbolTableRecord
100
AcDbTextStyleTableRecord
2
STANDARD
70
0
0
ENDTAB
0
TABLE
2
VIEW
5
6
100
AcDbSymbolTable
70
0
0
ENDTAB
0
TABLE
2
UCS
5
7
100
AcDbSymbolTable
70
0
0
ENDTAB
0
TABLE
2
APPID
5
9
100
AcDbSymbolTable
70
2
0
APPID
5
12
100
AcDbSymbolTableRecord
100
AcDbRegAppTableRecord
2
ACAD
70
0
0
ENDTAB
0
TABLE
2
DIMSTYLE
5
A
100
AcDbSymbolTable
70
1
0
ENDTAB
0
TABLE
2
BLOCK_RECORD
5
1
100
AcDbSymbolTable
70
1
0
BLOCK_RECORD
5
1F
100
AcDbSymbolTableRecord
100
AcDbBlockTableRecord
2
*MODEL_SPACE
0
BLOCK_RECORD
5
1B
100
AcDbSymbolTableRecord
100
AcDbBlockTableRecord
2
*PAPER_SPACE
0
ENDTAB
0
ENDSEC
0
SECTION
2
BLOCKS
0
BLOCK
5
20
100
AcDbEntity
100
AcDbBlockBegin
2
*MODEL_SPACE
0
ENDBLK
5
21
100
AcDbEntity
100
AcDbBlockEnd
0
BLOCK
5
1C
100
AcDbEntity
100
AcDbBlockBegin
2
*PAPER_SPACE
0
ENDBLK
5
1D
100
AcDbEntity
100
AcDbBlockEnd
0
ENDSEC
0
SECTION
2
ENTITIES
0
POINT
5
100
100
AcDbEntity
8
0
100
AcDbPoint
10
0
20
0
30
0
0
POINT
5
101
100
AcDbEntity
8
0
100
AcDbPoint
10
0
20
0
30
0
0
LINE
5
102
100
AcDbEntity
8
0
100
AcDbLine
10
120.80000077486037
20
-39.400000700354568
30
0
11
122.70000077486038
21
-39.400000700354568
31
0
0
LINE
5
103
100
AcDbEntity
8
0
100
AcDbLine
10
120.80000077486037
20
-42.10000070035457
30
0
11
120.80000077486037
21
-39.400000700354568
31
0
0
LINE
5
104
100
AcDbEntity
8
0
100
AcDbLine
10
122.70000077486038
20
-38.400000700354575
30
0
11
125.40000077486039
21
-38.400000700354575
31
0
0
LINE
5
105
100
AcDbEntity
8
0
100
AcDbLine
10
122.70000077486038
20
-39.400000700354568
30
0
11
122.70000077486038
21
-38.400000700354575
31
0
0
LINE
5
106
100
AcDbEntity
8
0
100
AcDbLine
10
122.70000077486038
20
-42.10000070035457
30
0
11
120.80000077486037
21
-42.10000070035457
31
0
0
LINE
5
107
100
AcDbEntity
8
0
100
AcDbLine
10
122.70000077486038
20
-43.10000070035457
30
0
11
122.70000077486038
21
-42.10000070035457
31
0
0
LINE
5
108
100
AcDbEntity
8
0
100
AcDbLine
10
125.40000077486039
20
-35.000000700354576
30
0
11
125.40000077486039
21
-38.400000700354575
31
0
0
LINE
5
109
100
AcDbEntity
8
0
100
AcDbLine
10
127.50000077486035
20
-43.10000070035457
30
0
11
122.70000077486038
21
-43.10000070035457
31
0
0
LINE
5
110
100
AcDbEntity
8
0
100
AcDbLine
10
129.60000077486035
20
-42.10000070035457
30
0
11
127.50000077486035
21
-43.10000070035457
31
0
0
LINE
5
111
100
AcDbEntity
8
0
100
AcDbLine
10
130.60000077486038
20
-35.000000700354576
30
0
11
130.60000077486038
21
-37.400000700354575
31
0
0
LINE
5
112
100
AcDbEntity
8
0
100
AcDbLine
10
130.60000077486038
20
-37.400000700354575
30
0
11
135.10000077486038
21
-37.400000700354575
31
0
0
LINE
5
113
100
AcDbEntity
8
0
100
AcDbLine
10
135.10000077486038
20
-37.400000700354575
30
0
11
135.10000077486038
21
-38.300000700354573
31
0
0
LINE
5
114
100
AcDbEntity
8
0
100
AcDbLine
10
135.10000077486038
20
-38.300000700354573
30
0
11
137.00000077486038
21
-38.300000700354573
31
0
0
LINE
5
115
100
AcDbEntity
8
0
100
AcDbLine
10
135.10000077486038
20
-41.100000700354578
30
0
11
135.10000077486038
21
-42.10000070035457
31
0
0
LINE
5
116
100
AcDbEntity
8
0
100
AcDbLine
10
135.10000077486038
20
-42.10000070035457
30
0
11
129.60000077486035
21
-42.10000070035457
31
0
0
LINE
5
117
100
AcDbEntity
8
0
100
AcDbLine
10
137.00000077486038
20
-38.300000700354573
30
0
11
137.00000077486038
21
-41.100000700354578
31
0
0
LINE
5
118
100
AcDbEntity
8
0
100
AcDbLine
10
137.00000077486038
20
-41.100000700354578
30
0
11
135.10000077486038
21
-41.100000700354578
31
0
0
CIRCLE
5
119
100
AcDbEntity
8
0
100
AcDbCircle
10
128.00000077486035
20
-35.000000700354576
30
0
40
2.6000000000000001
210
0
220
0
230
1
0
LINE
5
120
100
AcDbEntity
8
0
100
AcDbLine
10
82.800000774860365
20
-17.400000700354575
30
0
11
84.700000774860371
21
-17.400000700354575
31
0
0
LINE
5
121
100
AcDbEntity
8
0
100
AcDbLine
10
82.800000774860365
20
-20.100000700354581
30
0
11
82.800000774860365
21
-17.400000700354575
31
0
0
LINE
5
122
100
AcDbEntity
8
0
100
AcDbLine
10
84.700000774860371
20
-16.400000700354578
30
0
11
87.400000774860374
21
-16.400000700354578
31
0
0
LINE
5
123
100
AcDbEntity
8
0
100
AcDbLine
10
84.700000774860371
20
-17.400000700354575
30
0
11
84.700000774860371
21
-16.400000700354578
31
0
0
LINE
5
124
100
AcDbEntity
8
0
100
AcDbLine
10
84.700000774860371
20
-20.100000700354581
30
0
11
82.800000774860365
21
-20.100000700354581
31
0
0
LINE
5
125
100
AcDbEntity
8
0
100
AcDbLine
10
84.700000774860371
20
-21.100000700354581
30
0
11
84.700000774860371
21
-20.100000700354581
31
0
0
LINE
5
126
100
AcDbEntity
8
0
100
AcDbLine
10
87.400000774860374
20
-13.000000700354583
30
0
11
87.400000774860374
21
-16.400000700354578
31
0
0
LINE
5
127
100
AcDbEntity
8
0
100
AcDbLine
10
89.500000774860382
20
-21.100000700354581
30
0
11
84.700000774860371
21
-21.100000700354581
31
0
0
LINE
5
128
100
AcDbEntity
8
0
100
AcDbLine
10
91.600000774860391
20
-20.100000700354581
30
0
11
89.500000774860382
21
-21.100000700354581
31
0
0
LINE
5
129
100
AcDbEntity
8
0
100
AcDbLine
10
92.600000774860376
20
-13.000000700354583
30
0
11
92.600000774860376
21
-15.400000700354582
31
0
0
LINE
5
130
100
AcDbEntity
8
0
100
AcDbLine
10
92.600000774860376
20
-15.400000700354582
30
0
11
97.100000774860362
21
-15.400000700354578
31
0
0
LINE
5
131
100
AcDbEntity
8
0
100
AcDbLine
10
97.100000774860362
20
-15.400000700354578
30
0
11
97.100000774860362
21
-16.300000700354577
31
0
0
LINE
5
132
100
AcDbEntity
8
0
100
AcDbLine
10
97.100000774860362
20
-16.300000700354577
30
0
11
99.000000774860382
21
-16.300000700354577
31
0
0
LINE
5
133
100
AcDbEntity
8
0
100
AcDbLine
10
97.100000774860362
20
-19.100000700354581
30
0
11
97.100000774860362
21
-20.100000700354581
31
0
0
LINE
5
134
100
AcDbEntity
8
0
100
AcDbLine
10
97.100000774860362
20
-20.100000700354581
30
0
11
91.600000774860391
21
-20.100000700354581
31
0
0
LINE
5
135
100
AcDbEntity
8
0
100
AcDbLine
10
99.000000774860382
20
-16.300000700354577
30
0
11
99.000000774860382
21
-19.100000700354581
31
0
0
LINE
5
136
100
AcDbEntity
8
0
100
AcDbLine
10
99.000000774860382
20
-19.100000700354581
30
0
11
97.100000774860362
21
-19.100000700354581
31
0
0
CIRCLE
5
137
100
AcDbEntity
8
0
100
AcDbCircle
10
90.000000774860382
20
-13.000000700354583
30
0
40
2.6000000000000001
210
0
220
0
230
1
0
LINE
5
138
100
AcDbEntity
8
0
100
AcDbLine
10
63.800000774860379
20
-13.400000700354582
30
0
11
65.700000774860385
21
-13.400000700354582
31
0
0
LINE
5
139
100
AcDbEntity
8
0
100
AcDbLine
10
63.800000774860379
20
-16.100000700354581
30
0
11
63.800000774860379
21
-13.400000700354582
31
0
0
LINE
5
140
100
AcDbEntity
8
0
100
AcDbLine
10
65.700000774860385
20
-12.400000700354584
30
0
11
68.400000774860374
21
-12.400000700354584
31
0
0
LINE
5
141
100
AcDbEntity
8
0
100
AcDbLine
10
65.700000774860385
20
-13.400000700354582
30
0
11
65.700000774860385
21
-12.400000700354584
31
0
0
LINE
5
142
100
AcDbEntity
8
0
100
AcDbLine
10
65.700000774860385
20
-16.100000700354581
30
0
11
63.800000774860379
21
-16.100000700354581
31
0
0
LINE
5
143
100
AcDbEntity
8
0
100
AcDbLine
10
65.700000774860385
20
-17.100000700354578
30
0
11
65.700000774860385
21
-16.100000700354581
31
0
0
LINE
5
144
100
AcDbEntity
8
0
100
AcDbLine
10
68.400000774860374
20
-9.0000007003545832
30
0
11
68.400000774860374
21
-12.400000700354584
31
0
0
LINE
5
145
100
AcDbEntity
8
0
100
AcDbLine
10
70.500000774860382
20
-17.100000700354578
30
0
11
65.700000774860385
21
-17.100000700354578
31
0
0
LINE
5
146
100
AcDbEntity
8
0
100
AcDbLine
10
72.600000774860362
20
-16.100000700354581
30
0
11
70.500000774860382
21
-17.100000700354578
31
0
0
LINE
5
147
100
AcDbEntity
8
0
100
AcDbLine
10
73.600000774860362
20
-9.0000007003545832
30
0
11
73.600000774860362
21
-11.400000700354582
31
0
0
LINE
5
148
100
AcDbEntity
8
0
100
AcDbLine
10
73.600000774860362
20
-11.400000700354582
30
0
11
78.100000774860362
21
-11.400000700354582
31
0
0
LINE
5
149
100
AcDbEntity
8
0
100
AcDbLine
10
78.100000774860362
20
-11.400000700354582
30
0
11
78.100000774860362
21
-12.300000700354584
31
0
0
LINE
5
150
100
AcDbEntity
8
0
100
AcDbLine
10
78.100000774860362
20
-12.300000700354584
30
0
11
80.000000774860382
21
-12.300000700354584
31
0
0
LINE
5
151
100
AcDbEntity
8
0
100
AcDbLine
10
78.100000774860362
20
-15.100000700354583
30
0
11
78.100000774860362
21
-16.100000700354581
31
0
0
LINE
5
152
100
AcDbEntity
8
0
100
AcDbLine
10
78.100000774860362
20
-16.100000700354581
30
0
11
72.600000774860362
21
-16.100000700354581
31
0
0
LINE
5
153
100
AcDbEntity
8
0
100
AcDbLine
10
80.000000774860382
20
-12.300000700354584
30
0
11
80.000000774860382
21
-15.100000700354583
31
0
0
LINE
5
154
100
AcDbEntity
8
0
100
AcDbLine
10
80.000000774860382
20
-15.100000700354583
30
0
11
78.100000774860362
21
-15.100000700354583
31
0
0
CIRCLE
5
155
100
AcDbEntity
8
0
100
AcDbCircle
10
71.000000774860382
20
-9.0000007003545832
30
0
40
2.6000000000000001
210
0
220
0
230
1
0
LINE
5
156
100
AcDbEntity
8
0
100
AcDbLine
10
44.800000774860386
20
-19.400000700354582
30
0
11
46.700000774860385
21
-19.400000700354582
31
0
0
LINE
5
157
100
AcDbEntity
8
0
100
AcDbLine
10
44.800000774860386
20
-22.100000700354585
30
0
11
44.800000774860386
21
-19.400000700354582
31
0
0
LINE
5
158
100
AcDbEntity
8
0
100
AcDbLine
10
46.700000774860385
20
-18.400000700354578
30
0
11
49.400000774860388
21
-18.400000700354578
31
0
0
LINE
5
159
100
AcDbEntity
8
0
100
AcDbLine
10
46.700000774860385
20
-19.400000700354582
30
0
11
46.700000774860385
21
-18.400000700354578
31
0
0
LINE
5
160
100
AcDbEntity
8
0
100
AcDbLine
10
46.700000774860385
20
-22.100000700354585
30
0
11
44.800000774860386
21
-22.100000700354585
31
0
0
LINE
5
161
100
AcDbEntity
8
0
100
AcDbLine
10
46.700000774860385
20
-23.100000700354585
30
0
11
46.700000774860385
21
-22.100000700354585
31
0
0
LINE
5
162
100
AcDbEntity
8
0
100
AcDbLine
10
49.400000774860388
20
-15.000000700354585
30
0
11
49.400000774860388
21
-18.400000700354578
31
0
0
LINE
5
163
100
AcDbEntity
8
0
100
AcDbLine
10
51.500000774860396
20
-23.100000700354585
30
0
11
46.700000774860385
21
-23.100000700354585
31
0
0
LINE
5
164
100
AcDbEntity
8
0
100
AcDbLine
10
53.600000774860391
20
-22.100000700354585
30
0
11
51.500000774860396
21
-23.100000700354585
31
0
0
LINE
5
165
100
AcDbEntity
8
0
100
AcDbLine
10
54.600000774860391
20
-15.000000700354585
30
0
11
54.600000774860391
21
-17.400000700354578
31
0
0
LINE
5
166
100
AcDbEntity
8
0
100
AcDbLine
10
54.600000774860391
20
-17.400000700354578
30
0
11
59.100000774860384
21
-17.400000700354575
31
0
0
LINE
5
167
100
AcDbEntity
8
0
100
AcDbLine
10
59.100000774860384
20
-17.400000700354575
30
0
11
59.100000774860384
21
-18.30000070035458
31
0
0
LINE
5
168
100
AcDbEntity
8
0
100
AcDbLine
10
59.100000774860384
20
-18.30000070035458
30
0
11
61.000000774860375
21
-18.30000070035458
31
0
0
LINE
5
169
100
AcDbEntity
8
0
100
AcDbLine
10
59.100000774860384
20
-21.100000700354581
30
0
11
59.100000774860384
21
-22.100000700354585
31
0
0
LINE
5
170
100
AcDbEntity
8
0
100
AcDbLine
10
59.100000774860384
20
-22.100000700354585
30
0
11
53.600000774860391
21
-22.100000700354585
31
0
0
LINE
5
171
100
AcDbEntity
8
0
100
AcDbLine
10
61.000000774860375
20
-18.30000070035458
30
0
11
61.000000774860375
21
-21.100000700354581
31
0
0
LINE
5
172
100
AcDbEntity
8
0
100
AcDbLine
10
61.000000774860375
20
-21.100000700354581
30
0
11
59.100000774860384
21
-21.100000700354581
31
0
0
CIRCLE
5
173
100
AcDbEntity
8
0
100
AcDbCircle
10
52.000000774860389
20
-15.000000700354585
30
0
40
2.6000000000000001
210
0
220
0
230
1
0
LINE
5
174
100
AcDbEntity
8
0
100
AcDbLine
10
25.800000774860393
20
-21.400000700354585
30
0
11
27.700000774860385
21
-21.400000700354585
31
0
0
LINE
5
175
100
AcDbEntity
8
0
100
AcDbLine
10
25.800000774860393
20
-24.100000700354585
30
0
11
25.800000774860393
21
-21.400000700354585
31
0
0
LINE
5
176
100
AcDbEntity
8
0
100
AcDbLine
10
27.700000774860385
20
-20.400000700354582
30
0
11
30.400000774860384
21
-20.400000700354582
31
0
0
LINE
5
177
100
AcDbEntity
8
0
100
AcDbLine
10
27.700000774860385
20
-21.400000700354585
30
0
11
27.700000774860385
21
-20.400000700354582
31
0
0
LINE
5
178
100
AcDbEntity
8
0
100
AcDbLine
10
27.700000774860385
20
-24.100000700354585
30
0
11
25.800000774860393
21
-24.100000700354585
31
0
0
LINE
5
179
100
AcDbEntity
8
0
100
AcDbLine
10
27.700000774860385
20
-25.100000700354585
30
0
11
27.700000774860385
21
-24.100000700354585
31
0
0
LINE
5
180
100
AcDbEntity
8
0
100
AcDbLine
10
30.400000774860384
20
-17.000000700354583
30
0
11
30.400000774860384
21
-20.400000700354582
31
0
0
LINE
5
181
100
AcDbEntity
8
0
100
AcDbLine
10
32.500000774860389
20
-25.100000700354585
30
0
11
27.700000774860385
21
-25.100000700354585
31
0
0
LINE
5
182
100
AcDbEntity
8
0
100
AcDbLine
10
34.600000774860391
20
-24.100000700354585
30
0
11
32.500000774860389
21
-25.100000700354585
31
0
0
LINE
5
183
100
AcDbEntity
8
0
100
AcDbLine
10
35.600000774860391
20
-17.000000700354583
30
0
11
35.600000774860391
21
-19.400000700354582
31
0
0
LINE
5
184
100
AcDbEntity
8
0
100
AcDbLine
10
35.600000774860391
20
-19.400000700354582
30
0
11
40.100000774860391
21
-19.400000700354582
31
0
0
LINE
5
185
100
AcDbEntity
8
0
100
AcDbLine
10
40.100000774860391
20
-19.400000700354582
30
0
11
40.100000774860391
21
-20.300000700354587
31
0
0
LINE
5
186
100
AcDbEntity
8
0
100
AcDbLine
10
40.100000774860391
20
-20.300000700354587
30
0
11
42.000000774860389
21
-20.300000700354587
31
0
0
LINE
5
187
100
AcDbEntity
8
0
100
AcDbLine
10
40.100000774860391
20
-23.100000700354585
30
0
11
40.100000774860391
21
-24.100000700354581
31
0
0
LINE
5
188
100
AcDbEntity
8
0
100
AcDbLine
10
40.100000774860391
20
-24.100000700354581
30
0
11
34.600000774860391
21
-24.100000700354585
31
0
0
LINE
5
189
100
AcDbEntity
8
0
100
AcDbLine
10
42.000000774860389
20
-20.300000700354587
30
0
11
42.000000774860389
21
-23.100000700354585
31
0
0
LINE
5
190
100
AcDbEntity
8
0
100
AcDbLine
10
42.000000774860389
20
-23.100000700354585
30
0
11
40.100000774860391
21
-23.100000700354585
31
0
0
CIRCLE
5
191
100
AcDbEntity
8
0
100
AcDbCircle
10
33.000000774860389
20
-17.000000700354583
30
0
40
2.6000000000000001
210
0
220
0
230
1
0
LINE
5
192
100
AcDbEntity
8
0
100
AcDbLine
10
101.80000077486039
20
-39.400000700354575
30
0
11
103.7000007748604
21
-39.400000700354575
31
0
0
LINE
5
193
100
AcDbEntity
8
0
100
AcDbLine
10
101.80000077486039
20
-42.10000070035457
30
0
11
101.80000077486039
21
-39.400000700354575
31
0
0
LINE
5
194
100
AcDbEntity
8
0
100
AcDbLine
10
103.7000007748604
20
-38.400000700354575
30
0
11
106.40000077486039
21
-38.400000700354575
31
0
0
LINE
5
195
100
AcDbEntity
8
0
100
AcDbLine
10
103.7000007748604
20
-39.400000700354575
30
0
11
103.7000007748604
21
-38.400000700354575
31
0
0
LINE
5
196
100
AcDbEntity
8
0
100
AcDbLine
10
103.7000007748604
20
-42.10000070035457
30
0
11
101.80000077486039
21
-42.10000070035457
31
0
0
LINE
5
197
100
AcDbEntity
8
0
100
AcDbLine
10
103.7000007748604
20
-43.10000070035457
30
0
11
103.7000007748604
21
-42.10000070035457
31
0
0
LINE
5
198
100
AcDbEntity
8
0
100
AcDbLine
10
106.40000077486039
20
-35.000000700354576
30
0
11
106.40000077486039
21
-38.400000700354575
31
0
0
LINE
5
199
100
AcDbEntity
8
0
100
AcDbLine
10
108.50000077486037
20
-43.10000070035457
30
0
11
103.7000007748604
21
-43.10000070035457
31
0
0
LINE
5
200
100
AcDbEntity
8
0
100
AcDbLine
10
110.60000077486038
20
-42.10000070035457
30
0
11
108.50000077486037
21
-43.10000070035457
31
0
0
LINE
5
201
100
AcDbEntity
8
0
100
AcDbLine
10
111.60000077486039
20
-35.000000700354576
30
0
11
111.60000077486039
21
-37.400000700354575
31
0
0
LINE
5
202
100
AcDbEntity
8
0
100
AcDbLine
10
111.60000077486039
20
-37.400000700354575
30
0
11
116.10000077486035
21
-37.400000700354575
31
0
0
LINE
5
203
100
AcDbEntity
8
0
100
AcDbLine
10
116.10000077486035
20
-37.400000700354575
30
0
11
116.10000077486035
21
-38.300000700354573
31
0
0
LINE
5
204
100
AcDbEntity
8
0
100
AcDbLine
10
116.10000077486035
20
-38.300000700354573
30
0
11
118.00000077486035
21
-38.300000700354573
31
0
0
LINE
5
205
100
AcDbEntity
8
0
100
AcDbLine
10
116.10000077486035
20
-41.100000700354578
30
0
11
116.10000077486035
21
-42.10000070035457
31
0
0
LINE
5
206
100
AcDbEntity
8
0
100
AcDbLine
10
116.10000077486035
20
-42.10000070035457
30
0
11
110.60000077486038
21
-42.10000070035457
31
0
0
LINE
5
207
100
AcDbEntity
8
0
100
AcDbLine
10
118.00000077486035
20
-38.300000700354573
30
0
11
118.00000077486035
21
-41.100000700354578
31
0
0
LINE
5
208
100
AcDbEntity
8
0
100
AcDbLine
10
118.00000077486035
20
-41.100000700354578
30
0
11
116.10000077486035
21
-41.100000700354578
31
0
0
CIRCLE
5
209
100
AcDbEntity
8
0
100
AcDbCircle
10
109.00000077486038
20
-35.000000700354576
30
0
40
2.6000000000000001
210
0
220
0
230
1
0
LINE
5
210
100
AcDbEntity
8
0
100
AcDbLine
10
82.800000774860365
20
-33.400000700354575
30
0
11
84.700000774860371
21
-33.400000700354575
31
0
0
LINE
5
211
100
AcDbEntity
8
0
100
AcDbLine
10
82.800000774860365
20
-36.100000700354578
30
0
11
82.800000774860365
21
-33.400000700354575
31
0
0
LINE
5
212
100
AcDbEntity
8
0
100
AcDbLine
10
84.700000774860371
20
-32.400000700354575
30
0
11
87.400000774860374
21
-32.400000700354575
31
0
0
LINE
5
213
100
AcDbEntity
8
0
100
AcDbLine
10
84.700000774860371
20
-33.400000700354575
30
0
11
84.700000774860371
21
-32.400000700354575
31
0
0
LINE
5
214
100
AcDbEntity
8
0
100
AcDbLine
10
84.700000774860371
20
-36.100000700354578
30
0
11
82.800000774860365
21
-36.100000700354578
31
0
0
LINE
5
215
100
AcDbEntity
8
0
100
AcDbLine
10
84.700000774860371
20
-37.100000700354578
30
0
11
84.700000774860371
21
-36.100000700354578
31
0
0
LINE
5
216
100
AcDbEntity
8
0
100
AcDbLine
10
87.400000774860374
20
-29.000000700354583
30
0
11
87.400000774860374
21
-32.400000700354575
31
0
0
LINE
5
217
100
AcDbEntity
8
0
100
AcDbLine
10
89.500000774860382
20
-37.100000700354578
30
0
11
84.700000774860371
21
-37.100000700354578
31
0
0
LINE
5
218
100
AcDbEntity
8
0
100
AcDbLine
10
91.600000774860391
20
-36.100000700354578
30
0
11
89.500000774860382
21
-37.100000700354578
31
0
0
LINE
5
219
100
AcDbEntity
8
0
100
AcDbLine
10
92.600000774860376
20
-29.000000700354583
30
0
11
92.600000774860376
21
-31.400000700354575
31
0
0
LINE
5
220
100
AcDbEntity
8
0
100
AcDbLine
10
92.600000774860376
20
-31.400000700354575
30
0
11
97.100000774860362
21
-31.400000700354575
31
0
0
LINE
5
221
100
AcDbEntity
8
0
100
AcDbLine
10
97.100000774860362
20
-31.400000700354575
30
0
11
97.100000774860362
21
-32.30000070035458
31
0
0
LINE
5
222
100
AcDbEntity
8
0
100
AcDbLine
10
97.100000774860362
20
-32.30000070035458
30
0
11
99.000000774860382
21
-32.30000070035458
31
0
0
LINE
5
223
100
AcDbEntity
8
0
100
AcDbLine
10
97.100000774860362
20
-35.100000700354578
30
0
11
97.100000774860362
21
-36.100000700354578
31
0
0
LINE
5
224
100
AcDbEntity
8
0
100
AcDbLine
10
97.100000774860362
20
-36.100000700354578
30
0
11
91.600000774860391
21
-36.100000700354578
31
0
0
LINE
5
225
100
AcDbEntity
8
0
100
AcDbLine
10
99.000000774860382
20
-32.30000070035458
30
0
11
99.000000774860382
21
-35.100000700354578
31
0
0
LINE
5
226
100
AcDbEntity
8
0
100
AcDbLine
10
99.000000774860382
20
-35.100000700354578
30
0
11
97.100000774860362
21
-35.100000700354578
31
0
0
CIRCLE
5
227
100
AcDbEntity
8
0
100
AcDbCircle
10
90.000000774860382
20
-29.000000700354583
30
0
40
2.6000000000000001
210
0
220
0
230
1
0
LINE
5
228
100
AcDbEntity
8
0
100
AcDbLine
10
63.800000774860379
20
-29.400000700354578
30
0
11
65.700000774860385
21
-29.400000700354578
31
0
0
LINE
5
229
100
AcDbEntity
8
0
100
AcDbLine
10
63.800000774860379
20
-32.100000700354578
30
0
11
63.800000774860379
21
-29.400000700354578
31
0
0
LINE
5
230
100
AcDbEntity
8
0
100
AcDbLine
10
65.700000774860385
20
-28.400000700354582
30
0
11
68.400000774860374
21
-28.400000700354582
31
0
0
LINE
5
231
100
AcDbEntity
8
0
100
AcDbLine
10
65.700000774860385
20
-29.400000700354578
30
0
11
65.700000774860385
21
-28.400000700354582
31
0
0
LINE
5
232
100
AcDbEntity
8
0
100
AcDbLine
10
65.700000774860385
20
-32.100000700354578
30
0
11
63.800000774860379
21
-32.100000700354578
31
0
0
LINE
5
233
100
AcDbEntity
8
0
100
AcDbLine
10
65.700000774860385
20
-33.100000700354578
30
0
11
65.700000774860385
21
-32.100000700354578
31
0
0
LINE
5
234
100
AcDbEntity
8
0
100
AcDbLine
10
68.400000774860374
20
-25.000000700354583
30
0
11
68.400000774860374
21
-28.400000700354582
31
0
0
LINE
5
235
100
AcDbEntity
8
0
100
AcDbLine
10
70.500000774860382
20
-33.100000700354578
30
0
11
65.700000774860385
21
-33.100000700354578
31
0
0
LINE
5
236
100
AcDbEntity
8
0
100
AcDbLine
10
72.600000774860362
20
-32.100000700354578
30
0
11
70.500000774860382
21
-33.100000700354578
31
0
0
LINE
5
237
100
AcDbEntity
8
0
100
AcDbLine
10
73.600000774860362
20
-25.000000700354583
30
0
11
73.600000774860362
21
-27.400000700354582
31
0
0
LINE
5
238
100
AcDbEntity
8
0
100
AcDbLine
10
73.600000774860362
20
-27.400000700354582
30
0
11
78.100000774860362
21
-27.400000700354582
31
0
0
LINE
5
239
100
AcDbEntity
8
0
100
AcDbLine
10
78.100000774860362
20
-27.400000700354582
30
0
11
78.100000774860362
21
-28.300000700354584
31
0
0
LINE
5
240
100
AcDbEntity
8
0
100
AcDbLine
10
78.100000774860362
20
-28.300000700354584
30
0
11
80.000000774860382
21
-28.300000700354584
31
0
0
LINE
5
241
100
AcDbEntity
8
0
100
AcDbLine
10
78.100000774860362
20
-31.100000700354578
30
0
11
78.100000774860362
21
-32.100000700354578
31
0
0
LINE
5
242
100
AcDbEntity
8
0
100
AcDbLine
10
78.100000774860362
20
-32.100000700354578
30
0
11
72.600000774860362
21
-32.100000700354578
31
0
0
LINE
5
243
100
AcDbEntity
8
0
100
AcDbLine
10
80.000000774860382
20
-28.300000700354584
30
0
11
80.000000774860382
21
-31.100000700354578
31
0
0
LINE
5
244
100
AcDbEntity
8
0
100
AcDbLine
10
80.000000774860382
20
-31.100000700354578
30
0
11
78.100000774860362
21
-31.100000700354578
31
0
0
CIRCLE
5
245
100
AcDbEntity
8
0
100
AcDbCircle
10
71.000000774860382
20
-25.000000700354583
30
0
40
2.6000000000000001
210
0
220
0
230
1
0
LINE
5
246
100
AcDbEntity
8
0
100
AcDbLine
10
44.800000774860386
20
-35.400000700354575
30
0
11
46.700000774860385
21
-35.400000700354575
31
0
0
LINE
5
247
100
AcDbEntity
8
0
100
AcDbLine
10
44.800000774860386
20
-38.100000700354578
30
0
11
44.800000774860386
21
-35.400000700354575
31
0
0
LINE
5
248
100
AcDbEntity
8
0
100
AcDbLine
10
46.700000774860385
20
-34.400000700354575
30
0
11
49.400000774860388
21
-34.400000700354575
31
0
0
LINE
5
249
100
AcDbEntity
8
0
100
AcDbLine
10
46.700000774860385
20
-35.400000700354575
30
0
11
46.700000774860385
21
-34.400000700354575
31
0
0
LINE
5
250
100
AcDbEntity
8
0
100
AcDbLine
10
46.700000774860385
20
-38.100000700354578
30
0
11
44.800000774860386
21
-38.100000700354578
31
0
0
LINE
5
251
100
AcDbEntity
8
0
100
AcDbLine
10
46.700000774860385
20
-39.100000700354578
30
0
11
46.700000774860385
21
-38.100000700354578
31
0
0
LINE
5
252
100
AcDbEntity
8
0
100
AcDbLine
10
49.400000774860388
20
-31.000000700354576
30
0
11
49.400000774860388
21
-34.400000700354575
31
0
0
LINE
5
253
100
AcDbEntity
8
0
100
AcDbLine
10
51.500000774860396
20
-39.100000700354578
30
0
11
46.700000774860385
21
-39.100000700354578
31
0
0
LINE
5
254
100
AcDbEntity
8
0
100
AcDbLine
10
53.600000774860391
20
-38.100000700354578
30
0
11
51.500000774860396
21
-39.100000700354578
31
0
0
LINE
5
255
100
AcDbEntity
8
0
100
AcDbLine
10
54.600000774860391
20
-31.000000700354576
30
0
11
54.600000774860391
21
-33.400000700354575
31
0
0
LINE
5
256
100
AcDbEntity
8
0
100
AcDbLine
10
54.600000774860391
20
-33.400000700354575
30
0
11
59.100000774860384
21
-33.400000700354575
31
0
0
LINE
5
257
100
AcDbEntity
8
0
100
AcDbLine
10
59.100000774860384
20
-33.400000700354575
30
0
11
59.100000774860384
21
-34.300000700354573
31
0
0
LINE
5
258
100
AcDbEntity
8
0
100
AcDbLine
10
59.100000774860384
20
-34.300000700354573
30
0
11
61.000000774860375
21
-34.300000700354573
31
0
0
LINE
5
259
100
AcDbEntity
8
0
100
AcDbLine
10
59.100000774860384
20
-37.100000700354578
30
0
11
59.100000774860384
21
-38.100000700354578
31
0
0
LINE
5
260
100
AcDbEntity
8
0
100
AcDbLine
10
59.100000774860384
20
-38.100000700354578
30
0
11
53.600000774860391
21
-38.100000700354578
31
0
0
LINE
5
261
100
AcDbEntity
8
0
100
AcDbLine
10
61.000000774860375
20
-34.300000700354573
30
0
11
61.000000774860375
21
-37.100000700354578
31
0
0
LINE
5
262
100
AcDbEntity
8
0
100
AcDbLine
10
61.000000774860375
20
-37.100000700354578
30
0
11
59.100000774860384
21
-37.100000700354578
31
0
0
CIRCLE
5
263
100
AcDbEntity
8
0
100
AcDbCircle
10
52.000000774860389
20
-31.000000700354576
30
0
40
2.6000000000000001
210
0
220
0
230
1
0
LINE
5
264
100
AcDbEntity
8
0
100
AcDbLine
10
25.800000774860393
20
-37.400000700354582
30
0
11
27.700000774860385
21
-37.400000700354582
31
0
0
LINE
5
265
100
AcDbEntity
8
0
100
AcDbLine
10
25.800000774860393
20
-40.100000700354585
30
0
11
25.800000774860393
21
-37.400000700354582
31
0
0
LINE
5
266
100
AcDbEntity
8
0
100
AcDbLine
10
27.700000774860385
20
-36.400000700354582
30
0
11
30.400000774860384
21
-36.400000700354582
31
0
0
LINE
5
267
100
AcDbEntity
8
0
100
AcDbLine
10
27.700000774860385
20
-37.400000700354582
30
0
11
27.700000774860385
21
-36.400000700354582
31
0
0
LINE
5
268
100
AcDbEntity
8
0
100
AcDbLine
10
27.700000774860385
20
-40.100000700354585
30
0
11
25.800000774860393
21
-40.100000700354585
31
0
0
LINE
5
269
100
AcDbEntity
8
0
100
AcDbLine
10
27.700000774860388
20
-41.100000700354585
30
0
11
27.700000774860385
21
-40.100000700354585
31
0
0
LINE
5
270
100
AcDbEntity
8
0
100
AcDbLine
10
30.400000774860384
20
-33.000000700354583
30
0
11
30.400000774860384
21
-36.400000700354582
31
0
0
LINE
5
271
100
AcDbEntity
8
0
100
AcDbLine
10
32.500000774860396
20
-41.100000700354585
30
0
11
27.700000774860388
21
-41.100000700354585
31
0
0
LINE
5
272
100
AcDbEntity
8
0
100
AcDbLine
10
34.600000774860391
20
-40.100000700354585
30
0
11
32.500000774860396
21
-41.100000700354585
31
0
0
LINE
5
273
100
AcDbEntity
8
0
100
AcDbLine
10
35.600000774860391
20
-33.000000700354583
30
0
11
35.600000774860391
21
-35.400000700354582
31
0
0
LINE
5
274
100
AcDbEntity
8
0
100
AcDbLine
10
35.600000774860391
20
-35.400000700354582
30
0
11
40.100000774860391
21
-35.400000700354575
31
0
0
LINE
5
275
100
AcDbEntity
8
0
100
AcDbLine
10
40.100000774860391
20
-35.400000700354575
30
0
11
40.100000774860391
21
-36.300000700354573
31
0
0
LINE
5
276
100
AcDbEntity
8
0
100
AcDbLine
10
40.100000774860391
20
-36.300000700354573
30
0
11
42.000000774860389
21
-36.300000700354573
31
0
0
LINE
5
277
100
AcDbEntity
8
0
100
AcDbLine
10
40.100000774860391
20
-39.100000700354578
30
0
11
40.100000774860391
21
-40.100000700354585
31
0
0
LINE
5
278
100
AcDbEntity
8
0
100
AcDbLine
10
40.100000774860391
20
-40.100000700354585
30
0
11
34.600000774860391
21
-40.100000700354585
31
0
0
LINE
5
279
100
AcDbEntity
8
0
100
AcDbLine
10
42.000000774860389
20
-36.300000700354573
30
0
11
42.000000774860389
21
-39.100000700354578
31
0
0
LINE
5
280
100
AcDbEntity
8
0
100
AcDbLine
10
42.000000774860389
20
-39.100000700354578
30
0
11
40.100000774860391
21
-39.100000700354578
31
0
0
CIRCLE
5
281
100
AcDbEntity
8
0
100
AcDbCircle
10
33.000000774860389
20
-33.000000700354583
30
0
40
2.6000000000000001
210
0
220
0
230
1
0
LINE
5
282
100
AcDbEntity
8
0
100
AcDbLine
10
101.80000077486039
20
-55.400000700354575
30
0
11
103.7000007748604
21
-55.400000700354575
31
0
0
LINE
5
283
100
AcDbEntity
8
0
100
AcDbLine
10
101.80000077486039
20
-58.100000700354578
30
0
11
101.80000077486039
21
-55.400000700354575
31
0
0
LINE
5
284
100
AcDbEntity
8
0
100
AcDbLine
10
103.7000007748604
20
-54.400000700354568
30
0
11
106.40000077486039
21
-54.400000700354568
31
0
0
LINE
5
285
100
AcDbEntity
8
0
100
AcDbLine
10
103.7000007748604
20
-55.400000700354575
30
0
11
103.7000007748604
21
-54.400000700354568
31
0
0
LINE
5
286
100
AcDbEntity
8
0
100
AcDbLine
10
103.7000007748604
20
-58.100000700354578
30
0
11
101.80000077486039
21
-58.100000700354578
31
0
0
LINE
5
287
100
AcDbEntity
8
0
100
AcDbLine
10
103.7000007748604
20
-59.100000700354578
30
0
11
103.7000007748604
21
-58.100000700354578
31
0
0
LINE
5
288
100
AcDbEntity
8
0
100
AcDbLine
10
106.40000077486039
20
-51.000000700354569
30
0
11
106.40000077486039
21
-54.400000700354568
31
0
0
LINE
5
289
100
AcDbEntity
8
0
100
AcDbLine
10
108.50000077486037
20
-59.100000700354578
30
0
11
103.7000007748604
21
-59.100000700354578
31
0
0
LINE
5
290
100
AcDbEntity
8
0
100
AcDbLine
10
110.60000077486038
20
-58.100000700354578
30
0
11
108.50000077486037
21
-59.100000700354578
31
0
0
LINE
5
291
100
AcDbEntity
8
0
100
AcDbLine
10
111.60000077486039
20
-51.000000700354569
30
0
11
111.60000077486039
21
-53.400000700354575
31
0
0
LINE
5
292
100
AcDbEntity
8
0
100
AcDbLine
10
111.60000077486039
20
-53.400000700354575
30
0
11
116.10000077486035
21
-53.400000700354575
31
0
0
LINE
5
293
100
AcDbEntity
8
0
100
AcDbLine
10
116.10000077486035
20
-53.400000700354575
30
0
11
116.10000077486035
21
-54.300000700354573
31
0
0
LINE
5
294
100
AcDbEntity
8
0
100
AcDbLine
10
116.10000077486035
20
-54.300000700354573
30
0
11
118.00000077486035
21
-54.300000700354573
31
0
0
LINE
5
295
100
AcDbEntity
8
0
100
AcDbLine
10
116.10000077486035
20
-57.10000070035457
30
0
11
116.10000077486035
21
-58.100000700354578
31
0
0
LINE
5
296
100
AcDbEntity
8
0
100
AcDbLine
10
116.10000077486035
20
-58.100000700354578
30
0
11
110.60000077486038
21
-58.100000700354578
31
0
0
LINE
5
297
100
AcDbEntity
8
0
100
AcDbLine
10
118.00000077486035
20
-54.300000700354573
30
0
11
118.00000077486035
21
-57.10000070035457
31
0
0
LINE
5
298
100
AcDbEntity
8
0
100
AcDbLine
10
118.00000077486035
20
-57.10000070035457
30
0
11
116.10000077486035
21
-57.10000070035457
31
0
0
CIRCLE
5
299
100
AcDbEntity
8
0
100
AcDbCircle
10
109.00000077486038
20
-51.000000700354569
30
0
40
2.6000000000000001
210
0
220
0
230
1
0
LINE
5
300
100
AcDbEntity
8
0
100
AcDbLine
10
82.800000774860365
20
-49.400000700354568
30
0
11
84.700000774860371
21
-49.400000700354568
31
0
0
LINE
5
301
100
AcDbEntity
8
0
100
AcDbLine
10
82.800000774860365
20
-52.10000070035457
30
0
11
82.800000774860365
21
-49.400000700354568
31
0
0
LINE
5
302
100
AcDbEntity
8
0
100
AcDbLine
10
84.700000774860371
20
-48.400000700354575
30
0
11
87.400000774860374
21
-48.400000700354575
31
0
0
LINE
5
303
100
AcDbEntity
8
0
100
AcDbLine
10
84.700000774860371
20
-49.400000700354568
30
0
11
84.700000774860371
21
-48.400000700354575
31
0
0
LINE
5
304
100
AcDbEntity
8
0
100
AcDbLine
10
84.700000774860371
20
-52.10000070035457
30
0
11
82.800000774860365
21
-52.10000070035457
31
0
0
LINE
5
305
100
AcDbEntity
8
0
100
AcDbLine
10
84.700000774860371
20
-53.100000700354578
30
0
11
84.700000774860371
21
-52.10000070035457
31
0
0
LINE
5
306
100
AcDbEntity
8
0
100
AcDbLine
10
87.400000774860374
20
-45.000000700354576
30
0
11
87.400000774860374
21
-48.400000700354575
31
0
0
LINE
5
307
100
AcDbEntity
8
0
100
AcDbLine
10
89.500000774860382
20
-53.100000700354578
30
0
11
84.700000774860371
21
-53.100000700354578
31
0
0
LINE
5
308
100
AcDbEntity
8
0
100
AcDbLine
10
91.600000774860391
20
-52.10000070035457
30
0
11
89.500000774860382
21
-53.100000700354578
31
0
0
LINE
5
309
100
AcDbEntity
8
0
100
AcDbLine
10
92.600000774860376
20
-45.000000700354576
30
0
11
92.600000774860376
21
-47.400000700354568
31
0
0
LINE
5
310
100
AcDbEntity
8
0
100
AcDbLine
10
92.600000774860376
20
-47.400000700354568
30
0
11
97.100000774860362
21
-47.400000700354568
31
0
0
LINE
5
311
100
AcDbEntity
8
0
100
AcDbLine
10
97.100000774860362
20
-47.400000700354568
30
0
11
97.100000774860362
21
-48.300000700354566
31
0
0
LINE
5
312
100
AcDbEntity
8
0
100
AcDbLine
10
97.100000774860362
20
-48.300000700354566
30
0
11
99.000000774860382
21
-48.300000700354566
31
0
0
LINE
5
313
100
AcDbEntity
8
0
100
AcDbLine
10
97.100000774860362
20
-51.100000700354578
30
0
11
97.100000774860362
21
-52.10000070035457
31
0
0
LINE
5
314
100
AcDbEntity
8
0
100
AcDbLine
10
97.100000774860362
20
-52.10000070035457
30
0
11
91.600000774860391
21
-52.10000070035457
31
0
0
LINE
5
315
100
AcDbEntity
8
0
100
AcDbLine
10
99.000000774860382
20
-48.300000700354566
30
0
11
99.000000774860382
21
-51.100000700354578
31
0
0
LINE
5
316
100
AcDbEntity
8
0
100
AcDbLine
10
99.000000774860382
20
-51.100000700354578
30
0
11
97.100000774860362
21
-51.100000700354578
31
0
0
CIRCLE
5
317
100
AcDbEntity
8
0
100
AcDbCircle
10
90.000000774860382
20
-45.000000700354576
30
0
40
2.6000000000000001
210
0
220
0
230
1
0
LINE
5
318
100
AcDbEntity
8
0
100
AcDbLine
10
63.800000774860379
20
-45.400000700354582
30
0
11
65.700000774860385
21
-45.400000700354582
31
0
0
LINE
5
319
100
AcDbEntity
8
0
100
AcDbLine
10
63.800000774860379
20
-48.100000700354578
30
0
11
63.800000774860379
21
-45.400000700354582
31
0
0
LINE
5
320
100
AcDbEntity
8
0
100
AcDbLine
10
65.700000774860385
20
-44.400000700354582
30
0
11
68.400000774860374
21
-44.400000700354582
31
0
0
LINE
5
321
100
AcDbEntity
8
0
100
AcDbLine
10
65.700000774860385
20
-45.400000700354582
30
0
11
65.700000774860385
21
-44.400000700354582
31
0
0
LINE
5
322
100
AcDbEntity
8
0
100
AcDbLine
10
65.700000774860385
20
-48.100000700354578
30
0
11
63.800000774860379
21
-48.100000700354578
31
0
0
LINE
5
323
100
AcDbEntity
8
0
100
AcDbLine
10
65.700000774860385
20
-49.100000700354585
30
0
11
65.700000774860385
21
-48.100000700354578
31
0
0
LINE
5
324
100
AcDbEntity
8
0
100
AcDbLine
10
68.400000774860374
20
-41.000000700354576
30
0
11
68.400000774860374
21
-44.400000700354582
31
0
0
LINE
5
325
100
AcDbEntity
8
0
100
AcDbLine
10
70.500000774860382
20
-49.100000700354585
30
0
11
65.700000774860385
21
-49.100000700354585
31
0
0
LINE
5
326
100
AcDbEntity
8
0
100
AcDbLine
10
72.600000774860362
20
-48.100000700354578
30
0
11
70.500000774860382
21
-49.100000700354585
31
0
0
LINE
5
327
100
AcDbEntity
8
0
100
AcDbLine
10
73.600000774860362
20
-41.000000700354576
30
0
11
73.600000774860362
21
-43.400000700354582
31
0
0
LINE
5
328
100
AcDbEntity
8
0
100
AcDbLine
10
73.600000774860362
20
-43.400000700354582
30
0
11
78.100000774860362
21
-43.400000700354575
31
0
0
LINE
5
329
100
AcDbEntity
8
0
100
AcDbLine
10
78.100000774860362
20
-43.400000700354575
30
0
11
78.100000774860362
21
-44.300000700354573
31
0
0
LINE
5
330
100
AcDbEntity
8
0
100
AcDbLine
10
78.100000774860362
20
-44.300000700354573
30
0
11
80.000000774860382
21
-44.300000700354573
31
0
0
LINE
5
331
100
AcDbEntity
8
0
100
AcDbLine
10
78.100000774860362
20
-47.10000070035457
30
0
11
78.100000774860362
21
-48.10000070035457
31
0
0
LINE
5
332
100
AcDbEntity
8
0
100
AcDbLine
10
78.100000774860362
20
-48.10000070035457
30
0
11
72.600000774860362
21
-48.100000700354578
31
0
0
LINE
5
333
100
AcDbEntity
8
0
100
AcDbLine
10
80.000000774860382
20
-44.300000700354573
30
0
11
80.000000774860382
21
-47.10000070035457
31
0
0
LINE
5
334
100
AcDbEntity
8
0
100
AcDbLine
10
80.000000774860382
20
-47.10000070035457
30
0
11
78.100000774860362
21
-47.10000070035457
31
0
0
CIRCLE
5
335
100
AcDbEntity
8
0
100
AcDbCircle
10
71.000000774860382
20
-41.000000700354576
30
0
40
2.6000000000000001
210
0
220
0
230
1
0
LINE
5
336
100
AcDbEntity
8
0
100
AcDbLine
10
44.800000774860386
20
-51.400000700354582
30
0
11
46.700000774860385
21
-51.400000700354582
31
0
0
LINE
5
337
100
AcDbEntity
8
0
100
AcDbLine
10
44.800000774860386
20
-54.100000700354585
30
0
11
44.800000774860386
21
-51.400000700354582
31
0
0
LINE
5
338
100
AcDbEntity
8
0
100
AcDbLine
10
46.700000774860385
20
-50.400000700354582
30
0
11
49.400000774860388
21
-50.400000700354582
31
0
0
LINE
5
339
100
AcDbEntity
8
0
100
AcDbLine
10
46.700000774860385
20
-51.400000700354582
30
0
11
46.700000774860385
21
-50.400000700354582
31
0
0
LINE
5
340
100
AcDbEntity
8
0
100
AcDbLine
10
46.700000774860385
20
-54.100000700354585
30
0
11
44.800000774860386
21
-54.100000700354585
31
0
0
LINE
5
341
100
AcDbEntity
8
0
100
AcDbLine
10
46.700000774860385
20
-55.100000700354585
30
0
11
46.700000774860385
21
-54.100000700354585
31
0
0
LINE
5
342
100
AcDbEntity
8
0
100
AcDbLine
10
49.400000774860388
20
-47.000000700354583
30
0
11
49.400000774860388
21
-50.400000700354582
31
0
0
LINE
5
343
100
AcDbEntity
8
0
100
AcDbLine
10
51.500000774860396
20
-55.100000700354585
30
0
11
46.700000774860385
21
-55.100000700354585
31
0
0
LINE
5
344
100
AcDbEntity
8
0
100
AcDbLine
10
53.600000774860391
20
-54.100000700354585
30
0
11
51.500000774860396
21
-55.100000700354585
31
0
0
LINE
5
345
100
AcDbEntity
8
0
100
AcDbLine
10
54.600000774860391
20
-47.000000700354583
30
0
11
54.600000774860391
21
-49.400000700354582
31
0
0
LINE
5
346
100
AcDbEntity
8
0
100
AcDbLine
10
54.600000774860391
20
-49.400000700354582
30
0
11
59.100000774860384
21
-49.400000700354582
31
0
0
LINE
5
347
100
AcDbEntity
8
0
100
AcDbLine
10
59.100000774860384
20
-49.400000700354582
30
0
11
59.100000774860384
21
-50.300000700354573
31
0
0
LINE
5
348
100
AcDbEntity
8
0
100
AcDbLine
10
59.100000774860384
20
-50.300000700354573
30
0
11
61.000000774860375
21
-50.300000700354573
31
0
0
LINE
5
349
100
AcDbEntity
8
0
100
AcDbLine
10
59.100000774860384
20
-53.100000700354585
30
0
11
59.100000774860384
21
-54.100000700354585
31
0
0
LINE
5
350
100
AcDbEntity
8
0
100
AcDbLine
10
59.100000774860384
20
-54.100000700354585
30
0
11
53.600000774860391
21
-54.100000700354585
31
0
0
LINE
5
351
100
AcDbEntity
8
0
100
AcDbLine
10
61.000000774860375
20
-50.300000700354573
30
0
11
61.000000774860375
21
-53.100000700354585
31
0
0
LINE
5
352
100
AcDbEntity
8
0
100
AcDbLine
10
61.000000774860375
20
-53.100000700354585
30
0
11
59.100000774860384
21
-53.100000700354585
31
0
0
CIRCLE
5
353
100
AcDbEntity
8
0
100
AcDbCircle
10
52.000000774860389
20
-47.000000700354583
30
0
40
2.6000000000000001
210
0
220
0
230
1
0
LINE
5
354
100
AcDbEntity
8
0
100
AcDbLine
10
25.800000774860401
20
-53.400000700354582
30
0
11
27.700000774860388
21
-53.400000700354582
31
0
0
LINE
5
355
100
AcDbEntity
8
0
100
AcDbLine
10
25.800000774860401
20
-56.100000700354585
30
0
11
25.800000774860401
21
-53.400000700354582
31
0
0
LINE
5
356
100
AcDbEntity
8
0
100
AcDbLine
10
27.700000774860388
20
-52.400000700354582
30
0
11
30.400000774860388
21
-52.400000700354582
31
0
0
LINE
5
357
100
AcDbEntity
8
0
100
AcDbLine
10
27.700000774860388
20
-53.400000700354582
30
0
11
27.700000774860388
21
-52.400000700354582
31
0
0
LINE
5
358
100
AcDbEntity
8
0
100
AcDbLine
10
27.700000774860388
20
-56.100000700354585
30
0
11
25.800000774860401
21
-56.100000700354585
31
0
0
LINE
5
359
100
AcDbEntity
8
0
100
AcDbLine
10
27.700000774860388
20
-57.100000700354585
30
0
11
27.700000774860388
21
-56.100000700354585
31
0
0
LINE
5
360
100
AcDbEntity
8
0
100
AcDbLine
10
30.400000774860388
20
-49.00000070035459
30
0
11
30.400000774860388
21
-52.400000700354582
31
0
0
LINE
5
361
100
AcDbEntity
8
0
100
AcDbLine
10
32.500000774860396
20
-57.100000700354585
30
0
11
27.700000774860388
21
-57.100000700354585
31
0
0
LINE
5
362
100
AcDbEntity
8
0
100
AcDbLine
10
34.600000774860391
20
-56.100000700354585
30
0
11
32.500000774860396
21
-57.100000700354585
31
0
0
LINE
5
363
100
AcDbEntity
8
0
100
AcDbLine
10
35.600000774860391
20
-49.00000070035459
30
0
11
35.600000774860391
21
-51.400000700354582
31
0
0
LINE
5
364
100
AcDbEntity
8
0
100
AcDbLine
10
35.600000774860391
20
-51.400000700354582
30
0
11
40.100000774860391
21
-51.400000700354582
31
0
0
LINE
5
365
100
AcDbEntity
8
0
100
AcDbLine
10
40.100000774860391
20
-51.400000700354582
30
0
11
40.100000774860391
21
-52.30000070035458
31
0
0
LINE
5
366
100
AcDbEntity
8
0
100
AcDbLine
10
40.100000774860391
20
-52.30000070035458
30
0
11
42.000000774860389
21
-52.30000070035458
31
0
0
LINE
5
367
100
AcDbEntity
8
0
100
AcDbLine
10
40.100000774860391
20
-55.100000700354585
30
0
11
40.100000774860391
21
-56.100000700354585
31
0
0
LINE
5
368
100
AcDbEntity
8
0
100
AcDbLine
10
40.100000774860391
20
-56.100000700354585
30
0
11
34.600000774860391
21
-56.100000700354585
31
0
0
LINE
5
369
100
AcDbEntity
8
0
100
AcDbLine
10
42.000000774860389
20
-52.30000070035458
30
0
11
42.000000774860389
21
-55.100000700354585
31
0
0
LINE
5
370
100
AcDbEntity
8
0
100
AcDbLine
10
42.000000774860389
20
-55.100000700354585
30
0
11
40.100000774860391
21
-55.100000700354585
31
0
0
CIRCLE
5
371
100
AcDbEntity
8
0
100
AcDbCircle
10
33.000000774860389
20
-49.00000070035459
30
0
40
2.6000000000000001
210
0
220
0
230
1
0
LINE
5
372
100
AcDbEntity
8
0
100
AcDbLine
10
48.800000774860386
20
-75.400000700354568
30
0
11
50.700000774860392
21
-75.400000700354568
31
0
0
LINE
5
373
100
AcDbEntity
8
0
100
AcDbLine
10
48.800000774860386
20
-78.100000700354556
30
0
11
48.800000774860386
21
-75.400000700354568
31
0
0
LINE
5
374
100
AcDbEntity
8
0
100
AcDbLine
10
50.700000774860392
20
-74.400000700354568
30
0
11
53.400000774860388
21
-74.400000700354568
31
0
0
LINE
5
375
100
AcDbEntity
8
0
100
AcDbLine
10
50.700000774860392
20
-75.400000700354568
30
0
11
50.700000774860392
21
-74.400000700354568
31
0
0
LINE
5
376
100
AcDbEntity
8
0
100
AcDbLine
10
50.700000774860392
20
-78.100000700354556
30
0
11
48.800000774860386
21
-78.100000700354556
31
0
0
LINE
5
377
100
AcDbEntity
8
0
100
AcDbLine
10
50.700000774860392
20
-79.100000700354556
30
0
11
50.700000774860392
21
-78.100000700354556
31
0
0
LINE
5
378
100
AcDbEntity
8
0
100
AcDbLine
10
53.400000774860388
20
-71.000000700354576
30
0
11
53.400000774860388
21
-74.400000700354568
31
0
0
LINE
5
379
100
AcDbEntity
8
0
100
AcDbLine
10
55.500000774860396
20
-79.100000700354556
30
0
11
50.700000774860392
21
-79.100000700354556
31
0
0
LINE
5
380
100
AcDbEntity
8
0
100
AcDbLine
10
57.600000774860398
20
-78.100000700354556
30
0
11
55.500000774860396
21
-79.100000700354556
31
0
0
LINE
5
381
100
AcDbEntity
8
0
100
AcDbLine
10
58.600000774860391
20
-71.000000700354576
30
0
11
58.600000774860391
21
-73.400000700354568
31
0
0
LINE
5
382
100
AcDbEntity
8
0
100
AcDbLine
10
58.600000774860391
20
-73.400000700354568
30
0
11
63.100000774860384
21
-73.400000700354568
31
0
0
LINE
5
383
100
AcDbEntity
8
0
100
AcDbLine
10
63.100000774860384
20
-73.400000700354568
30
0
11
63.100000774860384
21
-74.300000700354559
31
0
0
LINE
5
384
100
AcDbEntity
8
0
100
AcDbLine
10
63.100000774860384
20
-74.300000700354559
30
0
11
65.000000774860382
21
-74.300000700354559
31
0
0
LINE
5
385
100
AcDbEntity
8
0
100
AcDbLine
10
63.100000774860384
20
-77.100000700354556
30
0
11
63.100000774860384
21
-78.100000700354556
31
0
0
LINE
5
386
100
AcDbEntity
8
0
100
AcDbLine
10
63.100000774860384
20
-78.100000700354556
30
0
11
57.600000774860398
21
-78.100000700354556
31
0
0
LINE
5
387
100
AcDbEntity
8
0
100
AcDbLine
10
65.000000774860382
20
-74.300000700354559
30
0
11
65.000000774860382
21
-77.100000700354556
31
0
0
LINE
5
388
100
AcDbEntity
8
0
100
AcDbLine
10
65.000000774860382
20
-77.100000700354556
30
0
11
63.100000774860384
21
-77.100000700354556
31
0
0
CIRCLE
5
389
100
AcDbEntity
8
0
100
AcDbCircle
10
56.000000774860396
20
-71.000000700354576
30
0
40
2.6000000000000001
210
0
220
0
230
1
0
LINE
5
390
100
AcDbEntity
8
0
100
AcDbLine
10
29.392715774860399
20
-78.33953170035457
30
0
11
31.263850774860398
21
-78.009599700354556
31
0
0
LINE
5
391
100
AcDbEntity
8
0
100
AcDbLine
10
29.861565774860395
20
-80.998512700354553
30
0
11
29.392715774860399
21
-78.33953170035457
31
0
0
LINE
5
392
100
AcDbEntity
8
0
100
AcDbLine
10
31.090202774860394
20
-77.024792700354567
30
0
11
33.749183774860391
21
-76.555942700354578
31
0
0
LINE
5
393
100
AcDbEntity
8
0
100
AcDbLine
10
31.263850774860398
20
-78.009599700354556
30
0
11
31.090202774860394
21
-77.024792700354567
31
0
0
LINE
5
394
100
AcDbEntity
8
0
100
AcDbLine
10
31.732700774860398
20
-80.668580700354568
30
0
11
29.861565774860395
21
-80.998512700354553
31
0
0
LINE
5
395
100
AcDbEntity
8
0
100
AcDbLine
10
31.906348774860398
20
-81.653388700354554
30
0
11
31.732700774860398
21
-80.668580700354568
31
0
0
LINE
5
396
100
AcDbEntity
8
0
100
AcDbLine
10
33.158779774860392
20
-73.20759570035456
30
0
11
33.749183774860391
21
-76.555942700354578
31
0
0
LINE
5
397
100
AcDbEntity
8
0
100
AcDbLine
10
36.633425774860399
20
-80.819877700354567
30
0
11
31.906348774860398
21
-81.653388700354554
31
0
0
LINE
5
398
100
AcDbEntity
8
0
100
AcDbLine
10
38.527873774860396
20
-79.470408700354568
30
0
11
36.633425774860399
21
-80.819877700354567
31
0
0
LINE
5
399
100
AcDbEntity
8
0
100
AcDbLine
10
38.279779774860394
20
-72.304625700354578
30
0
11
38.696535774860394
21
-74.668163700354569
31
0
0
LINE
5
400
100
AcDbEntity
8
0
100
AcDbLine
10
38.696535774860394
20
-74.668163700354569
30
0
11
43.128170774860386
21
-73.886747700354576
31
0
0
LINE
5
401
100
AcDbEntity
8
0
100
AcDbLine
10
43.128170774860386
20
-73.886747700354576
30
0
11
43.284453774860395
21
-74.773074700354556
31
0
0
LINE
5
402
100
AcDbEntity
8
0
100
AcDbLine
10
43.284453774860395
20
-74.773074700354556
30
0
11
45.155588774860391
21
-74.443142700354556
31
0
0
LINE
5
403
100
AcDbEntity
8
0
100
AcDbLine
10
43.770668774860397
20
-77.530535700354577
30
0
11
43.94431677486039
21
-78.515343700354578
31
0
0
LINE
5
404
100
AcDbEntity
8
0
100
AcDbLine
10
43.94431677486039
20
-78.515343700354578
30
0
11
38.527873774860396
21
-79.470408700354568
31
0
0
LINE
5
405
100
AcDbEntity
8
0
100
AcDbLine
10
45.155588774860391
20
-74.443142700354556
30
0
11
45.641803774860392
21
-77.200604700354575
31
0
0
LINE
5
406
100
AcDbEntity
8
0
100
AcDbLine
10
45.641803774860392
20
-77.200604700354575
30
0
11
43.770668774860397
21
-77.530535700354577
31
0
0
CIRCLE
5
407
100
AcDbEntity
8
0
100
AcDbCircle
10
35.719279774860397
20
-72.756110700354569
30
0
40
2.6000000000000001
210
0
220
0
230
1
0
LINE
5
408
100
AcDbEntity
8
0
100
AcDbLine
10
10.839102774860399
20
-84.59719370035458
30
0
11
12.6245187748604
21
-83.947354700354566
31
0
0
LINE
5
409
100
AcDbEntity
8
0
100
AcDbLine
10
11.7625567748604
20
-87.134363700354555
30
0
11
10.839102774860399
21
-84.59719370035458
31
0
0
LINE
5
410
100
AcDbEntity
8
0
100
AcDbLine
10
12.2824987748604
20
-83.007662700354558
30
0
11
14.819668774860402
21
-82.084207700354568
31
0
0
LINE
5
411
100
AcDbEntity
8
0
100
AcDbLine
10
12.6245187748604
20
-83.947354700354566
30
0
11
12.2824987748604
21
-83.007662700354558
31
0
0
LINE
5
412
100
AcDbEntity
8
0
100
AcDbLine
10
13.547972774860401
20
-86.484524700354584
30
0
11
11.7625567748604
21
-87.134363700354555
31
0
0
LINE
5
413
100
AcDbEntity
8
0
100
AcDbLine
10
13.889992774860399
20
-87.424217700354561
30
0
11
13.547972774860401
21
-86.484524700354584
31
0
0
LINE
5
414
100
AcDbEntity
8
0
100
AcDbLine
10
13.656799774860399
20
-78.889252700354575
30
0
11
14.819668774860402
21
-82.084207700354568
31
0
0
LINE
5
415
100
AcDbEntity
8
0
100
AcDbLine
10
18.400517774860397
20
-85.782520700354539
30
0
11
13.889992774860399
21
-87.424217700354561
31
0
0
LINE
5
416
100
AcDbEntity
8
0
100
AcDbLine
10
20.031851774860399
20
-84.124585700354544
30
0
11
18.400517774860397
21
-85.782520700354539
31
0
0
LINE
5
417
100
AcDbEntity
8
0
100
AcDbLine
10
18.5432017748604
20
-77.110748700354577
30
0
11
19.364049774860401
21
-79.366010700354579
31
0
0
LINE
5
418
100
AcDbEntity
8
0
100
AcDbLine
10
19.364049774860401
20
-79.366010700354579
30
0
11
23.592666774860401
21
-77.82691970035458
31
0
0
LINE
5
419
100
AcDbEntity
8
0
100
AcDbLine
10
23.592666774860401
20
-77.82691970035458
30
0
11
23.900484774860399
21
-78.67264370035457
31
0
0
LINE
5
420
100
AcDbEntity
8
0
100
AcDbLine
10
23.900484774860399
20
-78.67264370035457
30
0
11
25.6859007748604
21
-78.02280470035457
31
0
0
LINE
5
421
100
AcDbEntity
8
0
100
AcDbLine
10
24.858140774860399
20
-81.303782700354574
30
0
11
25.200161774860401
21
-82.243475700354594
31
0
0
LINE
5
422
100
AcDbEntity
8
0
100
AcDbLine
10
25.200161774860401
20
-82.243475700354594
30
0
11
20.031851774860399
21
-84.124585700354544
31
0
0
LINE
5
423
100
AcDbEntity
8
0
100
AcDbLine
10
25.6859007748604
20
-78.02280470035457
30
0
11
26.6435567748604
21
-80.653944700354558
31
0
0
LINE
5
424
100
AcDbEntity
8
0
100
AcDbLine
10
26.6435567748604
20
-80.653944700354558
30
0
11
24.858140774860399
21
-81.303782700354574
31
0
0
CIRCLE
5
425
100
AcDbEntity
8
0
100
AcDbCircle
10
16.100000774860398
20
-78.000000700354576
30
0
40
2.6000000000000001
210
0
220
0
230
1
0
LINE
5
426
100
AcDbEntity
8
0
100
AcDbLine
10
0
20
1.75
30
0
11
0
21
22.5
31
0
0
LINE
5
427
100
AcDbEntity
8
0
100
AcDbLine
10
-46.700000774860385
20
-34.400000700354575
30
0
11
-49.400000774860388
21
-34.400000700354575
31
0
0
LINE
5
428
100
AcDbEntity
8
0
100
AcDbLine
10
-35.600000774860391
20
-19.400000700354582
30
0
11
-40.100000774860391
21
-19.400000700354582
31
0
0
LINE
5
429
100
AcDbEntity
8
0
100
AcDbLine
10
-40.100000774860391
20
-19.400000700354582
30
0
11
-40.100000774860391
21
-20.300000700354587
31
0
0
LINE
5
430
100
AcDbEntity
8
0
100
AcDbLine
10
-51.500000774860396
20
-23.100000700354585
30
0
11
-46.700000774860385
21
-23.100000700354585
31
0
0
LINE
5
431
100
AcDbEntity
8
0
100
AcDbLine
10
-63.100000774860384
20
-77.100000700354556
30
0
11
-63.100000774860384
21
-78.100000700354556
31
0
0
LINE
5
432
100
AcDbEntity
8
0
100
AcDbLine
10
-10.839102774860399
20
-84.59719370035458
30
0
11
-12.6245187748604
21
-83.947354700354566
31
0
0
LINE
5
433
100
AcDbEntity
8
0
100
AcDbLine
10
-40.100000774860391
20
-52.30000070035458
30
0
11
-42.000000774860389
21
-52.30000070035458
31
0
0
LINE
5
434
100
AcDbEntity
8
0
100
AcDbLine
10
-103.7000007748604
20
-38.400000700354582
30
0
11
-106.40000077486039
21
-38.400000700354582
31
0
0
LINE
5
435
100
AcDbEntity
8
0
100
AcDbLine
10
-13.656799774860399
20
-78.889252700354575
30
0
11
-14.819668774860402
21
-82.084207700354568
31
0
0
LINE
5
436
100
AcDbEntity
8
0
100
AcDbLine
10
-111.60000077486039
20
-37.400000700354575
30
0
11
-116.10000077486035
21
-37.400000700354575
31
0
0
LINE
5
437
100
AcDbEntity
8
0
100
AcDbLine
10
-42.000000774860389
20
-52.30000070035458
30
0
11
-42.000000774860389
21
-55.100000700354585
31
0
0
LINE
5
438
100
AcDbEntity
8
0
100
AcDbLine
10
-61.000000774860375
20
-18.30000070035458
30
0
11
-61.000000774860375
21
-21.100000700354581
31
0
0
LINE
5
439
100
AcDbEntity
8
0
100
AcDbLine
10
-72.600000774860362
20
-48.100000700354578
30
0
11
-70.500000774860382
21
-49.100000700354585
31
0
0
LINE
5
440
100
AcDbEntity
8
0
100
AcDbLine
10
-46.700000774860385
20
-19.400000700354582
30
0
11
-46.700000774860385
21
-18.400000700354575
31
0
0
LINE
5
441
100
AcDbEntity
8
0
100
AcDbLine
10
-36.633425774860399
20
-80.819877700354567
30
0
11
-31.906348774860398
21
-81.653388700354554
31
0
0
LINE
5
442
100
AcDbEntity
8
0
100
AcDbLine
10
-34.600000774860391
20
-24.100000700354585
30
0
11
-32.500000774860389
21
-25.100000700354585
31
0
0
LINE
5
443
100
AcDbEntity
8
0
100
AcDbLine
10
-30.400000774860384
20
-17.000000700354583
30
0
11
-30.400000774860384
21
-20.400000700354582
31
0
0
LINE
5
444
100
AcDbEntity
8
0
100
AcDbLine
10
-35.600000774860391
20
-49.00000070035459
30
0
11
-35.600000774860391
21
-51.400000700354582
31
0
0
LINE
5
445
100
AcDbEntity
8
0
100
AcDbLine
10
-92.600000774860376
20
-47.400000700354568
30
0
11
-97.100000774860362
21
-47.400000700354568
31
0
0
LINE
5
446
100
AcDbEntity
8
0
100
AcDbLine
10
-12.2824987748604
20
-83.007662700354558
30
0
11
-14.819668774860402
21
-82.084207700354568
31
0
0
LINE
5
447
100
AcDbEntity
8
0
100
AcDbLine
10
-27.700000774860385
20
-21.400000700354585
30
0
11
-27.700000774860385
21
-20.400000700354582
31
0
0
LINE
5
448
100
AcDbEntity
8
0
100
AcDbLine
10
-97.100000774860362
20
-36.100000700354578
30
0
11
-91.600000774860391
21
-36.100000700354578
31
0
0
LINE
5
449
100
AcDbEntity
8
0
100
AcDbLine
10
-40.100000774860391
20
-23.100000700354585
30
0
11
-40.100000774860391
21
-24.100000700354581
31
0
0
LINE
5
450
100
AcDbEntity
8
0
100
AcDbLine
10
-46.700000774860385
20
-22.100000700354585
30
0
11
-44.800000774860386
21
-22.100000700354585
31
0
0
LINE
5
451
100
AcDbEntity
8
0
100
AcDbLine
10
-97.100000774860362
20
-52.10000070035457
30
0
11
-91.600000774860391
21
-52.10000070035457
31
0
0
LINE
5
452
100
AcDbEntity
8
0
100
AcDbLine
10
-43.770668774860397
20
-77.530535700354577
30
0
11
-43.94431677486039
21
-78.515343700354578
31
0
0
LINE
5
453
100
AcDbEntity
8
0
100
AcDbLine
10
-27.700000774860385
20
-20.400000700354582
30
0
11
-30.400000774860384
21
-20.400000700354582
31
0
0
LINE
5
454
100
AcDbEntity
8
0
100
AcDbLine
10
-63.100000774860384
20
-74.300000700354559
30
0
11
-65.000000774860382
21
-74.300000700354559
31
0
0
LINE
5
455
100
AcDbEntity
8
0
100
AcDbLine
10
-53.600000774860391
20
-22.100000700354585
30
0
11
-51.500000774860396
21
-23.100000700354585
31
0
0
LINE
5
456
100
AcDbEntity
8
0
100
AcDbLine
10
-35.600000774860391
20
-17.000000700354583
30
0
11
-35.600000774860391
21
-19.400000700354582
31
0
0
LINE
5
457
100
AcDbEntity
8
0
100
AcDbLine
10
-40.100000774860391
20
-24.100000700354581
30
0
11
-34.600000774860391
21
-24.100000700354585
31
0
0
LINE
5
458
100
AcDbEntity
8
0
100
AcDbLine
10
-46.700000774860385
20
-55.100000700354585
30
0
11
-46.700000774860385
21
-54.100000700354585
31
0
0
LINE
5
459
100
AcDbEntity
8
0
100
AcDbLine
10
-92.600000774860376
20
-31.400000700354575
30
0
11
-97.100000774860362
21
-31.400000700354575
31
0
0
LINE
5
460
100
AcDbEntity
8
0
100
AcDbLine
10
-46.700000774860385
20
-23.100000700354585
30
0
11
-46.700000774860385
21
-22.100000700354585
31
0
0
LINE
5
461
100
AcDbEntity
8
0
100
AcDbLine
10
-40.100000774860391
20
-40.100000700354585
30
0
11
-34.600000774860391
21
-40.100000700354585
31
0
0
CIRCLE
5
462
100
AcDbEntity
8
0
100
AcDbCircle
10
-33.000000774860389
20
-49.00000070035459
30
0
40
2.6000000000000001
210
0
220
0
230
1
0
LINE
5
463
100
AcDbEntity
8
0
100
AcDbLine
10
-111.60000077486039
20
-35.000000700354576
30
0
11
-111.60000077486039
21
-37.400000700354575
31
0
0
LINE
5
464
100
AcDbEntity
8
0
100
AcDbLine
10
-42.000000774860389
20
-23.100000700354585
30
0
11
-40.100000774860391
21
-23.100000700354585
31
0
0
LINE
5
465
100
AcDbEntity
8
0
100
AcDbLine
10
-40.100000774860391
20
-56.100000700354585
30
0
11
-34.600000774860391
21
-56.100000700354585
31
0
0
LINE
5
466
100
AcDbEntity
8
0
100
AcDbLine
10
-13.547972774860401
20
-86.484524700354584
30
0
11
-11.7625567748604
21
-87.134363700354555
31
0
0
LINE
5
467
100
AcDbEntity
8
0
100
AcDbLine
10
-40.100000774860391
20
-20.300000700354587
30
0
11
-42.000000774860389
21
-20.300000700354587
31
0
0
LINE
5
468
100
AcDbEntity
8
0
100
AcDbLine
10
-92.600000774860376
20
-15.400000700354582
30
0
11
-97.100000774860362
21
-15.400000700354578
31
0
0
LINE
5
469
100
AcDbEntity
8
0
100
AcDbLine
10
-27.700000774860385
20
-25.100000700354585
30
0
11
-27.700000774860385
21
-24.100000700354585
31
0
0
LINE
5
470
100
AcDbEntity
8
0
100
AcDbLine
10
-49.400000774860388
20
-15.000000700354585
30
0
11
-49.400000774860388
21
-18.400000700354575
31
0
0
LINE
5
471
100
AcDbEntity
8
0
100
AcDbLine
10
-65.000000774860382
20
-74.300000700354559
30
0
11
-65.000000774860382
21
-77.100000700354556
31
0
0
LINE
5
472
100
AcDbEntity
8
0
100
AcDbLine
10
-25.800000774860393
20
-24.100000700354585
30
0
11
-25.800000774860393
21
-21.400000700354585
31
0
0
LINE
5
473
100
AcDbEntity
8
0
100
AcDbLine
10
-63.100000774860384
20
-73.400000700354568
30
0
11
-63.100000774860384
21
-74.300000700354559
31
0
0
LINE
5
474
100
AcDbEntity
8
0
100
AcDbLine
10
-97.100000774860362
20
-20.100000700354581
30
0
11
-91.600000774860391
21
-20.100000700354581
31
0
0
LINE
5
475
100
AcDbEntity
8
0
100
AcDbLine
10
-42.000000774860389
20
-20.300000700354587
30
0
11
-42.000000774860389
21
-23.100000700354585
31
0
0
LINE
5
476
100
AcDbEntity
8
0
100
AcDbLine
10
-27.700000774860385
20
-24.100000700354585
30
0
11
-25.800000774860393
21
-24.100000700354585
31
0
0
LINE
5
477
100
AcDbEntity
8
0
100
AcDbLine
10
-13.889992774860399
20
-87.424217700354561
30
0
11
-13.547972774860401
21
-86.484524700354584
31
0
0
LINE
5
478
100
AcDbEntity
8
0
100
AcDbLine
10
-25.800000774860393
20
-21.400000700354585
30
0
11
-27.700000774860385
21
-21.400000700354585
31
0
0
LINE
5
479
100
AcDbEntity
8
0
100
AcDbLine
10
-44.800000774860386
20
-54.100000700354585
30
0
11
-44.800000774860386
21
-51.400000700354582
31
0
0
LINE
5
480
100
AcDbEntity
8
0
100
AcDbLine
10
-65.000000774860382
20
-77.100000700354556
30
0
11
-63.100000774860384
21
-77.100000700354556
31
0
0
LINE
5
481
100
AcDbEntity
8
0
100
AcDbLine
10
-91.600000774860391
20
-20.100000700354581
30
0
11
-89.500000774860382
21
-21.100000700354581
31
0
0
LINE
5
482
100
AcDbEntity
8
0
100
AcDbLine
10
-46.700000774860385
20
-50.400000700354582
30
0
11
-49.400000774860388
21
-50.400000700354582
31
0
0
LINE
5
483
100
AcDbEntity
8
0
100
AcDbLine
10
-40.100000774860391
20
-39.100000700354585
30
0
11
-40.100000774860391
21
-40.100000700354585
31
0
0
LINE
5
484
100
AcDbEntity
8
0
100
AcDbLine
10
-42.000000774860389
20
-39.100000700354585
30
0
11
-40.100000774860391
21
-39.100000700354585
31
0
0
LINE
5
485
100
AcDbEntity
8
0
100
AcDbLine
10
-44.800000774860386
20
-35.400000700354575
30
0
11
-46.700000774860385
21
-35.400000700354575
31
0
0
LINE
5
486
100
AcDbEntity
8
0
100
AcDbLine
10
-63.100000774860384
20
-78.100000700354556
30
0
11
-57.600000774860398
21
-78.100000700354556
31
0
0
LINE
5
487
100
AcDbEntity
8
0
100
AcDbLine
10
-40.100000774860391
20
-35.400000700354575
30
0
11
-40.100000774860391
21
-36.300000700354573
31
0
0
LINE
5
488
100
AcDbEntity
8
0
100
AcDbLine
10
-59.100000774860384
20
-38.100000700354578
30
0
11
-53.600000774860391
21
-38.100000700354578
31
0
0
LINE
5
489
100
AcDbEntity
8
0
100
AcDbLine
10
-58.600000774860391
20
-73.400000700354568
30
0
11
-63.100000774860384
21
-73.400000700354568
31
0
0
LINE
5
490
100
AcDbEntity
8
0
100
AcDbLine
10
-59.100000774860384
20
-54.100000700354585
30
0
11
-53.600000774860391
21
-54.100000700354585
31
0
0
LINE
5
491
100
AcDbEntity
8
0
100
AcDbLine
10
-54.600000774860391
20
-17.400000700354578
30
0
11
-59.100000774860384
21
-17.400000700354575
31
0
0
LINE
5
492
100
AcDbEntity
8
0
100
AcDbLine
10
-54.600000774860391
20
-49.400000700354582
30
0
11
-59.100000774860384
21
-49.400000700354582
31
0
0
LINE
5
493
100
AcDbEntity
8
0
100
AcDbLine
10
-59.100000774860384
20
-22.100000700354585
30
0
11
-53.600000774860391
21
-22.100000700354585
31
0
0
LINE
5
494
100
AcDbEntity
8
0
100
AcDbLine
10
-46.700000774860385
20
-35.400000700354575
30
0
11
-46.700000774860385
21
-34.400000700354575
31
0
0
LINE
5
495
100
AcDbEntity
8
0
100
AcDbLine
10
-46.700000774860385
20
-38.100000700354578
30
0
11
-44.800000774860386
21
-38.100000700354578
31
0
0
LINE
5
496
100
AcDbEntity
8
0
100
AcDbLine
10
-46.700000774860385
20
-39.100000700354585
30
0
11
-46.700000774860385
21
-38.100000700354578
31
0
0
LINE
5
497
100
AcDbEntity
8
0
100
AcDbLine
10
-51.500000774860396
20
-39.100000700354585
30
0
11
-46.700000774860385
21
-39.100000700354585
31
0
0
LINE
5
498
100
AcDbEntity
8
0
100
AcDbLine
10
-53.600000774860391
20
-38.100000700354578
30
0
11
-51.500000774860396
21
-39.100000700354585
31
0
0
LINE
5
499
100
AcDbEntity
8
0
100
AcDbLine
10
-122.70000077486038
20
-39.400000700354568
30
0
11
-122.70000077486038
21
-38.400000700354575
31
0
0
LINE
5
500
100
AcDbEntity
8
0
100
AcDbLine
10
-103.7000007748604
20
-39.400000700354582
30
0
11
-103.7000007748604
21
-38.400000700354582
31
0
0
CIRCLE
5
501
100
AcDbEntity
8
0
100
AcDbCircle
10
-52.000000774860389
20
-31.000000700354576
30
0
40
2.6000000000000001
210
0
220
0
230
1
0
LINE
5
502
100
AcDbEntity
8
0
100
AcDbLine
10
-30.400000774860384
20
-33.000000700354583
30
0
11
-30.400000774860384
21
-36.400000700354582
31
0
0
LINE
5
503
100
AcDbEntity
8
0
100
AcDbLine
10
-35.600000774860391
20
-33.000000700354583
30
0
11
-35.600000774860391
21
-35.400000700354582
31
0
0
LINE
5
504
100
AcDbEntity
8
0
100
AcDbLine
10
-54.600000774860391
20
-31.000000700354576
30
0
11
-54.600000774860391
21
-33.400000700354575
31
0
0
LINE
5
505
100
AcDbEntity
8
0
100
AcDbLine
10
-118.00000077486035
20
-38.300000700354573
30
0
11
-118.00000077486035
21
-41.100000700354578
31
0
0
LINE
5
506
100
AcDbEntity
8
0
100
AcDbLine
10
-49.400000774860388
20
-31.000000700354576
30
0
11
-49.400000774860388
21
-34.400000700354575
31
0
0
LINE
5
507
100
AcDbEntity
8
0
100
AcDbLine
10
-40.100000774860391
20
-51.400000700354582
30
0
11
-40.100000774860391
21
-52.30000070035458
31
0
0
LINE
5
508
100
AcDbEntity
8
0
100
AcDbLine
10
-18.400517774860397
20
-85.782520700354539
30
0
11
-13.889992774860399
21
-87.424217700354561
31
0
0
CIRCLE
5
509
100
AcDbEntity
8
0
100
AcDbCircle
10
-71.000000774860382
20
-41.000000700354576
30
0
40
2.6000000000000001
210
0
220
0
230
1
0
CIRCLE
5
510
100
AcDbEntity
8
0
100
AcDbCircle
10
-33.000000774860389
20
-17.000000700354583
30
0
40
2.6000000000000001
210
0
220
0
230
1
0
LINE
5
511
100
AcDbEntity
8
0
100
AcDbLine
10
-54.600000774860391
20
-33.400000700354575
30
0
11
-59.100000774860384
21
-33.400000700354575
31
0
0
LINE
5
512
100
AcDbEntity
8
0
100
AcDbLine
10
-137.00000077486038
20
-38.300000700354573
30
0
11
-137.00000077486038
21
-41.100000700354578
31
0
0
LINE
5
513
100
AcDbEntity
8
0
100
AcDbLine
10
-46.700000774860385
20
-51.400000700354582
30
0
11
-46.700000774860385
21
-50.400000700354582
31
0
0
LINE
5
514
100
AcDbEntity
8
0
100
AcDbLine
10
-32.500000774860389
20
-25.100000700354585
30
0
11
-27.700000774860385
21
-25.100000700354585
31
0
0
CIRCLE
5
515
100
AcDbEntity
8
0
100
AcDbCircle
10
-16.100000774860398
20
-78.000000700354576
30
0
40
2.6000000000000001
210
0
220
0
230
1
0
CIRCLE
5
516
100
AcDbEntity
8
0
100
AcDbCircle
10
-33.000000774860389
20
-33.000000700354583
30
0
40
2.6000000000000001
210
0
220
0
230
1
0
LINE
5
517
100
AcDbEntity
8
0
100
AcDbLine
10
-44.800000774860386
20
-38.100000700354578
30
0
11
-44.800000774860386
21
-35.400000700354575
31
0
0
LINE
5
518
100
AcDbEntity
8
0
100
AcDbLine
10
-42.000000774860389
20
-36.300000700354573
30
0
11
-42.000000774860389
21
-39.100000700354585
31
0
0
LINE
5
519
100
AcDbEntity
8
0
100
AcDbLine
10
-35.600000774860391
20
-35.400000700354582
30
0
11
-40.100000774860391
21
-35.400000700354575
31
0
0
LINE
5
520
100
AcDbEntity
8
0
100
AcDbLine
10
-40.100000774860391
20
-36.300000700354573
30
0
11
-42.000000774860389
21
-36.300000700354573
31
0
0
LINE
5
521
100
AcDbEntity
8
0
100
AcDbLine
10
-29.861565774860395
20
-80.998512700354553
30
0
11
-29.392715774860399
21
-78.33953170035457
31
0
0
LINE
5
522
100
AcDbEntity
8
0
100
AcDbLine
10
-80.000000774860382
20
-31.100000700354578
30
0
11
-78.100000774860362
21
-31.100000700354578
31
0
0
LINE
5
523
100
AcDbEntity
8
0
100
AcDbLine
10
-24.858140774860399
20
-81.303782700354574
30
0
11
-25.200161774860401
21
-82.243475700354594
31
0
0
LINE
5
524
100
AcDbEntity
8
0
100
AcDbLine
10
-108.50000077486037
20
-43.10000070035457
30
0
11
-103.7000007748604
21
-43.10000070035457
31
0
0
LINE
5
525
100
AcDbEntity
8
0
100
AcDbLine
10
-50.700000774860392
20
-74.400000700354568
30
0
11
-53.400000774860388
21
-74.400000700354568
31
0
0
LINE
5
526
100
AcDbEntity
8
0
100
AcDbLine
10
-87.400000774860374
20
-45.000000700354576
30
0
11
-87.400000774860374
21
-48.400000700354575
31
0
0
LINE
5
527
100
AcDbEntity
8
0
100
AcDbLine
10
-73.600000774860362
20
-9.0000007003545832
30
0
11
-73.600000774860362
21
-11.400000700354582
31
0
0
LINE
5
528
100
AcDbEntity
8
0
100
AcDbLine
10
-65.700000774860385
20
-17.100000700354578
30
0
11
-65.700000774860385
21
-16.100000700354581
31
0
0
LINE
5
529
100
AcDbEntity
8
0
100
AcDbLine
10
-73.600000774860362
20
-25.000000700354583
30
0
11
-73.600000774860362
21
-27.400000700354582
31
0
0
LINE
5
530
100
AcDbEntity
8
0
100
AcDbLine
10
-50.700000774860392
20
-75.400000700354568
30
0
11
-50.700000774860392
21
-74.400000700354568
31
0
0
LINE
5
531
100
AcDbEntity
8
0
100
AcDbLine
10
-87.400000774860374
20
-13.000000700354583
30
0
11
-87.400000774860374
21
-16.400000700354578
31
0
0
LINE
5
532
100
AcDbEntity
8
0
100
AcDbLine
10
-84.700000774860371
20
-48.400000700354575
30
0
11
-87.400000774860374
21
-48.400000700354575
31
0
0
LINE
5
533
100
AcDbEntity
8
0
100
AcDbLine
10
-80.000000774860382
20
-15.100000700354583
30
0
11
-78.100000774860362
21
-15.100000700354583
31
0
0
LINE
5
534
100
AcDbEntity
8
0
100
AcDbLine
10
-84.700000774860371
20
-32.400000700354575
30
0
11
-87.400000774860374
21
-32.400000700354575
31
0
0
LINE
5
535
100
AcDbEntity
8
0
100
AcDbLine
10
-92.600000774860376
20
-45.000000700354576
30
0
11
-92.600000774860376
21
-47.400000700354568
31
0
0
LINE
5
536
100
AcDbEntity
8
0
100
AcDbLine
10
-31.906348774860398
20
-81.653388700354554
30
0
11
-31.732700774860398
21
-80.668580700354568
31
0
0
LINE
5
537
100
AcDbEntity
8
0
100
AcDbLine
10
-26.6435567748604
20
-80.653944700354558
30
0
11
-24.858140774860399
21
-81.303782700354574
31
0
0
LINE
5
538
100
AcDbEntity
8
0
100
AcDbLine
10
-101.80000077486039
20
-42.10000070035457
30
0
11
-101.80000077486039
21
-39.400000700354582
31
0
0
LINE
5
539
100
AcDbEntity
8
0
100
AcDbLine
10
-65.700000774860385
20
-32.100000700354578
30
0
11
-63.800000774860379
21
-32.100000700354578
31
0
0
LINE
5
540
100
AcDbEntity
8
0
100
AcDbLine
10
-59.100000774860384
20
-17.400000700354575
30
0
11
-59.100000774860384
21
-18.30000070035458
31
0
0
LINE
5
541
100
AcDbEntity
8
0
100
AcDbLine
10
-80.000000774860382
20
-44.300000700354573
30
0
11
-80.000000774860382
21
-47.10000070035457
31
0
0
CIRCLE
5
542
100
AcDbEntity
8
0
100
AcDbCircle
10
-90.000000774860382
20
-13.000000700354583
30
0
40
2.6000000000000001
210
0
220
0
230
1
0
LINE
5
543
100
AcDbEntity
8
0
100
AcDbLine
10
-23.592666774860401
20
-77.82691970035458
30
0
11
-23.900484774860399
21
-78.67264370035457
31
0
0
LINE
5
544
100
AcDbEntity
8
0
100
AcDbLine
10
-55.500000774860396
20
-79.100000700354556
30
0
11
-50.700000774860392
21
-79.100000700354556
31
0
0
CIRCLE
5
545
100
AcDbEntity
8
0
100
AcDbCircle
10
-56.000000774860396
20
-71.000000700354576
30
0
40
2.6000000000000001
210
0
220
0
230
1
0
LINE
5
546
100
AcDbEntity
8
0
100
AcDbLine
10
-19.364049774860401
20
-79.366010700354579
30
0
11
-23.592666774860401
21
-77.82691970035458
31
0
0
LINE
5
547
100
AcDbEntity
8
0
100
AcDbLine
10
-103.7000007748604
20
-54.400000700354568
30
0
11
-106.40000077486039
21
-54.400000700354568
31
0
0
LINE
5
548
100
AcDbEntity
8
0
100
AcDbLine
10
-103.7000007748604
20
-43.10000070035457
30
0
11
-103.7000007748604
21
-42.10000070035457
31
0
0
LINE
5
549
100
AcDbEntity
8
0
100
AcDbLine
10
-84.700000774860371
20
-49.400000700354568
30
0
11
-84.700000774860371
21
-48.400000700354575
31
0
0
LINE
5
550
100
AcDbEntity
8
0
100
AcDbLine
10
-33.158779774860392
20
-73.20759570035456
30
0
11
-33.749183774860391
21
-76.555942700354578
31
0
0
LINE
5
551
100
AcDbEntity
8
0
100
AcDbLine
10
-63.800000774860379
20
-32.100000700354578
30
0
11
-63.800000774860379
21
-29.400000700354578
31
0
0
LINE
5
552
100
AcDbEntity
8
0
100
AcDbLine
10
-127.50000077486035
20
-43.10000070035457
30
0
11
-122.70000077486038
21
-43.10000070035457
31
0
0
LINE
5
553
100
AcDbEntity
8
0
100
AcDbLine
10
-89.500000774860382
20
-53.100000700354578
30
0
11
-84.700000774860371
21
-53.100000700354578
31
0
0
LINE
5
554
100
AcDbEntity
8
0
100
AcDbLine
10
-65.700000774860385
20
-12.400000700354584
30
0
11
-68.400000774860374
21
-12.400000700354584
31
0
0
LINE
5
555
100
AcDbEntity
8
0
100
AcDbLine
10
-110.60000077486038
20
-42.10000070035457
30
0
11
-108.50000077486037
21
-43.10000070035457
31
0
0
LINE
5
556
100
AcDbEntity
8
0
100
AcDbLine
10
-84.700000774860371
20
-52.10000070035457
30
0
11
-82.800000774860365
21
-52.10000070035457
31
0
0
LINE
5
557
100
AcDbEntity
8
0
100
AcDbLine
10
-50.700000774860392
20
-78.100000700354556
30
0
11
-48.800000774860386
21
-78.100000700354556
31
0
0
LINE
5
558
100
AcDbEntity
8
0
100
AcDbLine
10
-59.100000774860384
20
-33.400000700354575
30
0
11
-59.100000774860384
21
-34.300000700354573
31
0
0
LINE
5
559
100
AcDbEntity
8
0
100
AcDbLine
10
-97.100000774860362
20
-48.300000700354566
30
0
11
-99.000000774860382
21
-48.300000700354566
31
0
0
LINE
5
560
100
AcDbEntity
8
0
100
AcDbLine
10
-59.100000774860384
20
-18.30000070035458
30
0
11
-61.000000774860375
21
-18.30000070035458
31
0
0
LINE
5
561
100
AcDbEntity
8
0
100
AcDbLine
10
-18.5432017748604
20
-77.110748700354577
30
0
11
-19.364049774860401
21
-79.366010700354579
31
0
0
LINE
5
562
100
AcDbEntity
8
0
100
AcDbLine
10
-78.100000774860362
20
-47.10000070035457
30
0
11
-78.100000774860362
21
-48.10000070035457
31
0
0
LINE
5
563
100
AcDbEntity
8
0
100
AcDbLine
10
-84.700000774860371
20
-53.100000700354578
30
0
11
-84.700000774860371
21
-52.10000070035457
31
0
0
LINE
5
564
100
AcDbEntity
8
0
100
AcDbLine
10
-91.600000774860391
20
-52.10000070035457
30
0
11
-89.500000774860382
21
-53.100000700354578
31
0
0
LINE
5
565
100
AcDbEntity
8
0
100
AcDbLine
10
-53.400000774860388
20
-71.000000700354576
30
0
11
-53.400000774860388
21
-74.400000700354568
31
0
0
CIRCLE
5
566
100
AcDbEntity
8
0
100
AcDbCircle
10
-109.00000077486038
20
-51.000000700354569
30
0
40
2.6000000000000001
210
0
220
0
230
1
0
LINE
5
567
100
AcDbEntity
8
0
100
AcDbLine
10
-20.031851774860399
20
-84.124585700354544
30
0
11
-18.400517774860397
21
-85.782520700354539
31
0
0
LINE
5
568
100
AcDbEntity
8
0
100
AcDbLine
10
-23.900484774860399
20
-78.67264370035457
30
0
11
-25.6859007748604
21
-78.02280470035457
31
0
0
LINE
5
569
100
AcDbEntity
8
0
100
AcDbLine
10
-72.600000774860362
20
-32.100000700354578
30
0
11
-70.500000774860382
21
-33.100000700354578
31
0
0
LINE
5
570
100
AcDbEntity
8
0
100
AcDbLine
10
-73.600000774860362
20
-11.400000700354582
30
0
11
-78.100000774860362
21
-11.400000700354582
31
0
0
LINE
5
571
100
AcDbEntity
8
0
100
AcDbLine
10
-31.090202774860394
20
-77.024792700354567
30
0
11
-33.749183774860391
21
-76.555942700354578
31
0
0
LINE
5
572
100
AcDbEntity
8
0
100
AcDbLine
10
-68.400000774860374
20
-9.0000007003545832
30
0
11
-68.400000774860374
21
-12.400000700354584
31
0
0
LINE
5
573
100
AcDbEntity
8
0
100
AcDbLine
10
-99.000000774860382
20
-48.300000700354566
30
0
11
-99.000000774860382
21
-51.100000700354578
31
0
0
LINE
5
574
100
AcDbEntity
8
0
100
AcDbLine
10
-82.800000774860365
20
-49.400000700354568
30
0
11
-84.700000774860371
21
-49.400000700354568
31
0
0
LINE
5
575
100
AcDbEntity
8
0
100
AcDbLine
10
-80.000000774860382
20
-28.300000700354584
30
0
11
-80.000000774860382
21
-31.100000700354578
31
0
0
LINE
5
576
100
AcDbEntity
8
0
100
AcDbLine
10
-108.50000077486037
20
-59.100000700354578
30
0
11
-103.7000007748604
21
-59.100000700354578
31
0
0
LINE
5
577
100
AcDbEntity
8
0
100
AcDbLine
10
-116.10000077486035
20
-53.400000700354575
30
0
11
-116.10000077486035
21
-54.300000700354573
31
0
0
LINE
5
578
100
AcDbEntity
8
0
100
AcDbLine
10
-97.100000774860362
20
-51.100000700354578
30
0
11
-97.100000774860362
21
-52.10000070035457
31
0
0
LINE
5
579
100
AcDbEntity
8
0
100
AcDbLine
10
-25.200161774860401
20
-82.243475700354594
30
0
11
-20.031851774860399
21
-84.124585700354544
31
0
0
LINE
5
580
100
AcDbEntity
8
0
100
AcDbLine
10
-129.60000077486035
20
-42.10000070035457
30
0
11
-127.50000077486035
21
-43.10000070035457
31
0
0
LINE
5
581
100
AcDbEntity
8
0
100
AcDbLine
10
-65.700000774860385
20
-29.400000700354578
30
0
11
-65.700000774860385
21
-28.400000700354582
31
0
0
LINE
5
582
100
AcDbEntity
8
0
100
AcDbLine
10
-63.800000774860379
20
-16.100000700354581
30
0
11
-63.800000774860379
21
-13.400000700354582
31
0
0
LINE
5
583
100
AcDbEntity
8
0
100
AcDbLine
10
-72.600000774860362
20
-16.100000700354581
30
0
11
-70.500000774860382
21
-17.100000700354578
31
0
0
LINE
5
584
100
AcDbEntity
8
0
100
AcDbLine
10
-50.700000774860392
20
-79.100000700354556
30
0
11
-50.700000774860392
21
-78.100000700354556
31
0
0
LINE
5
585
100
AcDbEntity
8
0
100
AcDbLine
10
-110.60000077486038
20
-58.100000700354578
30
0
11
-108.50000077486037
21
-59.100000700354578
31
0
0
LINE
5
586
100
AcDbEntity
8
0
100
AcDbLine
10
-59.100000774860384
20
-21.100000700354581
30
0
11
-59.100000774860384
21
-22.100000700354585
31
0
0
LINE
5
587
100
AcDbEntity
8
0
100
AcDbLine
10
-78.100000774860362
20
-27.400000700354582
30
0
11
-78.100000774860362
21
-28.300000700354584
31
0
0
LINE
5
588
100
AcDbEntity
8
0
100
AcDbLine
10
-78.100000774860362
20
-15.100000700354583
30
0
11
-78.100000774860362
21
-16.100000700354581
31
0
0
LINE
5
589
100
AcDbEntity
8
0
100
AcDbLine
10
-118.00000077486035
20
-41.100000700354578
30
0
11
-116.10000077486035
21
-41.100000700354578
31
0
0
LINE
5
590
100
AcDbEntity
8
0
100
AcDbLine
10
-103.7000007748604
20
-58.100000700354578
30
0
11
-101.80000077486039
21
-58.100000700354578
31
0
0
LINE
5
591
100
AcDbEntity
8
0
100
AcDbLine
10
-116.10000077486035
20
-57.10000070035457
30
0
11
-116.10000077486035
21
-58.100000700354578
31
0
0
LINE
5
592
100
AcDbEntity
8
0
100
AcDbLine
10
-120.80000077486037
20
-39.400000700354568
30
0
11
-122.70000077486038
21
-39.400000700354568
31
0
0
LINE
5
593
100
AcDbEntity
8
0
100
AcDbLine
10
-84.700000774860371
20
-17.400000700354575
30
0
11
-84.700000774860371
21
-16.400000700354578
31
0
0
LINE
5
594
100
AcDbEntity
8
0
100
AcDbLine
10
-78.100000774860362
20
-11.400000700354582
30
0
11
-78.100000774860362
21
-12.300000700354584
31
0
0
CIRCLE
5
595
100
AcDbEntity
8
0
100
AcDbCircle
10
-90.000000774860382
20
-29.000000700354583
30
0
40
2.6000000000000001
210
0
220
0
230
1
0
LINE
5
596
100
AcDbEntity
8
0
100
AcDbLine
10
-84.700000774860371
20
-36.100000700354578
30
0
11
-82.800000774860365
21
-36.100000700354578
31
0
0
LINE
5
597
100
AcDbEntity
8
0
100
AcDbLine
10
-61.000000774860375
20
-34.300000700354573
30
0
11
-61.000000774860375
21
-37.100000700354578
31
0
0
LINE
5
598
100
AcDbEntity
8
0
100
AcDbLine
10
-82.800000774860365
20
-52.10000070035457
30
0
11
-82.800000774860365
21
-49.400000700354568
31
0
0
LINE
5
599
100
AcDbEntity
8
0
100
AcDbLine
10
-111.60000077486039
20
-51.000000700354569
30
0
11
-111.60000077486039
21
-53.400000700354575
31
0
0
LINE
5
600
100
AcDbEntity
8
0
100
AcDbLine
10
-82.800000774860365
20
-33.400000700354575
30
0
11
-84.700000774860371
21
-33.400000700354575
31
0
0
LINE
5
601
100
AcDbEntity
8
0
100
AcDbLine
10
-84.700000774860371
20
-37.100000700354578
30
0
11
-84.700000774860371
21
-36.100000700354578
31
0
0
LINE
5
602
100
AcDbEntity
8
0
100
AcDbLine
10
-137.00000077486038
20
-41.100000700354578
30
0
11
-135.10000077486038
21
-41.100000700354578
31
0
0
LINE
5
603
100
AcDbEntity
8
0
100
AcDbLine
10
-106.40000077486039
20
-51.000000700354569
30
0
11
-106.40000077486039
21
-54.400000700354568
31
0
0
LINE
5
604
100
AcDbEntity
8
0
100
AcDbLine
10
-122.70000077486038
20
-42.10000070035457
30
0
11
-120.80000077486037
21
-42.10000070035457
31
0
0
LINE
5
605
100
AcDbEntity
8
0
100
AcDbLine
10
-78.100000774860362
20
-31.100000700354578
30
0
11
-78.100000774860362
21
-32.100000700354578
31
0
0
LINE
5
606
100
AcDbEntity
8
0
100
AcDbLine
10
-89.500000774860382
20
-21.100000700354581
30
0
11
-84.700000774860371
21
-21.100000700354581
31
0
0
LINE
5
607
100
AcDbEntity
8
0
100
AcDbLine
10
-84.700000774860371
20
-33.400000700354575
30
0
11
-84.700000774860371
21
-32.400000700354575
31
0
0
LINE
5
608
100
AcDbEntity
8
0
100
AcDbLine
10
-116.10000077486035
20
-54.300000700354573
30
0
11
-118.00000077486035
21
-54.300000700354573
31
0
0
LINE
5
609
100
AcDbEntity
8
0
100
AcDbLine
10
-82.800000774860365
20
-36.100000700354578
30
0
11
-82.800000774860365
21
-33.400000700354575
31
0
0
LINE
5
610
100
AcDbEntity
8
0
100
AcDbLine
10
-78.100000774860362
20
-12.300000700354584
30
0
11
-80.000000774860382
21
-12.300000700354584
31
0
0
LINE
5
611
100
AcDbEntity
8
0
100
AcDbLine
10
-118.00000077486035
20
-54.300000700354573
30
0
11
-118.00000077486035
21
-57.10000070035457
31
0
0
LINE
5
612
100
AcDbEntity
8
0
100
AcDbLine
10
-70.500000774860382
20
-17.100000700354578
30
0
11
-65.700000774860385
21
-17.100000700354578
31
0
0
LINE
5
613
100
AcDbEntity
8
0
100
AcDbLine
10
-103.7000007748604
20
-59.100000700354578
30
0
11
-103.7000007748604
21
-58.100000700354578
31
0
0
LINE
5
614
100
AcDbEntity
8
0
100
AcDbLine
10
-116.10000077486035
20
-41.100000700354578
30
0
11
-116.10000077486035
21
-42.10000070035457
31
0
0
LINE
5
615
100
AcDbEntity
8
0
100
AcDbLine
10
-135.10000077486038
20
-41.100000700354578
30
0
11
-135.10000077486038
21
-42.10000070035457
31
0
0
LINE
5
616
100
AcDbEntity
8
0
100
AcDbLine
10
-118.00000077486035
20
-57.10000070035457
30
0
11
-116.10000077486035
21
-57.10000070035457
31
0
0
LINE
5
617
100
AcDbEntity
8
0
100
AcDbLine
10
-78.100000774860362
20
-43.400000700354575
30
0
11
-78.100000774860362
21
-44.300000700354573
31
0
0
LINE
5
618
100
AcDbEntity
8
0
100
AcDbLine
10
-65.700000774860385
20
-13.400000700354582
30
0
11
-65.700000774860385
21
-12.400000700354584
31
0
0
LINE
5
619
100
AcDbEntity
8
0
100
AcDbLine
10
-82.800000774860365
20
-20.100000700354581
30
0
11
-82.800000774860365
21
-17.400000700354575
31
0
0
LINE
5
620
100
AcDbEntity
8
0
100
AcDbLine
10
-135.10000077486038
20
-42.10000070035457
30
0
11
-129.60000077486035
21
-42.10000070035457
31
0
0
LINE
5
621
100
AcDbEntity
8
0
100
AcDbLine
10
-82.800000774860365
20
-17.400000700354575
30
0
11
-84.700000774860371
21
-17.400000700354575
31
0
0
LINE
5
622
100
AcDbEntity
8
0
100
AcDbLine
10
-65.700000774860385
20
-16.100000700354581
30
0
11
-63.800000774860379
21
-16.100000700354581
31
0
0
LINE
5
623
100
AcDbEntity
8
0
100
AcDbLine
10
-89.500000774860382
20
-37.100000700354578
30
0
11
-84.700000774860371
21
-37.100000700354578
31
0
0
LINE
5
624
100
AcDbEntity
8
0
100
AcDbLine
10
-84.700000774860371
20
-20.100000700354581
30
0
11
-82.800000774860365
21
-20.100000700354581
31
0
0
LINE
5
625
100
AcDbEntity
8
0
100
AcDbLine
10
-61.000000774860375
20
-37.100000700354578
30
0
11
-59.100000774860384
21
-37.100000700354578
31
0
0
LINE
5
626
100
AcDbEntity
8
0
100
AcDbLine
10
-91.600000774860391
20
-36.100000700354578
30
0
11
-89.500000774860382
21
-37.100000700354578
31
0
0
LINE
5
627
100
AcDbEntity
8
0
100
AcDbLine
10
-84.700000774860371
20
-16.400000700354578
30
0
11
-87.400000774860374
21
-16.400000700354578
31
0
0
LINE
5
628
100
AcDbEntity
8
0
100
AcDbLine
10
-80.000000774860382
20
-12.300000700354584
30
0
11
-80.000000774860382
21
-15.100000700354583
31
0
0
LINE
5
629
100
AcDbEntity
8
0
100
AcDbLine
10
-92.600000774860376
20
-29.000000700354583
30
0
11
-92.600000774860376
21
-31.400000700354575
31
0
0
LINE
5
630
100
AcDbEntity
8
0
100
AcDbLine
10
-78.100000774860362
20
-28.300000700354584
30
0
11
-80.000000774860382
21
-28.300000700354584
31
0
0
CIRCLE
5
631
100
AcDbEntity
8
0
100
AcDbCircle
10
-71.000000774860382
20
-9.0000007003545832
30
0
40
2.6000000000000001
210
0
220
0
230
1
0
LINE
5
632
100
AcDbEntity
8
0
100
AcDbLine
10
-70.500000774860382
20
-33.100000700354578
30
0
11
-65.700000774860385
21
-33.100000700354578
31
0
0
LINE
5
633
100
AcDbEntity
8
0
100
AcDbLine
10
-63.800000774860379
20
-13.400000700354582
30
0
11
-65.700000774860385
21
-13.400000700354582
31
0
0
LINE
5
634
100
AcDbEntity
8
0
100
AcDbLine
10
-122.70000077486038
20
-43.10000070035457
30
0
11
-122.70000077486038
21
-42.10000070035457
31
0
0
LINE
5
635
100
AcDbEntity
8
0
100
AcDbLine
10
-120.80000077486037
20
-42.10000070035457
30
0
11
-120.80000077486037
21
-39.400000700354568
31
0
0
LINE
5
636
100
AcDbEntity
8
0
100
AcDbLine
10
-92.600000774860376
20
-13.000000700354583
30
0
11
-92.600000774860376
21
-15.400000700354582
31
0
0
LINE
5
637
100
AcDbEntity
8
0
100
AcDbLine
10
-87.400000774860374
20
-29.000000700354583
30
0
11
-87.400000774860374
21
-32.400000700354575
31
0
0
LINE
5
638
100
AcDbEntity
8
0
100
AcDbLine
10
-84.700000774860371
20
-21.100000700354581
30
0
11
-84.700000774860371
21
-20.100000700354581
31
0
0
LINE
5
639
100
AcDbEntity
8
0
100
AcDbLine
10
-70.500000774860382
20
-49.100000700354585
30
0
11
-65.700000774860385
21
-49.100000700354585
31
0
0
LINE
5
640
100
AcDbEntity
8
0
100
AcDbLine
10
-32.500000774860396
20
-41.100000700354585
30
0
11
-27.700000774860388
21
-41.100000700354585
31
0
0
LINE
5
641
100
AcDbEntity
8
0
100
AcDbLine
10
-44.800000774860386
20
-22.100000700354585
30
0
11
-44.800000774860386
21
-19.400000700354582
31
0
0
LINE
5
642
100
AcDbEntity
8
0
100
AcDbLine
10
-51.500000774860396
20
-55.100000700354585
30
0
11
-46.700000774860385
21
-55.100000700354585
31
0
0
LINE
5
643
100
AcDbEntity
8
0
100
AcDbLine
10
-46.700000774860385
20
-54.100000700354585
30
0
11
-44.800000774860386
21
-54.100000700354585
31
0
0
LINE
5
644
100
AcDbEntity
8
0
100
AcDbLine
10
-99.000000774860382
20
-19.100000700354578
30
0
11
-97.100000774860362
21
-19.100000700354578
31
0
0
LINE
5
645
100
AcDbEntity
8
0
100
AcDbLine
10
-97.100000774860362
20
-16.300000700354577
30
0
11
-99.000000774860382
21
-16.300000700354577
31
0
0
LINE
5
646
100
AcDbEntity
8
0
100
AcDbLine
10
-25.800000774860393
20
-40.100000700354585
30
0
11
-25.800000774860393
21
-37.400000700354582
31
0
0
LINE
5
647
100
AcDbEntity
8
0
100
AcDbLine
10
-25.800000774860401
20
-53.400000700354582
30
0
11
-27.700000774860388
21
-53.400000700354582
31
0
0
LINE
5
648
100
AcDbEntity
8
0
100
AcDbLine
10
-101.80000077486039
20
-55.400000700354575
30
0
11
-103.7000007748604
21
-55.400000700354575
31
0
0
CIRCLE
5
649
100
AcDbEntity
8
0
100
AcDbCircle
10
-109.00000077486038
20
-35.000000700354576
30
0
40
2.6000000000000001
210
0
220
0
230
1
0
LINE
5
650
100
AcDbEntity
8
0
100
AcDbLine
10
-40.100000774860391
20
-55.100000700354585
30
0
11
-40.100000774860391
21
-56.100000700354585
31
0
0
LINE
5
651
100
AcDbEntity
8
0
100
AcDbLine
10
-25.800000774860401
20
-56.100000700354585
30
0
11
-25.800000774860401
21
-53.400000700354582
31
0
0
LINE
5
652
100
AcDbEntity
8
0
100
AcDbLine
10
-65.700000774860385
20
-33.100000700354578
30
0
11
-65.700000774860385
21
-32.100000700354578
31
0
0
LINE
5
653
100
AcDbEntity
8
0
100
AcDbLine
10
-49.400000774860388
20
-47.000000700354583
30
0
11
-49.400000774860388
21
-50.400000700354582
31
0
0
LINE
5
654
100
AcDbEntity
8
0
100
AcDbLine
10
-97.100000774860362
20
-32.30000070035458
30
0
11
-99.000000774860382
21
-32.30000070035458
31
0
0
LINE
5
655
100
AcDbEntity
8
0
100
AcDbLine
10
-45.641803774860392
20
-77.200604700354575
30
0
11
-43.770668774860397
21
-77.530535700354577
31
0
0
LINE
5
656
100
AcDbEntity
8
0
100
AcDbLine
10
-99.000000774860382
20
-16.300000700354577
30
0
11
-99.000000774860382
21
-19.100000700354578
31
0
0
LINE
5
657
100
AcDbEntity
8
0
100
AcDbLine
10
-38.527873774860396
20
-79.470408700354568
30
0
11
-36.633425774860399
21
-80.819877700354567
31
0
0
LINE
5
658
100
AcDbEntity
8
0
100
AcDbLine
10
-68.400000774860374
20
-41.000000700354576
30
0
11
-68.400000774860374
21
-44.400000700354582
31
0
0
LINE
5
659
100
AcDbEntity
8
0
100
AcDbLine
10
-45.155588774860391
20
-74.443142700354556
30
0
11
-45.641803774860392
21
-77.200604700354575
31
0
0
LINE
5
660
100
AcDbEntity
8
0
100
AcDbLine
10
-97.100000774860362
20
-35.100000700354578
30
0
11
-97.100000774860362
21
-36.100000700354578
31
0
0
LINE
5
661
100
AcDbEntity
8
0
100
AcDbLine
10
-78.100000774860362
20
-48.10000070035457
30
0
11
-72.600000774860362
21
-48.100000700354578
31
0
0
LINE
5
662
100
AcDbEntity
8
0
100
AcDbLine
10
-65.700000774860385
20
-45.400000700354582
30
0
11
-65.700000774860385
21
-44.400000700354582
31
0
0
CIRCLE
5
663
100
AcDbEntity
8
0
100
AcDbCircle
10
-128.00000077486035
20
-35.000000700354576
30
0
40
2.6000000000000001
210
0
220
0
230
1
0
LINE
5
664
100
AcDbEntity
8
0
100
AcDbLine
10
-73.600000774860362
20
-41.000000700354576
30
0
11
-73.600000774860362
21
-43.400000700354582
31
0
0
LINE
5
665
100
AcDbEntity
8
0
100
AcDbLine
10
-97.100000774860362
20
-31.400000700354575
30
0
11
-97.100000774860362
21
-32.30000070035458
31
0
0
LINE
5
666
100
AcDbEntity
8
0
100
AcDbLine
10
-99.000000774860382
20
-32.30000070035458
30
0
11
-99.000000774860382
21
-35.100000700354578
31
0
0
LINE
5
667
100
AcDbEntity
8
0
100
AcDbLine
10
-11.7625567748604
20
-87.134363700354555
30
0
11
-10.839102774860399
21
-84.59719370035458
31
0
0
LINE
5
668
100
AcDbEntity
8
0
100
AcDbLine
10
-65.700000774860385
20
-48.100000700354578
30
0
11
-63.800000774860379
21
-48.100000700354578
31
0
0
LINE
5
669
100
AcDbEntity
8
0
100
AcDbLine
10
-12.6245187748604
20
-83.947354700354566
30
0
11
-12.2824987748604
21
-83.007662700354558
31
0
0
LINE
5
670
100
AcDbEntity
8
0
100
AcDbLine
10
-99.000000774860382
20
-35.100000700354578
30
0
11
-97.100000774860362
21
-35.100000700354578
31
0
0
LINE
5
671
100
AcDbEntity
8
0
100
AcDbLine
10
-116.10000077486035
20
-42.10000070035457
30
0
11
-110.60000077486038
21
-42.10000070035457
31
0
0
LINE
5
672
100
AcDbEntity
8
0
100
AcDbLine
10
-103.7000007748604
20
-55.400000700354575
30
0
11
-103.7000007748604
21
-54.400000700354568
31
0
0
CIRCLE
5
673
100
AcDbEntity
8
0
100
AcDbCircle
10
-35.719279774860397
20
-72.756110700354569
30
0
40
2.6000000000000001
210
0
220
0
230
1
0
LINE
5
674
100
AcDbEntity
8
0
100
AcDbLine
10
-65.700000774860385
20
-49.100000700354585
30
0
11
-65.700000774860385
21
-48.100000700354578
31
0
0
LINE
5
675
100
AcDbEntity
8
0
100
AcDbLine
10
-130.60000077486038
20
-35.000000700354576
30
0
11
-130.60000077486038
21
-37.400000700354575
31
0
0
LINE
5
676
100
AcDbEntity
8
0
100
AcDbLine
10
-68.400000774860374
20
-25.000000700354583
30
0
11
-68.400000774860374
21
-28.400000700354582
31
0
0
LINE
5
677
100
AcDbEntity
8
0
100
AcDbLine
10
-54.600000774860391
20
-15.000000700354585
30
0
11
-54.600000774860391
21
-17.400000700354578
31
0
0
LINE
5
678
100
AcDbEntity
8
0
100
AcDbLine
10
-27.700000774860385
20
-40.100000700354585
30
0
11
-25.800000774860393
21
-40.100000700354585
31
0
0
LINE
5
679
100
AcDbEntity
8
0
100
AcDbLine
10
-44.800000774860386
20
-19.400000700354582
30
0
11
-46.700000774860385
21
-19.400000700354582
31
0
0
LINE
5
680
100
AcDbEntity
8
0
100
AcDbLine
10
-53.600000774860391
20
-54.100000700354585
30
0
11
-51.500000774860396
21
-55.100000700354585
31
0
0
LINE
5
681
100
AcDbEntity
8
0
100
AcDbLine
10
-38.279779774860394
20
-72.304625700354578
30
0
11
-38.696535774860394
21
-74.668163700354569
31
0
0
LINE
5
682
100
AcDbEntity
8
0
100
AcDbLine
10
-42.000000774860389
20
-55.100000700354585
30
0
11
-40.100000774860391
21
-55.100000700354585
31
0
0
LINE
5
683
100
AcDbEntity
8
0
100
AcDbLine
10
-27.700000774860388
20
-57.100000700354585
30
0
11
-27.700000774860388
21
-56.100000700354585
31
0
0
LINE
5
684
100
AcDbEntity
8
0
100
AcDbLine
10
-103.7000007748604
20
-42.10000070035457
30
0
11
-101.80000077486039
21
-42.10000070035457
31
0
0
LINE
5
685
100
AcDbEntity
8
0
100
AcDbLine
10
-54.600000774860391
20
-47.000000700354583
30
0
11
-54.600000774860391
21
-49.400000700354582
31
0
0
LINE
5
686
100
AcDbEntity
8
0
100
AcDbLine
10
-73.600000774860362
20
-43.400000700354582
30
0
11
-78.100000774860362
21
-43.400000700354575
31
0
0
LINE
5
687
100
AcDbEntity
8
0
100
AcDbLine
10
-106.40000077486039
20
-35.000000700354576
30
0
11
-106.40000077486039
21
-38.400000700354582
31
0
0
LINE
5
688
100
AcDbEntity
8
0
100
AcDbLine
10
-63.800000774860379
20
-29.400000700354578
30
0
11
-65.700000774860385
21
-29.400000700354578
31
0
0
LINE
5
689
100
AcDbEntity
8
0
100
AcDbLine
10
-63.800000774860379
20
-48.100000700354578
30
0
11
-63.800000774860379
21
-45.400000700354582
31
0
0
LINE
5
690
100
AcDbEntity
8
0
100
AcDbLine
10
-46.700000774860385
20
-18.400000700354575
30
0
11
-49.400000774860388
21
-18.400000700354575
31
0
0
LINE
5
691
100
AcDbEntity
8
0
100
AcDbLine
10
-43.284453774860395
20
-74.773074700354556
30
0
11
-45.155588774860391
21
-74.443142700354556
31
0
0
CIRCLE
5
692
100
AcDbEntity
8
0
100
AcDbCircle
10
-71.000000774860382
20
-25.000000700354583
30
0
40
2.6000000000000001
210
0
220
0
230
1
0
CIRCLE
5
693
100
AcDbEntity
8
0
100
AcDbCircle
10
-52.000000774860389
20
-15.000000700354585
30
0
40
2.6000000000000001
210
0
220
0
230
1
0
LINE
5
694
100
AcDbEntity
8
0
100
AcDbLine
10
-97.100000774860362
20
-19.100000700354578
30
0
11
-97.100000774860362
21
-20.100000700354581
31
0
0
LINE
5
695
100
AcDbEntity
8
0
100
AcDbLine
10
-59.100000774860384
20
-50.300000700354573
30
0
11
-61.000000774860375
21
-50.300000700354573
31
0
0
LINE
5
696
100
AcDbEntity
8
0
100
AcDbLine
10
-97.100000774860362
20
-15.400000700354578
30
0
11
-97.100000774860362
21
-16.300000700354577
31
0
0
LINE
5
697
100
AcDbEntity
8
0
100
AcDbLine
10
-38.696535774860394
20
-74.668163700354569
30
0
11
-43.128170774860386
21
-73.886747700354576
31
0
0
LINE
5
698
100
AcDbEntity
8
0
100
AcDbLine
10
-31.732700774860398
20
-80.668580700354568
30
0
11
-29.861565774860395
21
-80.998512700354553
31
0
0
LINE
5
699
100
AcDbEntity
8
0
100
AcDbLine
10
-32.500000774860396
20
-57.100000700354585
30
0
11
-27.700000774860388
21
-57.100000700354585
31
0
0
LINE
5
700
100
AcDbEntity
8
0
100
AcDbLine
10
-35.600000774860391
20
-51.400000700354582
30
0
11
-40.100000774860391
21
-51.400000700354582
31
0
0
LINE
5
701
100
AcDbEntity
8
0
100
AcDbLine
10
-116.10000077486035
20
-37.400000700354575
30
0
11
-116.10000077486035
21
-38.300000700354573
31
0
0
LINE
5
702
100
AcDbEntity
8
0
100
AcDbLine
10
-59.100000774860384
20
-49.400000700354582
30
0
11
-59.100000774860384
21
-50.300000700354573
31
0
0
LINE
5
703
100
AcDbEntity
8
0
100
AcDbLine
10
-29.392715774860399
20
-78.33953170035457
30
0
11
-31.263850774860398
21
-78.009599700354556
31
0
0
LINE
5
704
100
AcDbEntity
8
0
100
AcDbLine
10
-44.800000774860386
20
-51.400000700354582
30
0
11
-46.700000774860385
21
-51.400000700354582
31
0
0
LINE
5
705
100
AcDbEntity
8
0
100
AcDbLine
10
-34.600000774860391
20
-40.100000700354585
30
0
11
-32.500000774860396
21
-41.100000700354585
31
0
0
LINE
5
706
100
AcDbEntity
8
0
100
AcDbLine
10
-101.80000077486039
20
-39.400000700354582
30
0
11
-103.7000007748604
21
-39.400000700354582
31
0
0
LINE
5
707
100
AcDbEntity
8
0
100
AcDbLine
10
-125.40000077486039
20
-35.000000700354576
30
0
11
-125.40000077486039
21
-38.400000700354575
31
0
0
LINE
5
708
100
AcDbEntity
8
0
100
AcDbLine
10
-59.100000774860384
20
-53.100000700354585
30
0
11
-59.100000774860384
21
-54.100000700354585
31
0
0
LINE
5
709
100
AcDbEntity
8
0
100
AcDbLine
10
-34.600000774860391
20
-56.100000700354585
30
0
11
-32.500000774860396
21
-57.100000700354585
31
0
0
LINE
5
710
100
AcDbEntity
8
0
100
AcDbLine
10
-78.100000774860362
20
-44.300000700354573
30
0
11
-80.000000774860382
21
-44.300000700354573
31
0
0
LINE
5
711
100
AcDbEntity
8
0
100
AcDbLine
10
-27.700000774860388
20
-41.100000700354585
30
0
11
-27.700000774860385
21
-40.100000700354585
31
0
0
LINE
5
712
100
AcDbEntity
8
0
100
AcDbLine
10
-65.700000774860385
20
-44.400000700354582
30
0
11
-68.400000774860374
21
-44.400000700354582
31
0
0
LINE
5
713
100
AcDbEntity
8
0
100
AcDbLine
10
-25.800000774860393
20
-37.400000700354582
30
0
11
-27.700000774860385
21
-37.400000700354582
31
0
0
LINE
5
714
100
AcDbEntity
8
0
100
AcDbLine
10
-99.000000774860382
20
-51.100000700354578
30
0
11
-97.100000774860362
21
-51.100000700354578
31
0
0
LINE
5
715
100
AcDbEntity
8
0
100
AcDbLine
10
-27.700000774860388
20
-52.400000700354582
30
0
11
-30.400000774860388
21
-52.400000700354582
31
0
0
LINE
5
716
100
AcDbEntity
8
0
100
AcDbLine
10
-122.70000077486038
20
-38.400000700354575
30
0
11
-125.40000077486039
21
-38.400000700354575
31
0
0
LINE
5
717
100
AcDbEntity
8
0
100
AcDbLine
10
-130.60000077486038
20
-37.400000700354575
30
0
11
-135.10000077486038
21
-37.400000700354575
31
0
0
LINE
5
718
100
AcDbEntity
8
0
100
AcDbLine
10
-61.000000774860375
20
-53.100000700354585
30
0
11
-59.100000774860384
21
-53.100000700354585
31
0
0
LINE
5
719
100
AcDbEntity
8
0
100
AcDbLine
10
-31.263850774860398
20
-78.009599700354556
30
0
11
-31.090202774860394
21
-77.024792700354567
31
0
0
LINE
5
720
100
AcDbEntity
8
0
100
AcDbLine
10
-48.800000774860386
20
-78.100000700354556
30
0
11
-48.800000774860386
21
-75.400000700354568
31
0
0
LINE
5
721
100
AcDbEntity
8
0
100
AcDbLine
10
-61.000000774860375
20
-50.300000700354573
30
0
11
-61.000000774860375
21
-53.100000700354585
31
0
0
LINE
5
722
100
AcDbEntity
8
0
100
AcDbLine
10
-27.700000774860385
20
-37.400000700354582
30
0
11
-27.700000774860385
21
-36.400000700354582
31
0
0
LINE
5
723
100
AcDbEntity
8
0
100
AcDbLine
10
-65.700000774860385
20
-28.400000700354582
30
0
11
-68.400000774860374
21
-28.400000700354582
31
0
0
LINE
5
724
100
AcDbEntity
8
0
100
AcDbLine
10
-80.000000774860382
20
-47.10000070035457
30
0
11
-78.100000774860362
21
-47.10000070035457
31
0
0
LINE
5
725
100
AcDbEntity
8
0
100
AcDbLine
10
-43.94431677486039
20
-78.515343700354578
30
0
11
-38.527873774860396
21
-79.470408700354568
31
0
0
CIRCLE
5
726
100
AcDbEntity
8
0
100
AcDbCircle
10
-52.000000774860389
20
-47.000000700354583
30
0
40
2.6000000000000001
210
0
220
0
230
1
0
LINE
5
727
100
AcDbEntity
8
0
100
AcDbLine
10
-27.700000774860388
20
-56.100000700354585
30
0
11
-25.800000774860401
21
-56.100000700354585
31
0
0
LINE
5
728
100
AcDbEntity
8
0
100
AcDbLine
10
-97.100000774860362
20
-47.400000700354568
30
0
11
-97.100000774860362
21
-48.300000700354566
31
0
0
LINE
5
729
100
AcDbEntity
8
0
100
AcDbLine
10
-61.000000774860375
20
-21.100000700354581
30
0
11
-59.100000774860384
21
-21.100000700354581
31
0
0
LINE
5
730
100
AcDbEntity
8
0
100
AcDbLine
10
-116.10000077486035
20
-58.100000700354578
30
0
11
-110.60000077486038
21
-58.100000700354578
31
0
0
LINE
5
731
100
AcDbEntity
8
0
100
AcDbLine
10
-48.800000774860386
20
-75.400000700354568
30
0
11
-50.700000774860392
21
-75.400000700354568
31
0
0
LINE
5
732
100
AcDbEntity
8
0
100
AcDbLine
10
-101.80000077486039
20
-58.100000700354578
30
0
11
-101.80000077486039
21
-55.400000700354575
31
0
0
LINE
5
733
100
AcDbEntity
8
0
100
AcDbLine
10
-57.600000774860398
20
-78.100000700354556
30
0
11
-55.500000774860396
21
-79.100000700354556
31
0
0
LINE
5
734
100
AcDbEntity
8
0
100
AcDbLine
10
-59.100000774860384
20
-34.300000700354573
30
0
11
-61.000000774860375
21
-34.300000700354573
31
0
0
LINE
5
735
100
AcDbEntity
8
0
100
AcDbLine
10
-78.100000774860362
20
-32.100000700354578
30
0
11
-72.600000774860362
21
-32.100000700354578
31
0
0
LINE
5
736
100
AcDbEntity
8
0
100
AcDbLine
10
-78.100000774860362
20
-16.100000700354581
30
0
11
-72.600000774860362
21
-16.100000700354581
31
0
0
LINE
5
737
100
AcDbEntity
8
0
100
AcDbLine
10
-111.60000077486039
20
-53.400000700354575
30
0
11
-116.10000077486035
21
-53.400000700354575
31
0
0
CIRCLE
5
738
100
AcDbEntity
8
0
100
AcDbCircle
10
-90.000000774860382
20
-45.000000700354576
30
0
40
2.6000000000000001
210
0
220
0
230
1
0
LINE
5
739
100
AcDbEntity
8
0
100
AcDbLine
10
-135.10000077486038
20
-38.300000700354573
30
0
11
-137.00000077486038
21
-38.300000700354573
31
0
0
LINE
5
740
100
AcDbEntity
8
0
100
AcDbLine
10
-135.10000077486038
20
-37.400000700354575
30
0
11
-135.10000077486038
21
-38.300000700354573
31
0
0
LINE
5
741
100
AcDbEntity
8
0
100
AcDbLine
10
-59.100000774860384
20
-37.100000700354578
30
0
11
-59.100000774860384
21
-38.100000700354578
31
0
0
LINE
5
742
100
AcDbEntity
8
0
100
AcDbLine
10
-63.800000774860379
20
-45.400000700354582
30
0
11
-65.700000774860385
21
-45.400000700354582
31
0
0
LINE
5
743
100
AcDbEntity
8
0
100
AcDbLine
10
-43.128170774860386
20
-73.886747700354576
30
0
11
-43.284453774860395
21
-74.773074700354556
31
0
0
LINE
5
744
100
AcDbEntity
8
0
100
AcDbLine
10
-30.400000774860388
20
-49.00000070035459
30
0
11
-30.400000774860388
21
-52.400000700354582
31
0
0
LINE
5
745
100
AcDbEntity
8
0
100
AcDbLine
10
-73.600000774860362
20
-27.400000700354582
30
0
11
-78.100000774860362
21
-27.400000700354582
31
0
0
LINE
5
746
100
AcDbEntity
8
0
100
AcDbLine
10
-58.600000774860391
20
-71.000000700354576
30
0
11
-58.600000774860391
21
-73.400000700354568
31
0
0
LINE
5
747
100
AcDbEntity
8
0
100
AcDbLine
10
-116.10000077486035
20
-38.300000700354573
30
0
11
-118.00000077486035
21
-38.300000700354573
31
0
0
LINE
5
748
100
AcDbEntity
8
0
100
AcDbLine
10
-27.700000774860385
20
-36.400000700354582
30
0
11
-30.400000774860384
21
-36.400000700354582
31
0
0
LINE
5
749
100
AcDbEntity
8
0
100
AcDbLine
10
-25.6859007748604
20
-78.02280470035457
30
0
11
-26.6435567748604
21
-80.653944700354558
31
0
0
LINE
5
750
100
AcDbEntity
8
0
100
AcDbLine
10
-27.700000774860388
20
-53.400000700354582
30
0
11
-27.700000774860388
21
-52.400000700354582
31
0
0
ENDSEC
0
SECTION
2
OBJECTS
0
DICTIONARY
5
C
100
AcDbDictionary
3
ACAD_GROUP
350
D
3
ACAD_MLINESTYLE
350
17
0
DICTIONARY
5
D
100
AcDbDictionary
0
DICTIONARY
5
1A
330
C
100
AcDbDictionary
0
DICTIONARY
5
17
100
AcDbDictionary
0
ENDSEC
0
EOF
