0
SECTION
2
HEADER
9
$INSUNITS
70
4
9
$ACADVER
1
AC1014
9
$HANDSEED
5
FFFF
0
ENDSEC
0
SECTION
2
TABLES
0
TABLE
2
VPORT
5
8
100
AcDbSymbolTable
0
ENDTAB
0
TABLE
2
LTYPE
5
5
100
AcDbSymbolTable
0
LTYPE
5
14
100
AcDbSymbolTableRecord
100
AcDbLinetypeTableRecord
2
BYBLOCK
70
0
0
LTYPE
5
15
100
AcDbSymbolTableRecord
100
AcDbLinetypeTableRecord
2
BYLAYER
70
0
0
LTYPE
5
16
100
AcDbSymbolTableRecord
100
AcDbLinetypeTableRecord
2
DASHED
70
0
3
Dashed __ __ __ __ __ __ __ __ __ __ __ __ __ _
72
65
73
2
40
0.75
49
0.5
74
0
49
-0.25
74
0
0
ENDTAB
0
TABLE
2
LAYER
5
2
100
AcDbSymbolTable
70
2
0
LAYER
5
50
100
AcDbSymbolTableRecord
100
AcDbLayerTableRecord
2
0
70
0
62
7
6
CONTINUOUS
0
ENDTAB
0
TABLE
2
STYLE
5
3
100
AcDbSymbolTable
70
1
0
STYLE
5
11
100
AcDbSymbolTableRecord
100
AcDbTextStyleTableRecord
2
STANDARD
70
0
0
ENDTAB
0
TABLE
2
VIEW
5
6
100
AcDbSymbolTable
70
0
0
ENDTAB
0
TABLE
2
UCS
5
7
100
AcDbSymbolTable
70
0
0
ENDTAB
0
TABLE
2
APPID
5
9
100
AcDbSymbolTable
70
2
0
APPID
5
12
100
AcDbSymbolTableRecord
100
AcDbRegAppTableRecord
2
ACAD
70
0
0
ENDTAB
0
TABLE
2
DIMSTYLE
5
A
100
AcDbSymbolTable
70
1
0
ENDTAB
0
TABLE
2
BLOCK_RECORD
5
1
100
AcDbSymbolTable
70
1
0
BLOCK_RECORD
5
1F
100
AcDbSymbolTableRecord
100
AcDbBlockTableRecord
2
*MODEL_SPACE
0
BLOCK_RECORD
5
1B
100
AcDbSymbolTableRecord
100
AcDbBlockTableRecord
2
*PAPER_SPACE
0
ENDTAB
0
ENDSEC
0
SECTION
2
BLOCKS
0
BLOCK
5
20
100
AcDbEntity
100
AcDbBlockBegin
2
*MODEL_SPACE
0
ENDBLK
5
21
100
AcDbEntity
100
AcDbBlockEnd
0
BLOCK
5
1C
100
AcDbEntity
100
AcDbBlockBegin
2
*PAPER_SPACE
0
ENDBLK
5
1D
100
AcDbEntity
100
AcDbBlockEnd
0
ENDSEC
0
SECTION
2
ENTITIES
0
LINE
5
100
100
AcDbEntity
8
0
100
AcDbLine
10
42.300000000000004
20
-33.299999999999997
30
0
11
42.300000000000004
21
-36.299999999999997
31
0
0
LINE
5
101
100
AcDbEntity
8
0
100
AcDbLine
10
42.300000000000004
20
-36.299999999999997
30
0
11
44.20000000000001
21
-36.299999999999997
31
0
0
LINE
5
102
100
AcDbEntity
8
0
100
AcDbLine
10
44.20000000000001
20
-32.300000000000004
30
0
11
44.20000000000001
21
-33.299999999999997
31
0
0
LINE
5
103
100
AcDbEntity
8
0
100
AcDbLine
10
44.20000000000001
20
-33.299999999999997
30
0
11
42.300000000000004
21
-33.299999999999997
31
0
0
LINE
5
104
100
AcDbEntity
8
0
100
AcDbLine
10
44.20000000000001
20
-36.299999999999997
30
0
11
44.20000000000001
21
-37.299999999999997
31
0
0
LINE
5
105
100
AcDbEntity
8
0
100
AcDbLine
10
44.20000000000001
20
-37.299999999999997
30
0
11
47.600000000000009
21
-37.299999999999997
31
0
0
LINE
5
106
100
AcDbEntity
8
0
100
AcDbLine
10
45.600000000000009
20
-31
30
0
11
45.600000000000009
21
-32.300000000000004
31
0
0
LINE
5
107
100
AcDbEntity
8
0
100
AcDbLine
10
45.600000000000009
20
-32.300000000000004
30
0
11
44.20000000000001
21
-32.300000000000004
31
0
0
LINE
5
108
100
AcDbEntity
8
0
100
AcDbLine
10
47.400000000000006
20
-31
30
0
11
47.400000000000006
21
-32.300000000000004
31
0
0
LINE
5
109
100
AcDbEntity
8
0
100
AcDbLine
10
47.400000000000006
20
-32.300000000000004
30
0
11
49.400000000000006
21
-32.300000000000004
31
0
0
LINE
5
110
100
AcDbEntity
8
0
100
AcDbLine
10
49.400000000000006
20
-32.300000000000004
30
0
11
49.400000000000006
21
-31
31
0
0
LINE
5
111
100
AcDbEntity
8
0
100
AcDbLine
10
49.700000000000003
20
-39.600000000000001
30
0
11
47.600000000000009
21
-37.299999999999997
31
0
0
LINE
5
112
100
AcDbEntity
8
0
100
AcDbLine
10
49.700000000000003
20
-39.600000000000001
30
0
11
54.600000000000009
21
-39.600000000000001
31
0
0
LINE
5
113
100
AcDbEntity
8
0
100
AcDbLine
10
54.600000000000009
20
-31
30
0
11
54.600000000000009
21
-35.5
31
0
0
LINE
5
114
100
AcDbEntity
8
0
100
AcDbLine
10
54.600000000000009
20
-38.400000000000006
30
0
11
56.70000000000001
21
-38.400000000000006
31
0
0
LINE
5
115
100
AcDbEntity
8
0
100
AcDbLine
10
54.600000000000009
20
-39.600000000000001
30
0
11
54.600000000000009
21
-38.400000000000006
31
0
0
LINE
5
116
100
AcDbEntity
8
0
100
AcDbLine
10
56.70000000000001
20
-35.5
30
0
11
54.600000000000009
21
-35.5
31
0
0
LINE
5
117
100
AcDbEntity
8
0
100
AcDbLine
10
56.70000000000001
20
-38.400000000000006
30
0
11
56.70000000000001
21
-35.5
31
0
0
CIRCLE
5
118
100
AcDbEntity
8
0
100
AcDbCircle
10
46.5
20
-31
30
0
40
0.89999999999999991
210
0
220
0
230
1
0
CIRCLE
5
119
100
AcDbEntity
8
0
100
AcDbCircle
10
52
20
-31
30
0
40
2.6000000000000001
210
0
220
0
230
1
0
CIRCLE
5
120
100
AcDbEntity
8
0
100
AcDbCircle
10
57.500000000000007
20
-31
30
0
40
0.89999999999999991
210
0
220
0
230
1
0
LINE
5
121
100
AcDbEntity
8
0
100
AcDbLine
10
42.300000000000004
20
-49.299999999999997
30
0
11
42.300000000000004
21
-52.300000000000004
31
0
0
LINE
5
122
100
AcDbEntity
8
0
100
AcDbLine
10
42.300000000000004
20
-52.300000000000004
30
0
11
44.20000000000001
21
-52.300000000000004
31
0
0
LINE
5
123
100
AcDbEntity
8
0
100
AcDbLine
10
44.20000000000001
20
-48.299999999999997
30
0
11
44.20000000000001
21
-49.299999999999997
31
0
0
LINE
5
124
100
AcDbEntity
8
0
100
AcDbLine
10
44.20000000000001
20
-49.299999999999997
30
0
11
42.300000000000004
21
-49.299999999999997
31
0
0
LINE
5
125
100
AcDbEntity
8
0
100
AcDbLine
10
44.20000000000001
20
-52.300000000000004
30
0
11
44.20000000000001
21
-53.299999999999997
31
0
0
LINE
5
126
100
AcDbEntity
8
0
100
AcDbLine
10
44.20000000000001
20
-53.299999999999997
30
0
11
47.600000000000009
21
-53.299999999999997
31
0
0
LINE
5
127
100
AcDbEntity
8
0
100
AcDbLine
10
45.600000000000009
20
-47.000000000000014
30
0
11
45.600000000000009
21
-48.299999999999997
31
0
0
LINE
5
128
100
AcDbEntity
8
0
100
AcDbLine
10
45.600000000000009
20
-48.299999999999997
30
0
11
44.20000000000001
21
-48.299999999999997
31
0
0
LINE
5
129
100
AcDbEntity
8
0
100
AcDbLine
10
47.400000000000006
20
-47.000000000000014
30
0
11
47.400000000000006
21
-48.299999999999997
31
0
0
LINE
5
130
100
AcDbEntity
8
0
100
AcDbLine
10
47.400000000000006
20
-48.299999999999997
30
0
11
49.400000000000006
21
-48.299999999999997
31
0
0
LINE
5
131
100
AcDbEntity
8
0
100
AcDbLine
10
49.400000000000006
20
-48.299999999999997
30
0
11
49.400000000000006
21
-47.000000000000014
31
0
0
LINE
5
132
100
AcDbEntity
8
0
100
AcDbLine
10
49.700000000000003
20
-55.600000000000009
30
0
11
47.600000000000009
21
-53.299999999999997
31
0
0
LINE
5
133
100
AcDbEntity
8
0
100
AcDbLine
10
49.700000000000003
20
-55.600000000000009
30
0
11
54.600000000000009
21
-55.600000000000009
31
0
0
LINE
5
134
100
AcDbEntity
8
0
100
AcDbLine
10
54.600000000000009
20
-47.000000000000014
30
0
11
54.600000000000009
21
-51.5
31
0
0
LINE
5
135
100
AcDbEntity
8
0
100
AcDbLine
10
54.600000000000009
20
-54.399999999999991
30
0
11
56.70000000000001
21
-54.399999999999991
31
0
0
LINE
5
136
100
AcDbEntity
8
0
100
AcDbLine
10
54.600000000000009
20
-55.600000000000009
30
0
11
54.600000000000009
21
-54.399999999999991
31
0
0
LINE
5
137
100
AcDbEntity
8
0
100
AcDbLine
10
56.70000000000001
20
-51.5
30
0
11
54.600000000000009
21
-51.5
31
0
0
LINE
5
138
100
AcDbEntity
8
0
100
AcDbLine
10
56.70000000000001
20
-54.399999999999991
30
0
11
56.70000000000001
21
-51.5
31
0
0
CIRCLE
5
139
100
AcDbEntity
8
0
100
AcDbCircle
10
46.5
20
-47.000000000000014
30
0
40
0.89999999999999991
210
0
220
0
230
1
0
CIRCLE
5
140
100
AcDbEntity
8
0
100
AcDbCircle
10
52
20
-47.000000000000014
30
0
40
2.6000000000000001
210
0
220
0
230
1
0
CIRCLE
5
141
100
AcDbEntity
8
0
100
AcDbCircle
10
57.500000000000007
20
-47.000000000000014
30
0
40
0.89999999999999991
210
0
220
0
230
1
0
LINE
5
142
100
AcDbEntity
8
0
100
AcDbLine
10
99.299999999999997
20
-37.299999999999997
30
0
11
99.299999999999997
21
-40.299999999999997
31
0
0
LINE
5
143
100
AcDbEntity
8
0
100
AcDbLine
10
99.299999999999997
20
-40.299999999999997
30
0
11
101.20000000000002
21
-40.299999999999997
31
0
0
LINE
5
144
100
AcDbEntity
8
0
100
AcDbLine
10
101.20000000000002
20
-36.299999999999997
30
0
11
101.20000000000002
21
-37.299999999999997
31
0
0
LINE
5
145
100
AcDbEntity
8
0
100
AcDbLine
10
101.20000000000002
20
-37.299999999999997
30
0
11
99.299999999999997
21
-37.299999999999997
31
0
0
LINE
5
146
100
AcDbEntity
8
0
100
AcDbLine
10
101.20000000000002
20
-40.299999999999997
30
0
11
101.20000000000002
21
-41.300000000000011
31
0
0
LINE
5
147
100
AcDbEntity
8
0
100
AcDbLine
10
101.20000000000002
20
-41.300000000000011
30
0
11
104.60000000000001
21
-41.300000000000011
31
0
0
LINE
5
148
100
AcDbEntity
8
0
100
AcDbLine
10
102.60000000000002
20
-35.000000000000007
30
0
11
102.60000000000002
21
-36.299999999999997
31
0
0
LINE
5
149
100
AcDbEntity
8
0
100
AcDbLine
10
102.60000000000002
20
-36.299999999999997
30
0
11
101.20000000000002
21
-36.299999999999997
31
0
0
LINE
5
150
100
AcDbEntity
8
0
100
AcDbLine
10
104.40000000000001
20
-35.000000000000007
30
0
11
104.40000000000001
21
-36.299999999999997
31
0
0
LINE
5
151
100
AcDbEntity
8
0
100
AcDbLine
10
104.40000000000001
20
-36.299999999999997
30
0
11
106.40000000000001
21
-36.299999999999997
31
0
0
LINE
5
152
100
AcDbEntity
8
0
100
AcDbLine
10
106.40000000000001
20
-36.299999999999997
30
0
11
106.40000000000001
21
-35.000000000000007
31
0
0
LINE
5
153
100
AcDbEntity
8
0
100
AcDbLine
10
106.70000000000002
20
-43.600000000000009
30
0
11
104.60000000000001
21
-41.300000000000011
31
0
0
LINE
5
154
100
AcDbEntity
8
0
100
AcDbLine
10
106.70000000000002
20
-43.600000000000009
30
0
11
111.59999999999999
21
-43.600000000000009
31
0
0
LINE
5
155
100
AcDbEntity
8
0
100
AcDbLine
10
111.59999999999999
20
-35.000000000000007
30
0
11
111.59999999999999
21
-39.5
31
0
0
LINE
5
156
100
AcDbEntity
8
0
100
AcDbLine
10
111.59999999999999
20
-42.400000000000006
30
0
11
113.70000000000002
21
-42.400000000000006
31
0
0
LINE
5
157
100
AcDbEntity
8
0
100
AcDbLine
10
111.59999999999999
20
-43.600000000000009
30
0
11
111.59999999999999
21
-42.400000000000006
31
0
0
LINE
5
158
100
AcDbEntity
8
0
100
AcDbLine
10
113.70000000000002
20
-39.5
30
0
11
111.59999999999999
21
-39.5
31
0
0
LINE
5
159
100
AcDbEntity
8
0
100
AcDbLine
10
113.70000000000002
20
-42.400000000000006
30
0
11
113.70000000000002
21
-39.5
31
0
0
CIRCLE
5
160
100
AcDbEntity
8
0
100
AcDbCircle
10
103.50000000000001
20
-35.000000000000007
30
0
40
0.89999999999999991
210
0
220
0
230
1
0
CIRCLE
5
161
100
AcDbEntity
8
0
100
AcDbCircle
10
109.00000000000003
20
-35.000000000000007
30
0
40
2.6000000000000001
210
0
220
0
230
1
0
CIRCLE
5
162
100
AcDbEntity
8
0
100
AcDbCircle
10
114.5
20
-35.000000000000007
30
0
40
0.89999999999999991
210
0
220
0
230
1
0
LINE
5
163
100
AcDbEntity
8
0
100
AcDbLine
10
42.300000000000004
20
-17.300000000000001
30
0
11
42.300000000000004
21
-20.300000000000004
31
0
0
LINE
5
164
100
AcDbEntity
8
0
100
AcDbLine
10
42.300000000000004
20
-20.300000000000004
30
0
11
44.20000000000001
21
-20.300000000000004
31
0
0
LINE
5
165
100
AcDbEntity
8
0
100
AcDbLine
10
44.20000000000001
20
-16.299999999999997
30
0
11
44.20000000000001
21
-17.300000000000001
31
0
0
LINE
5
166
100
AcDbEntity
8
0
100
AcDbLine
10
44.20000000000001
20
-17.300000000000001
30
0
11
42.300000000000004
21
-17.300000000000001
31
0
0
LINE
5
167
100
AcDbEntity
8
0
100
AcDbLine
10
44.20000000000001
20
-20.300000000000004
30
0
11
44.20000000000001
21
-21.300000000000004
31
0
0
LINE
5
168
100
AcDbEntity
8
0
100
AcDbLine
10
44.20000000000001
20
-21.300000000000004
30
0
11
47.600000000000009
21
-21.300000000000004
31
0
0
LINE
5
169
100
AcDbEntity
8
0
100
AcDbLine
10
45.600000000000009
20
-15.000000000000002
30
0
11
45.600000000000009
21
-16.299999999999997
31
0
0
LINE
5
170
100
AcDbEntity
8
0
100
AcDbLine
10
45.600000000000009
20
-16.299999999999997
30
0
11
44.20000000000001
21
-16.299999999999997
31
0
0
LINE
5
171
100
AcDbEntity
8
0
100
AcDbLine
10
47.400000000000006
20
-15.000000000000002
30
0
11
47.400000000000006
21
-16.299999999999997
31
0
0
LINE
5
172
100
AcDbEntity
8
0
100
AcDbLine
10
47.400000000000006
20
-16.299999999999997
30
0
11
49.400000000000006
21
-16.299999999999997
31
0
0
LINE
5
173
100
AcDbEntity
8
0
100
AcDbLine
10
49.400000000000006
20
-16.299999999999997
30
0
11
49.400000000000006
21
-15.000000000000002
31
0
0
LINE
5
174
100
AcDbEntity
8
0
100
AcDbLine
10
49.700000000000003
20
-23.600000000000001
30
0
11
47.600000000000009
21
-21.300000000000004
31
0
0
LINE
5
175
100
AcDbEntity
8
0
100
AcDbLine
10
49.700000000000003
20
-23.600000000000001
30
0
11
54.600000000000009
21
-23.600000000000001
31
0
0
LINE
5
176
100
AcDbEntity
8
0
100
AcDbLine
10
54.600000000000009
20
-15.000000000000002
30
0
11
54.600000000000009
21
-19.5
31
0
0
LINE
5
177
100
AcDbEntity
8
0
100
AcDbLine
10
54.600000000000009
20
-22.400000000000002
30
0
11
56.70000000000001
21
-22.400000000000002
31
0
0
LINE
5
178
100
AcDbEntity
8
0
100
AcDbLine
10
54.600000000000009
20
-23.600000000000001
30
0
11
54.600000000000009
21
-22.400000000000002
31
0
0
LINE
5
179
100
AcDbEntity
8
0
100
AcDbLine
10
56.70000000000001
20
-19.5
30
0
11
54.600000000000009
21
-19.5
31
0
0
LINE
5
180
100
AcDbEntity
8
0
100
AcDbLine
10
56.70000000000001
20
-22.400000000000002
30
0
11
56.70000000000001
21
-19.5
31
0
0
CIRCLE
5
181
100
AcDbEntity
8
0
100
AcDbCircle
10
46.5
20
-15.000000000000002
30
0
40
0.89999999999999991
210
0
220
0
230
1
0
CIRCLE
5
182
100
AcDbEntity
8
0
100
AcDbCircle
10
52
20
-15.000000000000002
30
0
40
2.6000000000000001
210
0
220
0
230
1
0
CIRCLE
5
183
100
AcDbEntity
8
0
100
AcDbCircle
10
57.500000000000007
20
-15.000000000000002
30
0
40
0.89999999999999991
210
0
220
0
230
1
0
LINE
5
184
100
AcDbEntity
8
0
100
AcDbLine
10
61.299999999999997
20
-43.299999999999997
30
0
11
61.299999999999997
21
-46.300000000000011
31
0
0
LINE
5
185
100
AcDbEntity
8
0
100
AcDbLine
10
61.299999999999997
20
-46.300000000000011
30
0
11
63.20000000000001
21
-46.300000000000011
31
0
0
LINE
5
186
100
AcDbEntity
8
0
100
AcDbLine
10
63.20000000000001
20
-42.300000000000004
30
0
11
63.20000000000001
21
-43.299999999999997
31
0
0
LINE
5
187
100
AcDbEntity
8
0
100
AcDbLine
10
63.20000000000001
20
-43.299999999999997
30
0
11
61.299999999999997
21
-43.299999999999997
31
0
0
LINE
5
188
100
AcDbEntity
8
0
100
AcDbLine
10
63.20000000000001
20
-46.300000000000011
30
0
11
63.20000000000001
21
-47.300000000000004
31
0
0
LINE
5
189
100
AcDbEntity
8
0
100
AcDbLine
10
63.20000000000001
20
-47.300000000000004
30
0
11
66.599999999999994
21
-47.300000000000004
31
0
0
LINE
5
190
100
AcDbEntity
8
0
100
AcDbLine
10
64.599999999999994
20
-41
30
0
11
64.599999999999994
21
-42.300000000000004
31
0
0
LINE
5
191
100
AcDbEntity
8
0
100
AcDbLine
10
64.599999999999994
20
-42.300000000000004
30
0
11
63.20000000000001
21
-42.300000000000004
31
0
0
LINE
5
192
100
AcDbEntity
8
0
100
AcDbLine
10
66.399999999999991
20
-41
30
0
11
66.399999999999991
21
-42.300000000000004
31
0
0
LINE
5
193
100
AcDbEntity
8
0
100
AcDbLine
10
66.399999999999991
20
-42.300000000000004
30
0
11
68.400000000000006
21
-42.300000000000004
31
0
0
LINE
5
194
100
AcDbEntity
8
0
100
AcDbLine
10
68.400000000000006
20
-42.300000000000004
30
0
11
68.400000000000006
21
-41
31
0
0
LINE
5
195
100
AcDbEntity
8
0
100
AcDbLine
10
68.700000000000017
20
-49.600000000000009
30
0
11
66.599999999999994
21
-47.300000000000004
31
0
0
LINE
5
196
100
AcDbEntity
8
0
100
AcDbLine
10
68.700000000000017
20
-49.600000000000009
30
0
11
73.59999999999998
21
-49.600000000000009
31
0
0
LINE
5
197
100
AcDbEntity
8
0
100
AcDbLine
10
73.59999999999998
20
-41
30
0
11
73.59999999999998
21
-45.500000000000007
31
0
0
LINE
5
198
100
AcDbEntity
8
0
100
AcDbLine
10
73.59999999999998
20
-48.399999999999999
30
0
11
75.700000000000017
21
-48.399999999999999
31
0
0
LINE
5
199
100
AcDbEntity
8
0
100
AcDbLine
10
73.59999999999998
20
-49.600000000000009
30
0
11
73.59999999999998
21
-48.399999999999999
31
0
0
LINE
5
200
100
AcDbEntity
8
0
100
AcDbLine
10
75.700000000000017
20
-45.500000000000007
30
0
11
73.59999999999998
21
-45.500000000000007
31
0
0
LINE
5
201
100
AcDbEntity
8
0
100
AcDbLine
10
75.700000000000017
20
-48.399999999999999
30
0
11
75.700000000000017
21
-45.500000000000007
31
0
0
CIRCLE
5
202
100
AcDbEntity
8
0
100
AcDbCircle
10
65.5
20
-41
30
0
40
0.89999999999999991
210
0
220
0
230
1
0
CIRCLE
5
203
100
AcDbEntity
8
0
100
AcDbCircle
10
71
20
-41
30
0
40
2.6000000000000001
210
0
220
0
230
1
0
CIRCLE
5
204
100
AcDbEntity
8
0
100
AcDbCircle
10
76.5
20
-41
30
0
40
0.89999999999999991
210
0
220
0
230
1
0
LINE
5
205
100
AcDbEntity
8
0
100
AcDbLine
10
23.300000000000004
20
-19.300000000000001
30
0
11
23.300000000000004
21
-22.300000000000004
31
0
0
LINE
5
206
100
AcDbEntity
8
0
100
AcDbLine
10
23.300000000000004
20
-22.300000000000004
30
0
11
25.200000000000003
21
-22.300000000000004
31
0
0
LINE
5
207
100
AcDbEntity
8
0
100
AcDbLine
10
25.200000000000003
20
-18.300000000000004
30
0
11
25.200000000000003
21
-19.300000000000001
31
0
0
LINE
5
208
100
AcDbEntity
8
0
100
AcDbLine
10
25.200000000000003
20
-19.300000000000001
30
0
11
23.300000000000004
21
-19.300000000000001
31
0
0
LINE
5
209
100
AcDbEntity
8
0
100
AcDbLine
10
25.200000000000003
20
-22.300000000000004
30
0
11
25.200000000000003
21
-23.300000000000001
31
0
0
LINE
5
210
100
AcDbEntity
8
0
100
AcDbLine
10
25.200000000000003
20
-23.300000000000001
30
0
11
28.600000000000001
21
-23.300000000000001
31
0
0
LINE
5
211
100
AcDbEntity
8
0
100
AcDbLine
10
26.600000000000005
20
-17
30
0
11
26.600000000000005
21
-18.300000000000004
31
0
0
LINE
5
212
100
AcDbEntity
8
0
100
AcDbLine
10
26.600000000000005
20
-18.300000000000004
30
0
11
25.200000000000003
21
-18.300000000000004
31
0
0
LINE
5
213
100
AcDbEntity
8
0
100
AcDbLine
10
28.400000000000002
20
-17
30
0
11
28.400000000000002
21
-18.300000000000004
31
0
0
LINE
5
214
100
AcDbEntity
8
0
100
AcDbLine
10
28.400000000000002
20
-18.300000000000004
30
0
11
30.399999999999999
21
-18.300000000000004
31
0
0
LINE
5
215
100
AcDbEntity
8
0
100
AcDbLine
10
30.399999999999999
20
-18.300000000000004
30
0
11
30.399999999999999
21
-17
31
0
0
LINE
5
216
100
AcDbEntity
8
0
100
AcDbLine
10
30.700000000000003
20
-25.600000000000005
30
0
11
28.600000000000001
21
-23.300000000000001
31
0
0
LINE
5
217
100
AcDbEntity
8
0
100
AcDbLine
10
30.700000000000003
20
-25.600000000000005
30
0
11
35.600000000000009
21
-25.600000000000005
31
0
0
LINE
5
218
100
AcDbEntity
8
0
100
AcDbLine
10
35.600000000000009
20
-17
30
0
11
35.600000000000009
21
-21.500000000000004
31
0
0
LINE
5
219
100
AcDbEntity
8
0
100
AcDbLine
10
35.600000000000009
20
-24.399999999999999
30
0
11
37.700000000000003
21
-24.399999999999999
31
0
0
LINE
5
220
100
AcDbEntity
8
0
100
AcDbLine
10
35.600000000000009
20
-25.600000000000005
30
0
11
35.600000000000009
21
-24.399999999999999
31
0
0
LINE
5
221
100
AcDbEntity
8
0
100
AcDbLine
10
37.700000000000003
20
-21.500000000000004
30
0
11
35.600000000000009
21
-21.500000000000004
31
0
0
LINE
5
222
100
AcDbEntity
8
0
100
AcDbLine
10
37.700000000000003
20
-24.399999999999999
30
0
11
37.700000000000003
21
-21.500000000000004
31
0
0
CIRCLE
5
223
100
AcDbEntity
8
0
100
AcDbCircle
10
27.500000000000004
20
-17
30
0
40
0.89999999999999991
210
0
220
0
230
1
0
CIRCLE
5
224
100
AcDbEntity
8
0
100
AcDbCircle
10
33
20
-17
30
0
40
2.6000000000000001
210
0
220
0
230
1
0
CIRCLE
5
225
100
AcDbEntity
8
0
100
AcDbCircle
10
38.500000000000007
20
-17
30
0
40
0.89999999999999991
210
0
220
0
230
1
0
LINE
5
226
100
AcDbEntity
8
0
100
AcDbLine
10
61.299999999999997
20
-27.300000000000004
30
0
11
61.299999999999997
21
-30.300000000000004
31
0
0
LINE
5
227
100
AcDbEntity
8
0
100
AcDbLine
10
61.299999999999997
20
-30.300000000000004
30
0
11
63.20000000000001
21
-30.300000000000004
31
0
0
LINE
5
228
100
AcDbEntity
8
0
100
AcDbLine
10
63.20000000000001
20
-26.300000000000004
30
0
11
63.20000000000001
21
-27.300000000000004
31
0
0
LINE
5
229
100
AcDbEntity
8
0
100
AcDbLine
10
63.20000000000001
20
-27.300000000000004
30
0
11
61.299999999999997
21
-27.300000000000004
31
0
0
LINE
5
230
100
AcDbEntity
8
0
100
AcDbLine
10
63.20000000000001
20
-30.300000000000004
30
0
11
63.20000000000001
21
-31.300000000000004
31
0
0
LINE
5
231
100
AcDbEntity
8
0
100
AcDbLine
10
63.20000000000001
20
-31.300000000000004
30
0
11
66.599999999999994
21
-31.300000000000004
31
0
0
LINE
5
232
100
AcDbEntity
8
0
100
AcDbLine
10
64.599999999999994
20
-25.000000000000004
30
0
11
64.599999999999994
21
-26.300000000000004
31
0
0
LINE
5
233
100
AcDbEntity
8
0
100
AcDbLine
10
64.599999999999994
20
-26.300000000000004
30
0
11
63.20000000000001
21
-26.300000000000004
31
0
0
LINE
5
234
100
AcDbEntity
8
0
100
AcDbLine
10
66.399999999999991
20
-25.000000000000004
30
0
11
66.399999999999991
21
-26.300000000000004
31
0
0
LINE
5
235
100
AcDbEntity
8
0
100
AcDbLine
10
66.399999999999991
20
-26.300000000000004
30
0
11
68.400000000000006
21
-26.300000000000004
31
0
0
LINE
5
236
100
AcDbEntity
8
0
100
AcDbLine
10
68.400000000000006
20
-26.300000000000004
30
0
11
68.400000000000006
21
-25.000000000000004
31
0
0
LINE
5
237
100
AcDbEntity
8
0
100
AcDbLine
10
68.700000000000017
20
-33.600000000000001
30
0
11
66.599999999999994
21
-31.300000000000004
31
0
0
LINE
5
238
100
AcDbEntity
8
0
100
AcDbLine
10
68.700000000000017
20
-33.600000000000001
30
0
11
73.59999999999998
21
-33.600000000000001
31
0
0
LINE
5
239
100
AcDbEntity
8
0
100
AcDbLine
10
73.59999999999998
20
-25.000000000000004
30
0
11
73.59999999999998
21
-29.5
31
0
0
LINE
5
240
100
AcDbEntity
8
0
100
AcDbLine
10
73.59999999999998
20
-32.400000000000006
30
0
11
75.700000000000017
21
-32.400000000000006
31
0
0
LINE
5
241
100
AcDbEntity
8
0
100
AcDbLine
10
73.59999999999998
20
-33.600000000000001
30
0
11
73.59999999999998
21
-32.400000000000006
31
0
0
LINE
5
242
100
AcDbEntity
8
0
100
AcDbLine
10
75.700000000000017
20
-29.5
30
0
11
73.59999999999998
21
-29.5
31
0
0
LINE
5
243
100
AcDbEntity
8
0
100
AcDbLine
10
75.700000000000017
20
-32.400000000000006
30
0
11
75.700000000000017
21
-29.5
31
0
0
CIRCLE
5
244
100
AcDbEntity
8
0
100
AcDbCircle
10
65.5
20
-25.000000000000004
30
0
40
0.89999999999999991
210
0
220
0
230
1
0
CIRCLE
5
245
100
AcDbEntity
8
0
100
AcDbCircle
10
71
20
-25.000000000000004
30
0
40
2.6000000000000001
210
0
220
0
230
1
0
CIRCLE
5
246
100
AcDbEntity
8
0
100
AcDbCircle
10
76.5
20
-25.000000000000004
30
0
40
0.89999999999999991
210
0
220
0
230
1
0
LINE
5
247
100
AcDbEntity
8
0
100
AcDbLine
10
99.299999999999997
20
-53.299999999999997
30
0
11
99.299999999999997
21
-56.300000000000011
31
0
0
LINE
5
248
100
AcDbEntity
8
0
100
AcDbLine
10
99.299999999999997
20
-56.300000000000011
30
0
11
101.20000000000002
21
-56.300000000000011
31
0
0
LINE
5
249
100
AcDbEntity
8
0
100
AcDbLine
10
101.20000000000002
20
-52.300000000000004
30
0
11
101.20000000000002
21
-53.299999999999997
31
0
0
LINE
5
250
100
AcDbEntity
8
0
100
AcDbLine
10
101.20000000000002
20
-53.299999999999997
30
0
11
99.299999999999997
21
-53.299999999999997
31
0
0
LINE
5
251
100
AcDbEntity
8
0
100
AcDbLine
10
101.20000000000002
20
-56.300000000000011
30
0
11
101.20000000000002
21
-57.300000000000004
31
0
0
LINE
5
252
100
AcDbEntity
8
0
100
AcDbLine
10
101.20000000000002
20
-57.300000000000004
30
0
11
104.60000000000001
21
-57.300000000000004
31
0
0
LINE
5
253
100
AcDbEntity
8
0
100
AcDbLine
10
102.60000000000002
20
-51
30
0
11
102.60000000000002
21
-52.300000000000004
31
0
0
LINE
5
254
100
AcDbEntity
8
0
100
AcDbLine
10
102.60000000000002
20
-52.300000000000004
30
0
11
101.20000000000002
21
-52.300000000000004
31
0
0
LINE
5
255
100
AcDbEntity
8
0
100
AcDbLine
10
104.40000000000001
20
-51
30
0
11
104.40000000000001
21
-52.300000000000004
31
0
0
LINE
5
256
100
AcDbEntity
8
0
100
AcDbLine
10
104.40000000000001
20
-52.300000000000004
30
0
11
106.40000000000001
21
-52.300000000000004
31
0
0
LINE
5
257
100
AcDbEntity
8
0
100
AcDbLine
10
106.40000000000001
20
-52.300000000000004
30
0
11
106.40000000000001
21
-51
31
0
0
LINE
5
258
100
AcDbEntity
8
0
100
AcDbLine
10
106.70000000000002
20
-59.600000000000009
30
0
11
104.60000000000001
21
-57.300000000000004
31
0
0
LINE
5
259
100
AcDbEntity
8
0
100
AcDbLine
10
106.70000000000002
20
-59.600000000000009
30
0
11
111.59999999999999
21
-59.600000000000009
31
0
0
LINE
5
260
100
AcDbEntity
8
0
100
AcDbLine
10
111.59999999999999
20
-51
30
0
11
111.59999999999999
21
-55.500000000000007
31
0
0
LINE
5
261
100
AcDbEntity
8
0
100
AcDbLine
10
111.59999999999999
20
-58.399999999999999
30
0
11
113.70000000000002
21
-58.399999999999999
31
0
0
LINE
5
262
100
AcDbEntity
8
0
100
AcDbLine
10
111.59999999999999
20
-59.600000000000009
30
0
11
111.59999999999999
21
-58.399999999999999
31
0
0
LINE
5
263
100
AcDbEntity
8
0
100
AcDbLine
10
113.70000000000002
20
-55.500000000000007
30
0
11
111.59999999999999
21
-55.500000000000007
31
0
0
LINE
5
264
100
AcDbEntity
8
0
100
AcDbLine
10
113.70000000000002
20
-58.399999999999999
30
0
11
113.70000000000002
21
-55.500000000000007
31
0
0
CIRCLE
5
265
100
AcDbEntity
8
0
100
AcDbCircle
10
103.50000000000001
20
-51
30
0
40
0.89999999999999991
210
0
220
0
230
1
0
CIRCLE
5
266
100
AcDbEntity
8
0
100
AcDbCircle
10
109.00000000000003
20
-51
30
0
40
2.6000000000000001
210
0
220
0
230
1
0
CIRCLE
5
267
100
AcDbEntity
8
0
100
AcDbCircle
10
114.5
20
-51
30
0
40
0.89999999999999991
210
0
220
0
230
1
0
LINE
5
268
100
AcDbEntity
8
0
100
AcDbLine
10
7.8716279999999994
20
-83.478887999999984
30
0
11
8.8976880000000023
21
-86.297966000000002
31
0
0
LINE
5
269
100
AcDbEntity
8
0
100
AcDbLine
10
8.8976880000000023
20
-86.297966000000002
30
0
11
10.683104000000004
21
-85.648128
31
0
0
LINE
5
270
100
AcDbEntity
8
0
100
AcDbLine
10
9.3150240000000011
20
-81.889357999999987
30
0
11
9.6570440000000026
21
-82.829049999999981
31
0
0
LINE
5
271
100
AcDbEntity
8
0
100
AcDbLine
10
9.6570440000000026
20
-82.829049999999981
30
0
11
7.8716279999999994
21
-83.478887999999984
31
0
0
LINE
5
272
100
AcDbEntity
8
0
100
AcDbLine
10
10.683104000000004
20
-85.648128
30
0
11
11.025124000000003
21
-86.587820999999977
31
0
0
LINE
5
273
100
AcDbEntity
8
0
100
AcDbLine
10
11.025124000000003
20
-86.587820999999977
30
0
11
14.220079000000004
21
-85.42495199999999
31
0
0
LINE
5
274
100
AcDbEntity
8
0
100
AcDbLine
10
10.185967000000002
20
-80.188928999999987
30
0
11
10.630593000000001
21
-81.410528999999983
31
0
0
LINE
5
275
100
AcDbEntity
8
0
100
AcDbLine
10
10.630593000000001
20
-81.410528999999983
30
0
11
9.3150240000000011
21
-81.889357999999987
31
0
0
LINE
5
276
100
AcDbEntity
8
0
100
AcDbLine
10
11.877414000000003
20
-79.573292999999993
30
0
11
12.322040000000003
21
-80.794893000000002
31
0
0
LINE
5
277
100
AcDbEntity
8
0
100
AcDbLine
10
12.322040000000003
20
-80.794893000000002
30
0
11
14.201424999999999
21
-80.110852999999992
31
0
0
LINE
5
278
100
AcDbEntity
8
0
100
AcDbLine
10
14.201424999999999
20
-80.110852999999992
30
0
11
13.756799000000004
21
-78.889252000000013
31
0
0
LINE
5
279
100
AcDbEntity
8
0
100
AcDbLine
10
16.980080000000005
20
-86.868003000000002
30
0
11
14.220079000000004
21
-85.42495199999999
31
0
0
LINE
5
280
100
AcDbEntity
8
0
100
AcDbLine
10
16.980080000000005
20
-86.868003000000002
30
0
11
21.584574
21
-85.192104
31
0
0
LINE
5
281
100
AcDbEntity
8
0
100
AcDbLine
10
18.643201000000005
20
-77.110748000000001
30
0
11
20.182290999999999
21
-81.339363999999989
31
0
0
LINE
5
282
100
AcDbEntity
8
0
100
AcDbLine
10
21.174150000000004
20
-84.064472999999992
30
0
11
23.147504000000005
21
-83.346231000000003
31
0
0
LINE
5
283
100
AcDbEntity
8
0
100
AcDbLine
10
21.584574
20
-85.192104
30
0
11
21.174150000000004
21
-84.064472999999992
31
0
0
LINE
5
284
100
AcDbEntity
8
0
100
AcDbLine
10
22.155646000000004
20
-80.621122
30
0
11
20.182290999999999
21
-81.339363999999989
31
0
0
LINE
5
285
100
AcDbEntity
8
0
100
AcDbLine
10
23.147504000000005
20
-83.346231000000003
30
0
11
22.155646000000004
21
-80.621122
31
0
0
CIRCLE
5
286
100
AcDbEntity
8
0
100
AcDbCircle
10
11.031691000000004
20
-79.881110999999976
30
0
40
0.90000100000000005
210
0
220
0
230
1
0
CIRCLE
5
287
100
AcDbEntity
8
0
100
AcDbCircle
10
16.200000000000003
20
-78
30
0
40
2.6000000000000001
210
0
220
0
230
1
0
CIRCLE
5
288
100
AcDbEntity
8
0
100
AcDbCircle
10
21.368309
20
-76.118888999999982
30
0
40
0.89999999999999991
210
0
220
0
230
1
0
LINE
5
289
100
AcDbEntity
8
0
100
AcDbLine
10
80.299999999999983
20
-15.300000000000002
30
0
11
80.299999999999983
21
-18.300000000000004
31
0
0
LINE
5
290
100
AcDbEntity
8
0
100
AcDbLine
10
80.299999999999983
20
-18.300000000000004
30
0
11
82.200000000000017
21
-18.300000000000004
31
0
0
LINE
5
291
100
AcDbEntity
8
0
100
AcDbLine
10
82.200000000000017
20
-14.300000000000001
30
0
11
82.200000000000017
21
-15.300000000000002
31
0
0
LINE
5
292
100
AcDbEntity
8
0
100
AcDbLine
10
82.200000000000017
20
-15.300000000000002
30
0
11
80.299999999999983
21
-15.300000000000002
31
0
0
LINE
5
293
100
AcDbEntity
8
0
100
AcDbLine
10
82.200000000000017
20
-18.300000000000004
30
0
11
82.200000000000017
21
-19.300000000000001
31
0
0
LINE
5
294
100
AcDbEntity
8
0
100
AcDbLine
10
82.200000000000017
20
-19.300000000000001
30
0
11
85.599999999999994
21
-19.300000000000001
31
0
0
LINE
5
295
100
AcDbEntity
8
0
100
AcDbLine
10
83.599999999999994
20
-13.000000000000004
30
0
11
83.599999999999994
21
-14.300000000000001
31
0
0
LINE
5
296
100
AcDbEntity
8
0
100
AcDbLine
10
83.599999999999994
20
-14.300000000000001
30
0
11
82.200000000000017
21
-14.300000000000001
31
0
0
LINE
5
297
100
AcDbEntity
8
0
100
AcDbLine
10
85.399999999999991
20
-13.000000000000004
30
0
11
85.399999999999991
21
-14.300000000000001
31
0
0
LINE
5
298
100
AcDbEntity
8
0
100
AcDbLine
10
85.399999999999991
20
-14.300000000000001
30
0
11
87.399999999999977
21
-14.300000000000001
31
0
0
LINE
5
299
100
AcDbEntity
8
0
100
AcDbLine
10
87.399999999999977
20
-14.300000000000001
30
0
11
87.399999999999977
21
-13.000000000000004
31
0
0
LINE
5
300
100
AcDbEntity
8
0
100
AcDbLine
10
87.699999999999989
20
-21.600000000000001
30
0
11
85.599999999999994
21
-19.300000000000001
31
0
0
LINE
5
301
100
AcDbEntity
8
0
100
AcDbLine
10
87.699999999999989
20
-21.600000000000001
30
0
11
92.600000000000023
21
-21.600000000000001
31
0
0
LINE
5
302
100
AcDbEntity
8
0
100
AcDbLine
10
92.600000000000023
20
-13.000000000000004
30
0
11
92.600000000000023
21
-17.500000000000004
31
0
0
LINE
5
303
100
AcDbEntity
8
0
100
AcDbLine
10
92.600000000000023
20
-20.399999999999999
30
0
11
94.700000000000017
21
-20.399999999999999
31
0
0
LINE
5
304
100
AcDbEntity
8
0
100
AcDbLine
10
92.600000000000023
20
-21.600000000000001
30
0
11
92.600000000000023
21
-20.399999999999999
31
0
0
LINE
5
305
100
AcDbEntity
8
0
100
AcDbLine
10
94.700000000000017
20
-17.500000000000004
30
0
11
92.600000000000023
21
-17.500000000000004
31
0
0
LINE
5
306
100
AcDbEntity
8
0
100
AcDbLine
10
94.700000000000017
20
-20.399999999999999
30
0
11
94.700000000000017
21
-17.500000000000004
31
0
0
CIRCLE
5
307
100
AcDbEntity
8
0
100
AcDbCircle
10
84.5
20
-13.000000000000004
30
0
40
0.89999999999999991
210
0
220
0
230
1
0
CIRCLE
5
308
100
AcDbEntity
8
0
100
AcDbCircle
10
90
20
-13.000000000000004
30
0
40
2.6000000000000001
210
0
220
0
230
1
0
CIRCLE
5
309
100
AcDbEntity
8
0
100
AcDbCircle
10
95.5
20
-13.000000000000004
30
0
40
0.89999999999999991
210
0
220
0
230
1
0
LINE
5
310
100
AcDbEntity
8
0
100
AcDbLine
10
80.299999999999983
20
-47.300000000000004
30
0
11
80.299999999999983
21
-50.299999999999997
31
0
0
LINE
5
311
100
AcDbEntity
8
0
100
AcDbLine
10
80.299999999999983
20
-50.299999999999997
30
0
11
82.200000000000017
21
-50.299999999999997
31
0
0
LINE
5
312
100
AcDbEntity
8
0
100
AcDbLine
10
82.200000000000017
20
-46.300000000000011
30
0
11
82.200000000000017
21
-47.300000000000004
31
0
0
LINE
5
313
100
AcDbEntity
8
0
100
AcDbLine
10
82.200000000000017
20
-47.300000000000004
30
0
11
80.299999999999983
21
-47.300000000000004
31
0
0
LINE
5
314
100
AcDbEntity
8
0
100
AcDbLine
10
82.200000000000017
20
-50.299999999999997
30
0
11
82.200000000000017
21
-51.300000000000011
31
0
0
LINE
5
315
100
AcDbEntity
8
0
100
AcDbLine
10
82.200000000000017
20
-51.300000000000011
30
0
11
85.599999999999994
21
-51.300000000000011
31
0
0
LINE
5
316
100
AcDbEntity
8
0
100
AcDbLine
10
83.599999999999994
20
-45
30
0
11
83.599999999999994
21
-46.300000000000011
31
0
0
LINE
5
317
100
AcDbEntity
8
0
100
AcDbLine
10
83.599999999999994
20
-46.300000000000011
30
0
11
82.200000000000017
21
-46.300000000000011
31
0
0
LINE
5
318
100
AcDbEntity
8
0
100
AcDbLine
10
85.399999999999991
20
-45
30
0
11
85.399999999999991
21
-46.300000000000011
31
0
0
LINE
5
319
100
AcDbEntity
8
0
100
AcDbLine
10
85.399999999999991
20
-46.300000000000011
30
0
11
87.399999999999977
21
-46.300000000000011
31
0
0
LINE
5
320
100
AcDbEntity
8
0
100
AcDbLine
10
87.399999999999977
20
-46.300000000000011
30
0
11
87.399999999999977
21
-45
31
0
0
LINE
5
321
100
AcDbEntity
8
0
100
AcDbLine
10
87.699999999999989
20
-53.600000000000009
30
0
11
85.599999999999994
21
-51.300000000000011
31
0
0
LINE
5
322
100
AcDbEntity
8
0
100
AcDbLine
10
87.699999999999989
20
-53.600000000000009
30
0
11
92.600000000000023
21
-53.600000000000009
31
0
0
LINE
5
323
100
AcDbEntity
8
0
100
AcDbLine
10
92.600000000000023
20
-45
30
0
11
92.600000000000023
21
-49.500000000000014
31
0
0
LINE
5
324
100
AcDbEntity
8
0
100
AcDbLine
10
92.600000000000023
20
-52.400000000000006
30
0
11
94.700000000000017
21
-52.400000000000006
31
0
0
LINE
5
325
100
AcDbEntity
8
0
100
AcDbLine
10
92.600000000000023
20
-53.600000000000009
30
0
11
92.600000000000023
21
-52.400000000000006
31
0
0
LINE
5
326
100
AcDbEntity
8
0
100
AcDbLine
10
94.700000000000017
20
-49.500000000000014
30
0
11
92.600000000000023
21
-49.500000000000014
31
0
0
LINE
5
327
100
AcDbEntity
8
0
100
AcDbLine
10
94.700000000000017
20
-52.400000000000006
30
0
11
94.700000000000017
21
-49.500000000000014
31
0
0
CIRCLE
5
328
100
AcDbEntity
8
0
100
AcDbCircle
10
84.5
20
-45
30
0
40
0.89999999999999991
210
0
220
0
230
1
0
CIRCLE
5
329
100
AcDbEntity
8
0
100
AcDbCircle
10
90
20
-45
30
0
40
2.6000000000000001
210
0
220
0
230
1
0
CIRCLE
5
330
100
AcDbEntity
8
0
100
AcDbCircle
10
95.5
20
-45
30
0
40
0.89999999999999991
210
0
220
0
230
1
0
LINE
5
331
100
AcDbEntity
8
0
100
AcDbLine
10
46.299999999999997
20
-73.299999999999983
30
0
11
46.299999999999997
21
-76.299999999999983
31
0
0
LINE
5
332
100
AcDbEntity
8
0
100
AcDbLine
10
46.299999999999997
20
-76.299999999999983
30
0
11
48.20000000000001
21
-76.299999999999983
31
0
0
LINE
5
333
100
AcDbEntity
8
0
100
AcDbLine
10
48.20000000000001
20
-72.300000000000011
30
0
11
48.20000000000001
21
-73.299999999999983
31
0
0
LINE
5
334
100
AcDbEntity
8
0
100
AcDbLine
10
48.20000000000001
20
-73.299999999999983
30
0
11
46.299999999999997
21
-73.299999999999983
31
0
0
LINE
5
335
100
AcDbEntity
8
0
100
AcDbLine
10
48.20000000000001
20
-76.299999999999983
30
0
11
48.20000000000001
21
-77.299999999999983
31
0
0
LINE
5
336
100
AcDbEntity
8
0
100
AcDbLine
10
48.20000000000001
20
-77.299999999999983
30
0
11
51.600000000000009
21
-77.299999999999983
31
0
0
LINE
5
337
100
AcDbEntity
8
0
100
AcDbLine
10
49.600000000000009
20
-71
30
0
11
49.600000000000009
21
-72.300000000000011
31
0
0
LINE
5
338
100
AcDbEntity
8
0
100
AcDbLine
10
49.600000000000009
20
-72.300000000000011
30
0
11
48.20000000000001
21
-72.300000000000011
31
0
0
LINE
5
339
100
AcDbEntity
8
0
100
AcDbLine
10
51.400000000000006
20
-71
30
0
11
51.400000000000006
21
-72.300000000000011
31
0
0
LINE
5
340
100
AcDbEntity
8
0
100
AcDbLine
10
51.400000000000006
20
-72.300000000000011
30
0
11
53.400000000000006
21
-72.300000000000011
31
0
0
LINE
5
341
100
AcDbEntity
8
0
100
AcDbLine
10
53.400000000000006
20
-72.300000000000011
30
0
11
53.400000000000006
21
-71
31
0
0
LINE
5
342
100
AcDbEntity
8
0
100
AcDbLine
10
53.70000000000001
20
-79.599999999999994
30
0
11
51.600000000000009
21
-77.299999999999983
31
0
0
LINE
5
343
100
AcDbEntity
8
0
100
AcDbLine
10
53.70000000000001
20
-79.599999999999994
30
0
11
58.600000000000001
21
-79.599999999999994
31
0
0
LINE
5
344
100
AcDbEntity
8
0
100
AcDbLine
10
58.600000000000001
20
-71
30
0
11
58.600000000000001
21
-75.5
31
0
0
LINE
5
345
100
AcDbEntity
8
0
100
AcDbLine
10
58.600000000000001
20
-78.400000000000006
30
0
11
60.70000000000001
21
-78.400000000000006
31
0
0
LINE
5
346
100
AcDbEntity
8
0
100
AcDbLine
10
58.600000000000001
20
-79.599999999999994
30
0
11
58.600000000000001
21
-78.400000000000006
31
0
0
LINE
5
347
100
AcDbEntity
8
0
100
AcDbLine
10
60.70000000000001
20
-75.5
30
0
11
58.600000000000001
21
-75.5
31
0
0
LINE
5
348
100
AcDbEntity
8
0
100
AcDbLine
10
60.70000000000001
20
-78.400000000000006
30
0
11
60.70000000000001
21
-75.5
31
0
0
CIRCLE
5
349
100
AcDbEntity
8
0
100
AcDbCircle
10
50.500000000000007
20
-71
30
0
40
0.89999999999999991
210
0
220
0
230
1
0
CIRCLE
5
350
100
AcDbEntity
8
0
100
AcDbCircle
10
56.000000000000007
20
-71
30
0
40
2.6000000000000001
210
0
220
0
230
1
0
CIRCLE
5
351
100
AcDbEntity
8
0
100
AcDbCircle
10
61.5
20
-71
30
0
40
0.89999999999999991
210
0
220
0
230
1
0
LINE
5
352
100
AcDbEntity
8
0
100
AcDbLine
10
80.299999999999983
20
-31.300000000000004
30
0
11
80.299999999999983
21
-34.300000000000004
31
0
0
LINE
5
353
100
AcDbEntity
8
0
100
AcDbLine
10
80.299999999999983
20
-34.300000000000004
30
0
11
82.200000000000017
21
-34.300000000000004
31
0
0
LINE
5
354
100
AcDbEntity
8
0
100
AcDbLine
10
82.200000000000017
20
-30.300000000000004
30
0
11
82.200000000000017
21
-31.300000000000004
31
0
0
LINE
5
355
100
AcDbEntity
8
0
100
AcDbLine
10
82.200000000000017
20
-31.300000000000004
30
0
11
80.299999999999983
21
-31.300000000000004
31
0
0
LINE
5
356
100
AcDbEntity
8
0
100
AcDbLine
10
82.200000000000017
20
-34.300000000000004
30
0
11
82.200000000000017
21
-35.299999999999997
31
0
0
LINE
5
357
100
AcDbEntity
8
0
100
AcDbLine
10
82.200000000000017
20
-35.299999999999997
30
0
11
85.599999999999994
21
-35.299999999999997
31
0
0
LINE
5
358
100
AcDbEntity
8
0
100
AcDbLine
10
83.599999999999994
20
-29.000000000000004
30
0
11
83.599999999999994
21
-30.300000000000004
31
0
0
LINE
5
359
100
AcDbEntity
8
0
100
AcDbLine
10
83.599999999999994
20
-30.300000000000004
30
0
11
82.200000000000017
21
-30.300000000000004
31
0
0
LINE
5
360
100
AcDbEntity
8
0
100
AcDbLine
10
85.399999999999991
20
-29.000000000000004
30
0
11
85.399999999999991
21
-30.300000000000004
31
0
0
LINE
5
361
100
AcDbEntity
8
0
100
AcDbLine
10
85.399999999999991
20
-30.300000000000004
30
0
11
87.399999999999977
21
-30.300000000000004
31
0
0
LINE
5
362
100
AcDbEntity
8
0
100
AcDbLine
10
87.399999999999977
20
-30.300000000000004
30
0
11
87.399999999999977
21
-29.000000000000004
31
0
0
LINE
5
363
100
AcDbEntity
8
0
100
AcDbLine
10
87.699999999999989
20
-37.600000000000001
30
0
11
85.599999999999994
21
-35.299999999999997
31
0
0
LINE
5
364
100
AcDbEntity
8
0
100
AcDbLine
10
87.699999999999989
20
-37.600000000000001
30
0
11
92.600000000000023
21
-37.600000000000001
31
0
0
LINE
5
365
100
AcDbEntity
8
0
100
AcDbLine
10
92.600000000000023
20
-29.000000000000004
30
0
11
92.600000000000023
21
-33.5
31
0
0
LINE
5
366
100
AcDbEntity
8
0
100
AcDbLine
10
92.600000000000023
20
-36.399999999999999
30
0
11
94.700000000000017
21
-36.399999999999999
31
0
0
LINE
5
367
100
AcDbEntity
8
0
100
AcDbLine
10
92.600000000000023
20
-37.600000000000001
30
0
11
92.600000000000023
21
-36.399999999999999
31
0
0
LINE
5
368
100
AcDbEntity
8
0
100
AcDbLine
10
94.700000000000017
20
-33.5
30
0
11
92.600000000000023
21
-33.5
31
0
0
LINE
5
369
100
AcDbEntity
8
0
100
AcDbLine
10
94.700000000000017
20
-36.399999999999999
30
0
11
94.700000000000017
21
-33.5
31
0
0
CIRCLE
5
370
100
AcDbEntity
8
0
100
AcDbCircle
10
84.5
20
-29.000000000000004
30
0
40
0.89999999999999991
210
0
220
0
230
1
0
CIRCLE
5
371
100
AcDbEntity
8
0
100
AcDbCircle
10
90
20
-29.000000000000004
30
0
40
2.6000000000000001
210
0
220
0
230
1
0
CIRCLE
5
372
100
AcDbEntity
8
0
100
AcDbCircle
10
95.5
20
-29.000000000000004
30
0
40
0.89999999999999991
210
0
220
0
230
1
0
LINE
5
373
100
AcDbEntity
8
0
100
AcDbLine
10
26.646756000000003
20
-76.74944499999998
30
0
11
27.167700000000004
21
-79.703868
31
0
0
LINE
5
374
100
AcDbEntity
8
0
100
AcDbLine
10
27.167700000000004
20
-79.703868
30
0
11
29.038834999999999
21
-79.373936999999998
31
0
0
LINE
5
375
100
AcDbEntity
8
0
100
AcDbLine
10
28.344242000000005
20
-75.434705999999991
30
0
11
28.517890000000005
21
-76.419513999999992
31
0
0
LINE
5
376
100
AcDbEntity
8
0
100
AcDbLine
10
28.517890000000005
20
-76.419513999999992
30
0
11
26.646756000000003
21
-76.74944499999998
31
0
0
LINE
5
377
100
AcDbEntity
8
0
100
AcDbLine
10
29.038834999999999
20
-79.373936999999998
30
0
11
29.212483000000002
21
-80.358744999999999
31
0
0
LINE
5
378
100
AcDbEntity
8
0
100
AcDbLine
10
29.212483000000002
20
-80.358744999999999
30
0
11
32.560828999999998
21
-79.768340999999992
31
0
0
LINE
5
379
100
AcDbEntity
8
0
100
AcDbLine
10
29.497230000000002
20
-73.911348000000018
30
0
11
29.722973000000003
21
-75.191597999999999
31
0
0
LINE
5
380
100
AcDbEntity
8
0
100
AcDbLine
10
29.722973000000003
20
-75.191597999999999
30
0
11
28.344242000000005
21
-75.434705999999991
31
0
0
LINE
5
381
100
AcDbEntity
8
0
100
AcDbLine
10
31.269884000000005
20
-73.598782
30
0
11
31.495627000000002
21
-74.879031999999981
31
0
0
LINE
5
382
100
AcDbEntity
8
0
100
AcDbLine
10
31.495627000000002
20
-74.879031999999981
30
0
11
33.465242000000003
21
-74.531734999999983
31
0
0
LINE
5
383
100
AcDbEntity
8
0
100
AcDbLine
10
33.465242000000003
20
-74.531734999999983
30
0
11
33.239500000000007
21
-73.251485000000002
31
0
0
LINE
5
384
100
AcDbEntity
8
0
100
AcDbLine
10
35.028315999999997
20
-81.668736999999979
30
0
11
32.560828999999998
21
-79.768340999999992
31
0
0
LINE
5
385
100
AcDbEntity
8
0
100
AcDbLine
10
35.028315999999997
20
-81.668736999999979
30
0
11
39.853874000000005
21
-80.817861000000008
31
0
0
LINE
5
386
100
AcDbEntity
8
0
100
AcDbLine
10
38.360500000000009
20
-72.348514999999992
30
0
11
39.141917000000007
21
-76.780150000000006
31
0
0
LINE
5
387
100
AcDbEntity
8
0
100
AcDbLine
10
39.645496999999999
20
-79.636091999999991
30
0
11
41.713593000000003
21
-79.271431000000007
31
0
0
LINE
5
388
100
AcDbEntity
8
0
100
AcDbLine
10
39.853874000000005
20
-80.817861000000008
30
0
11
39.645496999999999
21
-79.636091999999991
31
0
0
LINE
5
389
100
AcDbEntity
8
0
100
AcDbLine
10
41.210012999999996
20
-76.415487999999982
30
0
11
39.141917000000007
21
-76.780150000000006
31
0
0
LINE
5
390
100
AcDbEntity
8
0
100
AcDbLine
10
41.713593000000003
20
-79.271431000000007
30
0
11
41.210012999999996
21
-76.415487999999982
31
0
0
CIRCLE
5
391
100
AcDbEntity
8
0
100
AcDbCircle
10
30.383557000000003
20
-73.755065000000002
30
0
40
0.89999999999999991
210
0
220
0
230
1
0
CIRCLE
5
392
100
AcDbEntity
8
0
100
AcDbCircle
10
35.799999999999997
20
-72.799999999999997
30
0
40
2.6000000000000001
210
0
220
0
230
1
0
CIRCLE
5
393
100
AcDbEntity
8
0
100
AcDbCircle
10
41.216442999999998
20
-71.844935000000007
30
0
40
0.89999999999999991
210
0
220
0
230
1
0
LINE
5
394
100
AcDbEntity
8
0
100
AcDbLine
10
23.300000000000004
20
-35.299999999999997
30
0
11
23.300000000000004
21
-38.299999999999997
31
0
0
LINE
5
395
100
AcDbEntity
8
0
100
AcDbLine
10
23.300000000000004
20
-38.299999999999997
30
0
11
25.200000000000003
21
-38.299999999999997
31
0
0
LINE
5
396
100
AcDbEntity
8
0
100
AcDbLine
10
25.200000000000003
20
-34.300000000000004
30
0
11
25.200000000000003
21
-35.299999999999997
31
0
0
LINE
5
397
100
AcDbEntity
8
0
100
AcDbLine
10
25.200000000000003
20
-35.299999999999997
30
0
11
23.300000000000004
21
-35.299999999999997
31
0
0
LINE
5
398
100
AcDbEntity
8
0
100
AcDbLine
10
25.200000000000003
20
-38.299999999999997
30
0
11
25.200000000000003
21
-39.300000000000004
31
0
0
LINE
5
399
100
AcDbEntity
8
0
100
AcDbLine
10
25.200000000000003
20
-39.300000000000004
30
0
11
28.600000000000001
21
-39.300000000000004
31
0
0
LINE
5
400
100
AcDbEntity
8
0
100
AcDbLine
10
26.600000000000005
20
-33
30
0
11
26.600000000000005
21
-34.300000000000004
31
0
0
LINE
5
401
100
AcDbEntity
8
0
100
AcDbLine
10
26.600000000000005
20
-34.300000000000004
30
0
11
25.200000000000003
21
-34.300000000000004
31
0
0
LINE
5
402
100
AcDbEntity
8
0
100
AcDbLine
10
28.400000000000002
20
-33
30
0
11
28.400000000000002
21
-34.300000000000004
31
0
0
LINE
5
403
100
AcDbEntity
8
0
100
AcDbLine
10
28.400000000000002
20
-34.300000000000004
30
0
11
30.399999999999999
21
-34.300000000000004
31
0
0
LINE
5
404
100
AcDbEntity
8
0
100
AcDbLine
10
30.399999999999999
20
-34.300000000000004
30
0
11
30.399999999999999
21
-33
31
0
0
LINE
5
405
100
AcDbEntity
8
0
100
AcDbLine
10
30.700000000000003
20
-41.600000000000001
30
0
11
28.600000000000001
21
-39.300000000000004
31
0
0
LINE
5
406
100
AcDbEntity
8
0
100
AcDbLine
10
30.700000000000003
20
-41.600000000000001
30
0
11
35.600000000000009
21
-41.600000000000001
31
0
0
LINE
5
407
100
AcDbEntity
8
0
100
AcDbLine
10
35.600000000000009
20
-33
30
0
11
35.600000000000009
21
-37.500000000000007
31
0
0
LINE
5
408
100
AcDbEntity
8
0
100
AcDbLine
10
35.600000000000009
20
-40.399999999999991
30
0
11
37.700000000000003
21
-40.399999999999991
31
0
0
LINE
5
409
100
AcDbEntity
8
0
100
AcDbLine
10
35.600000000000009
20
-41.600000000000001
30
0
11
35.600000000000009
21
-40.399999999999991
31
0
0
LINE
5
410
100
AcDbEntity
8
0
100
AcDbLine
10
37.700000000000003
20
-37.500000000000007
30
0
11
35.600000000000009
21
-37.500000000000007
31
0
0
LINE
5
411
100
AcDbEntity
8
0
100
AcDbLine
10
37.700000000000003
20
-40.399999999999991
30
0
11
37.700000000000003
21
-37.500000000000007
31
0
0
CIRCLE
5
412
100
AcDbEntity
8
0
100
AcDbCircle
10
27.500000000000004
20
-33
30
0
40
0.89999999999999991
210
0
220
0
230
1
0
CIRCLE
5
413
100
AcDbEntity
8
0
100
AcDbCircle
10
33
20
-33
30
0
40
2.6000000000000001
210
0
220
0
230
1
0
CIRCLE
5
414
100
AcDbEntity
8
0
100
AcDbCircle
10
38.500000000000007
20
-33
30
0
40
0.89999999999999991
210
0
220
0
230
1
0
LINE
5
415
100
AcDbEntity
8
0
100
AcDbLine
10
61.299999999999997
20
-11.300000000000001
30
0
11
61.299999999999997
21
-14.300000000000001
31
0
0
LINE
5
416
100
AcDbEntity
8
0
100
AcDbLine
10
61.299999999999997
20
-14.300000000000001
30
0
11
63.20000000000001
21
-14.300000000000001
31
0
0
LINE
5
417
100
AcDbEntity
8
0
100
AcDbLine
10
63.20000000000001
20
-10.300000000000002
30
0
11
63.20000000000001
21
-11.300000000000001
31
0
0
LINE
5
418
100
AcDbEntity
8
0
100
AcDbLine
10
63.20000000000001
20
-11.300000000000001
30
0
11
61.299999999999997
21
-11.300000000000001
31
0
0
LINE
5
419
100
AcDbEntity
8
0
100
AcDbLine
10
63.20000000000001
20
-14.300000000000001
30
0
11
63.20000000000001
21
-15.300000000000002
31
0
0
LINE
5
420
100
AcDbEntity
8
0
100
AcDbLine
10
63.20000000000001
20
-15.300000000000002
30
0
11
66.599999999999994
21
-15.300000000000002
31
0
0
LINE
5
421
100
AcDbEntity
8
0
100
AcDbLine
10
64.599999999999994
20
-9.0000000000000018
30
0
11
64.599999999999994
21
-10.300000000000002
31
0
0
LINE
5
422
100
AcDbEntity
8
0
100
AcDbLine
10
64.599999999999994
20
-10.300000000000002
30
0
11
63.20000000000001
21
-10.300000000000002
31
0
0
LINE
5
423
100
AcDbEntity
8
0
100
AcDbLine
10
66.399999999999991
20
-9.0000000000000018
30
0
11
66.399999999999991
21
-10.300000000000002
31
0
0
LINE
5
424
100
AcDbEntity
8
0
100
AcDbLine
10
66.399999999999991
20
-10.300000000000002
30
0
11
68.400000000000006
21
-10.300000000000002
31
0
0
LINE
5
425
100
AcDbEntity
8
0
100
AcDbLine
10
68.400000000000006
20
-10.300000000000002
30
0
11
68.400000000000006
21
-9.0000000000000018
31
0
0
LINE
5
426
100
AcDbEntity
8
0
100
AcDbLine
10
68.700000000000017
20
-17.600000000000001
30
0
11
66.599999999999994
21
-15.300000000000002
31
0
0
LINE
5
427
100
AcDbEntity
8
0
100
AcDbLine
10
68.700000000000017
20
-17.600000000000001
30
0
11
73.59999999999998
21
-17.600000000000001
31
0
0
LINE
5
428
100
AcDbEntity
8
0
100
AcDbLine
10
73.59999999999998
20
-9.0000000000000018
30
0
11
73.59999999999998
21
-13.5
31
0
0
LINE
5
429
100
AcDbEntity
8
0
100
AcDbLine
10
73.59999999999998
20
-16.399999999999999
30
0
11
75.700000000000017
21
-16.399999999999999
31
0
0
LINE
5
430
100
AcDbEntity
8
0
100
AcDbLine
10
73.59999999999998
20
-17.600000000000001
30
0
11
73.59999999999998
21
-16.399999999999999
31
0
0
LINE
5
431
100
AcDbEntity
8
0
100
AcDbLine
10
75.700000000000017
20
-13.5
30
0
11
73.59999999999998
21
-13.5
31
0
0
LINE
5
432
100
AcDbEntity
8
0
100
AcDbLine
10
75.700000000000017
20
-16.399999999999999
30
0
11
75.700000000000017
21
-13.5
31
0
0
CIRCLE
5
433
100
AcDbEntity
8
0
100
AcDbCircle
10
65.5
20
-9.0000000000000018
30
0
40
0.89999999999999991
210
0
220
0
230
1
0
CIRCLE
5
434
100
AcDbEntity
8
0
100
AcDbCircle
10
71
20
-9.0000000000000018
30
0
40
2.6000000000000001
210
0
220
0
230
1
0
CIRCLE
5
435
100
AcDbEntity
8
0
100
AcDbCircle
10
76.5
20
-9.0000000000000018
30
0
40
0.89999999999999991
210
0
220
0
230
1
0
LINE
5
436
100
AcDbEntity
8
0
100
AcDbLine
10
23.300000000000004
20
-51.300000000000011
30
0
11
23.300000000000004
21
-54.299999999999997
31
0
0
LINE
5
437
100
AcDbEntity
8
0
100
AcDbLine
10
23.300000000000004
20
-54.299999999999997
30
0
11
25.200000000000003
21
-54.299999999999997
31
0
0
LINE
5
438
100
AcDbEntity
8
0
100
AcDbLine
10
25.200000000000003
20
-50.299999999999997
30
0
11
25.200000000000003
21
-51.300000000000011
31
0
0
LINE
5
439
100
AcDbEntity
8
0
100
AcDbLine
10
25.200000000000003
20
-51.300000000000011
30
0
11
23.300000000000004
21
-51.300000000000011
31
0
0
LINE
5
440
100
AcDbEntity
8
0
100
AcDbLine
10
25.200000000000003
20
-54.299999999999997
30
0
11
25.200000000000003
21
-55.299999999999997
31
0
0
LINE
5
441
100
AcDbEntity
8
0
100
AcDbLine
10
25.200000000000003
20
-55.299999999999997
30
0
11
28.600000000000001
21
-55.299999999999997
31
0
0
LINE
5
442
100
AcDbEntity
8
0
100
AcDbLine
10
26.600000000000005
20
-49
30
0
11
26.600000000000005
21
-50.299999999999997
31
0
0
LINE
5
443
100
AcDbEntity
8
0
100
AcDbLine
10
26.600000000000005
20
-50.299999999999997
30
0
11
25.200000000000003
21
-50.299999999999997
31
0
0
LINE
5
444
100
AcDbEntity
8
0
100
AcDbLine
10
28.400000000000002
20
-49
30
0
11
28.400000000000002
21
-50.299999999999997
31
0
0
LINE
5
445
100
AcDbEntity
8
0
100
AcDbLine
10
28.400000000000002
20
-50.299999999999997
30
0
11
30.399999999999999
21
-50.299999999999997
31
0
0
LINE
5
446
100
AcDbEntity
8
0
100
AcDbLine
10
30.399999999999999
20
-50.299999999999997
30
0
11
30.399999999999999
21
-49
31
0
0
LINE
5
447
100
AcDbEntity
8
0
100
AcDbLine
10
30.700000000000003
20
-57.599999999999994
30
0
11
28.600000000000001
21
-55.299999999999997
31
0
0
LINE
5
448
100
AcDbEntity
8
0
100
AcDbLine
10
30.700000000000003
20
-57.599999999999994
30
0
11
35.600000000000009
21
-57.599999999999994
31
0
0
LINE
5
449
100
AcDbEntity
8
0
100
AcDbLine
10
35.600000000000009
20
-49
30
0
11
35.600000000000009
21
-53.5
31
0
0
LINE
5
450
100
AcDbEntity
8
0
100
AcDbLine
10
35.600000000000009
20
-56.400000000000006
30
0
11
37.700000000000003
21
-56.400000000000006
31
0
0
LINE
5
451
100
AcDbEntity
8
0
100
AcDbLine
10
35.600000000000009
20
-57.599999999999994
30
0
11
35.600000000000009
21
-56.400000000000006
31
0
0
LINE
5
452
100
AcDbEntity
8
0
100
AcDbLine
10
37.700000000000003
20
-53.5
30
0
11
35.600000000000009
21
-53.5
31
0
0
LINE
5
453
100
AcDbEntity
8
0
100
AcDbLine
10
37.700000000000003
20
-56.400000000000006
30
0
11
37.700000000000003
21
-53.5
31
0
0
CIRCLE
5
454
100
AcDbEntity
8
0
100
AcDbCircle
10
27.500000000000004
20
-49
30
0
40
0.89999999999999991
210
0
220
0
230
1
0
CIRCLE
5
455
100
AcDbEntity
8
0
100
AcDbCircle
10
33
20
-49
30
0
40
2.6000000000000001
210
0
220
0
230
1
0
CIRCLE
5
456
100
AcDbEntity
8
0
100
AcDbCircle
10
38.500000000000007
20
-49
30
0
40
0.89999999999999991
210
0
220
0
230
1
0
LINE
5
457
100
AcDbEntity
8
0
100
AcDbLine
10
118.30000000000001
20
-37.299999999999997
30
0
11
118.30000000000001
21
-40.299999999999997
31
0
0
LINE
5
458
100
AcDbEntity
8
0
100
AcDbLine
10
118.30000000000001
20
-40.299999999999997
30
0
11
120.19999999999999
21
-40.299999999999997
31
0
0
LINE
5
459
100
AcDbEntity
8
0
100
AcDbLine
10
120.19999999999999
20
-36.299999999999997
30
0
11
120.19999999999999
21
-37.299999999999997
31
0
0
LINE
5
460
100
AcDbEntity
8
0
100
AcDbLine
10
120.19999999999999
20
-37.299999999999997
30
0
11
118.30000000000001
21
-37.299999999999997
31
0
0
LINE
5
461
100
AcDbEntity
8
0
100
AcDbLine
10
120.19999999999999
20
-40.299999999999997
30
0
11
120.19999999999999
21
-41.300000000000011
31
0
0
LINE
5
462
100
AcDbEntity
8
0
100
AcDbLine
10
120.19999999999999
20
-41.300000000000011
30
0
11
123.59999999999999
21
-41.300000000000011
31
0
0
LINE
5
463
100
AcDbEntity
8
0
100
AcDbLine
10
121.59999999999999
20
-35.000000000000007
30
0
11
121.59999999999999
21
-36.299999999999997
31
0
0
LINE
5
464
100
AcDbEntity
8
0
100
AcDbLine
10
121.59999999999999
20
-36.299999999999997
30
0
11
120.19999999999999
21
-36.299999999999997
31
0
0
LINE
5
465
100
AcDbEntity
8
0
100
AcDbLine
10
123.40000000000001
20
-35.000000000000007
30
0
11
123.40000000000001
21
-36.299999999999997
31
0
0
LINE
5
466
100
AcDbEntity
8
0
100
AcDbLine
10
123.40000000000001
20
-36.299999999999997
30
0
11
125.40000000000003
21
-36.299999999999997
31
0
0
LINE
5
467
100
AcDbEntity
8
0
100
AcDbLine
10
125.40000000000003
20
-36.299999999999997
30
0
11
125.40000000000003
21
-35.000000000000007
31
0
0
LINE
5
468
100
AcDbEntity
8
0
100
AcDbLine
10
125.7
20
-43.600000000000009
30
0
11
123.59999999999999
21
-41.300000000000011
31
0
0
LINE
5
469
100
AcDbEntity
8
0
100
AcDbLine
10
125.7
20
-43.600000000000009
30
0
11
130.59999999999999
21
-43.600000000000009
31
0
0
LINE
5
470
100
AcDbEntity
8
0
100
AcDbLine
10
130.59999999999999
20
-35.000000000000007
30
0
11
130.59999999999999
21
-39.5
31
0
0
LINE
5
471
100
AcDbEntity
8
0
100
AcDbLine
10
130.59999999999999
20
-42.400000000000006
30
0
11
132.69999999999999
21
-42.400000000000006
31
0
0
LINE
5
472
100
AcDbEntity
8
0
100
AcDbLine
10
130.59999999999999
20
-43.600000000000009
30
0
11
130.59999999999999
21
-42.400000000000006
31
0
0
LINE
5
473
100
AcDbEntity
8
0
100
AcDbLine
10
132.69999999999999
20
-39.5
30
0
11
130.59999999999999
21
-39.5
31
0
0
LINE
5
474
100
AcDbEntity
8
0
100
AcDbLine
10
132.69999999999999
20
-42.400000000000006
30
0
11
132.69999999999999
21
-39.5
31
0
0
CIRCLE
5
475
100
AcDbEntity
8
0
100
AcDbCircle
10
122.5
20
-35.000000000000007
30
0
40
0.89999999999999991
210
0
220
0
230
1
0
CIRCLE
5
476
100
AcDbEntity
8
0
100
AcDbCircle
10
128
20
-35.000000000000007
30
0
40
2.6000000000000001
210
0
220
0
230
1
0
CIRCLE
5
477
100
AcDbEntity
8
0
100
AcDbCircle
10
133.5
20
-35.000000000000007
30
0
40
0.89999999999999991
210
0
220
0
230
1
0
ENDSEC
0
SECTION
2
OBJECTS
0
DICTIONARY
5
C
100
AcDbDictionary
3
ACAD_GROUP
350
D
3
ACAD_MLINESTYLE
350
17
0
DICTIONARY
5
D
100
AcDbDictionary
0
DICTIONARY
5
1A
330
C
100
AcDbDictionary
0
DICTIONARY
5
17
100
AcDbDictionary
0
ENDSEC
0
EOF
