0
SECTION
2
HEADER
9
$INSUNITS
70
4
9
$ACADVER
1
AC1014
9
$HANDSEED
5
FFFF
0
ENDSEC
0
SECTION
2
TABLES
0
TABLE
2
VPORT
5
8
100
AcDbSymbolTable
0
ENDTAB
0
TABLE
2
LTYPE
5
5
100
AcDbSymbolTable
0
LTYPE
5
14
100
AcDbSymbolTableRecord
100
AcDbLinetypeTableRecord
2
BYBLOCK
70
0
0
LTYPE
5
15
100
AcDbSymbolTableRecord
100
AcDbLinetypeTableRecord
2
BYLAYER
70
0
0
LTYPE
5
16
100
AcDbSymbolTableRecord
100
AcDbLinetypeTableRecord
2
DASHED
70
0
3
Dashed __ __ __ __ __ __ __ __ __ __ __ __ __ _
72
65
73
2
40
0.75
49
0.5
74
0
49
-0.25
74
0
0
ENDTAB
0
TABLE
2
LAYER
5
2
100
AcDbSymbolTable
70
2
0
LAYER
5
50
100
AcDbSymbolTableRecord
100
AcDbLayerTableRecord
2
0
70
0
62
7
6
CONTINUOUS
0
ENDTAB
0
TABLE
2
STYLE
5
3
100
AcDbSymbolTable
70
1
0
STYLE
5
11
100
AcDbSymbolTableRecord
100
AcDbTextStyleTableRecord
2
STANDARD
70
0
0
ENDTAB
0
TABLE
2
VIEW
5
6
100
AcDbSymbolTable
70
0
0
ENDTAB
0
TABLE
2
UCS
5
7
100
AcDbSymbolTable
70
0
0
ENDTAB
0
TABLE
2
APPID
5
9
100
AcDbSymbolTable
70
2
0
APPID
5
12
100
AcDbSymbolTableRecord
100
AcDbRegAppTableRecord
2
ACAD
70
0
0
ENDTAB
0
TABLE
2
DIMSTYLE
5
A
100
AcDbSymbolTable
70
1
0
ENDTAB
0
TABLE
2
BLOCK_RECORD
5
1
100
AcDbSymbolTable
70
1
0
BLOCK_RECORD
5
1F
100
AcDbSymbolTableRecord
100
AcDbBlockTableRecord
2
*MODEL_SPACE
0
BLOCK_RECORD
5
1B
100
AcDbSymbolTableRecord
100
AcDbBlockTableRecord
2
*PAPER_SPACE
0
ENDTAB
0
ENDSEC
0
SECTION
2
BLOCKS
0
BLOCK
5
20
100
AcDbEntity
100
AcDbBlockBegin
2
*MODEL_SPACE
0
ENDBLK
5
21
100
AcDbEntity
100
AcDbBlockEnd
0
BLOCK
5
1C
100
AcDbEntity
100
AcDbBlockBegin
2
*PAPER_SPACE
0
ENDBLK
5
1D
100
AcDbEntity
100
AcDbBlockEnd
0
ENDSEC
0
SECTION
2
ENTITIES
0
LINE
5
100
100
AcDbEntity
8
0
100
AcDbLine
10
-45.236308999999999
20
-74.487031999999999
30
0
11
-45.722524
21
-77.244494000000003
31
0
0
LINE
5
101
100
AcDbEntity
8
0
100
AcDbLine
10
-45.722524
20
-77.244494000000003
30
0
11
-43.851388999999998
21
-77.574424999999991
31
0
0
LINE
5
102
100
AcDbEntity
8
0
100
AcDbLine
10
-43.208890999999994
20
-73.93063699999999
30
0
11
-43.365173999999996
21
-74.816964000000013
31
0
0
LINE
5
103
100
AcDbEntity
8
0
100
AcDbLine
10
-43.365173999999996
20
-74.816964000000013
30
0
11
-45.236308999999999
21
-74.487031999999999
31
0
0
LINE
5
104
100
AcDbEntity
8
0
100
AcDbLine
10
-43.851388999999998
20
-77.574424999999991
30
0
11
-44.025036999999998
21
-78.559232999999992
31
0
0
LINE
5
105
100
AcDbEntity
8
0
100
AcDbLine
10
-44.025036999999998
20
-78.559232999999992
30
0
11
-38.608593999999989
21
-79.514297999999982
31
0
0
LINE
5
106
100
AcDbEntity
8
0
100
AcDbLine
10
-38.360500000000002
20
-72.348514999999992
30
0
11
-38.777255999999994
21
-74.712052999999969
31
0
0
LINE
5
107
100
AcDbEntity
8
0
100
AcDbLine
10
-38.777255999999994
20
-74.712052999999969
30
0
11
-43.208890999999994
21
-73.93063699999999
31
0
0
LINE
5
108
100
AcDbEntity
8
0
100
AcDbLine
10
-38.608593999999989
20
-79.514297999999982
30
0
11
-36.714145999999992
21
-80.863766999999996
31
0
0
LINE
5
109
100
AcDbEntity
8
0
100
AcDbLine
10
-36.714145999999992
20
-80.863766999999996
30
0
11
-31.987068999999995
21
-81.697278000000011
31
0
0
LINE
5
110
100
AcDbEntity
8
0
100
AcDbLine
10
-33.239499999999992
20
-73.251485000000002
30
0
11
-33.829903999999999
21
-76.599831999999992
31
0
0
LINE
5
111
100
AcDbEntity
8
0
100
AcDbLine
10
-31.170922999999995
20
-77.068681999999995
30
0
11
-33.829903999999999
21
-76.599831999999992
31
0
0
LINE
5
112
100
AcDbEntity
8
0
100
AcDbLine
10
-31.344570999999995
20
-78.053488999999999
30
0
11
-31.170922999999995
21
-77.068681999999995
31
0
0
LINE
5
113
100
AcDbEntity
8
0
100
AcDbLine
10
-31.813420999999991
20
-80.712469999999982
30
0
11
-29.942285999999996
21
-81.042401999999981
31
0
0
LINE
5
114
100
AcDbEntity
8
0
100
AcDbLine
10
-31.987068999999995
20
-81.697278000000011
30
0
11
-31.813420999999991
21
-80.712469999999982
31
0
0
LINE
5
115
100
AcDbEntity
8
0
100
AcDbLine
10
-29.473435999999992
20
-78.383420999999998
30
0
11
-31.344570999999995
21
-78.053488999999999
31
0
0
LINE
5
116
100
AcDbEntity
8
0
100
AcDbLine
10
-29.942285999999996
20
-81.042401999999981
30
0
11
-29.473435999999992
21
-78.383420999999998
31
0
0
CIRCLE
5
117
100
AcDbEntity
8
0
100
AcDbCircle
10
-35.79999999999999
20
-72.799999999999983
30
0
40
2.6000000000000001
210
0
220
0
230
1
0
LINE
5
118
100
AcDbEntity
8
0
100
AcDbLine
10
-25.785899999999991
20
-78.022803999999994
30
0
11
-26.743555999999991
21
-80.653943999999996
31
0
0
LINE
5
119
100
AcDbEntity
8
0
100
AcDbLine
10
-26.743555999999991
20
-80.653943999999996
30
0
11
-24.958139999999993
21
-81.303781999999984
31
0
0
LINE
5
120
100
AcDbEntity
8
0
100
AcDbLine
10
-23.692665999999996
20
-77.826919000000004
30
0
11
-24.000483999999993
21
-78.672642999999994
31
0
0
LINE
5
121
100
AcDbEntity
8
0
100
AcDbLine
10
-24.000483999999993
20
-78.672642999999994
30
0
11
-25.785899999999991
21
-78.022803999999994
31
0
0
LINE
5
122
100
AcDbEntity
8
0
100
AcDbLine
10
-24.958139999999993
20
-81.303781999999984
30
0
11
-25.300160999999996
21
-82.243475000000004
31
0
0
LINE
5
123
100
AcDbEntity
8
0
100
AcDbLine
10
-25.300160999999996
20
-82.243475000000004
30
0
11
-20.131850999999994
21
-84.124584999999996
31
0
0
LINE
5
124
100
AcDbEntity
8
0
100
AcDbLine
10
-18.643200999999998
20
-77.110748000000001
30
0
11
-19.464048999999992
21
-79.366009999999989
31
0
0
LINE
5
125
100
AcDbEntity
8
0
100
AcDbLine
10
-19.464048999999992
20
-79.366009999999989
30
0
11
-23.692665999999996
21
-77.826919000000004
31
0
0
LINE
5
126
100
AcDbEntity
8
0
100
AcDbLine
10
-20.131850999999994
20
-84.124584999999996
30
0
11
-18.500516999999995
21
-85.782520000000005
31
0
0
LINE
5
127
100
AcDbEntity
8
0
100
AcDbLine
10
-18.500516999999995
20
-85.782520000000005
30
0
11
-13.989991999999996
21
-87.424216999999999
31
0
0
LINE
5
128
100
AcDbEntity
8
0
100
AcDbLine
10
-13.756798999999997
20
-78.889251999999999
30
0
11
-14.919667999999998
21
-82.084207000000021
31
0
0
LINE
5
129
100
AcDbEntity
8
0
100
AcDbLine
10
-12.382497999999993
20
-83.007661999999996
30
0
11
-14.919667999999998
21
-82.084207000000021
31
0
0
LINE
5
130
100
AcDbEntity
8
0
100
AcDbLine
10
-12.724517999999993
20
-83.947354000000004
30
0
11
-12.382497999999993
21
-83.007661999999996
31
0
0
LINE
5
131
100
AcDbEntity
8
0
100
AcDbLine
10
-13.647971999999996
20
-86.484523999999993
30
0
11
-11.862555999999994
21
-87.134362999999993
31
0
0
LINE
5
132
100
AcDbEntity
8
0
100
AcDbLine
10
-13.989991999999996
20
-87.424216999999999
30
0
11
-13.647971999999996
21
-86.484523999999993
31
0
0
LINE
5
133
100
AcDbEntity
8
0
100
AcDbLine
10
-10.939101999999995
20
-84.597193000000004
30
0
11
-12.724517999999993
21
-83.947354000000004
31
0
0
LINE
5
134
100
AcDbEntity
8
0
100
AcDbLine
10
-11.862555999999994
20
-87.134362999999993
30
0
11
-10.939101999999995
21
-84.597193000000004
31
0
0
CIRCLE
5
135
100
AcDbEntity
8
0
100
AcDbCircle
10
-16.199999999999992
20
-78
30
0
40
2.6000000000000001
210
0
220
0
230
1
0
LINE
5
136
100
AcDbEntity
8
0
100
AcDbLine
10
-65
20
-74.299999999999983
30
0
11
-65
21
-77.099999999999966
31
0
0
LINE
5
137
100
AcDbEntity
8
0
100
AcDbLine
10
-65
20
-77.099999999999966
30
0
11
-63.09999999999998
21
-77.099999999999966
31
0
0
LINE
5
138
100
AcDbEntity
8
0
100
AcDbLine
10
-63.09999999999998
20
-73.400000000000006
30
0
11
-63.09999999999998
21
-74.299999999999983
31
0
0
LINE
5
139
100
AcDbEntity
8
0
100
AcDbLine
10
-63.09999999999998
20
-74.299999999999983
30
0
11
-65
21
-74.299999999999983
31
0
0
LINE
5
140
100
AcDbEntity
8
0
100
AcDbLine
10
-63.09999999999998
20
-77.099999999999966
30
0
11
-63.09999999999998
21
-78.099999999999994
31
0
0
LINE
5
141
100
AcDbEntity
8
0
100
AcDbLine
10
-63.09999999999998
20
-78.099999999999994
30
0
11
-57.599999999999987
21
-78.099999999999994
31
0
0
LINE
5
142
100
AcDbEntity
8
0
100
AcDbLine
10
-58.599999999999994
20
-71
30
0
11
-58.599999999999994
21
-73.400000000000006
31
0
0
LINE
5
143
100
AcDbEntity
8
0
100
AcDbLine
10
-58.599999999999994
20
-73.400000000000006
30
0
11
-63.09999999999998
21
-73.400000000000006
31
0
0
LINE
5
144
100
AcDbEntity
8
0
100
AcDbLine
10
-57.599999999999987
20
-78.099999999999994
30
0
11
-55.5
21
-79.09999999999998
31
0
0
LINE
5
145
100
AcDbEntity
8
0
100
AcDbLine
10
-55.5
20
-79.09999999999998
30
0
11
-50.700000000000003
21
-79.09999999999998
31
0
0
LINE
5
146
100
AcDbEntity
8
0
100
AcDbLine
10
-53.399999999999991
20
-71
30
0
11
-53.399999999999991
21
-74.399999999999991
31
0
0
LINE
5
147
100
AcDbEntity
8
0
100
AcDbLine
10
-50.700000000000003
20
-74.399999999999991
30
0
11
-53.399999999999991
21
-74.399999999999991
31
0
0
LINE
5
148
100
AcDbEntity
8
0
100
AcDbLine
10
-50.700000000000003
20
-75.399999999999991
30
0
11
-50.700000000000003
21
-74.399999999999991
31
0
0
LINE
5
149
100
AcDbEntity
8
0
100
AcDbLine
10
-50.700000000000003
20
-78.099999999999994
30
0
11
-48.79999999999999
21
-78.099999999999994
31
0
0
LINE
5
150
100
AcDbEntity
8
0
100
AcDbLine
10
-50.700000000000003
20
-79.09999999999998
30
0
11
-50.700000000000003
21
-78.099999999999994
31
0
0
LINE
5
151
100
AcDbEntity
8
0
100
AcDbLine
10
-48.79999999999999
20
-75.399999999999991
30
0
11
-50.700000000000003
21
-75.399999999999991
31
0
0
LINE
5
152
100
AcDbEntity
8
0
100
AcDbLine
10
-48.79999999999999
20
-78.099999999999994
30
0
11
-48.79999999999999
21
-75.399999999999991
31
0
0
CIRCLE
5
153
100
AcDbEntity
8
0
100
AcDbCircle
10
-56
20
-71
30
0
40
2.6000000000000001
210
0
220
0
230
1
0
LWPOLYLINE
5
154
100
AcDbEntity
8
0
100
AcDbPolyline
90
13
70
1
43
0.0
10
-78.75
20
-44.712212999999998
10
-78.75
20
-47.962212999999998
10
-66.714213999999998
20
-47.962212999999998
42
0.42647893726408859
10
-64.700000000000003
20
-45.862212999999997
10
-64.700000000000003
20
-44.962213000000006
10
-61.999999000000003
20
-44.962212000000001
10
-61.999999999999993
20
-41.962214000000003
10
-64.5
20
-41.962214000000003
10
-64.499999000000003
20
-39.962212000000001
10
-68.75
20
-39.962213000000006
42
0.64987256121183745
10
-73.25
20
-39.962213000000006
10
-77.5
20
-39.962213000000006
10
-77.5
20
-44.712212999999998
0
LWPOLYLINE
5
155
100
AcDbEntity
8
0
100
AcDbPolyline
90
13
70
1
43
0.0
10
-59.75
20
-18.712212999999998
10
-59.75
20
-21.962212999999995
10
-47.714213999999998
20
-21.962212999999995
42
0.42647893726408598
10
-45.700000000000003
20
-19.862213000000001
10
-45.700000000000003
20
-18.962212999999998
10
-42.999998999999995
20
-18.962211999999997
10
-43
20
-15.962213999999996
10
-45.5
20
-15.962213999999996
10
-45.499998999999995
20
-13.962211999999997
10
-49.75
20
-13.962212999999997
42
0.64987256121183812
10
-54.25
20
-13.962212999999997
10
-58.5
20
-13.962212999999997
10
-58.5
20
-18.712212999999998
0
LWPOLYLINE
5
156
100
AcDbEntity
8
0
100
AcDbPolyline
90
13
70
1
43
0.0
10
-97.75
20
-32.712212999999998
10
-97.75
20
-35.962212999999998
10
-85.714213999999998
20
-35.962212999999998
42
0.4264789372640887
10
-83.700000000000017
20
-33.862212999999997
10
-83.700000000000017
20
-32.962212999999998
10
-80.999999000000003
20
-32.962211999999994
10
-81
20
-29.962213999999999
10
-83.5
20
-29.962213999999999
10
-83.499999000000003
20
-27.962211999999997
10
-87.75
20
-27.962212999999995
42
0.64987256121183745
10
-92.25
20
-27.962212999999995
10
-96.5
20
-27.962212999999995
10
-96.5
20
-32.712212999999998
0
LWPOLYLINE
5
157
100
AcDbEntity
8
0
100
AcDbPolyline
90
13
70
1
43
0.0
10
-78.75
20
-12.712212999999997
10
-78.75
20
-15.962212999999998
10
-66.714213999999998
20
-15.962212999999998
42
0.42647893726408859
10
-64.700000000000003
20
-13.862212999999999
10
-64.700000000000003
20
-12.962212999999995
10
-61.999999000000003
20
-12.962211999999997
10
-61.999999999999993
20
-9.9622139999999959
10
-64.5
20
-9.9622139999999959
10
-64.499999000000003
20
-7.9622119999999974
10
-68.75
20
-7.9622129999999958
42
0.64987256121183745
10
-73.25
20
-7.9622129999999958
10
-77.5
20
-7.9622129999999958
10
-77.5
20
-12.712212999999997
0
LWPOLYLINE
5
158
100
AcDbEntity
8
0
100
AcDbPolyline
90
13
70
1
43
0.0
10
-40.749999999999993
20
-20.712212999999995
10
-40.749999999999993
20
-23.962212999999998
10
-28.714213999999991
20
-23.962212999999998
42
0.42647893726408598
10
-26.699999999999999
20
-21.862212999999997
10
-26.699999999999999
20
-20.962212999999998
10
-23.999998999999995
20
-20.962212000000001
10
-23.999999999999993
20
-17.962213999999999
10
-26.499999999999993
20
-17.962213999999999
10
-26.499998999999995
20
-15.962212000000001
10
-30.749999999999993
20
-15.962212999999998
42
0.64987256121183812
10
-35.249999999999993
20
-15.962212999999998
10
-39.499999999999993
20
-15.962212999999998
10
-39.499999999999993
20
-20.712212999999995
0
LWPOLYLINE
5
159
100
AcDbEntity
8
0
100
AcDbPolyline
90
13
70
1
43
0.0
10
-78.75
20
-28.712212999999998
10
-78.75
20
-31.962212999999995
10
-66.714213999999998
20
-31.962212999999995
42
0.42647893726408859
10
-64.700000000000003
20
-29.862212999999997
10
-64.700000000000003
20
-28.962212999999998
10
-61.999999000000003
20
-28.962211999999997
10
-61.999999999999993
20
-25.962213999999992
10
-64.5
20
-25.962213999999992
10
-64.499999000000003
20
-23.962211999999997
10
-68.75
20
-23.962212999999998
42
0.64987256121183745
10
-73.25
20
-23.962212999999998
10
-77.5
20
-23.962212999999998
10
-77.5
20
-28.712212999999998
0
LWPOLYLINE
5
160
100
AcDbEntity
8
0
100
AcDbPolyline
90
13
70
1
43
0.0
10
-135.75
20
-38.712212999999991
10
-135.75
20
-41.962212999999991
10
-123.714214
20
-41.962212999999991
42
0.42647893726408587
10
-121.69999999999999
20
-39.862212999999997
10
-121.69999999999999
20
-38.962212999999998
10
-118.999999
20
-38.962212000000001
10
-119
20
-35.962214000000003
10
-121.5
20
-35.962214000000003
10
-121.499999
20
-33.962212000000001
10
-125.75
20
-33.962212999999998
42
0.64987256121183856
10
-130.25
20
-33.962212999999998
10
-134.5
20
-33.962212999999998
10
-134.5
20
-38.712212999999991
0
LWPOLYLINE
5
161
100
AcDbEntity
8
0
100
AcDbPolyline
90
13
70
1
43
0.0
10
-97.75
20
-16.712212999999995
10
-97.75
20
-19.962212999999998
10
-85.714213999999998
20
-19.962212999999998
42
0.4264789372640887
10
-83.700000000000017
20
-17.862212999999997
10
-83.700000000000017
20
-16.962212999999995
10
-80.999999000000003
20
-16.962212000000001
10
-81
20
-13.962213999999996
10
-83.5
20
-13.962213999999996
10
-83.499999000000003
20
-11.962211999999997
10
-87.75
20
-11.962212999999995
42
0.64987256121183745
10
-92.25
20
-11.962212999999995
10
-96.5
20
-11.962212999999995
10
-96.5
20
-16.712212999999995
0
LWPOLYLINE
5
162
100
AcDbEntity
8
0
100
AcDbPolyline
90
13
70
1
43
0.0
10
-40.749999999999993
20
-52.712212999999998
10
-40.749999999999993
20
-55.962212999999991
10
-28.714213999999991
20
-55.962212999999991
42
0.42647893726408598
10
-26.699999999999999
20
-53.862212999999997
10
-26.699999999999999
20
-52.962212999999998
10
-23.999998999999995
20
-52.962211999999987
10
-23.999999999999993
20
-49.962214000000003
10
-26.499999999999993
20
-49.962214000000003
10
-26.499998999999995
20
-47.962211999999994
10
-30.749999999999993
20
-47.962212999999998
42
0.64987256121183812
10
-35.249999999999993
20
-47.962212999999998
10
-39.499999999999993
20
-47.962212999999998
10
-39.499999999999993
20
-52.712212999999998
0
LWPOLYLINE
5
163
100
AcDbEntity
8
0
100
AcDbPolyline
90
13
70
1
43
0.0
10
-97.75
20
-48.712213000000006
10
-97.75
20
-51.962212999999991
10
-85.714213999999998
20
-51.962212999999991
42
0.4264789372640887
10
-83.700000000000017
20
-49.862212999999997
10
-83.700000000000017
20
-48.962212999999998
10
-80.999999000000003
20
-48.962211999999987
10
-81
20
-45.962214000000003
10
-83.5
20
-45.962214000000003
10
-83.499999000000003
20
-43.962212000000001
10
-87.75
20
-43.962212999999998
42
0.64987256121183745
10
-92.25
20
-43.962212999999998
10
-96.5
20
-43.962212999999998
10
-96.5
20
-48.712213000000006
0
LWPOLYLINE
5
164
100
AcDbEntity
8
0
100
AcDbPolyline
90
13
70
1
43
0.0
10
-40.749999999999993
20
-36.712212999999998
10
-40.749999999999993
20
-39.962213000000006
10
-28.714213999999991
20
-39.962213000000006
42
0.42647893726408598
10
-26.699999999999999
20
-37.862212999999997
10
-26.699999999999999
20
-36.962212999999991
10
-23.999998999999995
20
-36.962212000000001
10
-23.999999999999993
20
-33.962214000000003
10
-26.499999999999993
20
-33.962214000000003
10
-26.499998999999995
20
-31.962212000000001
10
-30.749999999999993
20
-31.962212999999995
42
0.64987256121183812
10
-35.249999999999993
20
-31.962212999999995
10
-39.499999999999993
20
-31.962212999999995
10
-39.499999999999993
20
-36.712212999999998
0
LWPOLYLINE
5
165
100
AcDbEntity
8
0
100
AcDbPolyline
90
13
70
1
43
0.0
10
-116.75
20
-38.712212999999991
10
-116.75
20
-41.962212999999991
10
-104.714214
20
-41.962212999999991
42
0.42647893726408859
10
-102.69999999999999
20
-39.862212999999997
10
-102.69999999999999
20
-38.962212999999998
10
-99.999999000000003
20
-38.962212000000001
10
-100
20
-35.962214000000003
10
-102.5
20
-35.962214000000003
10
-102.499999
20
-33.962212000000001
10
-106.75
20
-33.962212999999998
42
0.64987256121183745
10
-111.25
20
-33.962212999999998
10
-115.5
20
-33.962212999999998
10
-115.5
20
-38.712212999999991
0
LWPOLYLINE
5
166
100
AcDbEntity
8
0
100
AcDbPolyline
90
13
70
1
43
0.0
10
-59.75
20
-50.712212999999991
10
-59.75
20
-53.962212999999998
10
-47.714213999999998
20
-53.962212999999998
42
0.42647893726408598
10
-45.700000000000003
20
-51.862212999999997
10
-45.700000000000003
20
-50.962212999999998
10
-42.999998999999995
20
-50.962211999999987
10
-43
20
-47.962214000000003
10
-45.5
20
-47.962214000000003
10
-45.499998999999995
20
-45.962212000000008
10
-49.75
20
-45.962212999999998
42
0.64987256121183812
10
-54.25
20
-45.962212999999998
10
-58.5
20
-45.962212999999998
10
-58.5
20
-50.712212999999991
0
LWPOLYLINE
5
167
100
AcDbEntity
8
0
100
AcDbPolyline
90
13
70
1
43
0.0
10
-116.75
20
-54.712212999999998
10
-116.75
20
-57.962212999999991
10
-104.714214
20
-57.962212999999991
42
0.42647893726408731
10
-102.69999999999999
20
-55.862212999999997
10
-102.69999999999999
20
-54.962213000000006
10
-99.999999000000003
20
-54.962211999999994
10
-100
20
-51.962214000000003
10
-102.5
20
-51.962214000000003
10
-102.499999
20
-49.962211999999994
10
-106.75
20
-49.962213000000006
42
0.64987256121183745
10
-111.25
20
-49.962213000000006
10
-115.5
20
-49.962213000000006
10
-115.5
20
-54.712212999999998
0
LWPOLYLINE
5
168
100
AcDbEntity
8
0
100
AcDbPolyline
90
13
70
1
43
0.0
10
-59.75
20
-34.712212999999998
10
-59.75
20
-37.962212999999998
10
-47.714213999999998
20
-37.962212999999998
42
0.42647893726408598
10
-45.700000000000003
20
-35.86221299999999
10
-45.700000000000003
20
-34.962212999999991
10
-42.999998999999995
20
-34.962212000000001
10
-43
20
-31.962213999999996
10
-45.5
20
-31.962213999999996
10
-45.499998999999995
20
-29.962212000000001
10
-49.75
20
-29.962212999999998
42
0.64987256121183812
10
-54.25
20
-29.962212999999998
10
-58.5
20
-29.962212999999998
10
-58.5
20
-34.712212999999998
0
ENDSEC
0
SECTION
2
OBJECTS
0
DICTIONARY
5
C
100
AcDbDictionary
3
ACAD_GROUP
350
D
3
ACAD_MLINESTYLE
350
17
0
DICTIONARY
5
D
100
AcDbDictionary
0
DICTIONARY
5
1A
330
C
100
AcDbDictionary
0
DICTIONARY
5
17
100
AcDbDictionary
0
ENDSEC
0
EOF
