0
SECTION
2
HEADER
9
$INSUNITS
70
4
9
$ACADVER
1
AC1014
9
$HANDSEED
5
FFFF
0
ENDSEC
0
SECTION
2
TABLES
0
TABLE
2
VPORT
5
8
100
AcDbSymbolTable
0
ENDTAB
0
TABLE
2
LTYPE
5
5
100
AcDbSymbolTable
0
LTYPE
5
14
100
AcDbSymbolTableRecord
100
AcDbLinetypeTableRecord
2
BYBLOCK
70
0
0
LTYPE
5
15
100
AcDbSymbolTableRecord
100
AcDbLinetypeTableRecord
2
BYLAYER
70
0
0
LTYPE
5
16
100
AcDbSymbolTableRecord
100
AcDbLinetypeTableRecord
2
DASHED
70
0
3
Dashed __ __ __ __ __ __ __ __ __ __ __ __ __ _
72
65
73
2
40
0.75
49
0.5
74
0
49
-0.25
74
0
0
ENDTAB
0
TABLE
2
LAYER
5
2
100
AcDbSymbolTable
70
2
0
LAYER
5
50
100
AcDbSymbolTableRecord
100
AcDbLayerTableRecord
2
0
70
0
62
7
6
CONTINUOUS
0
ENDTAB
0
TABLE
2
STYLE
5
3
100
AcDbSymbolTable
70
1
0
STYLE
5
11
100
AcDbSymbolTableRecord
100
AcDbTextStyleTableRecord
2
STANDARD
70
0
0
ENDTAB
0
TABLE
2
VIEW
5
6
100
AcDbSymbolTable
70
0
0
ENDTAB
0
TABLE
2
UCS
5
7
100
AcDbSymbolTable
70
0
0
ENDTAB
0
TABLE
2
APPID
5
9
100
AcDbSymbolTable
70
2
0
APPID
5
12
100
AcDbSymbolTableRecord
100
AcDbRegAppTableRecord
2
ACAD
70
0
0
ENDTAB
0
TABLE
2
DIMSTYLE
5
A
100
AcDbSymbolTable
70
1
0
ENDTAB
0
TABLE
2
BLOCK_RECORD
5
1
100
AcDbSymbolTable
70
1
0
BLOCK_RECORD
5
1F
100
AcDbSymbolTableRecord
100
AcDbBlockTableRecord
2
*MODEL_SPACE
0
BLOCK_RECORD
5
1B
100
AcDbSymbolTableRecord
100
AcDbBlockTableRecord
2
*PAPER_SPACE
0
ENDTAB
0
ENDSEC
0
SECTION
2
BLOCKS
0
BLOCK
5
20
100
AcDbEntity
100
AcDbBlockBegin
2
*MODEL_SPACE
0
ENDBLK
5
21
100
AcDbEntity
100
AcDbBlockEnd
0
BLOCK
5
1C
100
AcDbEntity
100
AcDbBlockBegin
2
*PAPER_SPACE
0
ENDBLK
5
1D
100
AcDbEntity
100
AcDbBlockEnd
0
ENDSEC
0
SECTION
2
ENTITIES
0
LINE
5
100
100
AcDbEntity
8
0
100
AcDbLine
10
46.999999999999993
20
-74.299999999999983
30
0
11
46.999999999999993
21
-77.099999999999994
31
0
0
LINE
5
101
100
AcDbEntity
8
0
100
AcDbLine
10
46.999999999999993
20
-77.099999999999994
30
0
11
48.899999999999999
21
-77.099999999999994
31
0
0
LINE
5
102
100
AcDbEntity
8
0
100
AcDbLine
10
48.899999999999999
20
-73.400000000000006
30
0
11
48.899999999999999
21
-74.299999999999983
31
0
0
LINE
5
103
100
AcDbEntity
8
0
100
AcDbLine
10
48.899999999999999
20
-74.299999999999983
30
0
11
46.999999999999993
21
-74.299999999999983
31
0
0
LINE
5
104
100
AcDbEntity
8
0
100
AcDbLine
10
48.899999999999999
20
-77.099999999999994
30
0
11
48.899999999999999
21
-78.100000000000009
31
0
0
LINE
5
105
100
AcDbEntity
8
0
100
AcDbLine
10
48.899999999999999
20
-78.100000000000009
30
0
11
54.399999999999984
21
-78.100000000000009
31
0
0
LINE
5
106
100
AcDbEntity
8
0
100
AcDbLine
10
53.399999999999991
20
-71
30
0
11
53.399999999999991
21
-73.400000000000006
31
0
0
LINE
5
107
100
AcDbEntity
8
0
100
AcDbLine
10
53.399999999999991
20
-73.400000000000006
30
0
11
48.899999999999999
21
-73.400000000000006
31
0
0
LINE
5
108
100
AcDbEntity
8
0
100
AcDbLine
10
54.399999999999984
20
-78.100000000000009
30
0
11
56.499999999999993
21
-79.09999999999998
31
0
0
LINE
5
109
100
AcDbEntity
8
0
100
AcDbLine
10
56.499999999999993
20
-79.09999999999998
30
0
11
61.299999999999969
21
-79.09999999999998
31
0
0
LINE
5
110
100
AcDbEntity
8
0
100
AcDbLine
10
58.599999999999994
20
-71
30
0
11
58.599999999999994
21
-74.399999999999991
31
0
0
LINE
5
111
100
AcDbEntity
8
0
100
AcDbLine
10
61.299999999999969
20
-74.399999999999991
30
0
11
58.599999999999994
21
-74.399999999999991
31
0
0
LINE
5
112
100
AcDbEntity
8
0
100
AcDbLine
10
61.299999999999969
20
-75.400000000000006
30
0
11
61.299999999999969
21
-74.399999999999991
31
0
0
LINE
5
113
100
AcDbEntity
8
0
100
AcDbLine
10
61.299999999999969
20
-78.100000000000009
30
0
11
63.200000000000003
21
-78.100000000000009
31
0
0
LINE
5
114
100
AcDbEntity
8
0
100
AcDbLine
10
61.299999999999969
20
-79.09999999999998
30
0
11
61.299999999999969
21
-78.100000000000009
31
0
0
LINE
5
115
100
AcDbEntity
8
0
100
AcDbLine
10
63.200000000000003
20
-75.400000000000006
30
0
11
61.299999999999969
21
-75.400000000000006
31
0
0
LINE
5
116
100
AcDbEntity
8
0
100
AcDbLine
10
63.200000000000003
20
-78.100000000000009
30
0
11
63.200000000000003
21
-75.400000000000006
31
0
0
CIRCLE
5
117
100
AcDbEntity
8
0
100
AcDbCircle
10
56
20
-71
30
0
40
2.6000000000000001
210
0
220
0
230
1
0
LWPOLYLINE
5
118
100
AcDbEntity
8
0
100
AcDbPolyline
90
13
70
1
43
0.0
10
44.25
20
-50.712212999999991
10
44.25
20
-53.962213000000006
10
56.285786000000002
20
-53.962213000000006
42
0.42647893726408459
10
58.29999999999999
20
-51.862212999999997
10
58.29999999999999
20
-50.962212999999998
10
61.000000999999969
20
-50.962211999999987
10
61
20
-47.962214000000003
10
58.5
20
-47.962214000000003
10
58.50000099999999
20
-45.962212000000008
10
54.25
20
-45.962212999999998
42
0.64987256121183812
10
49.75
20
-45.962212999999998
10
45.5
20
-45.962212999999998
10
45.5
20
-50.712212999999991
0
LWPOLYLINE
5
119
100
AcDbEntity
8
0
100
AcDbPolyline
90
13
70
1
43
0.0
10
101.25
20
-54.712212999999998
10
101.25
20
-57.962212999999991
10
113.28578599999997
20
-57.962212999999991
42
0.42647893726409397
10
115.29999999999998
20
-55.862212999999997
10
115.29999999999998
20
-54.962213000000006
10
118.000001
20
-54.962211999999994
10
118
20
-51.962214000000003
10
115.5
20
-51.962214000000003
10
115.500001
20
-49.962211999999994
10
111.25
20
-49.962213000000006
42
0.64987256121183745
10
106.75
20
-49.962213000000006
10
102.5
20
-49.962213000000006
10
102.5
20
-54.712212999999998
0
LWPOLYLINE
5
120
100
AcDbEntity
8
0
100
AcDbPolyline
90
13
70
1
43
0.0
10
63.249999999999993
20
-12.712213000000002
10
63.249999999999993
20
-15.962213000000002
10
75.285786000000002
20
-15.962213000000002
42
0.42647893726408598
10
77.299999999999983
20
-13.862213000000004
10
77.299999999999983
20
-12.962213
10
80.000000999999997
20
-12.962212000000001
10
80
20
-9.9622139999999995
10
77.5
20
-9.9622139999999995
10
77.500000999999997
20
-7.9622120000000018
10
73.25
20
-7.9622130000000002
42
0.64987256121183745
10
68.75
20
-7.9622130000000002
10
64.5
20
-7.9622130000000002
10
64.5
20
-12.712213000000002
0
LWPOLYLINE
5
121
100
AcDbEntity
8
0
100
AcDbPolyline
90
13
70
1
43
0.0
10
82.25
20
-16.712212999999998
10
82.25
20
-19.962213000000002
10
94.285786000000002
20
-19.962213000000002
42
0.4264789372640887
10
96.299999999999983
20
-17.862213000000004
10
96.299999999999983
20
-16.962212999999998
10
99.000000999999997
20
-16.962212000000005
10
99
20
-13.962213999999999
10
96.5
20
-13.962213999999999
10
96.500000999999997
20
-11.962212000000001
10
92.25
20
-11.962212999999998
42
0.64987256121183745
10
87.75
20
-11.962212999999998
10
83.5
20
-11.962212999999998
10
83.5
20
-16.712212999999998
0
LINE
5
122
100
AcDbEntity
8
0
100
AcDbLine
10
27.509768999999995
20
-77.612699000000006
30
0
11
27.995984
21
-80.37016100000001
31
0
0
LINE
5
123
100
AcDbEntity
8
0
100
AcDbLine
10
27.995984
20
-80.37016100000001
30
0
11
29.867118999999995
21
-80.040229000000011
31
0
0
LINE
5
124
100
AcDbEntity
8
0
100
AcDbLine
10
29.224620999999999
20
-76.396440999999996
30
0
11
29.380903999999994
21
-77.282768000000019
31
0
0
LINE
5
125
100
AcDbEntity
8
0
100
AcDbLine
10
29.380903999999994
20
-77.282768000000019
30
0
11
27.509768999999995
21
-77.612699000000006
31
0
0
LINE
5
126
100
AcDbEntity
8
0
100
AcDbLine
10
29.867118999999995
20
-80.040229000000011
30
0
11
30.040766999999995
21
-81.025036999999983
31
0
0
LINE
5
127
100
AcDbEntity
8
0
100
AcDbLine
10
30.040766999999995
20
-81.025036999999983
30
0
11
35.457210000000003
21
-80.069971999999993
31
0
0
LINE
5
128
100
AcDbEntity
8
0
100
AcDbLine
10
33.239499999999992
20
-73.251485000000002
30
0
11
33.656254999999994
21
-75.615024000000005
31
0
0
LINE
5
129
100
AcDbEntity
8
0
100
AcDbLine
10
33.656254999999994
20
-75.615024000000005
30
0
11
29.224620999999999
21
-76.396440999999996
31
0
0
LINE
5
130
100
AcDbEntity
8
0
100
AcDbLine
10
35.457210000000003
20
-80.069971999999993
30
0
11
37.698953999999993
21
-80.690118999999981
31
0
0
LINE
5
131
100
AcDbEntity
8
0
100
AcDbLine
10
37.698953999999993
20
-80.690118999999981
30
0
11
42.426031000000002
21
-79.856606999999983
31
0
0
LINE
5
132
100
AcDbEntity
8
0
100
AcDbLine
10
38.360500000000002
20
-72.348514999999992
30
0
11
38.950904000000001
21
-75.696860999999998
31
0
0
LINE
5
133
100
AcDbEntity
8
0
100
AcDbLine
10
41.609884999999991
20
-75.228011000000009
30
0
11
38.950904000000001
21
-75.696860999999998
31
0
0
LINE
5
134
100
AcDbEntity
8
0
100
AcDbLine
10
41.783532999999991
20
-76.212818999999982
30
0
11
41.609884999999991
21
-75.228011000000009
31
0
0
LINE
5
135
100
AcDbEntity
8
0
100
AcDbLine
10
42.252383000000002
20
-78.871799999999993
30
0
11
44.123517999999997
21
-78.541867999999994
31
0
0
LINE
5
136
100
AcDbEntity
8
0
100
AcDbLine
10
42.426031000000002
20
-79.856606999999983
30
0
11
42.252383000000002
21
-78.871799999999993
31
0
0
LINE
5
137
100
AcDbEntity
8
0
100
AcDbLine
10
43.654668000000001
20
-75.882886999999982
30
0
11
41.783532999999991
21
-76.212818999999982
31
0
0
LINE
5
138
100
AcDbEntity
8
0
100
AcDbLine
10
44.123517999999997
20
-78.541867999999994
30
0
11
43.654668000000001
21
-75.882886999999982
31
0
0
CIRCLE
5
139
100
AcDbEntity
8
0
100
AcDbCircle
10
35.79999999999999
20
-72.799999999999983
30
0
40
2.6000000000000001
210
0
220
0
230
1
0
LWPOLYLINE
5
140
100
AcDbEntity
8
0
100
AcDbPolyline
90
13
70
1
43
0.0
10
25.249999999999993
20
-52.712213000000006
10
25.249999999999993
20
-55.962212999999998
10
37.285785999999995
20
-55.962212999999998
42
0.42647893726408731
10
39.299999999999997
20
-53.862213000000011
10
39.299999999999997
20
-52.962213000000006
10
42.000000999999997
20
-52.962211999999994
10
41.999999999999993
20
-49.962214000000017
10
39.499999999999993
20
-49.962214000000017
10
39.500000999999997
20
-47.962211999999994
10
35.249999999999993
20
-47.962213000000006
42
0.64987256121183812
10
30.749999999999993
20
-47.962213000000006
10
26.499999999999993
20
-47.962213000000006
10
26.499999999999993
20
-52.712213000000006
0
LWPOLYLINE
5
141
100
AcDbEntity
8
0
100
AcDbPolyline
90
13
70
1
43
0.0
10
63.249999999999993
20
-44.712212999999998
10
63.249999999999993
20
-47.962213000000006
10
75.285786000000002
20
-47.962213000000006
42
0.42647893726408598
10
77.299999999999983
20
-45.862212999999997
10
77.299999999999983
20
-44.962213000000006
10
80.000000999999997
20
-44.962212000000008
10
80
20
-41.962214000000003
10
77.5
20
-41.962214000000003
10
77.500000999999997
20
-39.962212000000001
10
73.25
20
-39.962213000000006
42
0.64987256121183856
10
68.75
20
-39.962213000000006
10
64.5
20
-39.962213000000006
10
64.5
20
-44.712212999999998
0
LWPOLYLINE
5
142
100
AcDbEntity
8
0
100
AcDbPolyline
90
13
70
1
43
0.0
10
25.249999999999993
20
-20.712212999999998
10
25.249999999999993
20
-23.962213000000002
10
37.285785999999995
20
-23.962213000000002
42
0.42647893726408731
10
39.299999999999997
20
-21.862213000000001
10
39.299999999999997
20
-20.962213000000002
10
42.000000999999997
20
-20.962212000000005
10
41.999999999999993
20
-17.962214000000003
10
39.499999999999993
20
-17.962214000000003
10
39.500000999999997
20
-15.962212000000005
10
35.249999999999993
20
-15.962213000000002
42
0.64987256121183812
10
30.749999999999993
20
-15.962213000000002
10
26.499999999999993
20
-15.962213000000002
10
26.499999999999993
20
-20.712212999999998
0
LWPOLYLINE
5
143
100
AcDbEntity
8
0
100
AcDbPolyline
90
13
70
1
43
0.0
10
63.249999999999993
20
-28.712213000000002
10
63.249999999999993
20
-31.962212999999998
10
75.285786000000002
20
-31.962212999999998
42
0.42647893726408598
10
77.299999999999983
20
-29.862213000000001
10
77.299999999999983
20
-28.962213000000002
10
80.000000999999997
20
-28.962212000000001
10
80
20
-25.962213999999996
10
77.5
20
-25.962213999999996
10
77.500000999999997
20
-23.962212000000001
10
73.25
20
-23.962213000000002
42
0.64987256121183745
10
68.75
20
-23.962213000000002
10
64.5
20
-23.962213000000002
10
64.5
20
-28.712213000000002
0
LWPOLYLINE
5
144
100
AcDbEntity
8
0
100
AcDbPolyline
90
13
70
1
43
0.0
10
44.25
20
-34.712213000000006
10
44.25
20
-37.962213000000006
10
56.285786000000002
20
-37.962213000000006
42
0.42647893726408459
10
58.29999999999999
20
-35.862212999999997
10
58.29999999999999
20
-34.962212999999998
10
61.000000999999969
20
-34.962212000000001
10
61
20
-31.962214000000003
10
58.5
20
-31.962214000000003
10
58.50000099999999
20
-29.962212000000005
10
54.25
20
-29.962213000000002
42
0.64987256121183812
10
49.75
20
-29.962213000000002
10
45.5
20
-29.962213000000002
10
45.5
20
-34.712213000000006
0
LWPOLYLINE
5
145
100
AcDbEntity
8
0
100
AcDbPolyline
90
13
70
1
43
0.0
10
82.25
20
-48.712213000000006
10
82.25
20
-51.962212999999991
10
94.285786000000002
20
-51.962212999999991
42
0.4264789372640887
10
96.299999999999983
20
-49.862213000000004
10
96.299999999999983
20
-48.962213000000006
10
99.000000999999997
20
-48.962211999999994
10
99
20
-45.96221400000001
10
96.5
20
-45.96221400000001
10
96.500000999999997
20
-43.962212000000008
10
92.25
20
-43.962213000000006
42
0.64987256121183745
10
87.75
20
-43.962213000000006
10
83.5
20
-43.962213000000006
10
83.5
20
-48.712213000000006
0
LWPOLYLINE
5
146
100
AcDbEntity
8
0
100
AcDbPolyline
90
13
70
1
43
0.0
10
25.249999999999993
20
-36.712213000000006
10
25.249999999999993
20
-39.962213000000006
10
37.285785999999995
20
-39.962213000000006
42
0.42647893726408731
10
39.299999999999997
20
-37.862212999999997
10
39.299999999999997
20
-36.962212999999998
10
42.000000999999997
20
-36.962212000000008
10
41.999999999999993
20
-33.962214000000003
10
39.499999999999993
20
-33.962214000000003
10
39.500000999999997
20
-31.962212000000005
10
35.249999999999993
20
-31.962212999999998
42
0.64987256121183812
10
30.749999999999993
20
-31.962212999999998
10
26.499999999999993
20
-31.962212999999998
10
26.499999999999993
20
-36.712213000000006
0
LWPOLYLINE
5
147
100
AcDbEntity
8
0
100
AcDbPolyline
90
13
70
1
43
0.0
10
101.25
20
-38.712212999999998
10
101.25
20
-41.962212999999991
10
113.28578599999997
20
-41.962212999999991
42
0.42647893726409397
10
115.29999999999998
20
-39.862212999999997
10
115.29999999999998
20
-38.962212999999998
10
118.000001
20
-38.962212000000008
10
118
20
-35.962214000000003
10
115.5
20
-35.962214000000003
10
115.500001
20
-33.962212000000008
10
111.25
20
-33.962212999999998
42
0.64987256121183745
10
106.75
20
-33.962212999999998
10
102.5
20
-33.962212999999998
10
102.5
20
-38.712212999999998
0
LINE
5
148
100
AcDbEntity
8
0
100
AcDbLine
10
8.8714329999999961
20
-84.179167000000007
30
0
11
9.8290889999999962
21
-86.810306000000011
31
0
0
LINE
5
149
100
AcDbEntity
8
0
100
AcDbLine
10
9.8290889999999962
20
-86.810306000000011
30
0
11
11.614504999999994
21
-86.160468000000009
31
0
0
LINE
5
150
100
AcDbEntity
8
0
100
AcDbLine
10
10.349030999999993
20
-82.683605000000014
30
0
11
10.656848999999994
21
-83.529329000000004
31
0
0
LINE
5
151
100
AcDbEntity
8
0
100
AcDbLine
10
10.656848999999994
20
-83.529329000000004
30
0
11
8.8714329999999961
21
-84.179167000000007
31
0
0
LINE
5
152
100
AcDbEntity
8
0
100
AcDbLine
10
11.614504999999994
20
-86.160468000000009
30
0
11
11.956524999999996
21
-87.100161000000028
31
0
0
LINE
5
153
100
AcDbEntity
8
0
100
AcDbLine
10
11.956524999999996
20
-87.100161000000028
30
0
11
17.124834999999994
21
-85.219050000000024
31
0
0
LINE
5
154
100
AcDbEntity
8
0
100
AcDbLine
10
13.756798999999997
20
-78.889252000000013
30
0
11
14.577647999999996
21
-81.144514999999998
31
0
0
LINE
5
155
100
AcDbEntity
8
0
100
AcDbLine
10
14.577647999999996
20
-81.144514999999998
30
0
11
10.349030999999993
21
-82.683605000000014
31
0
0
LINE
5
156
100
AcDbEntity
8
0
100
AcDbLine
10
17.124834999999994
20
-85.219050000000024
30
0
11
19.440208999999989
21
-85.4405
31
0
0
LINE
5
157
100
AcDbEntity
8
0
100
AcDbLine
10
19.440208999999989
20
-85.4405
30
0
11
23.950733999999994
21
-83.798803000000021
31
0
0
LINE
5
158
100
AcDbEntity
8
0
100
AcDbLine
10
18.643200999999998
20
-77.110748000000001
30
0
11
19.806068999999997
21
-80.305702999999994
31
0
0
LINE
5
159
100
AcDbEntity
8
0
100
AcDbLine
10
22.343238999999997
20
-79.382248000000018
30
0
11
19.806068999999997
21
-80.305702999999994
31
0
0
LINE
5
160
100
AcDbEntity
8
0
100
AcDbLine
10
22.685259999999996
20
-80.321940999999995
30
0
11
22.343238999999997
21
-79.382248000000018
31
0
0
LINE
5
161
100
AcDbEntity
8
0
100
AcDbLine
10
23.608713999999988
20
-82.859111000000013
30
0
11
25.394129999999997
21
-82.20927300000001
31
0
0
LINE
5
162
100
AcDbEntity
8
0
100
AcDbLine
10
23.950733999999994
20
-83.798803000000021
30
0
11
23.608713999999988
21
-82.859111000000013
31
0
0
LINE
5
163
100
AcDbEntity
8
0
100
AcDbLine
10
24.470675999999987
20
-79.672101999999981
30
0
11
22.685259999999996
21
-80.321940999999995
31
0
0
LINE
5
164
100
AcDbEntity
8
0
100
AcDbLine
10
25.394129999999997
20
-82.20927300000001
30
0
11
24.470675999999987
21
-79.672101999999981
31
0
0
CIRCLE
5
165
100
AcDbEntity
8
0
100
AcDbCircle
10
16.199999999999992
20
-78.000000000000028
30
0
40
2.6000000000000001
210
0
220
0
230
1
0
LWPOLYLINE
5
166
100
AcDbEntity
8
0
100
AcDbPolyline
90
13
70
1
43
0.0
10
120.25
20
-38.712212999999998
10
120.25
20
-41.962212999999991
10
132.285786
20
-41.962212999999991
42
0.42647893726408614
10
134.29999999999998
20
-39.862212999999997
10
134.29999999999998
20
-38.962212999999998
10
137.000001
20
-38.962212000000008
10
137
20
-35.962214000000003
10
134.5
20
-35.962214000000003
10
134.500001
20
-33.962212000000008
10
130.25
20
-33.962212999999998
42
0.64987256121183856
10
125.75
20
-33.962212999999998
10
121.5
20
-33.962212999999998
10
121.5
20
-38.712212999999998
0
LWPOLYLINE
5
167
100
AcDbEntity
8
0
100
AcDbPolyline
90
13
70
1
43
0.0
10
82.25
20
-32.712212999999998
10
82.25
20
-35.962213000000006
10
94.285786000000002
20
-35.962213000000006
42
0.4264789372640887
10
96.299999999999983
20
-33.862213000000004
10
96.299999999999983
20
-32.962213000000006
10
99.000000999999997
20
-32.962212000000001
10
99
20
-29.962214000000003
10
96.5
20
-29.962214000000003
10
96.500000999999997
20
-27.962212000000001
10
92.25
20
-27.962212999999998
42
0.64987256121183745
10
87.75
20
-27.962212999999998
10
83.5
20
-27.962212999999998
10
83.5
20
-32.712212999999998
0
LWPOLYLINE
5
168
100
AcDbEntity
8
0
100
AcDbPolyline
90
13
70
1
43
0.0
10
44.25
20
-18.712213000000002
10
44.25
20
-21.962212999999998
10
56.285786000000002
20
-21.962212999999998
42
0.42647893726408459
10
58.29999999999999
20
-19.862213000000004
10
58.29999999999999
20
-18.962213000000002
10
61.000000999999969
20
-18.962212000000001
10
61
20
-15.962214000000001
10
58.5
20
-15.962214000000001
10
58.50000099999999
20
-13.962212000000003
10
54.25
20
-13.962213000000002
42
0.64987256121183812
10
49.75
20
-13.962213000000002
10
45.5
20
-13.962213000000002
10
45.5
20
-18.712213000000002
0
ENDSEC
0
SECTION
2
OBJECTS
0
DICTIONARY
5
C
100
AcDbDictionary
3
ACAD_GROUP
350
D
3
ACAD_MLINESTYLE
350
17
0
DICTIONARY
5
D
100
AcDbDictionary
0
DICTIONARY
5
1A
330
C
100
AcDbDictionary
0
DICTIONARY
5
17
100
AcDbDictionary
0
ENDSEC
0
EOF
