0
SECTION
2
HEADER
9
$INSUNITS
70
4
9
$ACADVER
1
AC1014
9
$HANDSEED
5
FFFF
0
ENDSEC
0
SECTION
2
TABLES
0
TABLE
2
VPORT
5
8
100
AcDbSymbolTable
0
ENDTAB
0
TABLE
2
LTYPE
5
5
100
AcDbSymbolTable
0
LTYPE
5
14
100
AcDbSymbolTableRecord
100
AcDbLinetypeTableRecord
2
BYBLOCK
70
0
0
LTYPE
5
15
100
AcDbSymbolTableRecord
100
AcDbLinetypeTableRecord
2
BYLAYER
70
0
0
LTYPE
5
16
100
AcDbSymbolTableRecord
100
AcDbLinetypeTableRecord
2
DASHED
70
0
3
Dashed __ __ __ __ __ __ __ __ __ __ __ __ __ _
72
65
73
2
40
0.75
49
0.5
74
0
49
-0.25
74
0
0
ENDTAB
0
TABLE
2
LAYER
5
2
100
AcDbSymbolTable
70
2
0
LAYER
5
50
100
AcDbSymbolTableRecord
100
AcDbLayerTableRecord
2
0
70
0
62
7
6
CONTINUOUS
0
ENDTAB
0
TABLE
2
STYLE
5
3
100
AcDbSymbolTable
70
1
0
STYLE
5
11
100
AcDbSymbolTableRecord
100
AcDbTextStyleTableRecord
2
STANDARD
70
0
0
ENDTAB
0
TABLE
2
VIEW
5
6
100
AcDbSymbolTable
70
0
0
ENDTAB
0
TABLE
2
UCS
5
7
100
AcDbSymbolTable
70
0
0
ENDTAB
0
TABLE
2
APPID
5
9
100
AcDbSymbolTable
70
2
0
APPID
5
12
100
AcDbSymbolTableRecord
100
AcDbRegAppTableRecord
2
ACAD
70
0
0
ENDTAB
0
TABLE
2
DIMSTYLE
5
A
100
AcDbSymbolTable
70
1
0
ENDTAB
0
TABLE
2
BLOCK_RECORD
5
1
100
AcDbSymbolTable
70
1
0
BLOCK_RECORD
5
1F
100
AcDbSymbolTableRecord
100
AcDbBlockTableRecord
2
*MODEL_SPACE
0
BLOCK_RECORD
5
1B
100
AcDbSymbolTableRecord
100
AcDbBlockTableRecord
2
*PAPER_SPACE
0
ENDTAB
0
ENDSEC
0
SECTION
2
BLOCKS
0
BLOCK
5
20
100
AcDbEntity
100
AcDbBlockBegin
2
*MODEL_SPACE
0
ENDBLK
5
21
100
AcDbEntity
100
AcDbBlockEnd
0
BLOCK
5
1C
100
AcDbEntity
100
AcDbBlockBegin
2
*PAPER_SPACE
0
ENDBLK
5
1D
100
AcDbEntity
100
AcDbBlockEnd
0
ENDSEC
0
SECTION
2
ENTITIES
0
LINE
5
100
100
AcDbEntity
8
0
100
AcDbLine
10
-99.700000000000017
20
-31.300000000000004
30
0
11
-99.700000000000017
21
-34.300000000000004
31
0
0
LINE
5
101
100
AcDbEntity
8
0
100
AcDbLine
10
-99.700000000000017
20
-34.300000000000004
30
0
11
-97.800000000000011
21
-34.300000000000004
31
0
0
LINE
5
102
100
AcDbEntity
8
0
100
AcDbLine
10
-97.800000000000011
20
-30.300000000000004
30
0
11
-97.800000000000011
21
-31.300000000000004
31
0
0
LINE
5
103
100
AcDbEntity
8
0
100
AcDbLine
10
-97.800000000000011
20
-31.300000000000004
30
0
11
-99.700000000000017
21
-31.300000000000004
31
0
0
LINE
5
104
100
AcDbEntity
8
0
100
AcDbLine
10
-97.800000000000011
20
-34.300000000000004
30
0
11
-97.800000000000011
21
-35.299999999999997
31
0
0
LINE
5
105
100
AcDbEntity
8
0
100
AcDbLine
10
-97.800000000000011
20
-35.299999999999997
30
0
11
-94.400000000000006
21
-35.299999999999997
31
0
0
LINE
5
106
100
AcDbEntity
8
0
100
AcDbLine
10
-96.400000000000006
20
-29.000000000000004
30
0
11
-96.400000000000006
21
-30.300000000000004
31
0
0
LINE
5
107
100
AcDbEntity
8
0
100
AcDbLine
10
-96.400000000000006
20
-30.300000000000004
30
0
11
-97.800000000000011
21
-30.300000000000004
31
0
0
LINE
5
108
100
AcDbEntity
8
0
100
AcDbLine
10
-94.600000000000009
20
-29.000000000000004
30
0
11
-94.600000000000009
21
-30.300000000000004
31
0
0
LINE
5
109
100
AcDbEntity
8
0
100
AcDbLine
10
-94.600000000000009
20
-30.300000000000004
30
0
11
-92.600000000000023
21
-30.300000000000004
31
0
0
LINE
5
110
100
AcDbEntity
8
0
100
AcDbLine
10
-92.600000000000023
20
-30.300000000000004
30
0
11
-92.600000000000023
21
-29.000000000000004
31
0
0
LINE
5
111
100
AcDbEntity
8
0
100
AcDbLine
10
-92.300000000000011
20
-37.600000000000001
30
0
11
-94.400000000000006
21
-35.299999999999997
31
0
0
LINE
5
112
100
AcDbEntity
8
0
100
AcDbLine
10
-92.300000000000011
20
-37.600000000000001
30
0
11
-87.399999999999977
21
-37.600000000000001
31
0
0
LINE
5
113
100
AcDbEntity
8
0
100
AcDbLine
10
-87.399999999999977
20
-29.000000000000004
30
0
11
-87.399999999999977
21
-33.5
31
0
0
LINE
5
114
100
AcDbEntity
8
0
100
AcDbLine
10
-87.399999999999977
20
-36.399999999999999
30
0
11
-85.299999999999983
21
-36.399999999999999
31
0
0
LINE
5
115
100
AcDbEntity
8
0
100
AcDbLine
10
-87.399999999999977
20
-37.600000000000001
30
0
11
-87.399999999999977
21
-36.399999999999999
31
0
0
LINE
5
116
100
AcDbEntity
8
0
100
AcDbLine
10
-85.299999999999983
20
-33.5
30
0
11
-87.399999999999977
21
-33.5
31
0
0
LINE
5
117
100
AcDbEntity
8
0
100
AcDbLine
10
-85.299999999999983
20
-36.399999999999999
30
0
11
-85.299999999999983
21
-33.5
31
0
0
CIRCLE
5
118
100
AcDbEntity
8
0
100
AcDbCircle
10
-95.5
20
-29.000000000000004
30
0
40
0.89999999999999991
210
0
220
0
230
1
0
CIRCLE
5
119
100
AcDbEntity
8
0
100
AcDbCircle
10
-90
20
-29.000000000000004
30
0
40
2.6000000000000001
210
0
220
0
230
1
0
CIRCLE
5
120
100
AcDbEntity
8
0
100
AcDbCircle
10
-84.5
20
-29.000000000000004
30
0
40
0.89999999999999991
210
0
220
0
230
1
0
LINE
5
121
100
AcDbEntity
8
0
100
AcDbLine
10
-42.700000000000003
20
-51.300000000000011
30
0
11
-42.700000000000003
21
-54.299999999999997
31
0
0
LINE
5
122
100
AcDbEntity
8
0
100
AcDbLine
10
-42.700000000000003
20
-54.299999999999997
30
0
11
-40.799999999999997
21
-54.299999999999997
31
0
0
LINE
5
123
100
AcDbEntity
8
0
100
AcDbLine
10
-40.799999999999997
20
-50.299999999999997
30
0
11
-40.799999999999997
21
-51.300000000000011
31
0
0
LINE
5
124
100
AcDbEntity
8
0
100
AcDbLine
10
-40.799999999999997
20
-51.300000000000011
30
0
11
-42.700000000000003
21
-51.300000000000011
31
0
0
LINE
5
125
100
AcDbEntity
8
0
100
AcDbLine
10
-40.799999999999997
20
-54.299999999999997
30
0
11
-40.799999999999997
21
-55.299999999999997
31
0
0
LINE
5
126
100
AcDbEntity
8
0
100
AcDbLine
10
-40.799999999999997
20
-55.299999999999997
30
0
11
-37.400000000000006
21
-55.299999999999997
31
0
0
LINE
5
127
100
AcDbEntity
8
0
100
AcDbLine
10
-39.400000000000006
20
-49
30
0
11
-39.400000000000006
21
-50.299999999999997
31
0
0
LINE
5
128
100
AcDbEntity
8
0
100
AcDbLine
10
-39.400000000000006
20
-50.299999999999997
30
0
11
-40.799999999999997
21
-50.299999999999997
31
0
0
LINE
5
129
100
AcDbEntity
8
0
100
AcDbLine
10
-37.600000000000009
20
-49
30
0
11
-37.600000000000009
21
-50.299999999999997
31
0
0
LINE
5
130
100
AcDbEntity
8
0
100
AcDbLine
10
-37.600000000000009
20
-50.299999999999997
30
0
11
-35.600000000000009
21
-50.299999999999997
31
0
0
LINE
5
131
100
AcDbEntity
8
0
100
AcDbLine
10
-35.600000000000009
20
-50.299999999999997
30
0
11
-35.600000000000009
21
-49
31
0
0
LINE
5
132
100
AcDbEntity
8
0
100
AcDbLine
10
-35.300000000000004
20
-57.599999999999994
30
0
11
-37.400000000000006
21
-55.299999999999997
31
0
0
LINE
5
133
100
AcDbEntity
8
0
100
AcDbLine
10
-35.300000000000004
20
-57.599999999999994
30
0
11
-30.399999999999999
21
-57.599999999999994
31
0
0
LINE
5
134
100
AcDbEntity
8
0
100
AcDbLine
10
-30.399999999999999
20
-49
30
0
11
-30.399999999999999
21
-53.5
31
0
0
LINE
5
135
100
AcDbEntity
8
0
100
AcDbLine
10
-30.399999999999999
20
-56.400000000000006
30
0
11
-28.300000000000004
21
-56.400000000000006
31
0
0
LINE
5
136
100
AcDbEntity
8
0
100
AcDbLine
10
-30.399999999999999
20
-57.599999999999994
30
0
11
-30.399999999999999
21
-56.400000000000006
31
0
0
LINE
5
137
100
AcDbEntity
8
0
100
AcDbLine
10
-28.300000000000004
20
-53.5
30
0
11
-30.399999999999999
21
-53.5
31
0
0
LINE
5
138
100
AcDbEntity
8
0
100
AcDbLine
10
-28.300000000000004
20
-56.400000000000006
30
0
11
-28.300000000000004
21
-53.5
31
0
0
CIRCLE
5
139
100
AcDbEntity
8
0
100
AcDbCircle
10
-38.500000000000007
20
-49
30
0
40
0.89999999999999991
210
0
220
0
230
1
0
CIRCLE
5
140
100
AcDbEntity
8
0
100
AcDbCircle
10
-33
20
-49
30
0
40
2.6000000000000001
210
0
220
0
230
1
0
CIRCLE
5
141
100
AcDbEntity
8
0
100
AcDbCircle
10
-27.500000000000004
20
-49
30
0
40
0.89999999999999991
210
0
220
0
230
1
0
LINE
5
142
100
AcDbEntity
8
0
100
AcDbLine
10
-137.69999999999999
20
-37.299999999999997
30
0
11
-137.69999999999999
21
-40.299999999999997
31
0
0
LINE
5
143
100
AcDbEntity
8
0
100
AcDbLine
10
-137.69999999999999
20
-40.299999999999997
30
0
11
-135.79999999999998
21
-40.299999999999997
31
0
0
LINE
5
144
100
AcDbEntity
8
0
100
AcDbLine
10
-135.79999999999998
20
-36.299999999999997
30
0
11
-135.79999999999998
21
-37.299999999999997
31
0
0
LINE
5
145
100
AcDbEntity
8
0
100
AcDbLine
10
-135.79999999999998
20
-37.299999999999997
30
0
11
-137.69999999999999
21
-37.299999999999997
31
0
0
LINE
5
146
100
AcDbEntity
8
0
100
AcDbLine
10
-135.79999999999998
20
-40.299999999999997
30
0
11
-135.79999999999998
21
-41.300000000000011
31
0
0
LINE
5
147
100
AcDbEntity
8
0
100
AcDbLine
10
-135.79999999999998
20
-41.300000000000011
30
0
11
-132.40000000000003
21
-41.300000000000011
31
0
0
LINE
5
148
100
AcDbEntity
8
0
100
AcDbLine
10
-134.40000000000001
20
-35.000000000000007
30
0
11
-134.40000000000001
21
-36.299999999999997
31
0
0
LINE
5
149
100
AcDbEntity
8
0
100
AcDbLine
10
-134.40000000000001
20
-36.299999999999997
30
0
11
-135.79999999999998
21
-36.299999999999997
31
0
0
LINE
5
150
100
AcDbEntity
8
0
100
AcDbLine
10
-132.60000000000002
20
-35.000000000000007
30
0
11
-132.60000000000002
21
-36.299999999999997
31
0
0
LINE
5
151
100
AcDbEntity
8
0
100
AcDbLine
10
-132.60000000000002
20
-36.299999999999997
30
0
11
-130.59999999999999
21
-36.299999999999997
31
0
0
LINE
5
152
100
AcDbEntity
8
0
100
AcDbLine
10
-130.59999999999999
20
-36.299999999999997
30
0
11
-130.59999999999999
21
-35.000000000000007
31
0
0
LINE
5
153
100
AcDbEntity
8
0
100
AcDbLine
10
-130.29999999999998
20
-43.600000000000009
30
0
11
-132.40000000000003
21
-41.300000000000011
31
0
0
LINE
5
154
100
AcDbEntity
8
0
100
AcDbLine
10
-130.29999999999998
20
-43.600000000000009
30
0
11
-125.40000000000003
21
-43.600000000000009
31
0
0
LINE
5
155
100
AcDbEntity
8
0
100
AcDbLine
10
-125.40000000000003
20
-35.000000000000007
30
0
11
-125.40000000000003
21
-39.5
31
0
0
LINE
5
156
100
AcDbEntity
8
0
100
AcDbLine
10
-125.40000000000003
20
-42.400000000000006
30
0
11
-123.30000000000001
21
-42.400000000000006
31
0
0
LINE
5
157
100
AcDbEntity
8
0
100
AcDbLine
10
-125.40000000000003
20
-43.600000000000009
30
0
11
-125.40000000000003
21
-42.400000000000006
31
0
0
LINE
5
158
100
AcDbEntity
8
0
100
AcDbLine
10
-123.30000000000001
20
-39.5
30
0
11
-125.40000000000003
21
-39.5
31
0
0
LINE
5
159
100
AcDbEntity
8
0
100
AcDbLine
10
-123.30000000000001
20
-42.400000000000006
30
0
11
-123.30000000000001
21
-39.5
31
0
0
CIRCLE
5
160
100
AcDbEntity
8
0
100
AcDbCircle
10
-133.5
20
-35.000000000000007
30
0
40
0.89999999999999991
210
0
220
0
230
1
0
CIRCLE
5
161
100
AcDbEntity
8
0
100
AcDbCircle
10
-128
20
-35.000000000000007
30
0
40
2.6000000000000001
210
0
220
0
230
1
0
CIRCLE
5
162
100
AcDbEntity
8
0
100
AcDbCircle
10
-122.5
20
-35.000000000000007
30
0
40
0.89999999999999991
210
0
220
0
230
1
0
LINE
5
163
100
AcDbEntity
8
0
100
AcDbLine
10
-99.700000000000017
20
-15.300000000000002
30
0
11
-99.700000000000017
21
-18.300000000000004
31
0
0
LINE
5
164
100
AcDbEntity
8
0
100
AcDbLine
10
-99.700000000000017
20
-18.300000000000004
30
0
11
-97.800000000000011
21
-18.300000000000004
31
0
0
LINE
5
165
100
AcDbEntity
8
0
100
AcDbLine
10
-97.800000000000011
20
-14.300000000000001
30
0
11
-97.800000000000011
21
-15.300000000000002
31
0
0
LINE
5
166
100
AcDbEntity
8
0
100
AcDbLine
10
-97.800000000000011
20
-15.300000000000002
30
0
11
-99.700000000000017
21
-15.300000000000002
31
0
0
LINE
5
167
100
AcDbEntity
8
0
100
AcDbLine
10
-97.800000000000011
20
-18.300000000000004
30
0
11
-97.800000000000011
21
-19.300000000000001
31
0
0
LINE
5
168
100
AcDbEntity
8
0
100
AcDbLine
10
-97.800000000000011
20
-19.300000000000001
30
0
11
-94.400000000000006
21
-19.300000000000001
31
0
0
LINE
5
169
100
AcDbEntity
8
0
100
AcDbLine
10
-96.400000000000006
20
-13.000000000000004
30
0
11
-96.400000000000006
21
-14.300000000000001
31
0
0
LINE
5
170
100
AcDbEntity
8
0
100
AcDbLine
10
-96.400000000000006
20
-14.300000000000001
30
0
11
-97.800000000000011
21
-14.300000000000001
31
0
0
LINE
5
171
100
AcDbEntity
8
0
100
AcDbLine
10
-94.600000000000009
20
-13.000000000000004
30
0
11
-94.600000000000009
21
-14.300000000000001
31
0
0
LINE
5
172
100
AcDbEntity
8
0
100
AcDbLine
10
-94.600000000000009
20
-14.300000000000001
30
0
11
-92.600000000000023
21
-14.300000000000001
31
0
0
LINE
5
173
100
AcDbEntity
8
0
100
AcDbLine
10
-92.600000000000023
20
-14.300000000000001
30
0
11
-92.600000000000023
21
-13.000000000000004
31
0
0
LINE
5
174
100
AcDbEntity
8
0
100
AcDbLine
10
-92.300000000000011
20
-21.600000000000001
30
0
11
-94.400000000000006
21
-19.300000000000001
31
0
0
LINE
5
175
100
AcDbEntity
8
0
100
AcDbLine
10
-92.300000000000011
20
-21.600000000000001
30
0
11
-87.399999999999977
21
-21.600000000000001
31
0
0
LINE
5
176
100
AcDbEntity
8
0
100
AcDbLine
10
-87.399999999999977
20
-13.000000000000004
30
0
11
-87.399999999999977
21
-17.500000000000004
31
0
0
LINE
5
177
100
AcDbEntity
8
0
100
AcDbLine
10
-87.399999999999977
20
-20.399999999999999
30
0
11
-85.299999999999983
21
-20.399999999999999
31
0
0
LINE
5
178
100
AcDbEntity
8
0
100
AcDbLine
10
-87.399999999999977
20
-21.600000000000001
30
0
11
-87.399999999999977
21
-20.399999999999999
31
0
0
LINE
5
179
100
AcDbEntity
8
0
100
AcDbLine
10
-85.299999999999983
20
-17.500000000000004
30
0
11
-87.399999999999977
21
-17.500000000000004
31
0
0
LINE
5
180
100
AcDbEntity
8
0
100
AcDbLine
10
-85.299999999999983
20
-20.399999999999999
30
0
11
-85.299999999999983
21
-17.500000000000004
31
0
0
CIRCLE
5
181
100
AcDbEntity
8
0
100
AcDbCircle
10
-95.5
20
-13.000000000000004
30
0
40
0.89999999999999991
210
0
220
0
230
1
0
CIRCLE
5
182
100
AcDbEntity
8
0
100
AcDbCircle
10
-90
20
-13.000000000000004
30
0
40
2.6000000000000001
210
0
220
0
230
1
0
CIRCLE
5
183
100
AcDbEntity
8
0
100
AcDbCircle
10
-84.5
20
-13.000000000000004
30
0
40
0.89999999999999991
210
0
220
0
230
1
0
LINE
5
184
100
AcDbEntity
8
0
100
AcDbLine
10
-45.752026000000008
20
-73.380671000000007
30
0
11
-46.272970999999998
21
-76.335093999999998
31
0
0
LINE
5
185
100
AcDbEntity
8
0
100
AcDbLine
10
-46.272970999999998
20
-76.335093999999998
30
0
11
-44.40183600000001
21
-76.665025
31
0
0
LINE
5
186
100
AcDbEntity
8
0
100
AcDbLine
10
-43.707242999999998
20
-72.725793999999993
30
0
11
-43.880891000000005
21
-73.710601999999994
31
0
0
LINE
5
187
100
AcDbEntity
8
0
100
AcDbLine
10
-43.880891000000005
20
-73.710601999999994
30
0
11
-45.752026000000008
21
-73.380671000000007
31
0
0
LINE
5
188
100
AcDbEntity
8
0
100
AcDbLine
10
-44.40183600000001
20
-76.665025
30
0
11
-44.575484000000003
21
-77.649833000000001
31
0
0
LINE
5
189
100
AcDbEntity
8
0
100
AcDbLine
10
-44.575484000000003
20
-77.649833000000001
30
0
11
-41.227137999999997
21
-78.240236999999993
31
0
0
LINE
5
190
100
AcDbEntity
8
0
100
AcDbLine
10
-42.102770000000007
20
-71.68865199999999
30
0
11
-42.328512000000003
21
-72.968902
31
0
0
LINE
5
191
100
AcDbEntity
8
0
100
AcDbLine
10
-42.328512000000003
20
-72.968902
30
0
11
-43.707242999999998
21
-72.725793999999993
31
0
0
LINE
5
192
100
AcDbEntity
8
0
100
AcDbLine
10
-40.330116000000004
20
-72.001217999999994
30
0
11
-40.555858000000001
21
-73.281468000000004
31
0
0
LINE
5
193
100
AcDbEntity
8
0
100
AcDbLine
10
-40.555858000000001
20
-73.281468000000004
30
0
11
-38.58624300000001
21
-73.628765000000001
31
0
0
LINE
5
194
100
AcDbEntity
8
0
100
AcDbLine
10
-38.58624300000001
20
-73.628765000000001
30
0
11
-38.360500000000009
21
-72.348514999999992
31
0
0
LINE
5
195
100
AcDbEntity
8
0
100
AcDbLine
10
-39.558432000000003
20
-80.869956000000002
30
0
11
-41.227137999999997
21
-78.240236999999993
31
0
0
LINE
5
196
100
AcDbEntity
8
0
100
AcDbLine
10
-39.558432000000003
20
-80.869956000000002
30
0
11
-34.732873999999995
21
-81.720832000000001
31
0
0
LINE
5
197
100
AcDbEntity
8
0
100
AcDbLine
10
-33.239500000000007
20
-73.251485000000002
30
0
11
-34.020917000000004
21
-77.683120000000002
31
0
0
LINE
5
198
100
AcDbEntity
8
0
100
AcDbLine
10
-34.524496000000006
20
-80.539062999999999
30
0
11
-32.456400000000002
21
-80.903723999999983
31
0
0
LINE
5
199
100
AcDbEntity
8
0
100
AcDbLine
10
-34.732873999999995
20
-81.720832000000001
30
0
11
-34.524496000000006
21
-80.539062999999999
31
0
0
LINE
5
200
100
AcDbEntity
8
0
100
AcDbLine
10
-31.952819999999996
20
-78.047781000000001
30
0
11
-34.020917000000004
21
-77.683120000000002
31
0
0
LINE
5
201
100
AcDbEntity
8
0
100
AcDbLine
10
-32.456400000000002
20
-80.903723999999983
30
0
11
-31.952819999999996
21
-78.047781000000001
31
0
0
CIRCLE
5
202
100
AcDbEntity
8
0
100
AcDbCircle
10
-41.216442999999998
20
-71.844935000000007
30
0
40
0.89999999999999991
210
0
220
0
230
1
0
CIRCLE
5
203
100
AcDbEntity
8
0
100
AcDbCircle
10
-35.799999999999997
20
-72.799999999999997
30
0
40
2.6000000000000001
210
0
220
0
230
1
0
CIRCLE
5
204
100
AcDbEntity
8
0
100
AcDbCircle
10
-30.383557000000003
20
-73.755065000000002
30
0
40
0.89999999999999991
210
0
220
0
230
1
0
LINE
5
205
100
AcDbEntity
8
0
100
AcDbLine
10
-42.700000000000003
20
-35.299999999999997
30
0
11
-42.700000000000003
21
-38.299999999999997
31
0
0
LINE
5
206
100
AcDbEntity
8
0
100
AcDbLine
10
-42.700000000000003
20
-38.299999999999997
30
0
11
-40.799999999999997
21
-38.299999999999997
31
0
0
LINE
5
207
100
AcDbEntity
8
0
100
AcDbLine
10
-40.799999999999997
20
-34.300000000000004
30
0
11
-40.799999999999997
21
-35.299999999999997
31
0
0
LINE
5
208
100
AcDbEntity
8
0
100
AcDbLine
10
-40.799999999999997
20
-35.299999999999997
30
0
11
-42.700000000000003
21
-35.299999999999997
31
0
0
LINE
5
209
100
AcDbEntity
8
0
100
AcDbLine
10
-40.799999999999997
20
-38.299999999999997
30
0
11
-40.799999999999997
21
-39.300000000000004
31
0
0
LINE
5
210
100
AcDbEntity
8
0
100
AcDbLine
10
-40.799999999999997
20
-39.300000000000004
30
0
11
-37.400000000000006
21
-39.300000000000004
31
0
0
LINE
5
211
100
AcDbEntity
8
0
100
AcDbLine
10
-39.400000000000006
20
-33
30
0
11
-39.400000000000006
21
-34.300000000000004
31
0
0
LINE
5
212
100
AcDbEntity
8
0
100
AcDbLine
10
-39.400000000000006
20
-34.300000000000004
30
0
11
-40.799999999999997
21
-34.300000000000004
31
0
0
LINE
5
213
100
AcDbEntity
8
0
100
AcDbLine
10
-37.600000000000009
20
-33
30
0
11
-37.600000000000009
21
-34.300000000000004
31
0
0
LINE
5
214
100
AcDbEntity
8
0
100
AcDbLine
10
-37.600000000000009
20
-34.300000000000004
30
0
11
-35.600000000000009
21
-34.300000000000004
31
0
0
LINE
5
215
100
AcDbEntity
8
0
100
AcDbLine
10
-35.600000000000009
20
-34.300000000000004
30
0
11
-35.600000000000009
21
-33
31
0
0
LINE
5
216
100
AcDbEntity
8
0
100
AcDbLine
10
-35.300000000000004
20
-41.600000000000001
30
0
11
-37.400000000000006
21
-39.300000000000004
31
0
0
LINE
5
217
100
AcDbEntity
8
0
100
AcDbLine
10
-35.300000000000004
20
-41.600000000000001
30
0
11
-30.399999999999999
21
-41.600000000000001
31
0
0
LINE
5
218
100
AcDbEntity
8
0
100
AcDbLine
10
-30.399999999999999
20
-33
30
0
11
-30.399999999999999
21
-37.500000000000007
31
0
0
LINE
5
219
100
AcDbEntity
8
0
100
AcDbLine
10
-30.399999999999999
20
-40.399999999999991
30
0
11
-28.300000000000004
21
-40.399999999999991
31
0
0
LINE
5
220
100
AcDbEntity
8
0
100
AcDbLine
10
-30.399999999999999
20
-41.600000000000001
30
0
11
-30.399999999999999
21
-40.399999999999991
31
0
0
LINE
5
221
100
AcDbEntity
8
0
100
AcDbLine
10
-28.300000000000004
20
-37.500000000000007
30
0
11
-30.399999999999999
21
-37.500000000000007
31
0
0
LINE
5
222
100
AcDbEntity
8
0
100
AcDbLine
10
-28.300000000000004
20
-40.399999999999991
30
0
11
-28.300000000000004
21
-37.500000000000007
31
0
0
CIRCLE
5
223
100
AcDbEntity
8
0
100
AcDbCircle
10
-38.500000000000007
20
-33
30
0
40
0.89999999999999991
210
0
220
0
230
1
0
CIRCLE
5
224
100
AcDbEntity
8
0
100
AcDbCircle
10
-33
20
-33
30
0
40
2.6000000000000001
210
0
220
0
230
1
0
CIRCLE
5
225
100
AcDbEntity
8
0
100
AcDbCircle
10
-27.500000000000004
20
-33
30
0
40
0.89999999999999991
210
0
220
0
230
1
0
LINE
5
226
100
AcDbEntity
8
0
100
AcDbLine
10
-80.700000000000003
20
-27.300000000000004
30
0
11
-80.700000000000003
21
-30.300000000000004
31
0
0
LINE
5
227
100
AcDbEntity
8
0
100
AcDbLine
10
-80.700000000000003
20
-30.300000000000004
30
0
11
-78.799999999999983
21
-30.300000000000004
31
0
0
LINE
5
228
100
AcDbEntity
8
0
100
AcDbLine
10
-78.799999999999983
20
-26.300000000000004
30
0
11
-78.799999999999983
21
-27.300000000000004
31
0
0
LINE
5
229
100
AcDbEntity
8
0
100
AcDbLine
10
-78.799999999999983
20
-27.300000000000004
30
0
11
-80.700000000000003
21
-27.300000000000004
31
0
0
LINE
5
230
100
AcDbEntity
8
0
100
AcDbLine
10
-78.799999999999983
20
-30.300000000000004
30
0
11
-78.799999999999983
21
-31.300000000000004
31
0
0
LINE
5
231
100
AcDbEntity
8
0
100
AcDbLine
10
-78.799999999999983
20
-31.300000000000004
30
0
11
-75.400000000000006
21
-31.300000000000004
31
0
0
LINE
5
232
100
AcDbEntity
8
0
100
AcDbLine
10
-77.399999999999991
20
-25.000000000000004
30
0
11
-77.399999999999991
21
-26.300000000000004
31
0
0
LINE
5
233
100
AcDbEntity
8
0
100
AcDbLine
10
-77.399999999999991
20
-26.300000000000004
30
0
11
-78.799999999999983
21
-26.300000000000004
31
0
0
LINE
5
234
100
AcDbEntity
8
0
100
AcDbLine
10
-75.599999999999994
20
-25.000000000000004
30
0
11
-75.599999999999994
21
-26.300000000000004
31
0
0
LINE
5
235
100
AcDbEntity
8
0
100
AcDbLine
10
-75.599999999999994
20
-26.300000000000004
30
0
11
-73.59999999999998
21
-26.300000000000004
31
0
0
LINE
5
236
100
AcDbEntity
8
0
100
AcDbLine
10
-73.59999999999998
20
-26.300000000000004
30
0
11
-73.59999999999998
21
-25.000000000000004
31
0
0
LINE
5
237
100
AcDbEntity
8
0
100
AcDbLine
10
-73.299999999999997
20
-33.600000000000001
30
0
11
-75.400000000000006
21
-31.300000000000004
31
0
0
LINE
5
238
100
AcDbEntity
8
0
100
AcDbLine
10
-73.299999999999997
20
-33.600000000000001
30
0
11
-68.400000000000006
21
-33.600000000000001
31
0
0
LINE
5
239
100
AcDbEntity
8
0
100
AcDbLine
10
-68.400000000000006
20
-25.000000000000004
30
0
11
-68.400000000000006
21
-29.5
31
0
0
LINE
5
240
100
AcDbEntity
8
0
100
AcDbLine
10
-68.400000000000006
20
-32.400000000000006
30
0
11
-66.299999999999997
21
-32.400000000000006
31
0
0
LINE
5
241
100
AcDbEntity
8
0
100
AcDbLine
10
-68.400000000000006
20
-33.600000000000001
30
0
11
-68.400000000000006
21
-32.400000000000006
31
0
0
LINE
5
242
100
AcDbEntity
8
0
100
AcDbLine
10
-66.299999999999997
20
-29.5
30
0
11
-68.400000000000006
21
-29.5
31
0
0
LINE
5
243
100
AcDbEntity
8
0
100
AcDbLine
10
-66.299999999999997
20
-32.400000000000006
30
0
11
-66.299999999999997
21
-29.5
31
0
0
CIRCLE
5
244
100
AcDbEntity
8
0
100
AcDbCircle
10
-76.5
20
-25.000000000000004
30
0
40
0.89999999999999991
210
0
220
0
230
1
0
CIRCLE
5
245
100
AcDbEntity
8
0
100
AcDbCircle
10
-71
20
-25.000000000000004
30
0
40
2.6000000000000001
210
0
220
0
230
1
0
CIRCLE
5
246
100
AcDbEntity
8
0
100
AcDbCircle
10
-65.5
20
-25.000000000000004
30
0
40
0.89999999999999991
210
0
220
0
230
1
0
LINE
5
247
100
AcDbEntity
8
0
100
AcDbLine
10
-80.700000000000003
20
-43.299999999999997
30
0
11
-80.700000000000003
21
-46.300000000000011
31
0
0
LINE
5
248
100
AcDbEntity
8
0
100
AcDbLine
10
-80.700000000000003
20
-46.300000000000011
30
0
11
-78.799999999999983
21
-46.300000000000011
31
0
0
LINE
5
249
100
AcDbEntity
8
0
100
AcDbLine
10
-78.799999999999983
20
-42.300000000000004
30
0
11
-78.799999999999983
21
-43.299999999999997
31
0
0
LINE
5
250
100
AcDbEntity
8
0
100
AcDbLine
10
-78.799999999999983
20
-43.299999999999997
30
0
11
-80.700000000000003
21
-43.299999999999997
31
0
0
LINE
5
251
100
AcDbEntity
8
0
100
AcDbLine
10
-78.799999999999983
20
-46.300000000000011
30
0
11
-78.799999999999983
21
-47.300000000000004
31
0
0
LINE
5
252
100
AcDbEntity
8
0
100
AcDbLine
10
-78.799999999999983
20
-47.300000000000004
30
0
11
-75.400000000000006
21
-47.300000000000004
31
0
0
LINE
5
253
100
AcDbEntity
8
0
100
AcDbLine
10
-77.399999999999991
20
-41
30
0
11
-77.399999999999991
21
-42.300000000000004
31
0
0
LINE
5
254
100
AcDbEntity
8
0
100
AcDbLine
10
-77.399999999999991
20
-42.300000000000004
30
0
11
-78.799999999999983
21
-42.300000000000004
31
0
0
LINE
5
255
100
AcDbEntity
8
0
100
AcDbLine
10
-75.599999999999994
20
-41
30
0
11
-75.599999999999994
21
-42.300000000000004
31
0
0
LINE
5
256
100
AcDbEntity
8
0
100
AcDbLine
10
-75.599999999999994
20
-42.300000000000004
30
0
11
-73.59999999999998
21
-42.300000000000004
31
0
0
LINE
5
257
100
AcDbEntity
8
0
100
AcDbLine
10
-73.59999999999998
20
-42.300000000000004
30
0
11
-73.59999999999998
21
-41
31
0
0
LINE
5
258
100
AcDbEntity
8
0
100
AcDbLine
10
-73.299999999999997
20
-49.600000000000009
30
0
11
-75.400000000000006
21
-47.300000000000004
31
0
0
LINE
5
259
100
AcDbEntity
8
0
100
AcDbLine
10
-73.299999999999997
20
-49.600000000000009
30
0
11
-68.400000000000006
21
-49.600000000000009
31
0
0
LINE
5
260
100
AcDbEntity
8
0
100
AcDbLine
10
-68.400000000000006
20
-41
30
0
11
-68.400000000000006
21
-45.500000000000007
31
0
0
LINE
5
261
100
AcDbEntity
8
0
100
AcDbLine
10
-68.400000000000006
20
-48.399999999999999
30
0
11
-66.299999999999997
21
-48.399999999999999
31
0
0
LINE
5
262
100
AcDbEntity
8
0
100
AcDbLine
10
-68.400000000000006
20
-49.600000000000009
30
0
11
-68.400000000000006
21
-48.399999999999999
31
0
0
LINE
5
263
100
AcDbEntity
8
0
100
AcDbLine
10
-66.299999999999997
20
-45.500000000000007
30
0
11
-68.400000000000006
21
-45.500000000000007
31
0
0
LINE
5
264
100
AcDbEntity
8
0
100
AcDbLine
10
-66.299999999999997
20
-48.399999999999999
30
0
11
-66.299999999999997
21
-45.500000000000007
31
0
0
CIRCLE
5
265
100
AcDbEntity
8
0
100
AcDbCircle
10
-76.5
20
-41
30
0
40
0.89999999999999991
210
0
220
0
230
1
0
CIRCLE
5
266
100
AcDbEntity
8
0
100
AcDbCircle
10
-71
20
-41
30
0
40
2.6000000000000001
210
0
220
0
230
1
0
CIRCLE
5
267
100
AcDbEntity
8
0
100
AcDbCircle
10
-65.5
20
-41
30
0
40
0.89999999999999991
210
0
220
0
230
1
0
LINE
5
268
100
AcDbEntity
8
0
100
AcDbLine
10
-99.700000000000017
20
-47.300000000000004
30
0
11
-99.700000000000017
21
-50.299999999999997
31
0
0
LINE
5
269
100
AcDbEntity
8
0
100
AcDbLine
10
-99.700000000000017
20
-50.299999999999997
30
0
11
-97.800000000000011
21
-50.299999999999997
31
0
0
LINE
5
270
100
AcDbEntity
8
0
100
AcDbLine
10
-97.800000000000011
20
-46.300000000000011
30
0
11
-97.800000000000011
21
-47.300000000000004
31
0
0
LINE
5
271
100
AcDbEntity
8
0
100
AcDbLine
10
-97.800000000000011
20
-47.300000000000004
30
0
11
-99.700000000000017
21
-47.300000000000004
31
0
0
LINE
5
272
100
AcDbEntity
8
0
100
AcDbLine
10
-97.800000000000011
20
-50.299999999999997
30
0
11
-97.800000000000011
21
-51.300000000000011
31
0
0
LINE
5
273
100
AcDbEntity
8
0
100
AcDbLine
10
-97.800000000000011
20
-51.300000000000011
30
0
11
-94.400000000000006
21
-51.300000000000011
31
0
0
LINE
5
274
100
AcDbEntity
8
0
100
AcDbLine
10
-96.400000000000006
20
-45
30
0
11
-96.400000000000006
21
-46.300000000000011
31
0
0
LINE
5
275
100
AcDbEntity
8
0
100
AcDbLine
10
-96.400000000000006
20
-46.300000000000011
30
0
11
-97.800000000000011
21
-46.300000000000011
31
0
0
LINE
5
276
100
AcDbEntity
8
0
100
AcDbLine
10
-94.600000000000009
20
-45
30
0
11
-94.600000000000009
21
-46.300000000000011
31
0
0
LINE
5
277
100
AcDbEntity
8
0
100
AcDbLine
10
-94.600000000000009
20
-46.300000000000011
30
0
11
-92.600000000000023
21
-46.300000000000011
31
0
0
LINE
5
278
100
AcDbEntity
8
0
100
AcDbLine
10
-92.600000000000023
20
-46.300000000000011
30
0
11
-92.600000000000023
21
-45
31
0
0
LINE
5
279
100
AcDbEntity
8
0
100
AcDbLine
10
-92.300000000000011
20
-53.600000000000009
30
0
11
-94.400000000000006
21
-51.300000000000011
31
0
0
LINE
5
280
100
AcDbEntity
8
0
100
AcDbLine
10
-92.300000000000011
20
-53.600000000000009
30
0
11
-87.399999999999977
21
-53.600000000000009
31
0
0
LINE
5
281
100
AcDbEntity
8
0
100
AcDbLine
10
-87.399999999999977
20
-45
30
0
11
-87.399999999999977
21
-49.500000000000014
31
0
0
LINE
5
282
100
AcDbEntity
8
0
100
AcDbLine
10
-87.399999999999977
20
-52.400000000000006
30
0
11
-85.299999999999983
21
-52.400000000000006
31
0
0
LINE
5
283
100
AcDbEntity
8
0
100
AcDbLine
10
-87.399999999999977
20
-53.600000000000009
30
0
11
-87.399999999999977
21
-52.400000000000006
31
0
0
LINE
5
284
100
AcDbEntity
8
0
100
AcDbLine
10
-85.299999999999983
20
-49.500000000000014
30
0
11
-87.399999999999977
21
-49.500000000000014
31
0
0
LINE
5
285
100
AcDbEntity
8
0
100
AcDbLine
10
-85.299999999999983
20
-52.400000000000006
30
0
11
-85.299999999999983
21
-49.500000000000014
31
0
0
CIRCLE
5
286
100
AcDbEntity
8
0
100
AcDbCircle
10
-95.5
20
-45
30
0
40
0.89999999999999991
210
0
220
0
230
1
0
CIRCLE
5
287
100
AcDbEntity
8
0
100
AcDbCircle
10
-90
20
-45
30
0
40
2.6000000000000001
210
0
220
0
230
1
0
CIRCLE
5
288
100
AcDbEntity
8
0
100
AcDbCircle
10
-84.5
20
-45
30
0
40
0.89999999999999991
210
0
220
0
230
1
0
LINE
5
289
100
AcDbEntity
8
0
100
AcDbLine
10
-42.700000000000003
20
-19.300000000000001
30
0
11
-42.700000000000003
21
-22.300000000000004
31
0
0
LINE
5
290
100
AcDbEntity
8
0
100
AcDbLine
10
-42.700000000000003
20
-22.300000000000004
30
0
11
-40.799999999999997
21
-22.300000000000004
31
0
0
LINE
5
291
100
AcDbEntity
8
0
100
AcDbLine
10
-40.799999999999997
20
-18.300000000000004
30
0
11
-40.799999999999997
21
-19.300000000000001
31
0
0
LINE
5
292
100
AcDbEntity
8
0
100
AcDbLine
10
-40.799999999999997
20
-19.300000000000001
30
0
11
-42.700000000000003
21
-19.300000000000001
31
0
0
LINE
5
293
100
AcDbEntity
8
0
100
AcDbLine
10
-40.799999999999997
20
-22.300000000000004
30
0
11
-40.799999999999997
21
-23.300000000000001
31
0
0
LINE
5
294
100
AcDbEntity
8
0
100
AcDbLine
10
-40.799999999999997
20
-23.300000000000001
30
0
11
-37.400000000000006
21
-23.300000000000001
31
0
0
LINE
5
295
100
AcDbEntity
8
0
100
AcDbLine
10
-39.400000000000006
20
-17
30
0
11
-39.400000000000006
21
-18.300000000000004
31
0
0
LINE
5
296
100
AcDbEntity
8
0
100
AcDbLine
10
-39.400000000000006
20
-18.300000000000004
30
0
11
-40.799999999999997
21
-18.300000000000004
31
0
0
LINE
5
297
100
AcDbEntity
8
0
100
AcDbLine
10
-37.600000000000009
20
-17
30
0
11
-37.600000000000009
21
-18.300000000000004
31
0
0
LINE
5
298
100
AcDbEntity
8
0
100
AcDbLine
10
-37.600000000000009
20
-18.300000000000004
30
0
11
-35.600000000000009
21
-18.300000000000004
31
0
0
LINE
5
299
100
AcDbEntity
8
0
100
AcDbLine
10
-35.600000000000009
20
-18.300000000000004
30
0
11
-35.600000000000009
21
-17
31
0
0
LINE
5
300
100
AcDbEntity
8
0
100
AcDbLine
10
-35.300000000000004
20
-25.600000000000005
30
0
11
-37.400000000000006
21
-23.300000000000001
31
0
0
LINE
5
301
100
AcDbEntity
8
0
100
AcDbLine
10
-35.300000000000004
20
-25.600000000000005
30
0
11
-30.399999999999999
21
-25.600000000000005
31
0
0
LINE
5
302
100
AcDbEntity
8
0
100
AcDbLine
10
-30.399999999999999
20
-17
30
0
11
-30.399999999999999
21
-21.500000000000004
31
0
0
LINE
5
303
100
AcDbEntity
8
0
100
AcDbLine
10
-30.399999999999999
20
-24.399999999999999
30
0
11
-28.300000000000004
21
-24.399999999999999
31
0
0
LINE
5
304
100
AcDbEntity
8
0
100
AcDbLine
10
-30.399999999999999
20
-25.600000000000005
30
0
11
-30.399999999999999
21
-24.399999999999999
31
0
0
LINE
5
305
100
AcDbEntity
8
0
100
AcDbLine
10
-28.300000000000004
20
-21.500000000000004
30
0
11
-30.399999999999999
21
-21.500000000000004
31
0
0
LINE
5
306
100
AcDbEntity
8
0
100
AcDbLine
10
-28.300000000000004
20
-24.399999999999999
30
0
11
-28.300000000000004
21
-21.500000000000004
31
0
0
CIRCLE
5
307
100
AcDbEntity
8
0
100
AcDbCircle
10
-38.500000000000007
20
-17
30
0
40
0.89999999999999991
210
0
220
0
230
1
0
CIRCLE
5
308
100
AcDbEntity
8
0
100
AcDbCircle
10
-33
20
-17
30
0
40
2.6000000000000001
210
0
220
0
230
1
0
CIRCLE
5
309
100
AcDbEntity
8
0
100
AcDbCircle
10
-27.500000000000004
20
-17
30
0
40
0.89999999999999991
210
0
220
0
230
1
0
LINE
5
310
100
AcDbEntity
8
0
100
AcDbLine
10
-118.70000000000002
20
-37.299999999999997
30
0
11
-118.70000000000002
21
-40.299999999999997
31
0
0
LINE
5
311
100
AcDbEntity
8
0
100
AcDbLine
10
-118.70000000000002
20
-40.299999999999997
30
0
11
-116.8
21
-40.299999999999997
31
0
0
LINE
5
312
100
AcDbEntity
8
0
100
AcDbLine
10
-116.8
20
-36.299999999999997
30
0
11
-116.8
21
-37.299999999999997
31
0
0
LINE
5
313
100
AcDbEntity
8
0
100
AcDbLine
10
-116.8
20
-37.299999999999997
30
0
11
-118.70000000000002
21
-37.299999999999997
31
0
0
LINE
5
314
100
AcDbEntity
8
0
100
AcDbLine
10
-116.8
20
-40.299999999999997
30
0
11
-116.8
21
-41.300000000000011
31
0
0
LINE
5
315
100
AcDbEntity
8
0
100
AcDbLine
10
-116.8
20
-41.300000000000011
30
0
11
-113.40000000000001
21
-41.300000000000011
31
0
0
LINE
5
316
100
AcDbEntity
8
0
100
AcDbLine
10
-115.40000000000003
20
-35.000000000000007
30
0
11
-115.40000000000003
21
-36.299999999999997
31
0
0
LINE
5
317
100
AcDbEntity
8
0
100
AcDbLine
10
-115.40000000000003
20
-36.299999999999997
30
0
11
-116.8
21
-36.299999999999997
31
0
0
LINE
5
318
100
AcDbEntity
8
0
100
AcDbLine
10
-113.59999999999999
20
-35.000000000000007
30
0
11
-113.59999999999999
21
-36.299999999999997
31
0
0
LINE
5
319
100
AcDbEntity
8
0
100
AcDbLine
10
-113.59999999999999
20
-36.299999999999997
30
0
11
-111.59999999999999
21
-36.299999999999997
31
0
0
LINE
5
320
100
AcDbEntity
8
0
100
AcDbLine
10
-111.59999999999999
20
-36.299999999999997
30
0
11
-111.59999999999999
21
-35.000000000000007
31
0
0
LINE
5
321
100
AcDbEntity
8
0
100
AcDbLine
10
-111.29999999999998
20
-43.600000000000009
30
0
11
-113.40000000000001
21
-41.300000000000011
31
0
0
LINE
5
322
100
AcDbEntity
8
0
100
AcDbLine
10
-111.29999999999998
20
-43.600000000000009
30
0
11
-106.40000000000001
21
-43.600000000000009
31
0
0
LINE
5
323
100
AcDbEntity
8
0
100
AcDbLine
10
-106.40000000000001
20
-35.000000000000007
30
0
11
-106.40000000000001
21
-39.5
31
0
0
LINE
5
324
100
AcDbEntity
8
0
100
AcDbLine
10
-106.40000000000001
20
-42.400000000000006
30
0
11
-104.3
21
-42.400000000000006
31
0
0
LINE
5
325
100
AcDbEntity
8
0
100
AcDbLine
10
-106.40000000000001
20
-43.600000000000009
30
0
11
-106.40000000000001
21
-42.400000000000006
31
0
0
LINE
5
326
100
AcDbEntity
8
0
100
AcDbLine
10
-104.3
20
-39.5
30
0
11
-106.40000000000001
21
-39.5
31
0
0
LINE
5
327
100
AcDbEntity
8
0
100
AcDbLine
10
-104.3
20
-42.400000000000006
30
0
11
-104.3
21
-39.5
31
0
0
CIRCLE
5
328
100
AcDbEntity
8
0
100
AcDbCircle
10
-114.5
20
-35.000000000000007
30
0
40
0.89999999999999991
210
0
220
0
230
1
0
CIRCLE
5
329
100
AcDbEntity
8
0
100
AcDbCircle
10
-109.00000000000003
20
-35.000000000000007
30
0
40
2.6000000000000001
210
0
220
0
230
1
0
CIRCLE
5
330
100
AcDbEntity
8
0
100
AcDbCircle
10
-103.50000000000001
20
-35.000000000000007
30
0
40
0.89999999999999991
210
0
220
0
230
1
0
LINE
5
331
100
AcDbEntity
8
0
100
AcDbLine
10
-65.700000000000017
20
-73.299999999999983
30
0
11
-65.700000000000017
21
-76.299999999999983
31
0
0
LINE
5
332
100
AcDbEntity
8
0
100
AcDbLine
10
-65.700000000000017
20
-76.299999999999983
30
0
11
-63.799999999999997
21
-76.299999999999983
31
0
0
LINE
5
333
100
AcDbEntity
8
0
100
AcDbLine
10
-63.799999999999997
20
-72.300000000000011
30
0
11
-63.799999999999997
21
-73.299999999999983
31
0
0
LINE
5
334
100
AcDbEntity
8
0
100
AcDbLine
10
-63.799999999999997
20
-73.299999999999983
30
0
11
-65.700000000000017
21
-73.299999999999983
31
0
0
LINE
5
335
100
AcDbEntity
8
0
100
AcDbLine
10
-63.799999999999997
20
-76.299999999999983
30
0
11
-63.799999999999997
21
-77.299999999999983
31
0
0
LINE
5
336
100
AcDbEntity
8
0
100
AcDbLine
10
-63.799999999999997
20
-77.299999999999983
30
0
11
-60.399999999999999
21
-77.299999999999983
31
0
0
LINE
5
337
100
AcDbEntity
8
0
100
AcDbLine
10
-62.400000000000006
20
-71
30
0
11
-62.400000000000006
21
-72.300000000000011
31
0
0
LINE
5
338
100
AcDbEntity
8
0
100
AcDbLine
10
-62.400000000000006
20
-72.300000000000011
30
0
11
-63.799999999999997
21
-72.300000000000011
31
0
0
LINE
5
339
100
AcDbEntity
8
0
100
AcDbLine
10
-60.600000000000009
20
-71
30
0
11
-60.600000000000009
21
-72.300000000000011
31
0
0
LINE
5
340
100
AcDbEntity
8
0
100
AcDbLine
10
-60.600000000000009
20
-72.300000000000011
30
0
11
-58.600000000000001
21
-72.300000000000011
31
0
0
LINE
5
341
100
AcDbEntity
8
0
100
AcDbLine
10
-58.600000000000001
20
-72.300000000000011
30
0
11
-58.600000000000001
21
-71
31
0
0
LINE
5
342
100
AcDbEntity
8
0
100
AcDbLine
10
-58.299999999999997
20
-79.599999999999994
30
0
11
-60.399999999999999
21
-77.299999999999983
31
0
0
LINE
5
343
100
AcDbEntity
8
0
100
AcDbLine
10
-58.299999999999997
20
-79.599999999999994
30
0
11
-53.400000000000006
21
-79.599999999999994
31
0
0
LINE
5
344
100
AcDbEntity
8
0
100
AcDbLine
10
-53.400000000000006
20
-71
30
0
11
-53.400000000000006
21
-75.5
31
0
0
LINE
5
345
100
AcDbEntity
8
0
100
AcDbLine
10
-53.400000000000006
20
-78.400000000000006
30
0
11
-51.299999999999997
21
-78.400000000000006
31
0
0
LINE
5
346
100
AcDbEntity
8
0
100
AcDbLine
10
-53.400000000000006
20
-79.599999999999994
30
0
11
-53.400000000000006
21
-78.400000000000006
31
0
0
LINE
5
347
100
AcDbEntity
8
0
100
AcDbLine
10
-51.299999999999997
20
-75.5
30
0
11
-53.400000000000006
21
-75.5
31
0
0
LINE
5
348
100
AcDbEntity
8
0
100
AcDbLine
10
-51.299999999999997
20
-78.400000000000006
30
0
11
-51.299999999999997
21
-75.5
31
0
0
CIRCLE
5
349
100
AcDbEntity
8
0
100
AcDbCircle
10
-61.5
20
-71
30
0
40
0.89999999999999991
210
0
220
0
230
1
0
CIRCLE
5
350
100
AcDbEntity
8
0
100
AcDbCircle
10
-56.000000000000007
20
-71
30
0
40
2.6000000000000001
210
0
220
0
230
1
0
CIRCLE
5
351
100
AcDbEntity
8
0
100
AcDbCircle
10
-50.500000000000007
20
-71
30
0
40
0.89999999999999991
210
0
220
0
230
1
0
LINE
5
352
100
AcDbEntity
8
0
100
AcDbLine
10
-61.70000000000001
20
-33.299999999999997
30
0
11
-61.70000000000001
21
-36.299999999999997
31
0
0
LINE
5
353
100
AcDbEntity
8
0
100
AcDbLine
10
-61.70000000000001
20
-36.299999999999997
30
0
11
-59.800000000000004
21
-36.299999999999997
31
0
0
LINE
5
354
100
AcDbEntity
8
0
100
AcDbLine
10
-59.800000000000004
20
-32.300000000000004
30
0
11
-59.800000000000004
21
-33.299999999999997
31
0
0
LINE
5
355
100
AcDbEntity
8
0
100
AcDbLine
10
-59.800000000000004
20
-33.299999999999997
30
0
11
-61.70000000000001
21
-33.299999999999997
31
0
0
LINE
5
356
100
AcDbEntity
8
0
100
AcDbLine
10
-59.800000000000004
20
-36.299999999999997
30
0
11
-59.800000000000004
21
-37.299999999999997
31
0
0
LINE
5
357
100
AcDbEntity
8
0
100
AcDbLine
10
-59.800000000000004
20
-37.299999999999997
30
0
11
-56.400000000000006
21
-37.299999999999997
31
0
0
LINE
5
358
100
AcDbEntity
8
0
100
AcDbLine
10
-58.400000000000006
20
-31
30
0
11
-58.400000000000006
21
-32.300000000000004
31
0
0
LINE
5
359
100
AcDbEntity
8
0
100
AcDbLine
10
-58.400000000000006
20
-32.300000000000004
30
0
11
-59.800000000000004
21
-32.300000000000004
31
0
0
LINE
5
360
100
AcDbEntity
8
0
100
AcDbLine
10
-56.600000000000009
20
-31
30
0
11
-56.600000000000009
21
-32.300000000000004
31
0
0
LINE
5
361
100
AcDbEntity
8
0
100
AcDbLine
10
-56.600000000000009
20
-32.300000000000004
30
0
11
-54.600000000000009
21
-32.300000000000004
31
0
0
LINE
5
362
100
AcDbEntity
8
0
100
AcDbLine
10
-54.600000000000009
20
-32.300000000000004
30
0
11
-54.600000000000009
21
-31
31
0
0
LINE
5
363
100
AcDbEntity
8
0
100
AcDbLine
10
-54.300000000000004
20
-39.600000000000001
30
0
11
-56.400000000000006
21
-37.299999999999997
31
0
0
LINE
5
364
100
AcDbEntity
8
0
100
AcDbLine
10
-54.300000000000004
20
-39.600000000000001
30
0
11
-49.400000000000006
21
-39.600000000000001
31
0
0
LINE
5
365
100
AcDbEntity
8
0
100
AcDbLine
10
-49.400000000000006
20
-31
30
0
11
-49.400000000000006
21
-35.5
31
0
0
LINE
5
366
100
AcDbEntity
8
0
100
AcDbLine
10
-49.400000000000006
20
-38.400000000000006
30
0
11
-47.300000000000004
21
-38.400000000000006
31
0
0
LINE
5
367
100
AcDbEntity
8
0
100
AcDbLine
10
-49.400000000000006
20
-39.600000000000001
30
0
11
-49.400000000000006
21
-38.400000000000006
31
0
0
LINE
5
368
100
AcDbEntity
8
0
100
AcDbLine
10
-47.300000000000004
20
-35.5
30
0
11
-49.400000000000006
21
-35.5
31
0
0
LINE
5
369
100
AcDbEntity
8
0
100
AcDbLine
10
-47.300000000000004
20
-38.400000000000006
30
0
11
-47.300000000000004
21
-35.5
31
0
0
CIRCLE
5
370
100
AcDbEntity
8
0
100
AcDbCircle
10
-57.500000000000007
20
-31
30
0
40
0.89999999999999991
210
0
220
0
230
1
0
CIRCLE
5
371
100
AcDbEntity
8
0
100
AcDbCircle
10
-52
20
-31
30
0
40
2.6000000000000001
210
0
220
0
230
1
0
CIRCLE
5
372
100
AcDbEntity
8
0
100
AcDbCircle
10
-46.5
20
-31
30
0
40
0.89999999999999991
210
0
220
0
230
1
0
LINE
5
373
100
AcDbEntity
8
0
100
AcDbLine
10
-118.70000000000002
20
-53.299999999999997
30
0
11
-118.70000000000002
21
-56.300000000000011
31
0
0
LINE
5
374
100
AcDbEntity
8
0
100
AcDbLine
10
-118.70000000000002
20
-56.300000000000011
30
0
11
-116.8
21
-56.300000000000011
31
0
0
LINE
5
375
100
AcDbEntity
8
0
100
AcDbLine
10
-116.8
20
-52.300000000000004
30
0
11
-116.8
21
-53.299999999999997
31
0
0
LINE
5
376
100
AcDbEntity
8
0
100
AcDbLine
10
-116.8
20
-53.299999999999997
30
0
11
-118.70000000000002
21
-53.299999999999997
31
0
0
LINE
5
377
100
AcDbEntity
8
0
100
AcDbLine
10
-116.8
20
-56.300000000000011
30
0
11
-116.8
21
-57.300000000000004
31
0
0
LINE
5
378
100
AcDbEntity
8
0
100
AcDbLine
10
-116.8
20
-57.300000000000004
30
0
11
-113.40000000000001
21
-57.300000000000004
31
0
0
LINE
5
379
100
AcDbEntity
8
0
100
AcDbLine
10
-115.40000000000003
20
-51
30
0
11
-115.40000000000003
21
-52.300000000000004
31
0
0
LINE
5
380
100
AcDbEntity
8
0
100
AcDbLine
10
-115.40000000000003
20
-52.300000000000004
30
0
11
-116.8
21
-52.300000000000004
31
0
0
LINE
5
381
100
AcDbEntity
8
0
100
AcDbLine
10
-113.59999999999999
20
-51
30
0
11
-113.59999999999999
21
-52.300000000000004
31
0
0
LINE
5
382
100
AcDbEntity
8
0
100
AcDbLine
10
-113.59999999999999
20
-52.300000000000004
30
0
11
-111.59999999999999
21
-52.300000000000004
31
0
0
LINE
5
383
100
AcDbEntity
8
0
100
AcDbLine
10
-111.59999999999999
20
-52.300000000000004
30
0
11
-111.59999999999999
21
-51
31
0
0
LINE
5
384
100
AcDbEntity
8
0
100
AcDbLine
10
-111.29999999999998
20
-59.600000000000009
30
0
11
-113.40000000000001
21
-57.300000000000004
31
0
0
LINE
5
385
100
AcDbEntity
8
0
100
AcDbLine
10
-111.29999999999998
20
-59.600000000000009
30
0
11
-106.40000000000001
21
-59.600000000000009
31
0
0
LINE
5
386
100
AcDbEntity
8
0
100
AcDbLine
10
-106.40000000000001
20
-51
30
0
11
-106.40000000000001
21
-55.500000000000007
31
0
0
LINE
5
387
100
AcDbEntity
8
0
100
AcDbLine
10
-106.40000000000001
20
-58.399999999999999
30
0
11
-104.3
21
-58.399999999999999
31
0
0
LINE
5
388
100
AcDbEntity
8
0
100
AcDbLine
10
-106.40000000000001
20
-59.600000000000009
30
0
11
-106.40000000000001
21
-58.399999999999999
31
0
0
LINE
5
389
100
AcDbEntity
8
0
100
AcDbLine
10
-104.3
20
-55.500000000000007
30
0
11
-106.40000000000001
21
-55.500000000000007
31
0
0
LINE
5
390
100
AcDbEntity
8
0
100
AcDbLine
10
-104.3
20
-58.399999999999999
30
0
11
-104.3
21
-55.500000000000007
31
0
0
CIRCLE
5
391
100
AcDbEntity
8
0
100
AcDbCircle
10
-114.5
20
-51
30
0
40
0.89999999999999991
210
0
220
0
230
1
0
CIRCLE
5
392
100
AcDbEntity
8
0
100
AcDbCircle
10
-109.00000000000003
20
-51
30
0
40
2.6000000000000001
210
0
220
0
230
1
0
CIRCLE
5
393
100
AcDbEntity
8
0
100
AcDbCircle
10
-103.50000000000001
20
-51
30
0
40
0.89999999999999991
210
0
220
0
230
1
0
LINE
5
394
100
AcDbEntity
8
0
100
AcDbLine
10
-61.70000000000001
20
-17.300000000000001
30
0
11
-61.70000000000001
21
-20.300000000000004
31
0
0
LINE
5
395
100
AcDbEntity
8
0
100
AcDbLine
10
-61.70000000000001
20
-20.300000000000004
30
0
11
-59.800000000000004
21
-20.300000000000004
31
0
0
LINE
5
396
100
AcDbEntity
8
0
100
AcDbLine
10
-59.800000000000004
20
-16.299999999999997
30
0
11
-59.800000000000004
21
-17.300000000000001
31
0
0
LINE
5
397
100
AcDbEntity
8
0
100
AcDbLine
10
-59.800000000000004
20
-17.300000000000001
30
0
11
-61.70000000000001
21
-17.300000000000001
31
0
0
LINE
5
398
100
AcDbEntity
8
0
100
AcDbLine
10
-59.800000000000004
20
-20.300000000000004
30
0
11
-59.800000000000004
21
-21.300000000000004
31
0
0
LINE
5
399
100
AcDbEntity
8
0
100
AcDbLine
10
-59.800000000000004
20
-21.300000000000004
30
0
11
-56.400000000000006
21
-21.300000000000004
31
0
0
LINE
5
400
100
AcDbEntity
8
0
100
AcDbLine
10
-58.400000000000006
20
-15.000000000000002
30
0
11
-58.400000000000006
21
-16.299999999999997
31
0
0
LINE
5
401
100
AcDbEntity
8
0
100
AcDbLine
10
-58.400000000000006
20
-16.299999999999997
30
0
11
-59.800000000000004
21
-16.299999999999997
31
0
0
LINE
5
402
100
AcDbEntity
8
0
100
AcDbLine
10
-56.600000000000009
20
-15.000000000000002
30
0
11
-56.600000000000009
21
-16.299999999999997
31
0
0
LINE
5
403
100
AcDbEntity
8
0
100
AcDbLine
10
-56.600000000000009
20
-16.299999999999997
30
0
11
-54.600000000000009
21
-16.299999999999997
31
0
0
LINE
5
404
100
AcDbEntity
8
0
100
AcDbLine
10
-54.600000000000009
20
-16.299999999999997
30
0
11
-54.600000000000009
21
-15.000000000000002
31
0
0
LINE
5
405
100
AcDbEntity
8
0
100
AcDbLine
10
-54.300000000000004
20
-23.600000000000001
30
0
11
-56.400000000000006
21
-21.300000000000004
31
0
0
LINE
5
406
100
AcDbEntity
8
0
100
AcDbLine
10
-54.300000000000004
20
-23.600000000000001
30
0
11
-49.400000000000006
21
-23.600000000000001
31
0
0
LINE
5
407
100
AcDbEntity
8
0
100
AcDbLine
10
-49.400000000000006
20
-15.000000000000002
30
0
11
-49.400000000000006
21
-19.5
31
0
0
LINE
5
408
100
AcDbEntity
8
0
100
AcDbLine
10
-49.400000000000006
20
-22.400000000000002
30
0
11
-47.300000000000004
21
-22.400000000000002
31
0
0
LINE
5
409
100
AcDbEntity
8
0
100
AcDbLine
10
-49.400000000000006
20
-23.600000000000001
30
0
11
-49.400000000000006
21
-22.400000000000002
31
0
0
LINE
5
410
100
AcDbEntity
8
0
100
AcDbLine
10
-47.300000000000004
20
-19.5
30
0
11
-49.400000000000006
21
-19.5
31
0
0
LINE
5
411
100
AcDbEntity
8
0
100
AcDbLine
10
-47.300000000000004
20
-22.400000000000002
30
0
11
-47.300000000000004
21
-19.5
31
0
0
CIRCLE
5
412
100
AcDbEntity
8
0
100
AcDbCircle
10
-57.500000000000007
20
-15.000000000000002
30
0
40
0.89999999999999991
210
0
220
0
230
1
0
CIRCLE
5
413
100
AcDbEntity
8
0
100
AcDbCircle
10
-52
20
-15.000000000000002
30
0
40
2.6000000000000001
210
0
220
0
230
1
0
CIRCLE
5
414
100
AcDbEntity
8
0
100
AcDbCircle
10
-46.5
20
-15.000000000000002
30
0
40
0.89999999999999991
210
0
220
0
230
1
0
LINE
5
415
100
AcDbEntity
8
0
100
AcDbLine
10
-26.101665000000004
20
-76.843698000000003
30
0
11
-27.127725000000005
21
-79.662774999999982
31
0
0
LINE
5
416
100
AcDbEntity
8
0
100
AcDbLine
10
-27.127725000000005
20
-79.662774999999982
30
0
11
-25.342309000000004
21
-80.312613999999982
31
0
0
LINE
5
417
100
AcDbEntity
8
0
100
AcDbLine
10
-23.974229000000005
20
-76.553843000000001
30
0
11
-24.316248999999999
21
-77.493535999999992
31
0
0
LINE
5
418
100
AcDbEntity
8
0
100
AcDbLine
10
-24.316248999999999
20
-77.493535999999992
30
0
11
-26.101665000000004
21
-76.843698000000003
31
0
0
LINE
5
419
100
AcDbEntity
8
0
100
AcDbLine
10
-25.342309000000004
20
-80.312613999999982
30
0
11
-25.684329000000005
21
-81.252305999999976
31
0
0
LINE
5
420
100
AcDbEntity
8
0
100
AcDbLine
10
-25.684329000000005
20
-81.252305999999976
30
0
11
-22.489374000000005
21
-82.415174999999991
31
0
0
LINE
5
421
100
AcDbEntity
8
0
100
AcDbLine
10
-22.214033000000004
20
-75.811070999999998
30
0
11
-22.658659
21
-77.032670999999993
31
0
0
LINE
5
422
100
AcDbEntity
8
0
100
AcDbLine
10
-22.658659
20
-77.032670999999993
30
0
11
-23.974229000000005
21
-76.553843000000001
31
0
0
LINE
5
423
100
AcDbEntity
8
0
100
AcDbLine
10
-20.522586000000004
20
-76.426706999999993
30
0
11
-20.967212000000004
21
-77.648308
31
0
0
LINE
5
424
100
AcDbEntity
8
0
100
AcDbLine
10
-20.967212000000004
20
-77.648308
30
0
11
-19.087827000000004
21
-78.332347999999982
31
0
0
LINE
5
425
100
AcDbEntity
8
0
100
AcDbLine
10
-19.087827000000004
20
-78.332347999999982
30
0
11
-18.643201000000005
21
-77.110748000000001
31
0
0
LINE
5
426
100
AcDbEntity
8
0
100
AcDbLine
10
-21.302666000000002
20
-85.294709999999981
30
0
11
-22.489374000000005
21
-82.415174999999991
31
0
0
LINE
5
427
100
AcDbEntity
8
0
100
AcDbLine
10
-21.302666000000002
20
-85.294709999999981
30
0
11
-16.698172000000003
21
-86.970608999999982
31
0
0
LINE
5
428
100
AcDbEntity
8
0
100
AcDbLine
10
-13.756799000000004
20
-78.889252000000013
30
0
11
-15.295890000000004
21
-83.117868999999999
31
0
0
LINE
5
429
100
AcDbEntity
8
0
100
AcDbLine
10
-16.287748000000004
20
-85.842978000000002
30
0
11
-14.314394000000004
21
-86.561219999999992
31
0
0
LINE
5
430
100
AcDbEntity
8
0
100
AcDbLine
10
-16.698172000000003
20
-86.970608999999982
30
0
11
-16.287748000000004
21
-85.842978000000002
31
0
0
LINE
5
431
100
AcDbEntity
8
0
100
AcDbLine
10
-13.322535000000002
20
-83.836110999999988
30
0
11
-15.295890000000004
21
-83.117868999999999
31
0
0
LINE
5
432
100
AcDbEntity
8
0
100
AcDbLine
10
-14.314394000000004
20
-86.561219999999992
30
0
11
-13.322535000000002
21
-83.836110999999988
31
0
0
CIRCLE
5
433
100
AcDbEntity
8
0
100
AcDbCircle
10
-21.368309
20
-76.118888999999982
30
0
40
0.89999999999999991
210
0
220
0
230
1
0
CIRCLE
5
434
100
AcDbEntity
8
0
100
AcDbCircle
10
-16.200000000000003
20
-78
30
0
40
2.6000000000000001
210
0
220
0
230
1
0
CIRCLE
5
435
100
AcDbEntity
8
0
100
AcDbCircle
10
-11.031691000000004
20
-79.881110999999976
30
0
40
0.90000100000000005
210
0
220
0
230
1
0
LINE
5
436
100
AcDbEntity
8
0
100
AcDbLine
10
-61.70000000000001
20
-49.299999999999997
30
0
11
-61.70000000000001
21
-52.300000000000004
31
0
0
LINE
5
437
100
AcDbEntity
8
0
100
AcDbLine
10
-61.70000000000001
20
-52.300000000000004
30
0
11
-59.800000000000004
21
-52.300000000000004
31
0
0
LINE
5
438
100
AcDbEntity
8
0
100
AcDbLine
10
-59.800000000000004
20
-48.299999999999997
30
0
11
-59.800000000000004
21
-49.299999999999997
31
0
0
LINE
5
439
100
AcDbEntity
8
0
100
AcDbLine
10
-59.800000000000004
20
-49.299999999999997
30
0
11
-61.70000000000001
21
-49.299999999999997
31
0
0
LINE
5
440
100
AcDbEntity
8
0
100
AcDbLine
10
-59.800000000000004
20
-52.300000000000004
30
0
11
-59.800000000000004
21
-53.299999999999997
31
0
0
LINE
5
441
100
AcDbEntity
8
0
100
AcDbLine
10
-59.800000000000004
20
-53.299999999999997
30
0
11
-56.400000000000006
21
-53.299999999999997
31
0
0
LINE
5
442
100
AcDbEntity
8
0
100
AcDbLine
10
-58.400000000000006
20
-47.000000000000014
30
0
11
-58.400000000000006
21
-48.299999999999997
31
0
0
LINE
5
443
100
AcDbEntity
8
0
100
AcDbLine
10
-58.400000000000006
20
-48.299999999999997
30
0
11
-59.800000000000004
21
-48.299999999999997
31
0
0
LINE
5
444
100
AcDbEntity
8
0
100
AcDbLine
10
-56.600000000000009
20
-47.000000000000014
30
0
11
-56.600000000000009
21
-48.299999999999997
31
0
0
LINE
5
445
100
AcDbEntity
8
0
100
AcDbLine
10
-56.600000000000009
20
-48.299999999999997
30
0
11
-54.600000000000009
21
-48.299999999999997
31
0
0
LINE
5
446
100
AcDbEntity
8
0
100
AcDbLine
10
-54.600000000000009
20
-48.299999999999997
30
0
11
-54.600000000000009
21
-47.000000000000014
31
0
0
LINE
5
447
100
AcDbEntity
8
0
100
AcDbLine
10
-54.300000000000004
20
-55.600000000000009
30
0
11
-56.400000000000006
21
-53.299999999999997
31
0
0
LINE
5
448
100
AcDbEntity
8
0
100
AcDbLine
10
-54.300000000000004
20
-55.600000000000009
30
0
11
-49.400000000000006
21
-55.600000000000009
31
0
0
LINE
5
449
100
AcDbEntity
8
0
100
AcDbLine
10
-49.400000000000006
20
-47.000000000000014
30
0
11
-49.400000000000006
21
-51.5
31
0
0
LINE
5
450
100
AcDbEntity
8
0
100
AcDbLine
10
-49.400000000000006
20
-54.399999999999991
30
0
11
-47.300000000000004
21
-54.399999999999991
31
0
0
LINE
5
451
100
AcDbEntity
8
0
100
AcDbLine
10
-49.400000000000006
20
-55.600000000000009
30
0
11
-49.400000000000006
21
-54.399999999999991
31
0
0
LINE
5
452
100
AcDbEntity
8
0
100
AcDbLine
10
-47.300000000000004
20
-51.5
30
0
11
-49.400000000000006
21
-51.5
31
0
0
LINE
5
453
100
AcDbEntity
8
0
100
AcDbLine
10
-47.300000000000004
20
-54.399999999999991
30
0
11
-47.300000000000004
21
-51.5
31
0
0
CIRCLE
5
454
100
AcDbEntity
8
0
100
AcDbCircle
10
-57.500000000000007
20
-47.000000000000014
30
0
40
0.89999999999999991
210
0
220
0
230
1
0
CIRCLE
5
455
100
AcDbEntity
8
0
100
AcDbCircle
10
-52
20
-47.000000000000014
30
0
40
2.6000000000000001
210
0
220
0
230
1
0
CIRCLE
5
456
100
AcDbEntity
8
0
100
AcDbCircle
10
-46.5
20
-47.000000000000014
30
0
40
0.89999999999999991
210
0
220
0
230
1
0
LINE
5
457
100
AcDbEntity
8
0
100
AcDbLine
10
-80.700000000000003
20
-11.300000000000001
30
0
11
-80.700000000000003
21
-14.300000000000001
31
0
0
LINE
5
458
100
AcDbEntity
8
0
100
AcDbLine
10
-80.700000000000003
20
-14.300000000000001
30
0
11
-78.799999999999983
21
-14.300000000000001
31
0
0
LINE
5
459
100
AcDbEntity
8
0
100
AcDbLine
10
-78.799999999999983
20
-10.300000000000002
30
0
11
-78.799999999999983
21
-11.300000000000001
31
0
0
LINE
5
460
100
AcDbEntity
8
0
100
AcDbLine
10
-78.799999999999983
20
-11.300000000000001
30
0
11
-80.700000000000003
21
-11.300000000000001
31
0
0
LINE
5
461
100
AcDbEntity
8
0
100
AcDbLine
10
-78.799999999999983
20
-14.300000000000001
30
0
11
-78.799999999999983
21
-15.300000000000002
31
0
0
LINE
5
462
100
AcDbEntity
8
0
100
AcDbLine
10
-78.799999999999983
20
-15.300000000000002
30
0
11
-75.400000000000006
21
-15.300000000000002
31
0
0
LINE
5
463
100
AcDbEntity
8
0
100
AcDbLine
10
-77.399999999999991
20
-9.0000000000000018
30
0
11
-77.399999999999991
21
-10.300000000000002
31
0
0
LINE
5
464
100
AcDbEntity
8
0
100
AcDbLine
10
-77.399999999999991
20
-10.300000000000002
30
0
11
-78.799999999999983
21
-10.300000000000002
31
0
0
LINE
5
465
100
AcDbEntity
8
0
100
AcDbLine
10
-75.599999999999994
20
-9.0000000000000018
30
0
11
-75.599999999999994
21
-10.300000000000002
31
0
0
LINE
5
466
100
AcDbEntity
8
0
100
AcDbLine
10
-75.599999999999994
20
-10.300000000000002
30
0
11
-73.59999999999998
21
-10.300000000000002
31
0
0
LINE
5
467
100
AcDbEntity
8
0
100
AcDbLine
10
-73.59999999999998
20
-10.300000000000002
30
0
11
-73.59999999999998
21
-9.0000000000000018
31
0
0
LINE
5
468
100
AcDbEntity
8
0
100
AcDbLine
10
-73.299999999999997
20
-17.600000000000001
30
0
11
-75.400000000000006
21
-15.300000000000002
31
0
0
LINE
5
469
100
AcDbEntity
8
0
100
AcDbLine
10
-73.299999999999997
20
-17.600000000000001
30
0
11
-68.400000000000006
21
-17.600000000000001
31
0
0
LINE
5
470
100
AcDbEntity
8
0
100
AcDbLine
10
-68.400000000000006
20
-9.0000000000000018
30
0
11
-68.400000000000006
21
-13.5
31
0
0
LINE
5
471
100
AcDbEntity
8
0
100
AcDbLine
10
-68.400000000000006
20
-16.399999999999999
30
0
11
-66.299999999999997
21
-16.399999999999999
31
0
0
LINE
5
472
100
AcDbEntity
8
0
100
AcDbLine
10
-68.400000000000006
20
-17.600000000000001
30
0
11
-68.400000000000006
21
-16.399999999999999
31
0
0
LINE
5
473
100
AcDbEntity
8
0
100
AcDbLine
10
-66.299999999999997
20
-13.5
30
0
11
-68.400000000000006
21
-13.5
31
0
0
LINE
5
474
100
AcDbEntity
8
0
100
AcDbLine
10
-66.299999999999997
20
-16.399999999999999
30
0
11
-66.299999999999997
21
-13.5
31
0
0
CIRCLE
5
475
100
AcDbEntity
8
0
100
AcDbCircle
10
-76.5
20
-9.0000000000000018
30
0
40
0.89999999999999991
210
0
220
0
230
1
0
CIRCLE
5
476
100
AcDbEntity
8
0
100
AcDbCircle
10
-71
20
-9.0000000000000018
30
0
40
2.6000000000000001
210
0
220
0
230
1
0
CIRCLE
5
477
100
AcDbEntity
8
0
100
AcDbCircle
10
-65.5
20
-9.0000000000000018
30
0
40
0.89999999999999991
210
0
220
0
230
1
0
ENDSEC
0
SECTION
2
OBJECTS
0
DICTIONARY
5
C
100
AcDbDictionary
3
ACAD_GROUP
350
D
3
ACAD_MLINESTYLE
350
17
0
DICTIONARY
5
D
100
AcDbDictionary
0
DICTIONARY
5
1A
330
C
100
AcDbDictionary
0
DICTIONARY
5
17
100
AcDbDictionary
0
ENDSEC
0
EOF
